<?xml version="1.0" encoding="UTF-8"?>
<svg xmlns="http://www.w3.org/2000/svg" xmlns:xlink="http://www.w3.org/1999/xlink" width="32px" height="32px" viewBox="0 0 32 32" version="1.1">
<g id="surface1">
<path style=" stroke:none;fill-rule:evenodd;fill:rgb(100%,41.568628%,40.000001%);fill-opacity:1;" d="M 5 4.898438 L 27 4.898438 C 27.554688 4.898438 28 5.367188 28 5.945312 C 28 6.53125 27.554688 7 27 7 L 5 7 C 4.445312 7 4 6.53125 4 5.945312 C 4 5.367188 4.445312 4.898438 5 4.898438 Z M 5 4.898438 "/>
<path style=" stroke:none;fill-rule:evenodd;fill:rgb(100%,41.568628%,40.000001%);fill-opacity:1;" d="M 5 9 L 21 9 C 21.554688 9 22 9.46875 22 10.054688 C 22 10.632812 21.554688 11.101562 21 11.101562 L 5 11.101562 C 4.445312 11.101562 4 10.632812 4 10.054688 C 4 9.46875 4.445312 9 5 9 Z M 5 9 "/>
<path style=" stroke:none;fill-rule:evenodd;fill:rgb(100%,41.568628%,40.000001%);fill-opacity:1;" d="M 5 13 L 15 13 C 15.554688 13 16 13.46875 16 14.054688 C 16 14.632812 15.554688 15.101562 15 15.101562 L 5 15.101562 C 4.445312 15.101562 4 14.632812 4 14.054688 C 4 13.46875 4.445312 13 5 13 Z M 5 13 "/>
<path style=" stroke:none;fill-rule:evenodd;fill:rgb(100%,41.568628%,40.000001%);fill-opacity:1;" d="M 5 17 L 25 17 C 25.554688 17 26 17.46875 26 18.054688 C 26 18.632812 25.554688 19.101562 25 19.101562 L 5 19.101562 C 4.445312 19.101562 4 18.632812 4 18.054688 C 4 17.46875 4.445312 17 5 17 Z M 5 17 "/>
<path style=" stroke:none;fill-rule:evenodd;fill:rgb(100%,41.568628%,40.000001%);fill-opacity:1;" d="M 5 21 L 21 21 C 21.554688 21 22 21.46875 22 22.054688 C 22 22.632812 21.554688 23.101562 21 23.101562 L 5 23.101562 C 4.445312 23.101562 4 22.632812 4 22.054688 C 4 21.46875 4.445312 21 5 21 Z M 5 21 "/>
<path style=" stroke:none;fill-rule:evenodd;fill:rgb(100%,41.568628%,40.000001%);fill-opacity:1;" d="M 5 25 L 23 25 C 23.554688 25 24 25.46875 24 26.054688 C 24 26.632812 23.554688 27.101562 23 27.101562 L 5 27.101562 C 4.445312 27.101562 4 26.632812 4 26.054688 C 4 25.46875 4.445312 25 5 25 Z M 5 25 "/>
</g>
</svg>
