<?xml version="1.0" encoding="UTF-8"?>
<svg xmlns="http://www.w3.org/2000/svg" xmlns:xlink="http://www.w3.org/1999/xlink" width="32px" height="32px" viewBox="0 0 32 32" version="1.1">
<g id="surface1">
<path style=" stroke:none;fill-rule:evenodd;fill:rgb(100%,41.568628%,40.000001%);fill-opacity:1;" d="M 5 4.898438 L 27 4.898438 C 27.554688 4.898438 28 5.367188 28 5.945312 C 28 6.53125 27.554688 7 27 7 L 5 7 C 4.445312 7 4 6.53125 4 5.945312 C 4 5.367188 4.445312 4.898438 5 4.898438 Z M 5 4.898438 "/>
<path style=" stroke:none;fill-rule:evenodd;fill:rgb(100%,41.568628%,40.000001%);fill-opacity:1;" d="M 7 9 L 25 9 C 25.554688 9 26 9.46875 26 10.054688 C 26 10.632812 25.554688 11.101562 25 11.101562 L 7 11.101562 C 6.445312 11.101562 6 10.632812 6 10.054688 C 6 9.46875 6.445312 9 7 9 Z M 7 9 "/>
<path style=" stroke:none;fill-rule:evenodd;fill:rgb(100%,41.568628%,40.000001%);fill-opacity:1;" d="M 9 13 L 23 13 C 23.554688 13 24 13.46875 24 14.054688 C 24 14.632812 23.554688 15.101562 23 15.101562 L 9 15.101562 C 8.445312 15.101562 8 14.632812 8 14.054688 C 8 13.46875 8.445312 13 9 13 Z M 9 13 "/>
<path style=" stroke:none;fill-rule:evenodd;fill:rgb(100%,41.568628%,40.000001%);fill-opacity:1;" d="M 6 17 L 26 17 C 26.554688 17 27 17.46875 27 18.054688 C 27 18.632812 26.554688 19.101562 26 19.101562 L 6 19.101562 C 5.445312 19.101562 5 18.632812 5 18.054688 C 5 17.46875 5.445312 17 6 17 Z M 6 17 "/>
<path style=" stroke:none;fill-rule:evenodd;fill:rgb(100%,41.568628%,40.000001%);fill-opacity:1;" d="M 9 21 L 23 21 C 23.554688 21 24 21.46875 24 22.054688 C 24 22.632812 23.554688 23.101562 23 23.101562 L 9 23.101562 C 8.445312 23.101562 8 22.632812 8 22.054688 C 8 21.46875 8.445312 21 9 21 Z M 9 21 "/>
<path style=" stroke:none;fill-rule:evenodd;fill:rgb(100%,41.568628%,40.000001%);fill-opacity:1;" d="M 6 25 L 26 25 C 26.554688 25 27 25.46875 27 26.054688 C 27 26.632812 26.554688 27.101562 26 27.101562 L 6 27.101562 C 5.445312 27.101562 5 26.632812 5 26.054688 C 5 25.46875 5.445312 25 6 25 Z M 6 25 "/>
</g>
</svg>
