<?xml version="1.0" encoding="UTF-8"?>
<svg xmlns="http://www.w3.org/2000/svg" xmlns:xlink="http://www.w3.org/1999/xlink" width="32px" height="32px" viewBox="0 0 32 32" version="1.1">
<g id="surface1">
<path style=" stroke:none;fill-rule:nonzero;fill:rgb(27.843139%,80.392158%,77.64706%);fill-opacity:1;" d="M 25.726562 13.828125 L 25.726562 28.03125 C 25.726562 29.203125 24.773438 30.15625 23.601562 30.15625 L 6.132812 30.15625 C 5.132812 30.15625 4.289062 29.460938 4.070312 28.523438 L 4.0625 27.3125 L 4.007812 20.070312 L 4.007812 5.789062 C 4.007812 4.609375 4.960938 3.664062 6.132812 3.664062 L 15.554688 3.664062 C 16.398438 3.664062 19.140625 6 21.5625 8.460938 C 23.773438 10.710938 25.726562 13.054688 25.726562 13.828125 Z M 25.726562 13.828125 "/>
<path style=" stroke:none;fill-rule:nonzero;fill:rgb(86.666667%,91.764706%,98.431373%);fill-opacity:1;" d="M 28.0625 12.195312 L 28.0625 26.390625 C 28.0625 27.570312 27.109375 28.515625 25.9375 28.515625 L 8.46875 28.515625 C 7.46875 28.515625 6.625 27.820312 6.40625 26.890625 L 6.390625 25.671875 L 6.34375 18.4375 L 6.34375 4.148438 C 6.34375 2.976562 7.296875 2.023438 8.46875 2.023438 L 17.890625 2.023438 C 18.734375 2.023438 21.476562 4.359375 23.898438 6.820312 C 26.109375 9.070312 28.0625 11.421875 28.0625 12.195312 Z M 28.0625 12.195312 "/>
<path style=" stroke:none;fill-rule:nonzero;fill:rgb(79.607844%,88.627452%,100%);fill-opacity:1;" d="M 28.0625 12.195312 L 28.0625 17.398438 C 28.0625 17.390625 28.054688 17.382812 28.054688 17.375 C 27.898438 10.992188 22.703125 10.703125 21 9 L 23.898438 6.820312 C 26.109375 9.070312 28.0625 11.421875 28.0625 12.195312 Z M 28.0625 12.195312 "/>
<path style=" stroke:none;fill-rule:nonzero;fill:rgb(79.607844%,88.627452%,100%);fill-opacity:1;" d="M 17.890625 2.023438 L 12.6875 2.023438 C 12.695312 2.023438 12.703125 2.023438 12.703125 2.023438 C 19.085938 2.1875 19.382812 7.382812 21.085938 9.085938 L 23.257812 6.179688 C 21.015625 3.96875 18.664062 2.023438 17.890625 2.023438 Z M 17.890625 2.023438 "/>
<path style=" stroke:none;fill-rule:nonzero;fill:rgb(27.843139%,80.392158%,77.64706%);fill-opacity:1;" d="M 28.0625 12.195312 L 28.0625 13.09375 C 28.0625 11.203125 26.523438 9.664062 24.632812 9.664062 L 22.546875 9.664062 C 21.367188 9.664062 20.421875 8.710938 20.421875 7.539062 L 20.421875 5.453125 C 20.421875 3.5625 18.882812 2.023438 16.992188 2.023438 L 17.890625 2.023438 C 19.507812 2.023438 21.0625 2.671875 22.203125 3.8125 L 26.273438 7.875 C 27.414062 9.023438 28.0625 10.578125 28.0625 12.195312 Z M 28.0625 12.195312 "/>
<path style=" stroke:none;fill-rule:nonzero;fill:rgb(100%,41.568628%,40.000001%);fill-opacity:1;" d="M 25.242188 16.375 L 9.15625 16.375 C 8.890625 16.375 8.664062 16.15625 8.664062 15.882812 C 8.664062 15.609375 8.890625 15.382812 9.15625 15.382812 L 25.242188 15.382812 C 25.515625 15.382812 25.734375 15.609375 25.734375 15.882812 C 25.734375 16.15625 25.515625 16.375 25.242188 16.375 Z M 25.242188 16.375 "/>
<path style=" stroke:none;fill-rule:nonzero;fill:rgb(100%,41.568628%,40.000001%);fill-opacity:1;" d="M 25.242188 18.726562 L 9.15625 18.726562 C 8.890625 18.726562 8.664062 18.507812 8.664062 18.234375 C 8.664062 17.960938 8.890625 17.742188 9.15625 17.742188 L 25.242188 17.742188 C 25.515625 17.742188 25.734375 17.960938 25.734375 18.234375 C 25.734375 18.507812 25.515625 18.726562 25.242188 18.726562 Z M 25.242188 18.726562 "/>
<path style=" stroke:none;fill-rule:nonzero;fill:rgb(100%,41.568628%,40.000001%);fill-opacity:1;" d="M 25.242188 21.078125 L 9.15625 21.078125 C 8.890625 21.078125 8.664062 20.859375 8.664062 20.585938 C 8.664062 20.3125 8.890625 20.09375 9.15625 20.09375 L 25.242188 20.09375 C 25.515625 20.09375 25.734375 20.3125 25.734375 20.585938 C 25.734375 20.859375 25.515625 21.078125 25.242188 21.078125 Z M 25.242188 21.078125 "/>
<path style=" stroke:none;fill-rule:nonzero;fill:rgb(100%,41.568628%,40.000001%);fill-opacity:1;" d="M 15.070312 23.4375 L 9.15625 23.4375 C 8.890625 23.4375 8.664062 23.210938 8.664062 22.9375 C 8.664062 22.664062 8.890625 22.445312 9.15625 22.445312 L 15.070312 22.445312 C 15.34375 22.445312 15.5625 22.664062 15.5625 22.9375 C 15.5625 23.210938 15.34375 23.4375 15.070312 23.4375 Z M 15.070312 23.4375 "/>
<path style=" stroke:none;fill-rule:nonzero;fill:rgb(100%,41.568628%,40.000001%);fill-opacity:1;" d="M 15.070312 9.851562 L 9.15625 9.851562 C 8.890625 9.851562 8.664062 9.625 8.664062 9.351562 C 8.664062 9.078125 8.890625 8.859375 9.15625 8.859375 L 15.070312 8.859375 C 15.34375 8.859375 15.5625 9.078125 15.5625 9.351562 C 15.5625 9.625 15.34375 9.851562 15.070312 9.851562 Z M 15.070312 9.851562 "/>
</g>
</svg>
