<?xml version="1.0" encoding="UTF-8"?>
<svg xmlns="http://www.w3.org/2000/svg" xmlns:xlink="http://www.w3.org/1999/xlink" width="32px" height="32px" viewBox="0 0 32 32" version="1.1">
<g id="surface1">
<path style=" stroke:none;fill-rule:nonzero;fill:rgb(81.568629%,81.568629%,85.09804%);fill-opacity:1;" d="M 16 21.171875 L 15.328125 22.101562 L 11.140625 19.070312 L 23.34375 2 C 25.664062 3.671875 26.1875 6.90625 24.515625 9.226562 Z M 16 21.171875 "/>
<path style=" stroke:none;fill-rule:nonzero;fill:rgb(74.901962%,74.901962%,78.039217%);fill-opacity:1;" d="M 23.34375 2 L 22.382812 3.34375 C 23.53125 5.085938 23.554688 7.429688 22.265625 9.226562 L 13.8125 21 L 15.328125 22.101562 L 16 21.171875 L 24.515625 9.226562 C 26.1875 6.90625 25.664062 3.671875 23.34375 2 Z M 23.34375 2 "/>
<path style=" stroke:none;fill-rule:nonzero;fill:rgb(92.941177%,92.941177%,97.254902%);fill-opacity:1;" d="M 16.429688 21.773438 L 20.632812 18.75 L 8.585938 2 C 6.265625 3.671875 5.734375 6.90625 7.40625 9.226562 Z M 16.429688 21.773438 "/>
<path style=" stroke:none;fill-rule:nonzero;fill:rgb(85.490197%,85.490197%,89.019608%);fill-opacity:1;" d="M 8.585938 2 C 8.0625 2.375 7.640625 2.828125 7.304688 3.328125 L 19.320312 20.023438 L 16.570312 21.96875 L 20.796875 18.976562 Z M 8.585938 2 "/>
<path style=" stroke:none;fill-rule:nonzero;fill:rgb(27.843139%,80.392158%,77.64706%);fill-opacity:1;" d="M 29.046875 22 C 27.4375 19.773438 24.351562 19.242188 22.101562 20.78125 L 20.632812 18.75 L 16.429688 21.773438 L 20.367188 27.234375 L 20.851562 27.898438 C 22.484375 30.164062 25.640625 30.671875 27.898438 29.046875 C 30.164062 27.414062 30.679688 24.257812 29.046875 22 Z M 26.609375 27.257812 C 25.34375 28.171875 23.578125 27.882812 22.664062 26.617188 C 21.75 25.34375 22.03125 23.578125 23.304688 22.664062 C 24.570312 21.75 26.34375 22.039062 27.257812 23.304688 C 28.171875 24.578125 27.882812 26.34375 26.609375 27.257812 Z M 26.609375 27.257812 "/>
<path style=" stroke:none;fill-rule:nonzero;fill:rgb(27.843139%,80.392158%,77.64706%);fill-opacity:1;" d="M 29.046875 22 C 27.820312 20.304688 25.742188 19.59375 23.820312 20.03125 C 24.976562 20.289062 26.046875 20.960938 26.796875 22 C 27.289062 22.6875 27.585938 23.460938 27.695312 24.25 C 27.820312 24.726562 27.820312 25.234375 27.6875 25.703125 C 27.492188 27 26.796875 28.21875 25.648438 29.046875 C 25.085938 29.453125 24.46875 29.726562 23.828125 29.867188 C 25.195312 30.179688 26.679688 29.929688 27.898438 29.046875 C 30.164062 27.414062 30.679688 24.257812 29.046875 22 Z M 29.046875 22 "/>
<path style=" stroke:none;fill-rule:nonzero;fill:rgb(27.843139%,80.392158%,77.64706%);fill-opacity:1;" d="M 11.367188 18.75 L 9.898438 20.78125 C 7.648438 19.242188 4.5625 19.773438 2.953125 22 C 1.320312 24.257812 1.835938 27.414062 4.101562 29.046875 C 6.359375 30.671875 9.515625 30.164062 11.148438 27.898438 L 11.632812 27.234375 L 15.570312 21.773438 Z M 9.335938 26.617188 C 8.421875 27.882812 6.65625 28.171875 5.390625 27.257812 C 4.117188 26.34375 3.828125 24.578125 4.742188 23.304688 C 5.65625 22.039062 7.429688 21.75 8.695312 22.664062 C 9.96875 23.578125 10.25 25.34375 9.335938 26.617188 Z M 9.335938 26.617188 "/>
<path style=" stroke:none;fill-rule:nonzero;fill:rgb(27.843139%,80.392158%,77.64706%);fill-opacity:1;" d="M 14.046875 20.671875 L 10.148438 26.078125 L 9.664062 26.75 C 8.1875 28.796875 5.445312 29.414062 3.257812 28.28125 C 3.507812 28.5625 3.78125 28.820312 4.101562 29.046875 C 6.359375 30.671875 9.515625 30.164062 11.148438 27.898438 L 11.632812 27.234375 L 15.570312 21.773438 Z M 14.046875 20.671875 "/>
<path style=" stroke:none;fill-rule:nonzero;fill:rgb(47.450981%,47.843137%,51.764709%);fill-opacity:1;" d="M 16.867188 16.84375 C 16.867188 17.320312 16.476562 17.703125 16 17.703125 C 15.523438 17.703125 15.132812 17.320312 15.132812 16.84375 C 15.132812 16.367188 15.523438 15.976562 16 15.976562 C 16.476562 15.976562 16.867188 16.367188 16.867188 16.84375 Z M 16.867188 16.84375 "/>
</g>
</svg>
