<?xml version="1.0" encoding="UTF-8"?>
<svg xmlns="http://www.w3.org/2000/svg" xmlns:xlink="http://www.w3.org/1999/xlink" width="32px" height="32px" viewBox="0 0 32 32" version="1.1">
<g id="surface1">
<path style="fill-rule:evenodd;fill:rgb(100%,100%,100%);fill-opacity:1;stroke-width:2;stroke-linecap:round;stroke-linejoin:round;stroke:rgb(100%,41.568628%,40.000001%);stroke-opacity:1;stroke-miterlimit:4;" d="M 3.984375 3 L 28.015625 3 C 28.570312 3 29.015625 3.390625 29.015625 3.875 L 29.015625 28.125 C 29.015625 28.609375 28.570312 29 28.015625 29 L 3.984375 29 C 3.429688 29 2.984375 28.609375 2.984375 28.125 L 2.984375 3.875 C 2.984375 3.390625 3.429688 3 3.984375 3 Z M 3.984375 3 "/>
<path style=" stroke:none;fill-rule:nonzero;fill:rgb(27.058825%,53.333336%,70.980394%);fill-opacity:1;" d="M 22.726562 12 L 22.726562 15.804688 C 22.726562 16.195312 22.414062 16.507812 22.023438 16.507812 L 19.617188 17.523438 L 15.703125 16.507812 C 15.3125 16.507812 15 16.195312 15 15.804688 L 12.101562 13.820312 L 15 12 C 15 11.609375 15.3125 11.296875 15.703125 11.296875 L 22.023438 11.296875 C 22.414062 11.296875 22.726562 11.609375 22.726562 12 Z M 22.726562 12 "/>
<path style=" stroke:none;fill-rule:nonzero;fill:rgb(41.960785%,61.56863%,77.64706%);fill-opacity:1;" d="M 22.726562 12 L 22.726562 14.054688 C 22.726562 14.445312 22.414062 14.765625 22.023438 14.765625 L 15.703125 14.765625 C 15.3125 14.765625 15 14.445312 15 14.054688 L 15 12 C 15 11.609375 15.3125 11.296875 15.703125 11.296875 L 22.023438 11.296875 C 22.414062 11.296875 22.726562 11.609375 22.726562 12 Z M 22.726562 12 "/>
<path style=" stroke:none;fill-rule:nonzero;fill:rgb(96.862745%,61.960787%,19.215687%);fill-opacity:1;" d="M 23.1875 17.21875 L 23.1875 19.78125 C 23.1875 19.796875 23.1875 19.8125 23.1875 19.828125 C 23.164062 20.195312 22.859375 20.492188 22.484375 20.492188 L 7.265625 20.492188 C 6.875 20.492188 6.5625 20.171875 6.5625 19.78125 L 6.5625 17.21875 C 6.5625 16.914062 6.757812 16.648438 7.023438 16.554688 C 7.101562 16.523438 7.179688 16.507812 7.265625 16.507812 L 22.484375 16.507812 C 22.875 16.507812 23.1875 16.828125 23.1875 17.21875 Z M 23.1875 17.21875 "/>
<path style=" stroke:none;fill-rule:nonzero;fill:rgb(100%,90.196079%,41.960785%);fill-opacity:1;" d="M 23.1875 17.21875 L 23.1875 19.78125 C 23.1875 19.796875 23.1875 19.8125 23.1875 19.828125 C 23.109375 19.859375 23.03125 19.875 22.945312 19.875 L 7.726562 19.875 C 7.335938 19.875 7.023438 19.554688 7.023438 19.164062 L 7.023438 16.601562 C 7.023438 16.585938 7.023438 16.570312 7.023438 16.554688 C 7.101562 16.523438 7.179688 16.507812 7.265625 16.507812 L 22.484375 16.507812 C 22.875 16.507812 23.1875 16.828125 23.1875 17.21875 Z M 23.1875 17.21875 "/>
<path style=" stroke:none;fill-rule:nonzero;fill:rgb(93.725491%,32.549021%,38.039216%);fill-opacity:1;" d="M 13.84375 16.507812 L 14.296875 16.507812 C 14.6875 16.507812 15 16.195312 15 15.804688 L 15 9.140625 C 15 8.757812 14.6875 8.4375 14.296875 8.4375 L 8.039062 8.4375 C 7.648438 8.4375 7.328125 8.757812 7.328125 9.140625 L 7.328125 15.804688 C 7.328125 16.195312 7.648438 16.507812 8.039062 16.507812 L 8.492188 16.507812 "/>
<path style=" stroke:none;fill-rule:nonzero;fill:rgb(86.274511%,25.882354%,31.37255%);fill-opacity:1;" d="M 15 9.125 L 9.0625 9.125 C 8.679688 9.125 8.359375 9.4375 8.359375 9.828125 L 8.359375 16.492188 C 8.359375 16.5 8.359375 16.5 8.359375 16.507812 L 8.039062 16.507812 C 7.648438 16.507812 7.328125 16.195312 7.328125 15.804688 L 7.328125 9.140625 C 7.328125 8.757812 7.648438 8.4375 8.039062 8.4375 L 11.125 7.1875 L 14.296875 8.4375 C 14.679688 8.4375 14.992188 8.742188 15 9.125 Z M 15 9.125 "/>
<path style=" stroke:none;fill-rule:nonzero;fill:rgb(96.862745%,61.960787%,19.215687%);fill-opacity:1;" d="M 16.125 6.171875 L 16.125 7.734375 C 16.125 8.125 15.804688 8.4375 15.414062 8.4375 L 7.265625 8.4375 C 6.875 8.4375 6.5625 8.125 6.5625 7.734375 L 6.5625 6.171875 C 6.5625 5.78125 6.875 5.46875 7.265625 5.46875 L 15.414062 5.46875 C 15.804688 5.46875 16.125 5.78125 16.125 6.171875 Z M 16.125 6.171875 "/>
<path style=" stroke:none;fill-rule:nonzero;fill:rgb(100%,90.196079%,41.960785%);fill-opacity:1;" d="M 16.125 6.171875 L 16.125 7.734375 C 16.125 8.125 15.804688 8.4375 15.414062 8.4375 L 8.773438 8.4375 C 8.382812 8.4375 8.070312 8.125 8.070312 7.734375 L 8.070312 6.171875 C 8.070312 5.78125 8.382812 5.46875 8.773438 5.46875 L 15.414062 5.46875 C 15.804688 5.46875 16.125 5.78125 16.125 6.171875 Z M 16.125 6.171875 "/>
<path style=" stroke:none;fill-rule:nonzero;fill:rgb(40.000001%,40.000001%,40.000001%);fill-opacity:1;" d="M 14.65625 18.757812 C 14.65625 20.6875 13.09375 22.25 11.164062 22.25 C 9.234375 22.25 7.671875 20.6875 7.671875 18.757812 C 7.671875 16.828125 9.234375 15.265625 11.164062 15.265625 C 13.09375 15.265625 14.65625 16.828125 14.65625 18.757812 Z M 14.65625 18.757812 "/>
<path style=" stroke:none;fill-rule:nonzero;fill:rgb(40.000001%,40.000001%,40.000001%);fill-opacity:1;" d="M 21.984375 19.890625 C 21.984375 21.195312 20.921875 22.25 19.617188 22.25 C 18.3125 22.25 17.257812 21.195312 17.257812 19.890625 C 17.257812 18.585938 18.3125 17.523438 19.617188 17.523438 C 20.921875 17.523438 21.984375 18.585938 21.984375 19.890625 Z M 21.984375 19.890625 "/>
<path style=" stroke:none;fill-rule:nonzero;fill:rgb(30.19608%,30.19608%,30.19608%);fill-opacity:1;" d="M 20.609375 19.890625 C 20.609375 20.4375 20.164062 20.875 19.617188 20.875 C 19.070312 20.875 18.632812 20.4375 18.632812 19.890625 C 18.632812 19.34375 19.070312 18.898438 19.617188 18.898438 C 20.164062 18.898438 20.609375 19.34375 20.609375 19.890625 Z M 20.609375 19.890625 "/>
<path style=" stroke:none;fill-rule:nonzero;fill:rgb(30.19608%,30.19608%,30.19608%);fill-opacity:1;" d="M 12.65625 18.757812 C 12.65625 19.578125 11.992188 20.25 11.164062 20.25 C 10.34375 20.25 9.671875 19.578125 9.671875 18.757812 C 9.671875 17.929688 10.34375 17.265625 11.164062 17.265625 C 11.992188 17.265625 12.65625 17.929688 12.65625 18.757812 Z M 12.65625 18.757812 "/>
<path style=" stroke:none;fill-rule:nonzero;fill:rgb(23.921569%,67.843139%,32.156864%);fill-opacity:1;" d="M 21.515625 7.117188 L 21.515625 10.539062 C 21.515625 10.953125 21.179688 11.296875 20.757812 11.296875 L 19.039062 11.296875 C 18.625 11.296875 18.289062 10.953125 18.289062 10.539062 L 18.289062 7.117188 C 18.289062 6.703125 18.625 6.367188 19.039062 6.367188 L 20.757812 6.367188 C 21.179688 6.367188 21.515625 6.703125 21.515625 7.117188 Z M 21.515625 7.117188 "/>
<path style=" stroke:none;fill-rule:nonzero;fill:rgb(30.19608%,75.686276%,40.784314%);fill-opacity:1;" d="M 21.515625 7.117188 L 21.515625 10.539062 C 21.515625 10.953125 21.179688 11.296875 20.757812 11.296875 L 20.328125 11.296875 C 19.90625 11.296875 19.570312 10.953125 19.570312 10.539062 L 19.570312 7.117188 C 19.570312 6.703125 19.90625 6.367188 20.328125 6.367188 L 20.757812 6.367188 C 21.179688 6.367188 21.515625 6.703125 21.515625 7.117188 Z M 21.515625 7.117188 "/>
<path style=" stroke:none;fill-rule:nonzero;fill:rgb(85.490197%,90.196079%,92.941177%);fill-opacity:1;" d="M 13.070312 9.804688 L 9.257812 9.804688 C 8.953125 9.804688 8.710938 10.046875 8.710938 10.351562 L 8.710938 12.132812 C 8.710938 12.4375 8.953125 12.679688 9.257812 12.679688 L 13.070312 12.679688 C 13.375 12.679688 13.625 12.4375 13.625 12.132812 L 13.625 10.351562 C 13.625 10.046875 13.375 9.804688 13.070312 9.804688 Z M 13.070312 9.804688 "/>
<path style="fill-rule:evenodd;fill:rgb(100%,100%,100%);fill-opacity:1;stroke-width:2;stroke-linecap:round;stroke-linejoin:round;stroke:rgb(100%,100%,100%);stroke-opacity:1;stroke-miterlimit:4;" d="M 30.526269 23.105459 C 30.526269 27.191396 27.205956 30.511709 23.120019 30.511709 C 19.026269 30.511709 15.713769 27.191396 15.713769 23.105459 C 15.713769 19.011709 19.026269 15.691396 23.120019 15.691396 C 27.205956 15.691396 30.526269 19.011709 30.526269 23.105459 Z M 30.526269 23.105459 " transform="matrix(1,0,0,1,-0.479394,-0.527334)"/>
<path style="fill-rule:evenodd;fill:rgb(100%,100%,100%);fill-opacity:1;stroke-width:2;stroke-linecap:round;stroke-linejoin:round;stroke:rgb(100%,41.568628%,40.000001%);stroke-opacity:1;stroke-miterlimit:4;" d="M 29.916894 23.105459 C 29.916894 26.855459 26.870019 29.894521 23.120019 29.894521 C 19.362206 29.894521 16.323144 26.855459 16.323144 23.105459 C 16.323144 19.347646 19.362206 16.308584 23.120019 16.308584 C 26.870019 16.308584 29.916894 19.347646 29.916894 23.105459 Z M 29.916894 23.105459 " transform="matrix(1,0,0,1,-0.479394,-0.527334)"/>
<path style="fill:none;stroke-width:2;stroke-linecap:round;stroke-linejoin:miter;stroke:rgb(27.843139%,80.392158%,77.64706%);stroke-opacity:1;stroke-miterlimit:4;" d="M 23.002831 19.003896 L 23.002831 27.003896 " transform="matrix(1,0,0,1,-0.479394,-0.527334)"/>
<path style="fill:none;stroke-width:2;stroke-linecap:round;stroke-linejoin:miter;stroke:rgb(27.843139%,80.392158%,77.64706%);stroke-opacity:1;stroke-miterlimit:4;" d="M 19.002831 23.003896 L 27.002831 23.003896 " transform="matrix(1,0,0,1,-0.479394,-0.527334)"/>
</g>
</svg>
