<?xml version="1.0" encoding="UTF-8"?>
<svg xmlns="http://www.w3.org/2000/svg" xmlns:xlink="http://www.w3.org/1999/xlink" width="32px" height="32px" viewBox="0 0 32 32" version="1.1">
<g id="surface1">
<path style=" stroke:none;fill-rule:nonzero;fill:rgb(90.196079%,90.196079%,90.196079%);fill-opacity:1;" d="M 26.226562 3.90625 L 26.226562 8.359375 L 5.773438 8.359375 L 5.773438 3.90625 C 5.773438 2.851562 6.625 2 7.679688 2 L 24.320312 2 C 25.375 2 26.226562 2.851562 26.226562 3.90625 Z M 26.226562 3.90625 "/>
<path style=" stroke:none;fill-rule:nonzero;fill:rgb(80.000001%,80.000001%,80.000001%);fill-opacity:1;" d="M 5.773438 6.070312 L 26.226562 6.070312 L 26.226562 8.359375 L 5.773438 8.359375 Z M 5.773438 6.070312 "/>
<path style=" stroke:none;fill-rule:nonzero;fill:rgb(27.843139%,80.392158%,77.64706%);fill-opacity:1;" d="M 26.226562 25.273438 L 27.210938 25.273438 C 28.75 25.273438 30 24.023438 30 22.484375 L 30 11.148438 C 30 9.609375 28.75 8.359375 27.210938 8.359375 L 4.789062 8.359375 C 3.25 8.359375 2 9.609375 2 11.148438 L 2 22.484375 C 2 24.023438 3.25 25.273438 4.789062 25.273438 L 5.773438 25.273438 "/>
<path style=" stroke:none;fill-rule:nonzero;fill:rgb(33.333334%,38.431373%,44.705883%);fill-opacity:1;" d="M 4.625 22.484375 L 4.625 11.148438 C 4.625 9.609375 5.875 8.359375 7.414062 8.359375 L 4.789062 8.359375 C 3.25 8.359375 2 9.609375 2 11.148438 L 2 22.484375 C 2 24.023438 3.25 25.273438 4.789062 25.273438 L 7.414062 25.273438 C 5.875 25.273438 4.625 24.023438 4.625 22.484375 Z M 4.625 22.484375 "/>
<path style=" stroke:none;fill-rule:nonzero;fill:rgb(33.333334%,38.431373%,44.705883%);fill-opacity:1;" d="M 26.226562 22.875 C 27.242188 22.875 28.054688 22.054688 28.054688 21.046875 L 28.054688 20.8125 C 28.054688 19.804688 27.242188 18.984375 26.226562 18.984375 L 5.773438 18.984375 C 4.757812 18.984375 3.945312 19.804688 3.945312 20.8125 L 3.945312 21.046875 C 3.945312 22.054688 4.757812 22.875 5.773438 22.875 "/>
<path style=" stroke:none;fill-rule:nonzero;fill:rgb(90.196079%,90.196079%,90.196079%);fill-opacity:1;" d="M 26.226562 20.8125 L 5.773438 20.8125 L 5.773438 28.09375 C 5.773438 29.148438 6.625 30 7.679688 30 L 24.320312 30 C 25.375 30 26.226562 29.148438 26.226562 28.09375 Z M 26.226562 20.8125 "/>
<path style=" stroke:none;fill-rule:nonzero;fill:rgb(80.000001%,80.000001%,80.000001%);fill-opacity:1;" d="M 5.773438 20.8125 L 26.226562 20.8125 L 26.226562 23.101562 L 5.773438 23.101562 Z M 5.773438 20.8125 "/>
<path style=" stroke:none;fill-rule:nonzero;fill:rgb(100%,41.568628%,40.000001%);fill-opacity:1;" d="M 8.226562 12.359375 C 8.226562 13.242188 7.515625 13.960938 6.625 13.960938 C 5.742188 13.960938 5.03125 13.242188 5.03125 12.359375 C 5.03125 11.476562 5.742188 10.757812 6.625 10.757812 C 7.515625 10.757812 8.226562 11.476562 8.226562 12.359375 Z M 8.226562 12.359375 "/>
<path style=" stroke:none;fill-rule:nonzero;fill:rgb(0%,0%,0%);fill-opacity:1;" d="M 12.945312 12.359375 C 12.945312 13.242188 12.226562 13.960938 11.34375 13.960938 C 10.460938 13.960938 9.742188 13.242188 9.742188 12.359375 C 9.742188 11.476562 10.460938 10.757812 11.34375 10.757812 C 12.226562 10.757812 12.945312 11.476562 12.945312 12.359375 Z M 12.945312 12.359375 "/>
<path style=" stroke:none;fill-rule:nonzero;fill:rgb(100%,41.568628%,40.000001%);fill-opacity:1;" d="M 23.257812 23.875 L 8.742188 23.875 C 8.507812 23.875 8.3125 23.679688 8.3125 23.445312 C 8.3125 23.210938 8.507812 23.015625 8.742188 23.015625 L 23.257812 23.015625 C 23.492188 23.015625 23.6875 23.210938 23.6875 23.445312 C 23.6875 23.679688 23.492188 23.875 23.257812 23.875 Z M 23.257812 23.875 "/>
<path style=" stroke:none;fill-rule:nonzero;fill:rgb(100%,41.568628%,40.000001%);fill-opacity:1;" d="M 23.257812 26.5 L 8.742188 26.5 C 8.507812 26.5 8.3125 26.3125 8.3125 26.070312 C 8.3125 25.835938 8.507812 25.640625 8.742188 25.640625 L 23.257812 25.640625 C 23.492188 25.640625 23.6875 25.835938 23.6875 26.070312 C 23.6875 26.3125 23.492188 26.5 23.257812 26.5 Z M 23.257812 26.5 "/>
</g>
</svg>
