<?xml version="1.0" encoding="UTF-8"?>
<svg xmlns="http://www.w3.org/2000/svg" xmlns:xlink="http://www.w3.org/1999/xlink" width="32px" height="32px" viewBox="0 0 32 32" version="1.1">
<g id="surface1">
<path style=" stroke:none;fill-rule:nonzero;fill:rgb(100%,40.784314%,40.000001%);fill-opacity:1;" d="M 24.058594 10.855469 C 23.753906 11.042969 23.535156 11.339844 23.445312 11.683594 L 19.257812 27.175781 C 18.734375 28.960938 21.453125 29.699219 21.902344 27.890625 L 26.089844 12.398438 C 26.433594 11.199219 25.121094 10.203125 24.058594 10.855469 Z M 24.058594 10.855469 "/>
<path style=" stroke:none;fill-rule:nonzero;fill:rgb(100%,40.784314%,40.000001%);fill-opacity:1;" d="M 30.941406 12.03125 C 30.84375 11.75 30.664062 11.5625 30.4375 11.503906 L 20.355469 8.769531 C 19.195312 8.414062 18.460938 11.128906 19.640625 11.410156 L 29.722656 14.148438 C 30.503906 14.378906 31.289062 13.011719 30.941406 12.03125 Z M 30.941406 12.03125 "/>
<path style=" stroke:none;fill-rule:nonzero;fill:rgb(100%,40.784314%,40.000001%);fill-opacity:1;" d="M 26.382812 28.828125 C 26.285156 28.546875 26.105469 28.359375 25.878906 28.300781 L 15.796875 25.566406 C 14.636719 25.210938 13.902344 27.925781 15.085938 28.207031 L 25.167969 30.945312 C 25.945312 31.175781 26.730469 29.808594 26.382812 28.828125 Z M 26.382812 28.828125 "/>
<path style=" stroke:none;fill-rule:nonzero;fill:rgb(90.980393%,98.039216%,100%);fill-opacity:1;" d="M 14.15625 22.914062 L 13.257812 23.8125 C 12.765625 24.304688 12.765625 25.101562 13.257812 25.59375 L 16.445312 28.78125 C 16.9375 29.273438 17.734375 29.273438 18.226562 28.78125 L 19.125 27.882812 Z M 14.15625 22.914062 "/>
<path style=" stroke:none;fill-rule:nonzero;fill:rgb(78.039217%,96.078432%,34.901962%);fill-opacity:1;" d="M 28 17.226562 C 28.492188 17.71875 28.492188 18.515625 28 19.007812 L 23.054688 23.960938 L 18.078125 18.984375 L 23.03125 14.039062 C 23.523438 13.546875 24.320312 13.546875 24.804688 14.039062 Z M 28 17.226562 "/>
<path style=" stroke:none;fill-rule:nonzero;fill:rgb(58.039218%,78.039217%,93.333334%);fill-opacity:1;" d="M 23.054688 23.960938 L 19.125 27.882812 C 18.632812 28.375 17.835938 28.375 17.34375 27.882812 L 14.15625 24.6875 C 13.664062 24.203125 13.664062 23.40625 14.15625 22.914062 L 18.078125 18.984375 Z M 23.054688 23.960938 "/>
</g>
</svg>
