<?xml version="1.0" encoding="UTF-8"?>
<svg xmlns="http://www.w3.org/2000/svg" xmlns:xlink="http://www.w3.org/1999/xlink" width="32px" height="32px" viewBox="0 0 32 32" version="1.1">
<g id="surface1">
<path style=" stroke:none;fill-rule:nonzero;fill:rgb(100%,40.784314%,40.000001%);fill-opacity:1;" d="M 15.414062 4.242188 C 15.203125 4.242188 14.992188 4.25 14.789062 4.265625 L 14.367188 4.289062 C 11.59375 4.414062 9.421875 5.375 7.851562 7.179688 C 6.734375 8.59375 6.171875 10.0625 6.171875 11.59375 L 6.171875 11.984375 C 6.21875 13.101562 6.585938 14.101562 7.246094 15 L 22.21875 15 C 21.261719 14.414062 20.117188 13.894531 18.742188 13.460938 C 15.46875 12.53125 13.492188 11.851562 12.828125 11.40625 C 13.125 11.054688 13.796875 10.859375 14.851562 10.796875 C 15 10.789062 15.164062 10.78125 15.328125 10.78125 C 16.40625 10.78125 17.648438 10.9375 19.054688 11.257812 C 20.609375 11.71875 21.59375 11.945312 22.007812 11.945312 L 22.046875 11.945312 C 22.523438 11.914062 23.023438 11.78125 23.546875 11.53125 C 24.65625 10.78125 25.210938 9.851562 25.210938 8.742188 L 25.210938 8.570312 C 25.148438 7.265625 24.445312 6.289062 23.109375 5.640625 C 20.15625 4.710938 17.585938 4.242188 15.414062 4.242188 Z M 14.441406 19 C 16.765625 19.6875 18.332031 20.222656 18.804688 20.539062 L 18.804688 20.585938 C 18.359375 21 17.476562 21.234375 16.15625 21.289062 C 15.921875 21.304688 15.679688 21.3125 15.429688 21.3125 C 14.296875 21.3125 13.0625 21.179688 11.726562 20.914062 C 10.351562 20.625 9.523438 20.476562 9.226562 20.476562 L 9.1875 20.476562 C 8.578125 20.507812 7.992188 20.703125 7.4375 21.0625 C 6.507812 21.8125 6.046875 22.695312 6.046875 23.703125 L 6.046875 23.875 C 6.054688 24.359375 6.210938 24.867188 6.5 25.390625 C 6.90625 26.015625 7.429688 26.476562 8.085938 26.765625 C 10.789062 27.484375 13.203125 27.84375 15.328125 27.84375 C 15.617188 27.84375 15.90625 27.84375 16.179688 27.828125 L 16.578125 27.804688 C 20.015625 27.65625 22.5625 26.484375 24.21875 24.289062 C 25.101562 22.929688 25.546875 21.609375 25.546875 20.335938 L 25.546875 19.960938 C 25.53125 19.628906 25.480469 19.3125 25.410156 19 Z M 14.441406 19 "/>
<path style=" stroke:none;fill-rule:nonzero;fill:rgb(32.941177%,38.039216%,43.921569%);fill-opacity:1;" d="M 3 16 L 29 16 C 29.554688 16 30 16.445312 30 17 C 30 17.554688 29.554688 18 29 18 L 3 18 C 2.445312 18 2 17.554688 2 17 C 2 16.445312 2.445312 16 3 16 Z M 3 16 "/>
</g>
</svg>
