<?xml version="1.0" encoding="UTF-8"?>
<svg xmlns="http://www.w3.org/2000/svg" xmlns:xlink="http://www.w3.org/1999/xlink" width="32px" height="32px" viewBox="0 0 32 32" version="1.1">
<g id="surface1">
<path style=" stroke:none;fill-rule:nonzero;fill:rgb(100%,41.568628%,40.000001%);fill-opacity:1;" d="M 4 27 L 28 27 C 28.554688 27 29 27.390625 29 27.875 L 29 28.125 C 29 28.609375 28.554688 29 28 29 L 4 29 C 3.445312 29 3 28.609375 3 28.125 L 3 27.875 C 3 27.390625 3.445312 27 4 27 Z M 4 27 "/>
<path style=" stroke:none;fill-rule:nonzero;fill:rgb(100%,41.568628%,40.000001%);fill-opacity:1;" d="M 21.835938 3.875 C 22.632812 3.875 23.304688 4.25 23.851562 5.007812 C 24.039062 5.257812 24.171875 5.671875 24.257812 6.265625 C 24.03125 14.085938 23.875 18 23.789062 18 C 23.789062 18.289062 23.617188 19.085938 23.265625 20.40625 C 23.015625 21.125 22.726562 21.804688 22.398438 22.4375 C 22.125 22.929688 21.6875 23.523438 21.09375 24.203125 C 20.367188 24.921875 19.820312 25.359375 19.445312 25.523438 C 18.351562 26.132812 17.351562 26.4375 16.453125 26.4375 L 15.875 26.4375 C 14.820312 26.4375 13.679688 26.054688 12.445312 25.289062 C 9.40625 23.085938 7.882812 19.304688 7.882812 13.929688 L 7.882812 12.96875 C 7.882812 11.28125 7.835938 9.273438 7.742188 6.945312 C 7.742188 6.125 8.117188 5.445312 8.875 4.898438 C 9.296875 4.640625 9.742188 4.507812 10.195312 4.507812 C 11.015625 4.507812 11.6875 4.898438 12.226562 5.671875 C 12.507812 5.992188 12.648438 6.789062 12.648438 8.0625 C 12.71875 9.460938 12.757812 11.070312 12.757812 12.890625 L 12.757812 13.726562 C 12.757812 17.367188 13.492188 19.828125 14.960938 21.101562 C 15.351562 21.414062 15.734375 21.570312 16.09375 21.570312 L 16.265625 21.570312 C 16.867188 21.570312 17.460938 21.109375 18.0625 20.1875 C 18.335938 19.726562 18.554688 19.203125 18.734375 18.601562 C 18.960938 17.703125 19.070312 16.5625 19.070312 15.171875 C 19.210938 12.132812 19.3125 9.117188 19.382812 6.125 C 19.421875 5.742188 19.570312 5.34375 19.820312 4.929688 C 20.367188 4.226562 21.039062 3.875 21.835938 3.875 Z M 21.835938 3.875 "/>
</g>
</svg>
