<?xml version="1.0" encoding="UTF-8"?>
<svg xmlns="http://www.w3.org/2000/svg" xmlns:xlink="http://www.w3.org/1999/xlink" width="32px" height="32px" viewBox="0 0 32 32" version="1.1">
<g id="surface1">
<path style=" stroke:none;fill-rule:evenodd;fill:rgb(100%,41.568628%,40.000001%);fill-opacity:1;" d="M 5 4.898438 L 27 4.898438 C 27.554688 4.898438 28 5.367188 28 5.945312 C 28 6.53125 27.554688 7 27 7 L 5 7 C 4.445312 7 4 6.53125 4 5.945312 C 4 5.367188 4.445312 4.898438 5 4.898438 Z M 5 4.898438 "/>
<path style=" stroke:none;fill-rule:evenodd;fill:rgb(100%,41.568628%,40.000001%);fill-opacity:1;" d="M 11 9 L 27 9 C 27.554688 9 28 9.46875 28 10.054688 C 28 10.632812 27.554688 11.101562 27 11.101562 L 11 11.101562 C 10.445312 11.101562 10 10.632812 10 10.054688 C 10 9.46875 10.445312 9 11 9 Z M 11 9 "/>
<path style=" stroke:none;fill-rule:evenodd;fill:rgb(100%,41.568628%,40.000001%);fill-opacity:1;" d="M 7 13 L 27 13 C 27.554688 13 28 13.46875 28 14.054688 C 28 14.632812 27.554688 15.101562 27 15.101562 L 7 15.101562 C 6.445312 15.101562 6 14.632812 6 14.054688 C 6 13.46875 6.445312 13 7 13 Z M 7 13 "/>
<path style=" stroke:none;fill-rule:evenodd;fill:rgb(100%,41.568628%,40.000001%);fill-opacity:1;" d="M 15 17 L 27 17 C 27.554688 17 28 17.46875 28 18.054688 C 28 18.632812 27.554688 19.101562 27 19.101562 L 15 19.101562 C 14.445312 19.101562 14 18.632812 14 18.054688 C 14 17.46875 14.445312 17 15 17 Z M 15 17 "/>
<path style=" stroke:none;fill-rule:evenodd;fill:rgb(100%,41.568628%,40.000001%);fill-opacity:1;" d="M 9 21 L 27 21 C 27.554688 21 28 21.46875 28 22.054688 C 28 22.632812 27.554688 23.101562 27 23.101562 L 9 23.101562 C 8.445312 23.101562 8 22.632812 8 22.054688 C 8 21.46875 8.445312 21 9 21 Z M 9 21 "/>
<path style=" stroke:none;fill-rule:evenodd;fill:rgb(100%,41.568628%,40.000001%);fill-opacity:1;" d="M 7 25 L 27 25 C 27.554688 25 28 25.46875 28 26.054688 C 28 26.632812 27.554688 27.101562 27 27.101562 L 7 27.101562 C 6.445312 27.101562 6 26.632812 6 26.054688 C 6 25.46875 6.445312 25 7 25 Z M 7 25 "/>
</g>
</svg>
