<?xml version="1.0" encoding="UTF-8"?>
<svg xmlns="http://www.w3.org/2000/svg" xmlns:xlink="http://www.w3.org/1999/xlink" width="32px" height="32px" viewBox="0 0 32 32" version="1.1">
<g id="surface1">
<path style=" stroke:none;fill-rule:nonzero;fill:rgb(100%,41.568628%,40.000001%);fill-opacity:1;" d="M 13.773438 3.96875 C 16.179688 3.96875 18.1875 4.65625 19.796875 6.023438 C 20.742188 6.921875 21.351562 7.84375 21.632812 8.765625 C 21.90625 9.570312 22.046875 10.320312 22.046875 11.015625 L 22.046875 11.3125 C 22.046875 12.40625 21.671875 13.53125 20.9375 14.703125 L 20.9375 14.71875 C 21.695312 15.398438 22.164062 15.882812 22.34375 16.15625 C 23.179688 17.5 23.59375 18.820312 23.59375 20.109375 L 23.59375 20.601562 C 23.59375 21.835938 23.148438 23.070312 22.257812 24.304688 C 21.390625 25.289062 20.695312 25.898438 20.195312 26.140625 C 19.59375 26.53125 18.882812 26.882812 18.039062 27.203125 C 16.414062 27.75 14.875 28.03125 13.429688 28.03125 C 11.414062 28.03125 10.085938 27.398438 9.460938 26.125 C 9.140625 25.296875 8.984375 24.664062 8.984375 24.210938 C 8.59375 21.132812 8.40625 17.289062 8.40625 12.671875 C 8.40625 9.09375 8.609375 6.890625 9.03125 6.054688 C 9.328125 5.414062 9.804688 4.921875 10.46875 4.570312 C 11.414062 4.171875 12.523438 3.96875 13.773438 3.96875 Z M 13.695312 9.164062 C 13.625 10.210938 13.59375 11.507812 13.59375 13.046875 L 13.59375 13.164062 C 13.617188 13.164062 13.625 13.171875 13.625 13.179688 C 15.773438 12.640625 16.851562 11.960938 16.851562 11.148438 C 16.851562 10.109375 16.179688 9.484375 14.835938 9.265625 C 14.703125 9.21875 14.320312 9.1875 13.695312 9.164062 Z M 13.742188 18.421875 L 13.742188 18.4375 C 13.742188 19.109375 13.835938 20.5625 14.023438 22.804688 L 14.039062 22.804688 C 14.75 22.804688 15.695312 22.5625 16.882812 22.078125 C 17.898438 21.570312 18.40625 21.023438 18.40625 20.4375 L 18.40625 20.34375 C 18.40625 19.28125 17.859375 18.640625 16.765625 18.421875 C 16.273438 18.320312 15.796875 18.273438 15.328125 18.273438 C 14.929688 18.273438 14.40625 18.320312 13.742188 18.421875 Z M 13.742188 18.421875 "/>
</g>
</svg>
