<?xml version="1.0" encoding="UTF-8"?>
<svg xmlns="http://www.w3.org/2000/svg" xmlns:xlink="http://www.w3.org/1999/xlink" width="32px" height="32px" viewBox="0 0 32 32" version="1.1">
<g id="surface1">
<path style=" stroke:none;fill-rule:evenodd;fill:rgb(100%,41.568628%,40.000001%);fill-opacity:1;" d="M 6 2 L 26 2 C 27.101562 2 28 2.898438 28 4 L 28 28 C 28 29.101562 27.101562 30 26 30 L 6 30 C 4.898438 30 4 29.101562 4 28 L 4 4 C 4 2.898438 4.898438 2 6 2 Z M 6 2 "/>
<path style=" stroke:none;fill-rule:nonzero;fill:rgb(100%,100%,100%);fill-opacity:1;" d="M 22.804688 16.4375 C 21.84375 16.546875 20.710938 16.773438 19.484375 17.109375 C 18.875 16.851562 18.226562 16.5625 17.695312 16.179688 C 16.34375 15.203125 15.132812 13.757812 14.28125 12.070312 C 14.304688 11.898438 14.328125 11.726562 14.34375 11.554688 C 14.414062 10.75 14.21875 8.125 14.21875 8.125 C 14.21875 8.125 13.960938 10.148438 13.921875 10.453125 C 13.898438 10.648438 13.859375 10.851562 13.8125 11.070312 C 13.265625 9.773438 12.90625 8.492188 12.78125 7.507812 C 12.75 7.226562 12.703125 6.679688 12.726562 6.242188 C 12.726562 5.929688 12.820312 5.757812 12.921875 5.664062 C 13.15625 5.695312 13.460938 6.007812 13.796875 6.5625 C 14.085938 7.039062 14.148438 7.625 14.195312 7.992188 C 14.195312 7.992188 14.328125 7.0625 14.203125 6.539062 C 14.125 6.226562 13.726562 5.445312 13.078125 5.53125 L 13.03125 5.539062 L 12.742188 5.570312 C 12.273438 5.632812 11.859375 5.914062 11.804688 6.304688 C 11.59375 7.8125 12.3125 10.015625 13.398438 12.726562 L 13.25 13.296875 C 12.851562 14.75 12.320312 16.203125 11.851562 17.5 C 9.921875 22.835938 8.265625 25.789062 6.960938 26.148438 L 6.953125 26.09375 C 6.84375 25.46875 7.796875 23.710938 9.195312 22.234375 C 9.34375 22.078125 9.953125 21.320312 9.953125 21.320312 C 9.953125 21.320312 9.078125 21.9375 8.882812 22.085938 C 7.070312 23.507812 6.242188 24.796875 6.179688 25.601562 C 6.164062 25.835938 6.226562 26.117188 6.445312 26.203125 L 6.976562 26.398438 C 8.429688 26.90625 9.882812 24.90625 11.617188 20.710938 C 13.796875 19.6875 16.539062 18.632812 19.0625 17.929688 C 21.539062 18.960938 24.257812 19.257812 25.242188 18.859375 C 25.429688 18.78125 25.617188 18.609375 25.703125 18.453125 C 25.765625 18.3125 25.8125 17.78125 25.8125 17.78125 C 25.8125 17.78125 25.65625 18.070312 25.507812 18.164062 C 24.90625 18.546875 22.8125 18.296875 20.601562 17.539062 C 22.375 17.117188 23.875 16.921875 24.710938 17.078125 C 25.773438 17.28125 25.8125 17.609375 25.804688 17.679688 C 25.8125 17.625 25.835938 17.398438 25.8125 17.296875 C 25.757812 17.054688 25.65625 16.851562 25.453125 16.695312 C 25.03125 16.367188 24.070312 16.296875 22.804688 16.4375 Z M 11.765625 20.210938 C 12.0625 19.476562 12.390625 18.671875 12.71875 17.8125 C 13.34375 16.140625 13.695312 14.875 13.976562 13.679688 C 14.8125 14.9375 15.890625 16.09375 17.21875 16.96875 C 17.515625 17.15625 17.828125 17.335938 18.148438 17.507812 C 16.015625 18.1875 13.789062 19.046875 11.765625 20.210938 Z M 11.765625 20.210938 "/>
</g>
</svg>
