<?xml version="1.0" encoding="UTF-8"?>
<svg xmlns="http://www.w3.org/2000/svg" xmlns:xlink="http://www.w3.org/1999/xlink" width="32px" height="32px" viewBox="0 0 32 32" version="1.1">
<g id="surface1">
<path style=" stroke:none;fill-rule:nonzero;fill:rgb(33.333334%,38.431373%,44.705883%);fill-opacity:1;" d="M 25.539062 2.835938 L 18.117188 11.554688 L 20.445312 13.882812 L 29.164062 6.460938 L 29.15625 6.453125 C 29.1875 6.429688 29.21875 6.398438 29.25 6.367188 C 30.25 5.367188 30.25 3.75 29.25 2.75 C 28.25 1.75 26.632812 1.75 25.632812 2.75 C 25.601562 2.78125 25.570312 2.8125 25.546875 2.84375 Z M 28.117188 3.882812 C 28.53125 4.289062 28.53125 4.953125 28.117188 5.359375 C 27.710938 5.773438 27.046875 5.773438 26.640625 5.359375 C 26.226562 4.953125 26.226562 4.289062 26.640625 3.882812 C 27.046875 3.46875 27.710938 3.46875 28.117188 3.882812 Z M 28.117188 3.882812 "/>
<path style=" stroke:none;fill-rule:nonzero;fill:rgb(100%,41.568628%,40.000001%);fill-opacity:1;" d="M 12.65625 8.625 L 23.375 19.34375 L 14.804688 29.476562 C 14.28125 30.09375 13.382812 30.179688 12.867188 29.65625 L 2.34375 19.132812 C 1.820312 18.617188 1.90625 17.71875 2.523438 17.195312 Z M 12.65625 8.625 "/>
<path style=" stroke:none;fill-rule:nonzero;fill:rgb(77.64706%,30.19608%,33.725491%);fill-opacity:1;" d="M 2.4375 17.265625 C 2.429688 17.28125 2.414062 17.296875 2.398438 17.3125 C 2.390625 17.320312 2.382812 17.328125 2.382812 17.328125 C 2.367188 17.34375 2.351562 17.359375 2.34375 17.375 C 2.335938 17.382812 2.328125 17.390625 2.328125 17.398438 C 2.304688 17.414062 2.289062 17.4375 2.273438 17.460938 C 2.257812 17.484375 2.242188 17.507812 2.226562 17.53125 C 2.226562 17.539062 2.21875 17.539062 2.21875 17.546875 C 2.203125 17.5625 2.195312 17.585938 2.1875 17.601562 C 2.179688 17.609375 2.179688 17.617188 2.171875 17.617188 C 2.164062 17.640625 2.15625 17.65625 2.148438 17.671875 C 2.140625 17.679688 2.140625 17.6875 2.140625 17.695312 C 1.90625 18.179688 1.96875 18.757812 2.34375 19.132812 L 4.15625 20.953125 C 3.640625 20.429688 3.726562 19.53125 4.34375 19.007812 L 11.59375 12.882812 C 12.351562 12.234375 13.484375 12.28125 14.1875 12.992188 L 22.078125 20.875 L 23.375 19.34375 L 12.65625 8.625 L 2.523438 17.195312 C 2.5 17.210938 2.484375 17.226562 2.460938 17.25 C 2.453125 17.257812 2.445312 17.265625 2.4375 17.265625 Z M 2.4375 17.265625 "/>
<path style=" stroke:none;fill-rule:nonzero;fill:rgb(33.333334%,38.431373%,44.705883%);fill-opacity:1;" d="M 14.054688 6.59375 L 25.40625 17.945312 C 25.726562 18.265625 25.726562 18.78125 25.40625 19.09375 L 24.125 20.382812 C 23.804688 20.703125 23.289062 20.703125 22.96875 20.382812 L 11.617188 9.03125 C 11.296875 8.710938 11.296875 8.195312 11.617188 7.875 L 12.90625 6.59375 C 13.21875 6.273438 13.734375 6.273438 14.054688 6.59375 Z M 14.054688 6.59375 "/>
<path style=" stroke:none;fill-rule:nonzero;fill:rgb(33.333334%,38.431373%,44.705883%);fill-opacity:1;" d="M 12.835938 7.8125 L 24.1875 19.164062 C 24.507812 19.484375 24.507812 19.992188 24.1875 20.3125 L 25.40625 19.09375 C 25.726562 18.78125 25.726562 18.265625 25.40625 17.945312 L 14.054688 6.59375 C 13.734375 6.273438 13.21875 6.273438 12.90625 6.59375 L 11.6875 7.8125 C 12.007812 7.492188 12.515625 7.492188 12.835938 7.8125 Z M 12.835938 7.8125 "/>
<path style=" stroke:none;fill-rule:nonzero;fill:rgb(0%,0%,0%);fill-opacity:1;" d="M 17.25 24.507812 C 17.710938 24.039062 17.710938 23.289062 17.25 22.820312 C 16.78125 22.359375 16.03125 22.359375 15.5625 22.820312 L 14.390625 23.992188 C 13.921875 24.460938 13.171875 24.460938 12.703125 23.992188 C 12.242188 23.53125 12.242188 22.78125 12.703125 22.3125 L 13.039062 21.976562 C 13.429688 21.585938 13.492188 20.992188 13.21875 20.53125 C 13.171875 20.445312 13.109375 20.367188 13.039062 20.296875 C 12.570312 19.828125 11.820312 19.828125 11.351562 20.296875 L 10.171875 21.46875 C 9.710938 21.929688 8.960938 21.929688 8.492188 21.46875 C 8.03125 21 8.03125 20.25 8.492188 19.78125 L 8.828125 19.453125 C 9.289062 18.984375 9.289062 18.234375 8.828125 17.765625 C 8.359375 17.304688 7.601562 17.304688 7.140625 17.765625 L 4.054688 20.851562 L 12.453125 29.242188 Z M 17.25 24.507812 "/>
</g>
</svg>
