<?xml version="1.0" encoding="UTF-8"?>
<svg xmlns="http://www.w3.org/2000/svg" xmlns:xlink="http://www.w3.org/1999/xlink" width="32px" height="32px" viewBox="0 0 32 32" version="1.1">
<g id="surface1">
<path style=" stroke:none;fill-rule:nonzero;fill:rgb(100%,41.568628%,40.000001%);fill-opacity:1;" d="M 26.28125 13.203125 L 20.375 29.390625 L 25.0625 31.109375 C 25.6875 31.335938 25.914062 31.671875 25.75 32.109375 C 25.578125 32.585938 25.1875 32.710938 24.5625 32.484375 L 13.8125 28.578125 C 13.203125 28.34375 12.984375 27.992188 13.15625 27.515625 C 13.320312 27.078125 13.703125 26.96875 14.3125 27.203125 L 19 28.890625 L 24.90625 12.703125 L 20.21875 11.015625 C 19.609375 10.789062 19.390625 10.445312 19.5625 9.984375 C 19.726562 9.53125 20.109375 9.414062 20.71875 9.640625 L 31.46875 13.546875 C 32.09375 13.78125 32.320312 14.125 32.15625 14.578125 C 31.984375 15.039062 31.59375 15.15625 30.96875 14.921875 Z M 26.28125 13.203125 "/>
</g>
</svg>
