<?xml version="1.0" encoding="UTF-8"?>
<svg xmlns="http://www.w3.org/2000/svg" xmlns:xlink="http://www.w3.org/1999/xlink" width="24px" height="24px" viewBox="0 0 24 24" version="1.1">
<g id="surface1">
<path style=" stroke:none;fill-rule:nonzero;fill:rgb(100%,41.568628%,40.000001%);fill-opacity:1;" d="M 10.332031 2.976562 C 12.136719 2.976562 13.640625 3.492188 14.847656 4.519531 C 15.558594 5.191406 16.011719 5.882812 16.222656 6.574219 C 16.429688 7.175781 16.535156 7.738281 16.535156 8.261719 L 16.535156 8.484375 C 16.535156 9.304688 16.253906 10.148438 15.703125 11.027344 L 15.703125 11.039062 C 16.269531 11.550781 16.621094 11.910156 16.757812 12.117188 C 17.386719 13.125 17.695312 14.113281 17.695312 15.082031 L 17.695312 15.449219 C 17.695312 16.378906 17.363281 17.300781 16.691406 18.230469 C 16.042969 18.964844 15.519531 19.425781 15.144531 19.605469 C 14.695312 19.898438 14.160156 20.160156 13.527344 20.402344 C 12.308594 20.8125 11.15625 21.023438 10.074219 21.023438 C 8.558594 21.023438 7.566406 20.550781 7.097656 19.59375 C 6.855469 18.972656 6.738281 18.496094 6.738281 18.160156 C 6.445312 15.847656 6.304688 12.964844 6.304688 9.503906 C 6.304688 6.820312 6.457031 5.167969 6.773438 4.542969 C 6.996094 4.058594 7.355469 3.691406 7.851562 3.425781 C 8.558594 3.128906 9.394531 2.976562 10.332031 2.976562 Z M 10.269531 6.871094 C 10.21875 7.660156 10.195312 8.628906 10.195312 9.785156 L 10.195312 9.871094 C 10.214844 9.871094 10.21875 9.878906 10.21875 9.886719 C 11.832031 9.480469 12.636719 8.972656 12.636719 8.363281 C 12.636719 7.582031 12.136719 7.113281 11.128906 6.949219 C 11.027344 6.914062 10.738281 6.890625 10.269531 6.871094 Z M 10.308594 13.816406 L 10.308594 13.828125 C 10.308594 14.332031 10.378906 15.421875 10.519531 17.105469 L 10.527344 17.105469 C 11.0625 17.105469 11.769531 16.921875 12.660156 16.558594 C 13.425781 16.175781 13.804688 15.769531 13.804688 15.328125 L 13.804688 15.257812 C 13.804688 14.460938 13.394531 13.980469 12.574219 13.816406 C 12.207031 13.738281 11.847656 13.707031 11.496094 13.707031 C 11.199219 13.707031 10.804688 13.738281 10.308594 13.816406 Z M 10.308594 13.816406 "/>
</g>
</svg>
