<?xml version="1.0" encoding="UTF-8"?>
<svg xmlns="http://www.w3.org/2000/svg" xmlns:xlink="http://www.w3.org/1999/xlink" width="24px" height="24px" viewBox="0 0 24 24" version="1.1">
<g id="surface1">
<path style=" stroke:none;fill-rule:nonzero;fill:rgb(27.843139%,80.392158%,77.64706%);fill-opacity:1;" d="M 19.292969 10.371094 L 19.292969 21.023438 C 19.292969 21.902344 18.582031 22.617188 17.699219 22.617188 L 4.597656 22.617188 C 3.847656 22.617188 3.214844 22.097656 3.050781 21.394531 L 3.046875 20.484375 L 3.003906 15.050781 L 3.003906 4.339844 C 3.003906 3.457031 3.722656 2.746094 4.597656 2.746094 L 11.667969 2.746094 C 12.300781 2.746094 14.355469 4.5 16.171875 6.347656 C 17.832031 8.035156 19.292969 9.792969 19.292969 10.371094 Z M 19.292969 10.371094 "/>
<path style=" stroke:none;fill-rule:nonzero;fill:rgb(86.666667%,91.764706%,98.431373%);fill-opacity:1;" d="M 21.046875 9.144531 L 21.046875 19.792969 C 21.046875 20.675781 20.332031 21.386719 19.453125 21.386719 L 6.351562 21.386719 C 5.601562 21.386719 4.96875 20.863281 4.804688 20.167969 L 4.792969 19.253906 L 4.757812 13.828125 L 4.757812 3.113281 C 4.757812 2.230469 5.472656 1.519531 6.351562 1.519531 L 13.417969 1.519531 C 14.050781 1.519531 16.105469 3.269531 17.925781 5.113281 C 19.582031 6.800781 21.046875 8.566406 21.046875 9.144531 Z M 21.046875 9.144531 "/>
<path style=" stroke:none;fill-rule:nonzero;fill:rgb(79.607844%,88.627452%,100%);fill-opacity:1;" d="M 21.046875 9.144531 L 21.046875 13.050781 C 21.046875 13.042969 21.042969 13.035156 21.042969 13.03125 C 20.925781 8.246094 17.027344 8.027344 15.75 6.75 L 17.925781 5.113281 C 19.582031 6.800781 21.046875 8.566406 21.046875 9.144531 Z M 21.046875 9.144531 "/>
<path style=" stroke:none;fill-rule:nonzero;fill:rgb(79.607844%,88.627452%,100%);fill-opacity:1;" d="M 13.417969 1.519531 L 9.515625 1.519531 C 9.519531 1.519531 9.527344 1.519531 9.527344 1.519531 C 14.316406 1.640625 14.535156 5.535156 15.816406 6.816406 L 17.441406 4.636719 C 15.761719 2.976562 13.996094 1.519531 13.417969 1.519531 Z M 13.417969 1.519531 "/>
<path style=" stroke:none;fill-rule:nonzero;fill:rgb(27.843139%,80.392158%,77.64706%);fill-opacity:1;" d="M 21.046875 9.144531 L 21.046875 9.820312 C 21.046875 8.402344 19.894531 7.246094 18.472656 7.246094 L 16.910156 7.246094 C 16.027344 7.246094 15.316406 6.535156 15.316406 5.652344 L 15.316406 4.089844 C 15.316406 2.671875 14.160156 1.519531 12.746094 1.519531 L 13.417969 1.519531 C 14.628906 1.519531 15.796875 2.003906 16.652344 2.859375 L 19.707031 5.90625 C 20.558594 6.769531 21.046875 7.933594 21.046875 9.144531 Z M 21.046875 9.144531 "/>
<path style=" stroke:none;fill-rule:nonzero;fill:rgb(100%,41.568628%,40.000001%);fill-opacity:1;" d="M 18.933594 12.28125 L 6.867188 12.28125 C 6.667969 12.28125 6.496094 12.117188 6.496094 11.910156 C 6.496094 11.707031 6.667969 11.535156 6.867188 11.535156 L 18.933594 11.535156 C 19.136719 11.535156 19.300781 11.707031 19.300781 11.910156 C 19.300781 12.117188 19.136719 12.28125 18.933594 12.28125 Z M 18.933594 12.28125 "/>
<path style=" stroke:none;fill-rule:nonzero;fill:rgb(100%,41.568628%,40.000001%);fill-opacity:1;" d="M 18.933594 14.042969 L 6.867188 14.042969 C 6.667969 14.042969 6.496094 13.878906 6.496094 13.675781 C 6.496094 13.472656 6.667969 13.308594 6.867188 13.308594 L 18.933594 13.308594 C 19.136719 13.308594 19.300781 13.472656 19.300781 13.675781 C 19.300781 13.878906 19.136719 14.042969 18.933594 14.042969 Z M 18.933594 14.042969 "/>
<path style=" stroke:none;fill-rule:nonzero;fill:rgb(100%,41.568628%,40.000001%);fill-opacity:1;" d="M 18.933594 15.808594 L 6.867188 15.808594 C 6.667969 15.808594 6.496094 15.644531 6.496094 15.441406 C 6.496094 15.234375 6.667969 15.070312 6.867188 15.070312 L 18.933594 15.070312 C 19.136719 15.070312 19.300781 15.234375 19.300781 15.441406 C 19.300781 15.644531 19.136719 15.808594 18.933594 15.808594 Z M 18.933594 15.808594 "/>
<path style=" stroke:none;fill-rule:nonzero;fill:rgb(100%,41.568628%,40.000001%);fill-opacity:1;" d="M 11.300781 17.578125 L 6.867188 17.578125 C 6.667969 17.578125 6.496094 17.410156 6.496094 17.203125 C 6.496094 16.996094 6.667969 16.832031 6.867188 16.832031 L 11.300781 16.832031 C 11.507812 16.832031 11.671875 16.996094 11.671875 17.203125 C 11.671875 17.410156 11.507812 17.578125 11.300781 17.578125 Z M 11.300781 17.578125 "/>
<path style=" stroke:none;fill-rule:nonzero;fill:rgb(100%,41.568628%,40.000001%);fill-opacity:1;" d="M 11.300781 7.386719 L 6.867188 7.386719 C 6.667969 7.386719 6.496094 7.21875 6.496094 7.011719 C 6.496094 6.808594 6.667969 6.644531 6.867188 6.644531 L 11.300781 6.644531 C 11.507812 6.644531 11.671875 6.808594 11.671875 7.011719 C 11.671875 7.21875 11.507812 7.386719 11.300781 7.386719 Z M 11.300781 7.386719 "/>
</g>
</svg>
