<?xml version="1.0" encoding="UTF-8"?>
<svg xmlns="http://www.w3.org/2000/svg" xmlns:xlink="http://www.w3.org/1999/xlink" width="24px" height="24px" viewBox="0 0 24 24" version="1.1">
<g id="surface1">
<path style="fill-rule:nonzero;fill:rgb(27.843139%,80.392158%,77.64706%);fill-opacity:1;stroke-width:0.264583;stroke-linecap:butt;stroke-linejoin:miter;stroke:rgb(27.843139%,80.392158%,77.64706%);stroke-opacity:1;stroke-miterlimit:4;" d="M 1.687762 0.939106 C 1.828745 0.939106 1.937503 1.005579 2.015379 1.13711 C 2.046261 1.200755 2.062373 1.257327 2.062373 1.3139 C 2.062373 1.544434 2.06103 2.312407 2.057002 3.62065 C 2.057002 3.709752 2.015379 3.790368 1.934817 3.866741 C 1.86634 3.913414 1.800548 3.938871 1.737442 3.938871 L 1.722672 3.938871 C 1.604515 3.938871 1.513212 3.878056 1.439364 3.75501 C 1.417881 3.705509 1.40714 3.665908 1.40714 3.631965 C 1.411168 2.759331 1.411168 2.199262 1.411168 1.948928 C 1.415196 1.858412 1.415196 1.806082 1.415196 1.791939 C 1.411168 1.791939 1.409825 1.790525 1.409825 1.787696 C 1.401769 1.791939 1.388342 1.794768 1.365516 1.794768 L 1.340005 1.794768 C 1.220506 1.794768 1.126517 1.731123 1.055355 1.601006 C 1.036557 1.557162 1.028501 1.516147 1.028501 1.483618 L 1.028501 1.463817 C 1.028501 1.350672 1.09295 1.248841 1.223191 1.158325 C 1.397741 1.014065 1.55215 0.939106 1.687762 0.939106 Z M 1.687762 0.939106 " transform="matrix(2.909269,0,0,2.761935,0.00000135167,0)"/>
<path style="fill-rule:nonzero;fill:rgb(27.843139%,80.392158%,77.64706%);fill-opacity:1;stroke-width:0.264583;stroke-linecap:butt;stroke-linejoin:miter;stroke:rgb(27.843139%,80.392158%,77.64706%);stroke-opacity:1;stroke-miterlimit:4;" d="M 1.890798 4.891546 C 2.115991 4.891546 2.32608 4.982822 2.516945 5.165373 C 2.652885 5.306435 2.721541 5.47654 2.721541 5.675687 C 2.721541 6.02696 2.494975 6.45153 2.041842 6.952163 L 2.041842 6.957695 C 2.346677 6.953546 2.52793 6.949397 2.582855 6.949397 C 2.669362 6.949397 2.743511 6.993652 2.809421 7.082162 C 2.841003 7.130566 2.854735 7.177587 2.854735 7.227373 L 2.854735 7.242586 C 2.854735 7.335245 2.808048 7.414074 2.713302 7.480456 C 2.66387 7.508115 2.618557 7.521945 2.577363 7.521945 C 2.521064 7.521945 2.096768 7.52886 1.301726 7.542689 C 1.256413 7.542689 1.201487 7.517796 1.13695 7.472158 C 1.07104 7.409925 1.038085 7.339393 1.038085 7.26333 L 1.038085 7.246735 C 1.038085 7.155459 1.087518 7.069715 1.189129 6.993652 C 1.421188 6.77791 1.585964 6.611954 1.680709 6.495785 C 1.87844 6.260681 2.006141 6.07813 2.067932 5.943982 C 2.120111 5.831962 2.1462 5.744835 2.1462 5.678453 L 2.1462 5.666006 C 2.1462 5.609305 2.117364 5.563667 2.05832 5.529093 C 2.000649 5.487604 1.947096 5.464093 1.894918 5.464093 L 1.882559 5.464093 C 1.767217 5.464093 1.634023 5.553986 1.482979 5.733771 C 1.407457 5.856855 1.31683 5.919089 1.209726 5.919089 L 1.198741 5.919089 C 1.102622 5.919089 1.020234 5.870685 0.954324 5.773877 C 0.930981 5.724091 0.918623 5.679836 0.918623 5.638347 L 0.918623 5.628666 C 0.918623 5.542922 0.972175 5.443349 1.077906 5.329946 C 1.329188 5.036757 1.598322 4.891546 1.890798 4.891546 Z M 1.890798 4.891546 " transform="matrix(2.84478,0,0,2.824548,0.00000135167,0)"/>
<path style=" stroke:none;fill-rule:evenodd;fill:rgb(100%,41.568628%,40.000001%);fill-opacity:1;" d="M 10.5 6 L 19.5 6 C 19.917969 6 20.25 6.332031 20.25 6.75 C 20.25 7.167969 19.917969 7.5 19.5 7.5 L 10.5 7.5 C 10.082031 7.5 9.75 7.167969 9.75 6.75 C 9.75 6.332031 10.082031 6 10.5 6 Z M 10.5 6 "/>
<path style=" stroke:none;fill-rule:evenodd;fill:rgb(100%,41.568628%,40.000001%);fill-opacity:1;" d="M 10.5 9 L 17.25 9 C 17.667969 9 18 9.332031 18 9.75 C 18 10.167969 17.667969 10.5 17.25 10.5 L 10.5 10.5 C 10.082031 10.5 9.75 10.167969 9.75 9.75 C 9.75 9.332031 10.082031 9 10.5 9 Z M 10.5 9 "/>
<path style=" stroke:none;fill-rule:evenodd;fill:rgb(100%,41.568628%,40.000001%);fill-opacity:1;" d="M 10.5 13.5 L 21 13.5 C 21.417969 13.5 21.75 13.832031 21.75 14.25 C 21.75 14.667969 21.417969 15 21 15 L 10.5 15 C 10.082031 15 9.75 14.667969 9.75 14.25 C 9.75 13.832031 10.082031 13.5 10.5 13.5 Z M 10.5 13.5 "/>
<path style=" stroke:none;fill-rule:evenodd;fill:rgb(100%,41.568628%,40.000001%);fill-opacity:1;" d="M 10.5 16.5 L 19.5 16.5 C 19.917969 16.5 20.25 16.832031 20.25 17.25 C 20.25 17.667969 19.917969 18 19.5 18 L 10.5 18 C 10.082031 18 9.75 17.667969 9.75 17.25 C 9.75 16.832031 10.082031 16.5 10.5 16.5 Z M 10.5 16.5 "/>
<path style=" stroke:none;fill-rule:evenodd;fill:rgb(100%,41.568628%,40.000001%);fill-opacity:1;" d="M 10.5 3 L 21 3 C 21.417969 3 21.75 3.332031 21.75 3.75 C 21.75 4.167969 21.417969 4.5 21 4.5 L 10.5 4.5 C 10.082031 4.5 9.75 4.167969 9.75 3.75 C 9.75 3.332031 10.082031 3 10.5 3 Z M 10.5 3 "/>
<path style=" stroke:none;fill-rule:evenodd;fill:rgb(100%,41.568628%,40.000001%);fill-opacity:1;" d="M 10.5 19.5 L 17.25 19.5 C 17.667969 19.5 18 19.832031 18 20.25 C 18 20.667969 17.667969 21 17.25 21 L 10.5 21 C 10.082031 21 9.75 20.667969 9.75 20.25 C 9.75 19.832031 10.082031 19.5 10.5 19.5 Z M 10.5 19.5 "/>
</g>
</svg>
