<?xml version="1.0" encoding="UTF-8"?>
<svg xmlns="http://www.w3.org/2000/svg" xmlns:xlink="http://www.w3.org/1999/xlink" width="24px" height="24px" viewBox="0 0 24 24" version="1.1">
<g id="surface1">
<path style=" stroke:none;fill-rule:evenodd;fill:rgb(100%,41.568628%,40.000001%);fill-opacity:1;" d="M 4.5 1.5 L 19.5 1.5 C 20.324219 1.5 21 2.175781 21 3 L 21 21 C 21 21.824219 20.324219 22.5 19.5 22.5 L 4.5 22.5 C 3.675781 22.5 3 21.824219 3 21 L 3 3 C 3 2.175781 3.675781 1.5 4.5 1.5 Z M 4.5 1.5 "/>
<path style=" stroke:none;fill-rule:nonzero;fill:rgb(100%,100%,100%);fill-opacity:1;" d="M 17.105469 12.328125 C 16.382812 12.410156 15.535156 12.582031 14.613281 12.832031 C 14.15625 12.636719 13.667969 12.421875 13.269531 12.136719 C 12.257812 11.402344 11.347656 10.316406 10.710938 9.050781 C 10.730469 8.925781 10.746094 8.792969 10.757812 8.667969 C 10.808594 8.0625 10.664062 6.09375 10.664062 6.09375 C 10.664062 6.09375 10.472656 7.613281 10.441406 7.839844 C 10.425781 7.988281 10.394531 8.136719 10.359375 8.300781 C 9.949219 7.332031 9.679688 6.371094 9.585938 5.628906 C 9.5625 5.417969 9.527344 5.011719 9.542969 4.683594 C 9.542969 4.449219 9.613281 4.316406 9.691406 4.246094 C 9.867188 4.269531 10.097656 4.503906 10.347656 4.921875 C 10.566406 5.277344 10.613281 5.71875 10.644531 5.996094 C 10.644531 5.996094 10.746094 5.296875 10.652344 4.902344 C 10.59375 4.667969 10.292969 4.082031 9.808594 4.148438 L 9.773438 4.152344 L 9.558594 4.175781 C 9.207031 4.222656 8.894531 4.433594 8.855469 4.730469 C 8.695312 5.859375 9.234375 7.511719 10.050781 9.542969 L 9.9375 9.972656 C 9.636719 11.0625 9.238281 12.152344 8.886719 13.125 C 7.441406 17.128906 6.199219 19.339844 5.222656 19.613281 L 5.214844 19.570312 C 5.132812 19.101562 5.847656 17.785156 6.894531 16.675781 C 7.007812 16.558594 7.464844 15.988281 7.464844 15.988281 C 7.464844 15.988281 6.808594 16.453125 6.660156 16.566406 C 5.300781 17.628906 4.683594 18.597656 4.636719 19.199219 C 4.621094 19.378906 4.667969 19.589844 4.832031 19.652344 L 5.230469 19.800781 C 6.324219 20.179688 7.410156 18.679688 8.714844 15.535156 C 10.347656 14.765625 12.402344 13.972656 14.296875 13.449219 C 16.152344 14.222656 18.191406 14.441406 18.933594 14.144531 C 19.074219 14.085938 19.214844 13.957031 19.277344 13.839844 C 19.324219 13.734375 19.359375 13.335938 19.359375 13.335938 C 19.359375 13.335938 19.242188 13.550781 19.128906 13.621094 C 18.679688 13.910156 17.109375 13.722656 15.449219 13.152344 C 16.78125 12.839844 17.90625 12.691406 18.535156 12.808594 C 19.332031 12.960938 19.359375 13.207031 19.355469 13.261719 C 19.359375 13.21875 19.378906 13.050781 19.359375 12.972656 C 19.316406 12.792969 19.242188 12.636719 19.089844 12.519531 C 18.773438 12.277344 18.050781 12.222656 17.105469 12.328125 Z M 8.824219 15.160156 C 9.046875 14.605469 9.292969 14.003906 9.539062 13.359375 C 10.007812 12.105469 10.269531 11.15625 10.480469 10.261719 C 11.109375 11.203125 11.917969 12.070312 12.914062 12.726562 C 13.136719 12.867188 13.371094 13.003906 13.613281 13.128906 C 12.011719 13.640625 10.339844 14.285156 8.824219 15.160156 Z M 8.824219 15.160156 "/>
</g>
</svg>
