<?xml version="1.0" encoding="UTF-8"?>
<svg xmlns="http://www.w3.org/2000/svg" xmlns:xlink="http://www.w3.org/1999/xlink" width="24px" height="24px" viewBox="0 0 24 24" version="1.1">
<g id="surface1">
<path style=" stroke:none;fill-rule:nonzero;fill:rgb(33.333334%,38.431373%,44.705883%);fill-opacity:1;" d="M 19.152344 2.128906 L 13.589844 8.667969 L 15.332031 10.410156 L 21.871094 4.847656 L 21.867188 4.839844 C 21.890625 4.824219 21.914062 4.800781 21.9375 4.777344 C 22.6875 4.027344 22.6875 2.8125 21.9375 2.0625 C 21.1875 1.3125 19.972656 1.3125 19.222656 2.0625 C 19.199219 2.085938 19.175781 2.109375 19.160156 2.132812 Z M 21.089844 2.910156 C 21.398438 3.214844 21.398438 3.714844 21.089844 4.019531 C 20.785156 4.332031 20.285156 4.332031 19.980469 4.019531 C 19.667969 3.714844 19.667969 3.214844 19.980469 2.910156 C 20.285156 2.601562 20.785156 2.601562 21.089844 2.910156 Z M 21.089844 2.910156 "/>
<path style=" stroke:none;fill-rule:nonzero;fill:rgb(100%,41.568628%,40.000001%);fill-opacity:1;" d="M 9.492188 6.46875 L 17.53125 14.507812 L 11.105469 22.105469 C 10.710938 22.570312 10.035156 22.636719 9.652344 22.242188 L 1.757812 14.347656 C 1.363281 13.964844 1.429688 13.289062 1.894531 12.894531 Z M 9.492188 6.46875 "/>
<path style=" stroke:none;fill-rule:nonzero;fill:rgb(77.64706%,30.19608%,33.725491%);fill-opacity:1;" d="M 1.828125 12.949219 C 1.824219 12.960938 1.808594 12.972656 1.800781 12.984375 C 1.792969 12.988281 1.785156 12.996094 1.785156 12.996094 C 1.777344 13.007812 1.761719 13.019531 1.757812 13.03125 C 1.753906 13.035156 1.746094 13.042969 1.746094 13.050781 C 1.730469 13.058594 1.714844 13.078125 1.707031 13.097656 C 1.691406 13.113281 1.683594 13.128906 1.667969 13.148438 C 1.667969 13.152344 1.664062 13.152344 1.664062 13.160156 C 1.652344 13.171875 1.644531 13.191406 1.640625 13.199219 C 1.636719 13.207031 1.636719 13.214844 1.628906 13.214844 C 1.621094 13.230469 1.617188 13.242188 1.613281 13.253906 C 1.605469 13.261719 1.605469 13.265625 1.605469 13.269531 C 1.429688 13.636719 1.476562 14.066406 1.757812 14.347656 L 3.117188 15.714844 C 2.730469 15.324219 2.792969 14.648438 3.257812 14.253906 L 8.695312 9.660156 C 9.261719 9.175781 10.113281 9.210938 10.640625 9.746094 L 16.558594 15.65625 L 17.53125 14.507812 L 9.492188 6.46875 L 1.894531 12.894531 C 1.875 12.910156 1.863281 12.917969 1.847656 12.9375 C 1.839844 12.941406 1.832031 12.949219 1.828125 12.949219 Z M 1.828125 12.949219 "/>
<path style=" stroke:none;fill-rule:nonzero;fill:rgb(33.333334%,38.431373%,44.705883%);fill-opacity:1;" d="M 10.542969 4.945312 L 19.054688 13.457031 C 19.292969 13.699219 19.292969 14.085938 19.054688 14.320312 L 18.09375 15.285156 C 17.855469 15.527344 17.464844 15.527344 17.226562 15.285156 L 8.714844 6.773438 C 8.472656 6.535156 8.472656 6.144531 8.714844 5.90625 L 9.679688 4.945312 C 9.914062 4.707031 10.300781 4.707031 10.542969 4.945312 Z M 10.542969 4.945312 "/>
<path style=" stroke:none;fill-rule:nonzero;fill:rgb(33.333334%,38.431373%,44.705883%);fill-opacity:1;" d="M 9.628906 5.859375 L 18.140625 14.371094 C 18.378906 14.613281 18.378906 14.996094 18.140625 15.234375 L 19.054688 14.320312 C 19.292969 14.085938 19.292969 13.699219 19.054688 13.457031 L 10.542969 4.945312 C 10.300781 4.707031 9.914062 4.707031 9.679688 4.945312 L 8.765625 5.859375 C 9.003906 5.621094 9.386719 5.621094 9.628906 5.859375 Z M 9.628906 5.859375 "/>
<path style=" stroke:none;fill-rule:nonzero;fill:rgb(0%,0%,0%);fill-opacity:1;" d="M 12.9375 18.378906 C 13.285156 18.027344 13.285156 17.464844 12.9375 17.113281 C 12.585938 16.769531 12.023438 16.769531 11.671875 17.113281 L 10.792969 17.996094 C 10.441406 18.347656 9.878906 18.347656 9.527344 17.996094 C 9.183594 17.648438 9.183594 17.085938 9.527344 16.734375 L 9.777344 16.480469 C 10.074219 16.191406 10.121094 15.746094 9.914062 15.398438 C 9.878906 15.332031 9.832031 15.277344 9.777344 15.222656 C 9.425781 14.871094 8.863281 14.871094 8.511719 15.222656 L 7.628906 16.101562 C 7.285156 16.449219 6.722656 16.449219 6.371094 16.101562 C 6.023438 15.75 6.023438 15.1875 6.371094 14.835938 L 6.621094 14.589844 C 6.964844 14.238281 6.964844 13.675781 6.621094 13.324219 C 6.269531 12.980469 5.699219 12.980469 5.355469 13.324219 L 3.042969 15.636719 L 9.339844 21.933594 Z M 12.9375 18.378906 "/>
</g>
</svg>
