<?xml version="1.0" encoding="UTF-8"?>
<svg xmlns="http://www.w3.org/2000/svg" xmlns:xlink="http://www.w3.org/1999/xlink" width="24px" height="24px" viewBox="0 0 24 24" version="1.1">
<g id="surface1">
<path style=" stroke:none;fill-rule:nonzero;fill:rgb(86.666667%,91.764706%,98.431373%);fill-opacity:1;" d="M 20.605469 9.5625 L 20.605469 20.8125 C 20.605469 21.746094 19.851562 22.5 18.917969 22.5 L 5.082031 22.5 C 4.285156 22.5 3.613281 21.949219 3.441406 21.207031 L 3.433594 20.246094 L 3.394531 14.507812 L 3.394531 3.1875 C 3.394531 2.253906 4.148438 1.5 5.082031 1.5 L 12.542969 1.5 C 13.21875 1.5 15.386719 3.351562 17.308594 5.300781 C 19.058594 7.082031 20.605469 8.949219 20.605469 9.5625 Z M 20.605469 9.5625 "/>
<path style=" stroke:none;fill-rule:nonzero;fill:rgb(79.607844%,88.627452%,100%);fill-opacity:1;" d="M 20.605469 9.5625 L 20.605469 13.683594 C 20.605469 13.675781 20.605469 13.675781 20.605469 13.667969 C 20.480469 8.613281 16.359375 8.378906 15.011719 7.03125 L 17.308594 5.300781 C 19.058594 7.082031 20.605469 8.949219 20.605469 9.5625 Z M 20.605469 9.5625 "/>
<path style=" stroke:none;fill-rule:nonzero;fill:rgb(79.607844%,88.627452%,100%);fill-opacity:1;" d="M 12.542969 1.5 L 8.417969 1.5 C 8.425781 1.5 8.433594 1.5 8.4375 1.5 C 13.496094 1.628906 13.730469 5.746094 15.074219 7.097656 L 16.800781 4.792969 C 15.019531 3.042969 13.160156 1.5 12.542969 1.5 Z M 12.542969 1.5 "/>
<path style=" stroke:none;fill-rule:nonzero;fill:rgb(27.843139%,80.392158%,77.64706%);fill-opacity:1;" d="M 20.605469 9.5625 L 20.605469 10.269531 C 20.605469 8.769531 19.386719 7.558594 17.886719 7.558594 L 16.238281 7.558594 C 15.304688 7.558594 14.550781 6.800781 14.550781 5.871094 L 14.550781 4.21875 C 14.550781 2.71875 13.332031 1.5 11.832031 1.5 L 12.542969 1.5 C 13.828125 1.5 15.058594 2.011719 15.964844 2.917969 L 19.191406 6.140625 C 20.097656 7.050781 20.605469 8.277344 20.605469 9.5625 Z M 20.605469 9.5625 "/>
<path style="fill-rule:evenodd;fill:rgb(100%,100%,100%);fill-opacity:1;stroke-width:2;stroke-linecap:round;stroke-linejoin:round;stroke:rgb(100%,100%,100%);stroke-opacity:1;stroke-miterlimit:4;" d="M 30.531868 23.103549 C 30.531868 27.186882 27.208951 30.509799 23.115201 30.509799 C 19.031868 30.509799 15.708951 27.186882 15.708951 23.103549 C 15.708951 19.009799 19.031868 15.697299 23.115201 15.697299 C 27.208951 15.697299 30.531868 19.009799 30.531868 23.103549 Z M 30.531868 23.103549 " transform="matrix(0.75,0,0,0.75,-1.105932,-1.144068)"/>
<path style="fill-rule:evenodd;fill:rgb(100%,100%,100%);fill-opacity:1;stroke-width:2;stroke-linecap:round;stroke-linejoin:round;stroke:rgb(100%,41.568628%,40.000001%);stroke-opacity:1;stroke-miterlimit:4;" d="M 29.912076 23.103549 C 29.912076 26.853549 26.875618 29.900424 23.115201 29.900424 C 19.365201 29.900424 16.318326 26.853549 16.318326 23.103549 C 16.318326 19.343132 19.365201 16.306674 23.115201 16.306674 C 26.875618 16.306674 29.912076 19.343132 29.912076 23.103549 Z M 29.912076 23.103549 " transform="matrix(0.75,0,0,0.75,-1.105932,-1.144068)"/>
<path style="fill:none;stroke-width:2;stroke-linecap:round;stroke-linejoin:miter;stroke:rgb(27.843139%,80.392158%,77.64706%);stroke-opacity:1;stroke-miterlimit:4;" d="M 23.000618 18.999382 L 23.000618 26.999382 " transform="matrix(0.75,0,0,0.75,-1.105932,-1.144068)"/>
<path style="fill:none;stroke-width:2;stroke-linecap:round;stroke-linejoin:miter;stroke:rgb(27.843139%,80.392158%,77.64706%);stroke-opacity:1;stroke-miterlimit:4;" d="M 19.000618 22.999382 L 27.000618 22.999382 " transform="matrix(0.75,0,0,0.75,-1.105932,-1.144068)"/>
</g>
</svg>
