<?xml version="1.0" encoding="UTF-8"?>
<svg xmlns="http://www.w3.org/2000/svg" xmlns:xlink="http://www.w3.org/1999/xlink" width="24px" height="24px" viewBox="0 0 24 24" version="1.1">
<g id="surface1">
<path style="fill-rule:nonzero;fill:rgb(27.843139%,80.392158%,77.64706%);fill-opacity:1;stroke-width:14.13985;stroke-linecap:butt;stroke-linejoin:miter;stroke:rgb(100%,41.568628%,40.000001%);stroke-opacity:1;stroke-miterlimit:4;" d="M 127.067584 43.49819 C 127.067584 67.293428 107.778915 86.570272 83.999372 86.570272 C 60.21983 86.570272 40.931161 67.293428 40.931161 43.49819 C 40.931161 19.702951 60.21983 0.450663 83.999372 0.450663 C 107.778915 0.450663 127.067584 19.702951 127.067584 43.49819 Z M 127.067584 43.49819 " transform="matrix(0.159177,0,0,0.159072,1.148763,2.553312)"/>
<path style="fill-rule:nonzero;fill:rgb(27.843139%,80.392158%,77.64706%);fill-opacity:1;stroke-width:12.479776;stroke-linecap:butt;stroke-linejoin:miter;stroke:rgb(100%,41.568628%,40.000001%);stroke-opacity:1;stroke-miterlimit:4;" d="M 9.489854 27.976984 L 74.531729 27.976984 C 75.333378 27.976984 76.026696 28.626975 76.026696 29.450297 L 76.026696 94.536045 C 76.026696 95.359367 75.333378 96.009358 74.531729 96.009358 L 9.489854 96.009358 C 8.688205 96.009358 7.994887 95.359367 7.994887 94.536045 L 7.994887 29.450297 C 7.994887 28.626975 8.688205 27.976984 9.489854 27.976984 Z M 9.489854 27.976984 " transform="matrix(0.180293,0,0,0.180291,1.171863,1.182564)"/>
<path style="fill-rule:nonzero;fill:rgb(27.843139%,80.392158%,77.64706%);fill-opacity:1;stroke-width:17.552666;stroke-linecap:butt;stroke-linejoin:miter;stroke:rgb(100%,41.568628%,40.000001%);stroke-opacity:1;stroke-miterlimit:4;" d="M 26.697947 -40.292656 C 24.96165 -40.314378 23.29842 -39.547915 22.22029 -38.189026 L -39.368736 36.610003 C -42.101286 40.037781 -40.198407 45.186345 -35.830258 45.866748 L 57.92081 55.204408 C 62.260513 55.895686 65.746703 51.624815 64.178885 47.523365 L 32.005955 -36.641806 C 31.167608 -38.834942 29.04005 -40.306675 26.697947 -40.292656 Z M 26.697947 -40.292656 " transform="matrix(-0.0457479,0.11981,-0.119659,-0.0457986,17.732025,15.862215)"/>
</g>
</svg>
