<?xml version="1.0" encoding="UTF-8"?>
<svg xmlns="http://www.w3.org/2000/svg" xmlns:xlink="http://www.w3.org/1999/xlink" width="24px" height="24px" viewBox="0 0 24 24" version="1.1">
<g id="surface1">
<path style=" stroke:none;fill-rule:nonzero;fill:rgb(100%,41.568628%,40.000001%);fill-opacity:1;" d="M 14.417969 5.519531 L 14.417969 5.058594 C 14.417969 4.535156 13.992188 4.113281 13.472656 4.113281 L 11.917969 4.113281 C 12.046875 3.878906 12.121094 3.585938 12.121094 3.292969 C 12.121094 2.324219 11.339844 1.542969 10.371094 1.542969 C 9.402344 1.542969 8.613281 2.324219 8.613281 3.292969 C 8.613281 3.585938 8.691406 3.878906 8.816406 4.113281 L 7.546875 4.113281 C 7.019531 4.113281 6.597656 4.535156 6.597656 5.058594 L 6.597656 5.519531 L 4.488281 5.519531 C 3.699219 5.519531 3.050781 6.160156 3.050781 6.957031 L 3.050781 21.097656 C 3.050781 21.894531 3.699219 22.542969 4.488281 22.542969 L 16.527344 22.542969 C 17.320312 22.542969 17.964844 21.894531 17.964844 21.097656 L 17.964844 6.957031 C 17.964844 6.160156 17.320312 5.519531 16.527344 5.519531 Z M 14.417969 5.519531 "/>
<path style=" stroke:none;fill-rule:nonzero;fill:rgb(100%,100%,100%);fill-opacity:1;" d="M 9.324219 3.292969 C 9.324219 2.71875 9.792969 2.25 10.363281 2.25 C 10.945312 2.25 11.414062 2.71875 11.414062 3.292969 C 11.414062 3.621094 11.261719 3.910156 11.019531 4.113281 L 9.722656 4.113281 C 9.480469 3.910156 9.324219 3.621094 9.324219 3.292969 Z M 9.324219 3.292969 "/>
<path style=" stroke:none;fill-rule:nonzero;fill:rgb(100%,100%,100%);fill-opacity:1;" d="M 16.527344 20.25 C 16.527344 20.738281 16.128906 21.128906 15.644531 21.128906 L 5.371094 21.128906 C 4.878906 21.128906 4.488281 20.738281 4.488281 20.25 L 4.488281 7.832031 C 4.488281 7.347656 4.878906 6.957031 5.371094 6.957031 L 6.597656 6.957031 C 6.597656 7.339844 6.914062 7.660156 7.300781 7.660156 L 13.714844 7.660156 C 14.105469 7.660156 14.417969 7.339844 14.417969 6.957031 L 15.644531 6.957031 C 16.128906 6.957031 16.527344 7.347656 16.527344 7.832031 Z M 16.527344 20.25 "/>
<path style=" stroke:none;fill-rule:nonzero;fill:rgb(86.666667%,91.764706%,98.431373%);fill-opacity:1;" d="M 20.953125 13.292969 L 20.953125 21.394531 C 20.953125 22.058594 20.414062 22.597656 19.746094 22.597656 L 9.792969 22.597656 C 9.214844 22.597656 8.742188 22.207031 8.613281 21.675781 L 8.605469 20.980469 L 8.578125 16.851562 L 8.578125 8.714844 C 8.578125 8.042969 9.121094 7.5 9.792969 7.5 L 15.160156 7.5 C 15.636719 7.5 17.203125 8.835938 18.585938 10.238281 C 19.847656 11.519531 20.953125 12.855469 20.953125 13.292969 Z M 20.953125 13.292969 "/>
<path style=" stroke:none;fill-rule:nonzero;fill:rgb(79.607844%,88.627452%,100%);fill-opacity:1;" d="M 20.953125 13.292969 L 20.953125 16.261719 C 20.953125 16.261719 20.953125 16.253906 20.953125 16.253906 C 20.863281 12.613281 17.902344 12.445312 16.933594 11.480469 L 18.585938 10.238281 C 19.847656 11.519531 20.953125 12.855469 20.953125 13.292969 Z M 20.953125 13.292969 "/>
<path style=" stroke:none;fill-rule:nonzero;fill:rgb(79.607844%,88.627452%,100%);fill-opacity:1;" d="M 15.160156 7.5 L 12.191406 7.5 C 12.199219 7.5 12.199219 7.5 12.207031 7.5 C 15.84375 7.59375 16.007812 10.558594 16.980469 11.527344 L 18.214844 9.871094 C 16.941406 8.613281 15.597656 7.5 15.160156 7.5 Z M 15.160156 7.5 "/>
<path style=" stroke:none;fill-rule:nonzero;fill:rgb(27.843139%,80.392158%,77.64706%);fill-opacity:1;" d="M 20.953125 13.292969 L 20.953125 13.808594 C 20.953125 12.730469 20.082031 11.855469 19.003906 11.855469 L 17.8125 11.855469 C 17.144531 11.855469 16.597656 11.316406 16.597656 10.644531 L 16.597656 9.457031 C 16.597656 8.378906 15.726562 7.5 14.648438 7.5 L 15.160156 7.5 C 16.082031 7.5 16.96875 7.871094 17.621094 8.519531 L 19.933594 10.839844 C 20.589844 11.488281 20.953125 12.375 20.953125 13.292969 Z M 20.953125 13.292969 "/>
<path style=" stroke:none;fill-rule:nonzero;fill:rgb(100%,41.568628%,40.000001%);fill-opacity:1;" d="M 19.347656 15.679688 L 10.183594 15.679688 C 10.027344 15.679688 9.902344 15.558594 9.902344 15.398438 C 9.902344 15.238281 10.027344 15.117188 10.183594 15.117188 L 19.347656 15.117188 C 19.503906 15.117188 19.636719 15.238281 19.636719 15.398438 C 19.636719 15.558594 19.503906 15.679688 19.347656 15.679688 Z M 19.347656 15.679688 "/>
<path style=" stroke:none;fill-rule:nonzero;fill:rgb(100%,41.568628%,40.000001%);fill-opacity:1;" d="M 19.347656 17.019531 L 10.183594 17.019531 C 10.027344 17.019531 9.902344 16.894531 9.902344 16.738281 C 9.902344 16.582031 10.027344 16.457031 10.183594 16.457031 L 19.347656 16.457031 C 19.503906 16.457031 19.636719 16.582031 19.636719 16.738281 C 19.636719 16.894531 19.503906 17.019531 19.347656 17.019531 Z M 19.347656 17.019531 "/>
<path style=" stroke:none;fill-rule:nonzero;fill:rgb(100%,41.568628%,40.000001%);fill-opacity:1;" d="M 19.347656 18.363281 L 10.183594 18.363281 C 10.027344 18.363281 9.902344 18.234375 9.902344 18.082031 C 9.902344 17.925781 10.027344 17.800781 10.183594 17.800781 L 19.347656 17.800781 C 19.503906 17.800781 19.636719 17.925781 19.636719 18.082031 C 19.636719 18.234375 19.503906 18.363281 19.347656 18.363281 Z M 19.347656 18.363281 "/>
<path style=" stroke:none;fill-rule:nonzero;fill:rgb(100%,41.568628%,40.000001%);fill-opacity:1;" d="M 13.550781 19.707031 L 10.183594 19.707031 C 10.027344 19.707031 9.902344 19.574219 9.902344 19.425781 C 9.902344 19.265625 10.027344 19.136719 10.183594 19.136719 L 13.550781 19.136719 C 13.707031 19.136719 13.832031 19.265625 13.832031 19.425781 C 13.832031 19.574219 13.707031 19.707031 13.550781 19.707031 Z M 13.550781 19.707031 "/>
<path style=" stroke:none;fill-rule:nonzero;fill:rgb(100%,41.568628%,40.000001%);fill-opacity:1;" d="M 13.550781 11.957031 L 10.183594 11.957031 C 10.027344 11.957031 9.902344 11.835938 9.902344 11.675781 C 9.902344 11.527344 10.027344 11.394531 10.183594 11.394531 L 13.550781 11.394531 C 13.707031 11.394531 13.832031 11.527344 13.832031 11.675781 C 13.832031 11.835938 13.707031 11.957031 13.550781 11.957031 Z M 13.550781 11.957031 "/>
</g>
</svg>
