<?xml version="1.0" encoding="UTF-8"?>
<svg xmlns="http://www.w3.org/2000/svg" xmlns:xlink="http://www.w3.org/1999/xlink" width="24px" height="24px" viewBox="0 0 24 24" version="1.1">
<g id="surface1">
<path style="fill-rule:nonzero;fill:rgb(27.843139%,80.392158%,77.64706%);fill-opacity:1;stroke-width:0.755952;stroke-linecap:butt;stroke-linejoin:round;stroke:rgb(27.843139%,80.392158%,77.64706%);stroke-opacity:1;stroke-miterlimit:4;" d="M 8.319674 287.477814 L 5.14625 289.596055 L 8.319674 291.712328 Z M 8.319674 287.477814 " transform="matrix(0,1.984252,1.984252,0,-567.428558,4.491666)"/>
<path style="fill:none;stroke-width:0.529167;stroke-linecap:round;stroke-linejoin:miter;stroke:rgb(100%,41.568628%,40.000001%);stroke-opacity:1;stroke-miterlimit:4;" d="M 5.027082 1.5875 L 7.672915 1.5875 " transform="matrix(2.834646,0,0,2.834646,0.00000135167,0)"/>
<path style="fill:none;stroke-width:0.529167;stroke-linecap:round;stroke-linejoin:miter;stroke:rgb(100%,41.568628%,40.000001%);stroke-opacity:1;stroke-miterlimit:4;" d="M 5.027082 2.645833 L 7.672915 2.645833 " transform="matrix(2.834646,0,0,2.834646,0.00000135167,0)"/>
<path style="fill:none;stroke-width:0.529167;stroke-linecap:round;stroke-linejoin:miter;stroke:rgb(100%,41.568628%,40.000001%);stroke-opacity:1;stroke-miterlimit:4;" d="M 5.027082 5.820833 L 7.672915 5.820833 " transform="matrix(2.834646,0,0,2.834646,0.00000135167,0)"/>
<path style="fill:none;stroke-width:0.529167;stroke-linecap:round;stroke-linejoin:miter;stroke:rgb(100%,41.568628%,40.000001%);stroke-opacity:1;stroke-miterlimit:4;" d="M 5.027082 6.879166 L 7.672915 6.879166 " transform="matrix(2.834646,0,0,2.834646,0.00000135167,0)"/>
<path style="fill-rule:nonzero;fill:rgb(27.843139%,80.392158%,77.64706%);fill-opacity:1;stroke-width:0.755952;stroke-linecap:butt;stroke-linejoin:round;stroke:rgb(27.843139%,80.392158%,77.64706%);stroke-opacity:1;stroke-miterlimit:4;" d="M 8.319674 287.477814 L 5.146249 289.596055 L 8.319674 291.712328 Z M 8.319674 287.477814 " transform="matrix(0,-1.984252,1.984252,0,-567.428558,19.508333)"/>
</g>
</svg>
