<?xml version="1.0" encoding="UTF-8"?>
<svg xmlns="http://www.w3.org/2000/svg" xmlns:xlink="http://www.w3.org/1999/xlink" width="24px" height="24px" viewBox="0 0 24 24" version="1.1">
<g id="surface1">
<path style=" stroke:none;fill-rule:nonzero;fill:rgb(100%,41.568628%,40.000001%);fill-opacity:1;" d="M 19.710938 9.902344 L 15.28125 22.042969 L 18.796875 23.332031 C 19.265625 23.503906 19.433594 23.753906 19.3125 24.082031 C 19.183594 24.441406 18.890625 24.535156 18.421875 24.363281 L 10.359375 21.433594 C 9.902344 21.257812 9.738281 20.996094 9.867188 20.636719 C 9.988281 20.308594 10.277344 20.226562 10.734375 20.402344 L 14.25 21.667969 L 18.679688 9.527344 L 15.164062 8.261719 C 14.707031 8.09375 14.542969 7.835938 14.671875 7.488281 C 14.792969 7.148438 15.082031 7.0625 15.539062 7.230469 L 23.601562 10.160156 C 24.070312 10.335938 24.238281 10.59375 24.117188 10.933594 C 23.988281 11.28125 23.695312 11.367188 23.226562 11.191406 Z M 19.710938 9.902344 "/>
<path style=" stroke:none;fill-rule:nonzero;fill:rgb(91.764706%,98.039216%,100%);fill-opacity:1;" d="M 10.617188 17.183594 L 9.941406 17.859375 C 9.574219 18.230469 9.574219 18.824219 9.941406 19.195312 L 12.332031 21.585938 C 12.703125 21.957031 13.300781 21.957031 13.667969 21.585938 L 14.34375 20.910156 Z M 10.617188 17.183594 "/>
<path style=" stroke:none;fill-rule:nonzero;fill:rgb(0%,0%,0%);fill-opacity:1;" d="M 21 12.917969 C 21.371094 13.289062 21.371094 13.886719 21 14.253906 L 17.292969 17.972656 L 13.558594 14.238281 L 17.273438 10.527344 C 17.644531 10.160156 18.238281 10.160156 18.605469 10.527344 Z M 21 12.917969 "/>
<path style=" stroke:none;fill-rule:nonzero;fill:rgb(58.823532%,78.431374%,93.725491%);fill-opacity:1;" d="M 17.292969 17.972656 L 14.34375 20.910156 C 13.972656 21.28125 13.378906 21.28125 13.007812 20.910156 L 10.617188 18.515625 C 10.246094 18.152344 10.246094 17.554688 10.617188 17.183594 L 13.558594 14.238281 Z M 17.292969 17.972656 "/>
</g>
</svg>
