<?xml version="1.0" encoding="UTF-8"?>
<svg xmlns="http://www.w3.org/2000/svg" xmlns:xlink="http://www.w3.org/1999/xlink" width="24px" height="24px" viewBox="0 0 24 24" version="1.1">
<g id="surface1">
<path style=" stroke:none;fill-rule:nonzero;fill:rgb(100%,41.568628%,40.000001%);fill-opacity:1;" d="M 15.808594 4.5 C 15.996094 4.503906 16.171875 4.582031 16.308594 4.710938 L 21.304688 9.589844 C 21.332031 9.621094 21.355469 9.65625 21.375 9.691406 C 21.5625 9.894531 21.714844 10.152344 21.714844 10.476562 C 21.714844 10.847656 21.539062 11.144531 21.355469 11.367188 C 21.355469 11.367188 21.351562 11.367188 21.351562 11.367188 C 21.339844 11.386719 21.324219 11.402344 21.304688 11.417969 L 21.300781 11.417969 L 16.308594 16.289062 C 16.078125 16.503906 15.746094 16.546875 15.492188 16.441406 C 15.238281 16.332031 15.035156 16.066406 15.035156 15.75 L 15.035156 12.75 L 6.785156 12.792969 C 6.894531 12.792969 6.816406 12.792969 6.796875 12.808594 C 6.785156 12.820312 6.785156 12.902344 6.785156 12.792969 L 6.785156 18.75 C 6.785156 19.160156 6.445312 19.5 6.035156 19.5 L 3.035156 19.5 C 2.625 19.5 2.285156 19.160156 2.285156 18.75 L 2.285156 12.792969 C 2.285156 12.753906 2.296875 12.722656 2.300781 12.679688 C 2.292969 12.605469 2.285156 12.515625 2.285156 12.410156 L 2.285156 12.402344 C 2.285156 10.144531 4.136719 8.292969 6.398438 8.292969 L 6.402344 8.292969 C 6.511719 8.292969 6.597656 8.300781 6.675781 8.308594 C 6.707031 8.300781 6.746094 8.292969 6.785156 8.292969 L 15.035156 8.25 L 15.035156 5.25 C 15.035156 4.832031 15.386719 4.488281 15.808594 4.5 Z M 15.808594 4.5 "/>
</g>
</svg>
