<?xml version="1.0" encoding="UTF-8"?>
<svg xmlns="http://www.w3.org/2000/svg" xmlns:xlink="http://www.w3.org/1999/xlink" width="24px" height="24px" viewBox="0 0 24 24" version="1.1">
<g id="surface1">
<path style=" stroke:none;fill-rule:nonzero;fill:rgb(100%,41.568628%,40.000001%);fill-opacity:1;" d="M 10.777344 3.214844 L 11.089844 3.199219 C 11.246094 3.1875 11.402344 3.183594 11.558594 3.183594 C 13.191406 3.183594 15.117188 3.535156 17.332031 4.230469 C 18.332031 4.714844 18.863281 5.449219 18.910156 6.425781 L 18.910156 6.558594 C 18.910156 7.386719 18.492188 8.085938 17.660156 8.648438 C 17.269531 8.835938 16.894531 8.933594 16.535156 8.957031 L 16.503906 8.957031 C 16.195312 8.957031 15.457031 8.789062 14.292969 8.441406 C 13.238281 8.203125 12.304688 8.085938 11.496094 8.085938 C 11.371094 8.085938 11.25 8.089844 11.136719 8.097656 C 10.347656 8.144531 9.84375 8.292969 9.621094 8.554688 C 10.121094 8.886719 11.601562 9.398438 14.058594 10.097656 C 17.355469 11.136719 19.054688 12.761719 19.160156 14.972656 L 19.160156 15.253906 C 19.160156 16.207031 18.824219 17.199219 18.164062 18.214844 C 16.921875 19.863281 15.011719 20.742188 12.433594 20.855469 L 12.136719 20.871094 C 11.929688 20.882812 11.714844 20.882812 11.496094 20.882812 C 9.902344 20.882812 8.089844 20.613281 6.066406 20.074219 C 5.574219 19.855469 5.179688 19.511719 4.875 19.042969 C 4.660156 18.652344 4.542969 18.269531 4.535156 17.90625 L 4.535156 17.777344 C 4.535156 17.019531 4.878906 16.359375 5.578125 15.796875 C 5.996094 15.527344 6.433594 15.378906 6.890625 15.355469 L 6.917969 15.355469 C 7.144531 15.355469 7.761719 15.46875 8.792969 15.683594 C 9.796875 15.886719 10.722656 15.984375 11.574219 15.984375 C 11.761719 15.984375 11.941406 15.980469 12.117188 15.964844 C 13.105469 15.925781 13.769531 15.75 14.105469 15.441406 L 14.105469 15.402344 C 13.699219 15.136719 12.394531 14.683594 10.183594 14.050781 C 6.585938 12.984375 4.730469 11.300781 4.628906 8.988281 L 4.628906 8.695312 C 4.628906 7.546875 5.050781 6.445312 5.886719 5.386719 C 7.066406 4.03125 8.695312 3.308594 10.777344 3.214844 Z M 10.777344 3.214844 "/>
<path style=" stroke:none;fill-rule:nonzero;fill:rgb(100%,100%,100%);fill-opacity:1;" d="M 1.605469 11.25 L 22.394531 11.25 C 22.453125 11.25 22.5 11.296875 22.5 11.355469 L 22.5 14.144531 C 22.5 14.203125 22.453125 14.25 22.394531 14.25 L 1.605469 14.25 C 1.546875 14.25 1.5 14.203125 1.5 14.144531 L 1.5 11.355469 C 1.5 11.296875 1.546875 11.25 1.605469 11.25 Z M 1.605469 11.25 "/>
<path style=" stroke:none;fill-rule:nonzero;fill:rgb(33.333334%,38.431373%,44.705883%);fill-opacity:1;" d="M 2.25 12 L 21.75 12 C 22.167969 12 22.5 12.332031 22.5 12.75 C 22.5 13.167969 22.167969 13.5 21.75 13.5 L 2.25 13.5 C 1.832031 13.5 1.5 13.167969 1.5 12.75 C 1.5 12.332031 1.832031 12 2.25 12 Z M 2.25 12 "/>
</g>
</svg>
