<?xml version="1.0" encoding="UTF-8"?>
<svg xmlns="http://www.w3.org/2000/svg" xmlns:xlink="http://www.w3.org/1999/xlink" width="32px" height="32px" viewBox="0 0 32 32" version="1.1">
<g id="surface1">
<path style="fill-rule:nonzero;fill:rgb(27.843139%,80.392158%,77.64706%);fill-opacity:1;stroke-width:14.13985;stroke-linecap:butt;stroke-linejoin:miter;stroke:rgb(100%,41.568628%,40.000001%);stroke-opacity:1;stroke-miterlimit:4;" d="M 127.067584 43.510468 C 127.067584 67.305706 107.778915 86.570272 83.999372 86.570272 C 60.21983 86.570272 40.931161 67.305706 40.931161 43.510468 C 40.931161 19.715229 60.21983 0.450663 83.999372 0.450663 C 107.778915 0.450663 127.067584 19.715229 127.067584 43.510468 Z M 127.067584 43.510468 " transform="matrix(0.212236,0,0,0.212096,1.531684,3.404416)"/>
<path style="fill-rule:nonzero;fill:rgb(27.843139%,80.392158%,77.64706%);fill-opacity:1;stroke-width:12.479776;stroke-linecap:butt;stroke-linejoin:miter;stroke:rgb(100%,41.568628%,40.000001%);stroke-opacity:1;stroke-miterlimit:4;" d="M 9.489854 27.987817 L 74.520896 27.987817 C 75.333378 27.987817 76.015863 28.637808 76.015863 29.450297 L 76.015863 94.546878 C 76.015863 95.359367 75.333378 96.009358 74.520896 96.009358 L 9.489854 96.009358 C 8.677372 96.009358 7.994887 95.359367 7.994887 94.546878 L 7.994887 29.450297 C 7.994887 28.637808 8.677372 27.987817 9.489854 27.987817 Z M 9.489854 27.987817 " transform="matrix(0.24039,0,0,0.240388,1.562484,1.576752)"/>
<path style="fill-rule:nonzero;fill:rgb(27.843139%,80.392158%,77.64706%);fill-opacity:1;stroke-width:17.552666;stroke-linecap:butt;stroke-linejoin:miter;stroke:rgb(100%,41.568628%,40.000001%);stroke-opacity:1;stroke-miterlimit:4;" d="M 26.692503 -40.306897 C 24.97043 -40.334057 23.312643 -39.553353 22.214846 -38.203267 L -39.368736 36.610003 C -42.110066 40.05746 -40.192963 45.200586 -35.824814 45.880989 L 57.915367 55.190166 C 62.240846 55.886883 65.741259 51.610574 64.173441 47.509124 L 32.000511 -36.656047 C 31.167608 -38.834942 29.034606 -40.320916 26.692503 -40.306897 Z M 26.692503 -40.306897 " transform="matrix(-0.0609972,0.159747,-0.159545,-0.0610648,23.6427,21.14962)"/>
</g>
</svg>
