<?xml version="1.0" encoding="UTF-8"?>
<svg xmlns="http://www.w3.org/2000/svg" xmlns:xlink="http://www.w3.org/1999/xlink" width="32px" height="32px" viewBox="0 0 32 32" version="1.1">
<g id="surface1">
<path style=" stroke:none;fill-rule:nonzero;fill:rgb(100%,41.568628%,40.000001%);fill-opacity:1;" d="M 19.226562 7.359375 L 19.226562 6.742188 C 19.226562 6.046875 18.65625 5.484375 17.960938 5.484375 L 15.890625 5.484375 C 16.0625 5.171875 16.164062 4.78125 16.164062 4.390625 C 16.164062 3.101562 15.117188 2.054688 13.828125 2.054688 C 12.539062 2.054688 11.484375 3.101562 11.484375 4.390625 C 11.484375 4.78125 11.585938 5.171875 11.757812 5.484375 L 10.0625 5.484375 C 9.359375 5.484375 8.796875 6.046875 8.796875 6.742188 L 8.796875 7.359375 L 5.984375 7.359375 C 4.929688 7.359375 4.070312 8.210938 4.070312 9.273438 L 4.070312 28.132812 C 4.070312 29.195312 4.929688 30.054688 5.984375 30.054688 L 22.039062 30.054688 C 23.09375 30.054688 23.953125 29.195312 23.953125 28.132812 L 23.953125 9.273438 C 23.953125 8.210938 23.09375 7.359375 22.039062 7.359375 Z M 19.226562 7.359375 "/>
<path style=" stroke:none;fill-rule:nonzero;fill:rgb(100%,100%,100%);fill-opacity:1;" d="M 12.429688 4.390625 C 12.429688 3.625 13.054688 3 13.820312 3 C 14.59375 3 15.21875 3.625 15.21875 4.390625 C 15.21875 4.828125 15.015625 5.210938 14.695312 5.484375 L 12.960938 5.484375 C 12.640625 5.210938 12.429688 4.828125 12.429688 4.390625 Z M 12.429688 4.390625 "/>
<path style=" stroke:none;fill-rule:nonzero;fill:rgb(100%,100%,100%);fill-opacity:1;" d="M 22.039062 27 C 22.039062 27.648438 21.507812 28.171875 20.859375 28.171875 L 7.164062 28.171875 C 6.507812 28.171875 5.984375 27.648438 5.984375 27 L 5.984375 10.445312 C 5.984375 9.796875 6.507812 9.273438 7.164062 9.273438 L 8.796875 9.273438 C 8.796875 9.789062 9.21875 10.210938 9.734375 10.210938 L 18.289062 10.210938 C 18.804688 10.210938 19.226562 9.789062 19.226562 9.273438 L 20.859375 9.273438 C 21.507812 9.273438 22.039062 9.796875 22.039062 10.445312 Z M 22.039062 27 "/>
<path style=" stroke:none;fill-rule:nonzero;fill:rgb(86.666667%,91.764706%,98.431373%);fill-opacity:1;" d="M 27.9375 17.726562 L 27.9375 28.523438 C 27.9375 29.414062 27.21875 30.132812 26.328125 30.132812 L 13.054688 30.132812 C 12.289062 30.132812 11.65625 29.609375 11.484375 28.898438 L 11.476562 27.976562 L 11.4375 22.46875 L 11.4375 11.617188 C 11.4375 10.726562 12.164062 10 13.054688 10 L 20.210938 10 C 20.851562 10 22.9375 11.78125 24.78125 13.648438 C 26.460938 15.359375 27.9375 17.140625 27.9375 17.726562 Z M 27.9375 17.726562 "/>
<path style=" stroke:none;fill-rule:nonzero;fill:rgb(79.607844%,88.627452%,100%);fill-opacity:1;" d="M 27.9375 17.726562 L 27.9375 21.679688 C 27.9375 21.679688 27.9375 21.671875 27.9375 21.671875 C 27.820312 16.820312 23.867188 16.59375 22.578125 15.304688 L 24.78125 13.648438 C 26.460938 15.359375 27.9375 17.140625 27.9375 17.726562 Z M 27.9375 17.726562 "/>
<path style=" stroke:none;fill-rule:nonzero;fill:rgb(79.607844%,88.627452%,100%);fill-opacity:1;" d="M 20.210938 10 L 16.257812 10 C 16.265625 10 16.265625 10 16.273438 10 C 21.125 10.125 21.34375 14.078125 22.640625 15.367188 L 24.289062 13.164062 C 22.585938 11.484375 20.796875 10 20.210938 10 Z M 20.210938 10 "/>
<path style=" stroke:none;fill-rule:nonzero;fill:rgb(27.843139%,80.392158%,77.64706%);fill-opacity:1;" d="M 27.9375 17.726562 L 27.9375 18.414062 C 27.9375 16.976562 26.773438 15.804688 25.335938 15.804688 L 23.75 15.804688 C 22.859375 15.804688 22.132812 15.085938 22.132812 14.195312 L 22.132812 12.609375 C 22.132812 11.171875 20.96875 10 19.53125 10 L 20.210938 10 C 21.445312 10 22.625 10.492188 23.492188 11.359375 L 26.578125 14.453125 C 27.453125 15.320312 27.9375 16.5 27.9375 17.726562 Z M 27.9375 17.726562 "/>
<path style=" stroke:none;fill-rule:nonzero;fill:rgb(100%,41.568628%,40.000001%);fill-opacity:1;" d="M 25.796875 20.90625 L 13.578125 20.90625 C 13.367188 20.90625 13.203125 20.742188 13.203125 20.53125 C 13.203125 20.320312 13.367188 20.15625 13.578125 20.15625 L 25.796875 20.15625 C 26.007812 20.15625 26.179688 20.320312 26.179688 20.53125 C 26.179688 20.742188 26.007812 20.90625 25.796875 20.90625 Z M 25.796875 20.90625 "/>
<path style=" stroke:none;fill-rule:nonzero;fill:rgb(100%,41.568628%,40.000001%);fill-opacity:1;" d="M 25.796875 22.695312 L 13.578125 22.695312 C 13.367188 22.695312 13.203125 22.523438 13.203125 22.320312 C 13.203125 22.109375 13.367188 21.945312 13.578125 21.945312 L 25.796875 21.945312 C 26.007812 21.945312 26.179688 22.109375 26.179688 22.320312 C 26.179688 22.523438 26.007812 22.695312 25.796875 22.695312 Z M 25.796875 22.695312 "/>
<path style=" stroke:none;fill-rule:nonzero;fill:rgb(100%,41.568628%,40.000001%);fill-opacity:1;" d="M 25.796875 24.484375 L 13.578125 24.484375 C 13.367188 24.484375 13.203125 24.3125 13.203125 24.109375 C 13.203125 23.898438 13.367188 23.734375 13.578125 23.734375 L 25.796875 23.734375 C 26.007812 23.734375 26.179688 23.898438 26.179688 24.109375 C 26.179688 24.3125 26.007812 24.484375 25.796875 24.484375 Z M 25.796875 24.484375 "/>
<path style=" stroke:none;fill-rule:nonzero;fill:rgb(100%,41.568628%,40.000001%);fill-opacity:1;" d="M 18.070312 26.273438 L 13.578125 26.273438 C 13.367188 26.273438 13.203125 26.101562 13.203125 25.898438 C 13.203125 25.6875 13.367188 25.515625 13.578125 25.515625 L 18.070312 25.515625 C 18.273438 25.515625 18.445312 25.6875 18.445312 25.898438 C 18.445312 26.101562 18.273438 26.273438 18.070312 26.273438 Z M 18.070312 26.273438 "/>
<path style=" stroke:none;fill-rule:nonzero;fill:rgb(100%,41.568628%,40.000001%);fill-opacity:1;" d="M 18.070312 15.945312 L 13.578125 15.945312 C 13.367188 15.945312 13.203125 15.78125 13.203125 15.570312 C 13.203125 15.367188 13.367188 15.195312 13.578125 15.195312 L 18.070312 15.195312 C 18.273438 15.195312 18.445312 15.367188 18.445312 15.570312 C 18.445312 15.78125 18.273438 15.945312 18.070312 15.945312 Z M 18.070312 15.945312 "/>
</g>
</svg>
