<?xml version="1.0" encoding="UTF-8"?>
<svg xmlns="http://www.w3.org/2000/svg" xmlns:xlink="http://www.w3.org/1999/xlink" width="32px" height="32px" viewBox="0 0 32 32" version="1.1">
<g id="surface1">
<path style=" stroke:none;fill-rule:nonzero;fill:rgb(100%,41.568628%,40.000001%);fill-opacity:1;" d="M 21.078125 6 C 21.328125 6.007812 21.5625 6.109375 21.742188 6.28125 L 28.40625 12.789062 C 28.445312 12.828125 28.476562 12.875 28.5 12.921875 C 28.75 13.195312 28.953125 13.539062 28.953125 13.96875 C 28.953125 14.460938 28.71875 14.859375 28.476562 15.15625 C 28.476562 15.15625 28.46875 15.15625 28.46875 15.15625 C 28.453125 15.179688 28.429688 15.203125 28.40625 15.226562 L 28.398438 15.226562 L 21.742188 21.71875 C 21.4375 22.007812 20.992188 22.0625 20.65625 21.921875 C 20.320312 21.773438 20.046875 21.421875 20.046875 21 L 20.046875 17 L 9.046875 17.054688 C 9.195312 17.054688 9.085938 17.054688 9.0625 17.078125 C 9.046875 17.09375 9.046875 17.203125 9.046875 17.054688 L 9.046875 25 C 9.046875 25.546875 8.59375 26 8.046875 26 L 4.046875 26 C 3.5 26 3.046875 25.546875 3.046875 25 L 3.046875 17.054688 C 3.046875 17.007812 3.0625 16.960938 3.070312 16.90625 C 3.054688 16.804688 3.046875 16.6875 3.046875 16.546875 L 3.046875 16.539062 C 3.046875 13.523438 5.515625 11.054688 8.53125 11.054688 L 8.539062 11.054688 C 8.679688 11.054688 8.796875 11.070312 8.898438 11.078125 C 8.945312 11.070312 8.992188 11.054688 9.046875 11.054688 L 20.046875 11 L 20.046875 7 C 20.046875 6.445312 20.515625 5.984375 21.078125 6 Z M 21.078125 6 "/>
</g>
</svg>
