<?xml version="1.0" encoding="UTF-8"?>
<svg xmlns="http://www.w3.org/2000/svg" xmlns:xlink="http://www.w3.org/1999/xlink" width="32px" height="32px" viewBox="0 0 32 32" version="1.1">
<g id="surface1">
<path style=" stroke:none;fill-rule:nonzero;fill:rgb(100%,41.568628%,40.000001%);fill-opacity:1;" d="M 4.265625 28.179688 C 3.015625 28.179688 2 27.164062 2 25.914062 L 2 6.085938 C 2 4.835938 3.015625 3.820312 4.265625 3.820312 L 23.507812 3.820312 C 24.148438 3.820312 24.765625 4.09375 25.195312 4.570312 L 29.421875 9.265625 C 29.796875 9.6875 30 10.226562 30 10.78125 L 30 25.914062 C 30 27.164062 28.984375 28.179688 27.734375 28.179688 Z M 4.265625 28.179688 "/>
<path style=" stroke:none;fill-rule:nonzero;fill:rgb(77.64706%,30.19608%,33.725491%);fill-opacity:1;" d="M 29.421875 9.265625 L 25.195312 4.570312 C 24.765625 4.09375 24.148438 3.820312 23.507812 3.820312 L 21.6875 3.820312 C 22.328125 3.820312 22.9375 4.09375 23.367188 4.570312 L 27.59375 9.265625 C 27.96875 9.6875 28.179688 10.226562 28.179688 10.78125 L 28.179688 25.914062 C 28.179688 27.164062 27.164062 28.179688 25.914062 28.179688 L 27.734375 28.179688 C 28.984375 28.179688 30 27.164062 30 25.914062 L 30 10.78125 C 30 10.226562 29.796875 9.6875 29.421875 9.265625 Z M 29.421875 9.265625 "/>
<path style=" stroke:none;fill-rule:nonzero;fill:rgb(27.843139%,80.392158%,77.64706%);fill-opacity:1;" d="M 9.46875 12.382812 C 8.359375 12.382812 7.46875 11.492188 7.46875 10.390625 L 7.46875 3.820312 L 20.890625 3.820312 L 20.890625 10.390625 C 20.890625 11.492188 19.992188 12.382812 18.890625 12.382812 Z M 9.46875 12.382812 "/>
<path style=" stroke:none;fill-rule:nonzero;fill:rgb(33.333334%,38.431373%,44.705883%);fill-opacity:1;" d="M 19.039062 3.820312 L 19.039062 10.390625 C 19.039062 11.492188 18.140625 12.382812 17.039062 12.382812 L 18.890625 12.382812 C 19.992188 12.382812 20.890625 11.492188 20.890625 10.390625 L 20.890625 3.820312 Z M 19.039062 3.820312 "/>
<path style=" stroke:none;fill-rule:nonzero;fill:rgb(0%,0%,0%);fill-opacity:1;" d="M 5.039062 28.179688 L 5.039062 19.8125 C 5.039062 18.359375 6.210938 17.1875 7.664062 17.1875 L 24.335938 17.1875 C 25.789062 17.1875 26.960938 18.359375 26.960938 19.8125 L 26.960938 28.179688 Z M 5.039062 28.179688 "/>
<path style=" stroke:none;fill-rule:nonzero;fill:rgb(0%,0%,0%);fill-opacity:1;" d="M 14.757812 10.148438 L 14.757812 6.054688 C 14.757812 5.828125 14.9375 5.640625 15.164062 5.640625 L 18.046875 5.640625 C 18.273438 5.640625 18.460938 5.828125 18.460938 6.054688 L 18.460938 10.148438 C 18.460938 10.382812 18.273438 10.5625 18.046875 10.5625 L 15.164062 10.5625 C 14.9375 10.5625 14.757812 10.382812 14.757812 10.148438 Z M 14.757812 10.148438 "/>
<path style=" stroke:none;fill-rule:nonzero;fill:rgb(72.941178%,72.941178%,72.941178%);fill-opacity:1;" d="M 8.710938 20.101562 L 16 20.101562 C 16.25 20.101562 16.453125 19.898438 16.453125 19.640625 C 16.453125 19.390625 16.25 19.1875 16 19.1875 L 8.710938 19.1875 C 8.460938 19.1875 8.257812 19.390625 8.257812 19.640625 C 8.257812 19.898438 8.460938 20.101562 8.710938 20.101562 Z M 8.710938 20.101562 "/>
<path style=" stroke:none;fill-rule:nonzero;fill:rgb(72.941178%,72.941178%,72.941178%);fill-opacity:1;" d="M 17.820312 20.101562 L 19.640625 20.101562 C 19.898438 20.101562 20.101562 19.898438 20.101562 19.640625 C 20.101562 19.390625 19.898438 19.1875 19.640625 19.1875 L 17.820312 19.1875 C 17.570312 19.1875 17.367188 19.390625 17.367188 19.640625 C 17.367188 19.898438 17.570312 20.101562 17.820312 20.101562 Z M 17.820312 20.101562 "/>
<path style=" stroke:none;fill-rule:nonzero;fill:rgb(72.941178%,72.941178%,72.941178%);fill-opacity:1;" d="M 23.289062 19.1875 L 21.46875 19.1875 C 21.210938 19.1875 21.007812 19.390625 21.007812 19.640625 C 21.007812 19.898438 21.210938 20.101562 21.46875 20.101562 L 23.289062 20.101562 C 23.539062 20.101562 23.742188 19.898438 23.742188 19.640625 C 23.742188 19.390625 23.539062 19.1875 23.289062 19.1875 Z M 23.289062 19.1875 "/>
<path style=" stroke:none;fill-rule:nonzero;fill:rgb(72.941178%,72.941178%,72.941178%);fill-opacity:1;" d="M 8.710938 22.53125 L 18.429688 22.53125 C 18.679688 22.53125 18.882812 22.328125 18.882812 22.070312 C 18.882812 21.820312 18.679688 21.617188 18.429688 21.617188 L 8.710938 21.617188 C 8.460938 21.617188 8.257812 21.820312 8.257812 22.070312 C 8.257812 22.328125 8.460938 22.53125 8.710938 22.53125 Z M 8.710938 22.53125 "/>
<path style=" stroke:none;fill-rule:nonzero;fill:rgb(72.941178%,72.941178%,72.941178%);fill-opacity:1;" d="M 23.289062 21.617188 L 20.859375 21.617188 C 20.609375 21.617188 20.40625 21.820312 20.40625 22.070312 C 20.40625 22.328125 20.609375 22.53125 20.859375 22.53125 L 23.289062 22.53125 C 23.539062 22.53125 23.742188 22.328125 23.742188 22.070312 C 23.742188 21.820312 23.539062 21.617188 23.289062 21.617188 Z M 23.289062 21.617188 "/>
<path style=" stroke:none;fill-rule:nonzero;fill:rgb(72.941178%,72.941178%,72.941178%);fill-opacity:1;" d="M 12.359375 24.046875 L 8.710938 24.046875 C 8.460938 24.046875 8.257812 24.25 8.257812 24.5 C 8.257812 24.757812 8.460938 24.960938 8.710938 24.960938 L 12.359375 24.960938 C 12.609375 24.960938 12.8125 24.757812 12.8125 24.5 C 12.8125 24.25 12.609375 24.046875 12.359375 24.046875 Z M 12.359375 24.046875 "/>
<path style=" stroke:none;fill-rule:nonzero;fill:rgb(72.941178%,72.941178%,72.941178%);fill-opacity:1;" d="M 23.289062 24.046875 L 14.789062 24.046875 C 14.53125 24.046875 14.328125 24.25 14.328125 24.5 C 14.328125 24.757812 14.53125 24.960938 14.789062 24.960938 L 23.289062 24.960938 C 23.539062 24.960938 23.742188 24.757812 23.742188 24.5 C 23.742188 24.25 23.539062 24.046875 23.289062 24.046875 Z M 23.289062 24.046875 "/>
</g>
</svg>
