<?xml version="1.0" encoding="UTF-8"?>
<svg xmlns="http://www.w3.org/2000/svg" xmlns:xlink="http://www.w3.org/1999/xlink" width="16px" height="16px" viewBox="0 0 16 16" version="1.1">
<g id="surface1">
<path style=" stroke:none;fill-rule:evenodd;fill:rgb(100%,41.568628%,40.000001%);fill-opacity:1;" d="M 2.5 2.449219 L 13.5 2.449219 C 13.777344 2.449219 14 2.683594 14 2.972656 C 14 3.265625 13.777344 3.5 13.5 3.5 L 2.5 3.5 C 2.222656 3.5 2 3.265625 2 2.972656 C 2 2.683594 2.222656 2.449219 2.5 2.449219 Z M 2.5 2.449219 "/>
<path style=" stroke:none;fill-rule:evenodd;fill:rgb(100%,41.568628%,40.000001%);fill-opacity:1;" d="M 3.5 4.5 L 12.5 4.5 C 12.777344 4.5 13 4.734375 13 5.027344 C 13 5.316406 12.777344 5.550781 12.5 5.550781 L 3.5 5.550781 C 3.222656 5.550781 3 5.316406 3 5.027344 C 3 4.734375 3.222656 4.5 3.5 4.5 Z M 3.5 4.5 "/>
<path style=" stroke:none;fill-rule:evenodd;fill:rgb(100%,41.568628%,40.000001%);fill-opacity:1;" d="M 4.5 6.5 L 11.5 6.5 C 11.777344 6.5 12 6.734375 12 7.027344 C 12 7.316406 11.777344 7.550781 11.5 7.550781 L 4.5 7.550781 C 4.222656 7.550781 4 7.316406 4 7.027344 C 4 6.734375 4.222656 6.5 4.5 6.5 Z M 4.5 6.5 "/>
<path style=" stroke:none;fill-rule:evenodd;fill:rgb(100%,41.568628%,40.000001%);fill-opacity:1;" d="M 3 8.5 L 13 8.5 C 13.277344 8.5 13.5 8.734375 13.5 9.027344 C 13.5 9.316406 13.277344 9.550781 13 9.550781 L 3 9.550781 C 2.722656 9.550781 2.5 9.316406 2.5 9.027344 C 2.5 8.734375 2.722656 8.5 3 8.5 Z M 3 8.5 "/>
<path style=" stroke:none;fill-rule:evenodd;fill:rgb(100%,41.568628%,40.000001%);fill-opacity:1;" d="M 4.5 10.5 L 11.5 10.5 C 11.777344 10.5 12 10.734375 12 11.027344 C 12 11.316406 11.777344 11.550781 11.5 11.550781 L 4.5 11.550781 C 4.222656 11.550781 4 11.316406 4 11.027344 C 4 10.734375 4.222656 10.5 4.5 10.5 Z M 4.5 10.5 "/>
<path style=" stroke:none;fill-rule:evenodd;fill:rgb(100%,41.568628%,40.000001%);fill-opacity:1;" d="M 3 12.5 L 13 12.5 C 13.277344 12.5 13.5 12.734375 13.5 13.027344 C 13.5 13.316406 13.277344 13.550781 13 13.550781 L 3 13.550781 C 2.722656 13.550781 2.5 13.316406 2.5 13.027344 C 2.5 12.734375 2.722656 12.5 3 12.5 Z M 3 12.5 "/>
</g>
</svg>
