<?xml version="1.0" encoding="UTF-8"?>
<svg xmlns="http://www.w3.org/2000/svg" xmlns:xlink="http://www.w3.org/1999/xlink" width="16px" height="16px" viewBox="0 0 16 16" version="1.1">
<g id="surface1">
<path style=" stroke:none;fill-rule:nonzero;fill:rgb(78.039217%,96.470588%,35.294119%)F;fill-opacity:1;" d="M 0 0 L 9.546875 0 L 9.546875 7.558594 L 0 7.558594 Z M 0 0 "/>
<path style=" stroke:none;fill-rule:nonzero;fill:rgb(100%,0%,0%);fill-opacity:1;" d="M 0 12.5 L 16 12.5 L 16 16 L 0 16 Z M 0 12.5 "/>
<path style=" stroke:none;fill-rule:nonzero;fill:rgb(100%,41.568628%,40.000001%);fill-opacity:1;" d="M 2.636719 2.0625 C 3.070312 2.0625 3.527344 2.15625 4.011719 2.339844 C 4.246094 2.472656 4.363281 2.660156 4.363281 2.90625 L 4.359375 2.964844 C 4.464844 3.074219 4.515625 3.253906 4.515625 3.503906 C 4.523438 3.503906 4.523438 3.585938 4.523438 3.753906 C 4.523438 3.921875 4.523438 4.089844 4.519531 4.261719 C 4.542969 5.238281 4.550781 5.792969 4.550781 5.921875 C 4.550781 6.101562 4.46875 6.261719 4.300781 6.402344 C 4.183594 6.480469 4.0625 6.519531 3.9375 6.519531 C 3.761719 6.519531 3.609375 6.445312 3.472656 6.304688 L 3.464844 6.300781 C 3.09375 6.484375 2.742188 6.578125 2.402344 6.578125 L 2.300781 6.578125 C 1.894531 6.578125 1.519531 6.445312 1.175781 6.1875 C 0.707031 5.792969 0.472656 5.234375 0.472656 4.515625 C 0.472656 3.6875 0.707031 3.046875 1.175781 2.589844 C 1.5625 2.238281 2.050781 2.0625 2.636719 2.0625 Z M 1.695312 4.503906 C 1.695312 4.914062 1.804688 5.175781 2.023438 5.289062 C 2.109375 5.332031 2.21875 5.355469 2.347656 5.355469 L 2.355469 5.355469 C 2.613281 5.355469 2.839844 5.277344 3.035156 5.125 C 3.074219 5.082031 3.117188 5.003906 3.164062 4.890625 C 3.25 4.617188 3.296875 4.367188 3.296875 4.144531 C 3.296875 4.039062 3.292969 3.785156 3.289062 3.382812 C 3.046875 3.316406 2.828125 3.285156 2.628906 3.285156 C 2.226562 3.285156 1.964844 3.429688 1.835938 3.722656 C 1.742188 3.957031 1.695312 4.214844 1.695312 4.503906 Z M 1.695312 4.503906 "/>
<path style=" stroke:none;fill-rule:nonzero;fill:rgb(100%,41.568628%,40.000001%);fill-opacity:1;" d="M 5.894531 0.917969 C 6.125 0.917969 6.304688 1.035156 6.4375 1.261719 C 6.484375 1.351562 6.503906 1.445312 6.503906 1.542969 L 6.503906 2.167969 C 7.558594 2.167969 8.308594 2.488281 8.753906 3.128906 C 8.972656 3.464844 9.085938 3.847656 9.085938 4.269531 L 9.085938 4.328125 C 9.085938 4.808594 8.921875 5.242188 8.59375 5.628906 C 8.390625 5.832031 8.226562 5.964844 8.113281 6.03125 C 7.503906 6.394531 6.765625 6.578125 5.902344 6.578125 L 5.894531 6.578125 C 5.632812 6.578125 5.441406 6.449219 5.316406 6.195312 C 5.285156 6.105469 5.269531 6.035156 5.269531 5.992188 C 5.277344 3.601562 5.285156 2.105469 5.285156 1.507812 C 5.285156 1.363281 5.34375 1.226562 5.464844 1.09375 C 5.59375 0.976562 5.734375 0.917969 5.894531 0.917969 Z M 6.496094 3.394531 C 6.496094 4 6.492188 4.464844 6.492188 4.789062 L 6.492188 5.3125 C 6.578125 5.3125 6.777344 5.265625 7.089844 5.175781 C 7.441406 5.046875 7.667969 4.886719 7.773438 4.6875 C 7.835938 4.585938 7.867188 4.449219 7.867188 4.285156 C 7.867188 3.910156 7.710938 3.664062 7.398438 3.542969 C 7.160156 3.441406 6.871094 3.390625 6.527344 3.390625 Z M 6.496094 3.394531 "/>
<path style=" stroke:none;fill-rule:evenodd;fill:rgb(78.039217%,96.470588%,35.294119%)F;fill-opacity:1;" d="M 6.125 10.308594 L 6.125 10.539062 L 4.457031 12.507812 L 6.199219 12.503906 L 7.292969 11.308594 Z M 6.125 10.308594 "/>
<path style=" stroke:none;fill-rule:evenodd;fill:rgb(27.843139%,80.392158%,77.64706%);fill-opacity:1;" d="M 6.964844 7.960938 L 9.714844 10.542969 L 10.296875 9.964844 L 7.472656 7.472656 Z M 6.964844 7.960938 "/>
<path style=" stroke:none;fill-rule:evenodd;fill:rgb(33.333334%,38.431373%,44.705883%);fill-opacity:1;" d="M 14.074219 1.132812 L 16.089844 2.859375 C 15.667969 4.386719 12.261719 7.792969 10.296875 9.964844 L 7.472656 7.472656 C 9.652344 5.414062 13.203125 0.71875 14.074219 1.132812 Z M 14.074219 1.132812 "/>
<path style=" stroke:none;fill-rule:evenodd;fill:rgb(27.843139%,80.392158%,77.64706%);fill-opacity:1;" d="M 6.964844 7.960938 C 6.601562 9.625 6.488281 9.878906 6.125 10.308594 L 7.292969 11.308594 C 8.019531 10.757812 8.722656 10.722656 9.714844 10.542969 Z M 6.964844 7.960938 "/>
<path style=" stroke:none;fill-rule:nonzero;fill:rgb(78.039217%,96.470588%,35.294119%)F;fill-opacity:1;" d="M 5.414062 12.039062 C 5.015625 12.039062 4.664062 12.230469 4.539062 12.507812 L 6.199219 12.503906 L 6.253906 12.441406 C 6.105469 12.195312 5.777344 12.039062 5.414062 12.039062 Z M 5.414062 12.039062 "/>
<path style=" stroke:none;fill-rule:evenodd;fill:rgb(27.843139%,80.392158%,77.64706%);fill-opacity:1;" d="M 13.933594 1.105469 C 13.683594 1.117188 13.304688 1.371094 12.847656 1.773438 L 15.449219 4.066406 C 15.765625 3.601562 16 3.183594 16.089844 2.859375 L 14.074219 1.132812 C 14.035156 1.113281 13.988281 1.105469 13.933594 1.105469 Z M 13.933594 1.105469 "/>
</g>
</svg>
