<?xml version="1.0" encoding="UTF-8"?>
<svg xmlns="http://www.w3.org/2000/svg" xmlns:xlink="http://www.w3.org/1999/xlink" width="16px" height="16px" viewBox="0 0 16 16" version="1.1">
<g id="surface1">
<path style=" stroke:none;fill-rule:nonzero;fill:rgb(100%,41.568628%,40.000001%);fill-opacity:1;" d="M 6.886719 1.984375 C 8.089844 1.984375 9.09375 2.328125 9.898438 3.011719 C 10.371094 3.460938 10.675781 3.921875 10.816406 4.382812 C 10.953125 4.785156 11.023438 5.160156 11.023438 5.507812 L 11.023438 5.65625 C 11.023438 6.203125 10.835938 6.765625 10.46875 7.351562 L 10.46875 7.359375 C 10.847656 7.699219 11.082031 7.941406 11.171875 8.078125 C 11.589844 8.75 11.796875 9.410156 11.796875 10.054688 L 11.796875 10.300781 C 11.796875 10.917969 11.574219 11.535156 11.128906 12.152344 C 10.695312 12.644531 10.347656 12.949219 10.097656 13.070312 C 9.796875 13.265625 9.441406 13.441406 9.019531 13.601562 C 8.207031 13.875 7.4375 14.015625 6.714844 14.015625 C 5.707031 14.015625 5.042969 13.699219 4.730469 13.0625 C 4.570312 12.648438 4.492188 12.332031 4.492188 12.105469 C 4.296875 10.566406 4.203125 8.644531 4.203125 6.335938 C 4.203125 4.546875 4.304688 3.445312 4.515625 3.027344 C 4.664062 2.707031 4.902344 2.460938 5.234375 2.285156 C 5.707031 2.085938 6.261719 1.984375 6.886719 1.984375 Z M 6.847656 4.582031 C 6.8125 5.105469 6.796875 5.753906 6.796875 6.523438 L 6.796875 6.582031 C 6.808594 6.582031 6.8125 6.585938 6.8125 6.589844 C 7.886719 6.320312 8.425781 5.980469 8.425781 5.574219 C 8.425781 5.054688 8.089844 4.742188 7.417969 4.632812 C 7.351562 4.609375 7.160156 4.59375 6.847656 4.582031 Z M 6.871094 9.210938 L 6.871094 9.21875 C 6.871094 9.554688 6.917969 10.28125 7.011719 11.402344 L 7.019531 11.402344 C 7.375 11.402344 7.847656 11.28125 8.441406 11.039062 C 8.949219 10.785156 9.203125 10.511719 9.203125 10.21875 L 9.203125 10.171875 C 9.203125 9.640625 8.929688 9.320312 8.382812 9.210938 C 8.136719 9.160156 7.898438 9.136719 7.664062 9.136719 C 7.464844 9.136719 7.203125 9.160156 6.871094 9.210938 Z M 6.871094 9.210938 "/>
</g>
</svg>
