<?xml version="1.0" encoding="UTF-8"?>
<svg xmlns="http://www.w3.org/2000/svg" xmlns:xlink="http://www.w3.org/1999/xlink" width="16px" height="16px" viewBox="0 0 16 16" version="1.1">
<g id="surface1">
<path style=" stroke:none;fill-rule:nonzero;fill:rgb(81.568629%,81.568629%,85.09804%);fill-opacity:1;" d="M 8 10.585938 L 7.664062 11.050781 L 5.570312 9.535156 L 11.671875 1 C 12.832031 1.835938 13.09375 3.453125 12.257812 4.613281 Z M 8 10.585938 "/>
<path style=" stroke:none;fill-rule:nonzero;fill:rgb(74.901962%,74.901962%,78.039217%);fill-opacity:1;" d="M 11.671875 1 L 11.191406 1.671875 C 11.765625 2.542969 11.777344 3.714844 11.132812 4.613281 L 6.90625 10.5 L 7.664062 11.050781 L 8 10.585938 L 12.257812 4.613281 C 13.09375 3.453125 12.832031 1.835938 11.671875 1 Z M 11.671875 1 "/>
<path style=" stroke:none;fill-rule:nonzero;fill:rgb(92.941177%,92.941177%,97.254902%);fill-opacity:1;" d="M 8.214844 10.886719 L 10.316406 9.375 L 4.292969 1 C 3.132812 1.835938 2.867188 3.453125 3.703125 4.613281 Z M 8.214844 10.886719 "/>
<path style=" stroke:none;fill-rule:nonzero;fill:rgb(85.490197%,85.490197%,89.019608%);fill-opacity:1;" d="M 4.292969 1 C 4.03125 1.1875 3.820312 1.414062 3.652344 1.664062 L 9.660156 10.011719 L 8.285156 10.984375 L 10.398438 9.488281 Z M 4.292969 1 "/>
<path style=" stroke:none;fill-rule:nonzero;fill:rgb(27.843139%,80.392158%,77.64706%);fill-opacity:1;" d="M 14.523438 11 C 13.71875 9.886719 12.175781 9.621094 11.050781 10.390625 L 10.316406 9.375 L 8.214844 10.886719 L 10.183594 13.617188 L 10.425781 13.949219 C 11.242188 15.082031 12.820312 15.335938 13.949219 14.523438 C 15.082031 13.707031 15.339844 12.128906 14.523438 11 Z M 13.304688 13.628906 C 12.671875 14.085938 11.789062 13.941406 11.332031 13.308594 C 10.875 12.671875 11.015625 11.789062 11.652344 11.332031 C 12.285156 10.875 13.171875 11.019531 13.628906 11.652344 C 14.085938 12.289062 13.941406 13.171875 13.304688 13.628906 Z M 13.304688 13.628906 "/>
<path style=" stroke:none;fill-rule:nonzero;fill:rgb(27.843139%,80.392158%,77.64706%);fill-opacity:1;" d="M 14.523438 11 C 13.910156 10.152344 12.871094 9.796875 11.910156 10.015625 C 12.488281 10.144531 13.023438 10.480469 13.398438 11 C 13.644531 11.34375 13.792969 11.730469 13.847656 12.125 C 13.910156 12.363281 13.910156 12.617188 13.84375 12.851562 C 13.746094 13.5 13.398438 14.109375 12.824219 14.523438 C 12.542969 14.726562 12.234375 14.863281 11.914062 14.933594 C 12.597656 15.089844 13.339844 14.964844 13.949219 14.523438 C 15.082031 13.707031 15.339844 12.128906 14.523438 11 Z M 14.523438 11 "/>
<path style=" stroke:none;fill-rule:nonzero;fill:rgb(27.843139%,80.392158%,77.64706%);fill-opacity:1;" d="M 5.683594 9.375 L 4.949219 10.390625 C 3.824219 9.621094 2.28125 9.886719 1.476562 11 C 0.660156 12.128906 0.917969 13.707031 2.050781 14.523438 C 3.179688 15.335938 4.757812 15.082031 5.574219 13.949219 L 5.816406 13.617188 L 7.785156 10.886719 Z M 4.667969 13.308594 C 4.210938 13.941406 3.328125 14.085938 2.695312 13.628906 C 2.058594 13.171875 1.914062 12.289062 2.371094 11.652344 C 2.828125 11.019531 3.714844 10.875 4.347656 11.332031 C 4.984375 11.789062 5.125 12.671875 4.667969 13.308594 Z M 4.667969 13.308594 "/>
<path style=" stroke:none;fill-rule:nonzero;fill:rgb(27.843139%,80.392158%,77.64706%);fill-opacity:1;" d="M 7.023438 10.335938 L 5.074219 13.039062 L 4.832031 13.375 C 4.09375 14.398438 2.722656 14.707031 1.628906 14.140625 C 1.753906 14.28125 1.890625 14.410156 2.050781 14.523438 C 3.179688 15.335938 4.757812 15.082031 5.574219 13.949219 L 5.816406 13.617188 L 7.785156 10.886719 Z M 7.023438 10.335938 "/>
<path style=" stroke:none;fill-rule:nonzero;fill:rgb(47.450981%,47.843137%,51.764709%);fill-opacity:1;" d="M 8.433594 8.421875 C 8.433594 8.660156 8.238281 8.851562 8 8.851562 C 7.761719 8.851562 7.566406 8.660156 7.566406 8.421875 C 7.566406 8.183594 7.761719 7.988281 8 7.988281 C 8.238281 7.988281 8.433594 8.183594 8.433594 8.421875 Z M 8.433594 8.421875 "/>
</g>
</svg>
