<?xml version="1.0" encoding="UTF-8"?>
<svg xmlns="http://www.w3.org/2000/svg" xmlns:xlink="http://www.w3.org/1999/xlink" width="16px" height="16px" viewBox="0 0 16 16" version="1.1">
<g id="surface1">
<path style=" stroke:none;fill-rule:nonzero;fill:rgb(100%,0%,0%);fill-opacity:1;" d="M 0.15625 12.507812 L 15.84375 12.507812 L 15.84375 15.824219 L 0.15625 15.824219 Z M 0.15625 12.507812 "/>
<path style=" stroke:none;fill-rule:nonzero;fill:rgb(78.039217%,96.470588%,35.294119%)F;fill-opacity:1;" d="M 3.4375 5.125 C 3.914062 5.125 4.414062 5.226562 4.945312 5.425781 C 5.203125 5.574219 5.332031 5.78125 5.332031 6.050781 L 5.328125 6.117188 C 5.445312 6.234375 5.5 6.429688 5.5 6.703125 C 5.507812 6.703125 5.507812 6.796875 5.507812 6.984375 C 5.507812 7.164062 5.507812 7.351562 5.503906 7.539062 C 5.527344 8.613281 5.539062 9.21875 5.539062 9.363281 C 5.539062 9.558594 5.445312 9.734375 5.261719 9.886719 C 5.136719 9.972656 5.003906 10.015625 4.863281 10.015625 C 4.671875 10.015625 4.503906 9.9375 4.355469 9.78125 L 4.347656 9.777344 C 3.941406 9.980469 3.550781 10.082031 3.179688 10.082031 L 3.066406 10.082031 C 2.621094 10.082031 2.210938 9.9375 1.832031 9.652344 C 1.316406 9.21875 1.0625 8.609375 1.0625 7.816406 C 1.0625 6.90625 1.316406 6.203125 1.832031 5.699219 C 2.257812 5.316406 2.792969 5.125 3.4375 5.125 Z M 2.402344 7.804688 C 2.402344 8.257812 2.523438 8.542969 2.761719 8.667969 C 2.859375 8.714844 2.976562 8.738281 3.117188 8.738281 L 3.125 8.738281 C 3.410156 8.738281 3.660156 8.65625 3.871094 8.488281 C 3.917969 8.4375 3.964844 8.351562 4.011719 8.230469 C 4.109375 7.929688 4.160156 7.65625 4.160156 7.410156 C 4.160156 7.292969 4.15625 7.015625 4.148438 6.574219 C 3.886719 6.5 3.648438 6.464844 3.429688 6.464844 C 2.988281 6.464844 2.695312 6.625 2.554688 6.949219 C 2.453125 7.203125 2.402344 7.488281 2.402344 7.804688 Z M 2.402344 7.804688 "/>
<path style=" stroke:none;fill-rule:nonzero;fill:rgb(27.843139%,80.392158%,77.64706%);fill-opacity:1;" d="M 6.832031 1.902344 C 7.085938 1.902344 7.285156 2.027344 7.433594 2.277344 C 7.480469 2.378906 7.503906 2.480469 7.503906 2.585938 L 7.503906 3.273438 C 8.660156 3.273438 9.484375 3.625 9.972656 4.328125 C 10.214844 4.699219 10.335938 5.117188 10.335938 5.582031 L 10.335938 5.644531 C 10.335938 6.175781 10.15625 6.648438 9.800781 7.070312 C 9.574219 7.296875 9.398438 7.445312 9.269531 7.515625 C 8.601562 7.914062 7.789062 8.113281 6.84375 8.113281 L 6.832031 8.113281 C 6.550781 8.113281 6.339844 7.976562 6.203125 7.695312 C 6.164062 7.597656 6.144531 7.523438 6.144531 7.472656 C 6.15625 4.847656 6.164062 3.203125 6.164062 2.546875 C 6.164062 2.390625 6.230469 2.238281 6.363281 2.09375 C 6.503906 1.964844 6.660156 1.902344 6.832031 1.902344 Z M 7.496094 4.621094 C 7.492188 5.28125 7.492188 5.792969 7.492188 6.152344 L 7.492188 6.726562 C 7.585938 6.726562 7.804688 6.675781 8.144531 6.574219 C 8.53125 6.4375 8.785156 6.257812 8.898438 6.042969 C 8.964844 5.929688 9 5.78125 9 5.597656 C 9 5.1875 8.828125 4.914062 8.488281 4.78125 C 8.226562 4.671875 7.90625 4.613281 7.53125 4.613281 Z M 7.496094 4.621094 "/>
<path style=" stroke:none;fill-rule:nonzero;fill:rgb(100%,41.568628%,40.000001%);fill-opacity:1;" d="M 12.886719 4.847656 L 12.933594 4.847656 C 13.488281 4.847656 14.046875 5.035156 14.601562 5.402344 C 14.808594 5.558594 14.914062 5.746094 14.914062 5.972656 C 14.914062 6.21875 14.789062 6.414062 14.539062 6.566406 C 14.433594 6.613281 14.328125 6.632812 14.234375 6.632812 C 14.078125 6.632812 13.917969 6.574219 13.757812 6.449219 C 13.46875 6.273438 13.183594 6.1875 12.910156 6.1875 C 12.558594 6.1875 12.246094 6.332031 11.96875 6.621094 C 11.785156 6.839844 11.691406 7.082031 11.691406 7.347656 L 11.691406 7.375 C 11.691406 7.746094 11.851562 8.046875 12.167969 8.269531 C 12.414062 8.402344 12.667969 8.46875 12.929688 8.46875 C 13.210938 8.46875 13.480469 8.375 13.738281 8.195312 C 13.847656 8.132812 13.964844 8.101562 14.082031 8.101562 C 14.3125 8.101562 14.503906 8.210938 14.65625 8.4375 C 14.714844 8.546875 14.746094 8.65625 14.746094 8.769531 C 14.746094 9.085938 14.535156 9.335938 14.109375 9.527344 C 13.734375 9.714844 13.347656 9.808594 12.953125 9.808594 L 12.882812 9.808594 C 12.394531 9.808594 11.90625 9.667969 11.421875 9.382812 C 11.3125 9.3125 11.152344 9.175781 10.941406 8.964844 C 10.808594 8.796875 10.703125 8.644531 10.628906 8.507812 C 10.441406 8.121094 10.347656 7.765625 10.347656 7.441406 L 10.347656 7.277344 C 10.347656 6.917969 10.457031 6.542969 10.667969 6.144531 C 10.746094 5.992188 10.894531 5.808594 11.109375 5.585938 C 11.335938 5.378906 11.542969 5.230469 11.722656 5.148438 C 12.101562 4.949219 12.488281 4.847656 12.886719 4.847656 Z M 12.886719 4.847656 "/>
</g>
</svg>
