<?xml version="1.0" encoding="UTF-8"?>
<svg xmlns="http://www.w3.org/2000/svg" xmlns:xlink="http://www.w3.org/1999/xlink" width="16px" height="16px" viewBox="0 0 16 16" version="1.1">
<g id="surface1">
<path style="fill-rule:nonzero;fill:rgb(27.843139%,80.392158%,77.64706%);fill-opacity:1;stroke-width:0.264583;stroke-linecap:butt;stroke-linejoin:miter;stroke:rgb(27.843139%,80.392158%,77.64706%);stroke-opacity:1;stroke-miterlimit:4;" d="M 1.687762 0.939813 C 1.828744 0.939813 1.937502 1.005579 2.01605 1.13711 C 2.04626 1.200754 2.062373 1.258034 2.062373 1.313193 C 2.062373 1.544433 2.060359 2.312407 2.056331 3.621357 C 2.056331 3.710459 2.01605 3.791075 1.935488 3.867448 C 1.867011 3.91412 1.800548 3.939578 1.738113 3.939578 L 1.722001 3.939578 C 1.605186 3.939578 1.512541 3.878055 1.440035 3.75501 C 1.417881 3.706216 1.407811 3.665908 1.407811 3.631964 C 1.411839 2.760038 1.411839 2.199969 1.411839 1.949635 C 1.415867 1.858411 1.415867 1.805375 1.415867 1.792646 C 1.411839 1.792646 1.409825 1.790524 1.409825 1.788403 C 1.401769 1.792646 1.387671 1.794767 1.365516 1.794767 L 1.339334 1.794767 C 1.220506 1.794767 1.125846 1.731123 1.055355 1.601713 C 1.037228 1.557162 1.029172 1.516854 1.029172 1.482911 L 1.029172 1.463817 C 1.029172 1.351379 1.093621 1.249548 1.22252 1.158325 C 1.397741 1.014065 1.552821 0.939813 1.687762 0.939813 Z M 1.687762 0.939813 " transform="matrix(1.939513,0,0,1.84129,0.00000090111,0)"/>
<path style="fill-rule:nonzero;fill:rgb(27.843139%,80.392158%,77.64706%);fill-opacity:1;stroke-width:0.264583;stroke-linecap:butt;stroke-linejoin:miter;stroke:rgb(27.843139%,80.392158%,77.64706%);stroke-opacity:1;stroke-miterlimit:4;" d="M 1.890799 4.891546 C 2.115305 4.891546 2.325394 4.982822 2.516946 5.165373 C 2.652885 5.306436 2.720855 5.476541 2.720855 5.675687 C 2.720855 6.026269 2.494289 6.451531 2.041156 6.951472 L 2.041156 6.957696 C 2.345991 6.953547 2.527244 6.949398 2.582856 6.949398 C 2.669363 6.949398 2.743512 6.992961 2.809422 7.082163 C 2.840318 7.129875 2.854736 7.177587 2.854736 7.227374 L 2.854736 7.241895 C 2.854736 7.335245 2.807363 7.414074 2.712617 7.480456 C 2.663184 7.507424 2.617871 7.521945 2.576677 7.521945 C 2.521065 7.521945 2.096768 7.528169 1.301726 7.54269 C 1.256413 7.54269 1.200801 7.517797 1.136951 7.472159 C 1.07104 7.409925 1.038085 7.339394 1.038085 7.26264 L 1.038085 7.246044 C 1.038085 7.154768 1.087518 7.069716 1.188443 6.992961 C 1.421188 6.777219 1.585964 6.611263 1.68071 6.495094 C 1.878441 6.260682 2.006142 6.07813 2.067932 5.943291 C 2.119425 5.831271 2.146201 5.744144 2.146201 5.677762 L 2.146201 5.665315 C 2.146201 5.609305 2.117365 5.563667 2.057634 5.528402 C 1.999962 5.486913 1.94641 5.464094 1.894918 5.464094 L 1.88256 5.464094 C 1.767217 5.464094 1.633337 5.553295 1.482979 5.733772 C 1.406771 5.856164 1.316144 5.918398 1.20904 5.918398 L 1.198741 5.918398 C 1.101936 5.918398 1.019548 5.870685 0.953638 5.773186 C 0.930981 5.7234 0.918623 5.679836 0.918623 5.638347 L 0.918623 5.627975 C 0.918623 5.542923 0.972175 5.443349 1.07722 5.329255 C 1.328502 5.036758 1.598322 4.891546 1.890799 4.891546 Z M 1.890799 4.891546 " transform="matrix(1.89652,0,0,1.883032,0.00000090111,0)"/>
<path style=" stroke:none;fill-rule:evenodd;fill:rgb(100%,41.568628%,40.000001%);fill-opacity:1;" d="M 7 4 L 13 4 C 13.277344 4 13.5 4.222656 13.5 4.5 C 13.5 4.777344 13.277344 5 13 5 L 7 5 C 6.722656 5 6.5 4.777344 6.5 4.5 C 6.5 4.222656 6.722656 4 7 4 Z M 7 4 "/>
<path style=" stroke:none;fill-rule:evenodd;fill:rgb(100%,41.568628%,40.000001%);fill-opacity:1;" d="M 7 6 L 11.5 6 C 11.777344 6 12 6.222656 12 6.5 C 12 6.777344 11.777344 7 11.5 7 L 7 7 C 6.722656 7 6.5 6.777344 6.5 6.5 C 6.5 6.222656 6.722656 6 7 6 Z M 7 6 "/>
<path style=" stroke:none;fill-rule:evenodd;fill:rgb(100%,41.568628%,40.000001%);fill-opacity:1;" d="M 7 9 L 14 9 C 14.277344 9 14.5 9.222656 14.5 9.5 C 14.5 9.777344 14.277344 10 14 10 L 7 10 C 6.722656 10 6.5 9.777344 6.5 9.5 C 6.5 9.222656 6.722656 9 7 9 Z M 7 9 "/>
<path style=" stroke:none;fill-rule:evenodd;fill:rgb(100%,41.568628%,40.000001%);fill-opacity:1;" d="M 7 11 L 13 11 C 13.277344 11 13.5 11.222656 13.5 11.5 C 13.5 11.777344 13.277344 12 13 12 L 7 12 C 6.722656 12 6.5 11.777344 6.5 11.5 C 6.5 11.222656 6.722656 11 7 11 Z M 7 11 "/>
<path style=" stroke:none;fill-rule:evenodd;fill:rgb(100%,41.568628%,40.000001%);fill-opacity:1;" d="M 7 2 L 14 2 C 14.277344 2 14.5 2.222656 14.5 2.5 C 14.5 2.777344 14.277344 3 14 3 L 7 3 C 6.722656 3 6.5 2.777344 6.5 2.5 C 6.5 2.222656 6.722656 2 7 2 Z M 7 2 "/>
<path style=" stroke:none;fill-rule:evenodd;fill:rgb(100%,41.568628%,40.000001%);fill-opacity:1;" d="M 7 13 L 11.5 13 C 11.777344 13 12 13.222656 12 13.5 C 12 13.777344 11.777344 14 11.5 14 L 7 14 C 6.722656 14 6.5 13.777344 6.5 13.5 C 6.5 13.222656 6.722656 13 7 13 Z M 7 13 "/>
</g>
</svg>
