<?xml version="1.0" encoding="UTF-8"?>
<svg xmlns="http://www.w3.org/2000/svg" xmlns:xlink="http://www.w3.org/1999/xlink" width="16px" height="16px" viewBox="0 0 16 16" version="1.1">
<g id="surface1">
<path style=" stroke:none;fill-rule:nonzero;fill:rgb(33.333334%,38.431373%,44.705883%);fill-opacity:1;" d="M 12.769531 1.417969 L 9.058594 5.777344 L 10.222656 6.941406 L 14.582031 3.230469 L 14.578125 3.226562 C 14.59375 3.214844 14.609375 3.199219 14.625 3.183594 C 15.125 2.683594 15.125 1.875 14.625 1.375 C 14.125 0.875 13.316406 0.875 12.816406 1.375 C 12.800781 1.390625 12.785156 1.40625 12.773438 1.421875 Z M 14.058594 1.941406 C 14.265625 2.144531 14.265625 2.476562 14.058594 2.679688 C 13.855469 2.886719 13.523438 2.886719 13.320312 2.679688 C 13.113281 2.476562 13.113281 2.144531 13.320312 1.941406 C 13.523438 1.734375 13.855469 1.734375 14.058594 1.941406 Z M 14.058594 1.941406 "/>
<path style=" stroke:none;fill-rule:nonzero;fill:rgb(100%,41.568628%,40.000001%);fill-opacity:1;" d="M 6.328125 4.3125 L 11.6875 9.671875 L 7.402344 14.738281 C 7.140625 15.046875 6.691406 15.089844 6.433594 14.828125 L 1.171875 9.566406 C 0.910156 9.308594 0.953125 8.859375 1.261719 8.597656 Z M 6.328125 4.3125 "/>
<path style=" stroke:none;fill-rule:nonzero;fill:rgb(77.64706%,30.19608%,33.725491%);fill-opacity:1;" d="M 1.21875 8.632812 C 1.214844 8.640625 1.207031 8.648438 1.199219 8.65625 C 1.195312 8.660156 1.191406 8.664062 1.191406 8.664062 C 1.183594 8.671875 1.175781 8.679688 1.171875 8.6875 C 1.167969 8.691406 1.164062 8.695312 1.164062 8.699219 C 1.152344 8.707031 1.144531 8.71875 1.136719 8.730469 C 1.128906 8.742188 1.121094 8.753906 1.113281 8.765625 C 1.113281 8.769531 1.109375 8.769531 1.109375 8.773438 C 1.101562 8.78125 1.097656 8.792969 1.09375 8.800781 C 1.089844 8.804688 1.089844 8.808594 1.085938 8.808594 C 1.082031 8.820312 1.078125 8.828125 1.074219 8.835938 C 1.070312 8.839844 1.070312 8.84375 1.070312 8.847656 C 0.953125 9.089844 0.984375 9.378906 1.171875 9.566406 L 2.078125 10.476562 C 1.820312 10.214844 1.863281 9.765625 2.171875 9.503906 L 5.796875 6.441406 C 6.175781 6.117188 6.742188 6.140625 7.09375 6.496094 L 11.039062 10.4375 L 11.6875 9.671875 L 6.328125 4.3125 L 1.261719 8.597656 C 1.25 8.605469 1.242188 8.613281 1.230469 8.625 C 1.226562 8.628906 1.222656 8.632812 1.21875 8.632812 Z M 1.21875 8.632812 "/>
<path style=" stroke:none;fill-rule:nonzero;fill:rgb(33.333334%,38.431373%,44.705883%);fill-opacity:1;" d="M 7.027344 3.296875 L 12.703125 8.972656 C 12.863281 9.132812 12.863281 9.390625 12.703125 9.546875 L 12.0625 10.191406 C 11.902344 10.351562 11.644531 10.351562 11.484375 10.191406 L 5.808594 4.515625 C 5.648438 4.355469 5.648438 4.097656 5.808594 3.9375 L 6.453125 3.296875 C 6.609375 3.136719 6.867188 3.136719 7.027344 3.296875 Z M 7.027344 3.296875 "/>
<path style=" stroke:none;fill-rule:nonzero;fill:rgb(33.333334%,38.431373%,44.705883%);fill-opacity:1;" d="M 6.417969 3.90625 L 12.09375 9.582031 C 12.253906 9.742188 12.253906 9.996094 12.09375 10.15625 L 12.703125 9.546875 C 12.863281 9.390625 12.863281 9.132812 12.703125 8.972656 L 7.027344 3.296875 C 6.867188 3.136719 6.609375 3.136719 6.453125 3.296875 L 5.84375 3.90625 C 6.003906 3.746094 6.257812 3.746094 6.417969 3.90625 Z M 6.417969 3.90625 "/>
<path style=" stroke:none;fill-rule:nonzero;fill:rgb(78.039217%,96.470588%,35.294119%)F;fill-opacity:1;" d="M 8.625 12.253906 C 8.855469 12.019531 8.855469 11.644531 8.625 11.410156 C 8.390625 11.179688 8.015625 11.179688 7.78125 11.410156 L 7.195312 11.996094 C 6.960938 12.230469 6.585938 12.230469 6.351562 11.996094 C 6.121094 11.765625 6.121094 11.390625 6.351562 11.15625 L 6.519531 10.988281 C 6.714844 10.792969 6.746094 10.496094 6.609375 10.265625 C 6.585938 10.222656 6.554688 10.183594 6.519531 10.148438 C 6.285156 9.914062 5.910156 9.914062 5.675781 10.148438 L 5.085938 10.734375 C 4.855469 10.964844 4.480469 10.964844 4.246094 10.734375 C 4.015625 10.5 4.015625 10.125 4.246094 9.890625 L 4.414062 9.726562 C 4.644531 9.492188 4.644531 9.117188 4.414062 8.882812 C 4.179688 8.652344 3.800781 8.652344 3.570312 8.882812 L 2.027344 10.425781 L 6.226562 14.621094 Z M 8.625 12.253906 "/>
</g>
</svg>
