<?xml version="1.0" encoding="UTF-8"?>
<svg xmlns="http://www.w3.org/2000/svg" xmlns:xlink="http://www.w3.org/1999/xlink" width="16px" height="16px" viewBox="0 0 16 16" version="1.1">
<g id="surface1">
<path style="fill-rule:evenodd;fill:rgb(100%,100%,100%);fill-opacity:1;stroke-width:2;stroke-linecap:round;stroke-linejoin:round;stroke:rgb(100%,41.568628%,40.000001%);stroke-opacity:1;stroke-miterlimit:4;" d="M 3.984375 3 L 28.015625 3 C 28.570312 3 29.015625 3.390625 29.015625 3.875 L 29.015625 28.125 C 29.015625 28.609375 28.570312 29 28.015625 29 L 3.984375 29 C 3.429688 29 2.984375 28.609375 2.984375 28.125 L 2.984375 3.875 C 2.984375 3.390625 3.429688 3 3.984375 3 Z M 3.984375 3 " transform="matrix(0.5,0,0,0.5,0,0)"/>
<path style=" stroke:none;fill-rule:nonzero;fill:rgb(27.058825%,53.333336%,70.980394%);fill-opacity:1;" d="M 11.363281 6 L 11.363281 7.902344 C 11.363281 8.097656 11.207031 8.253906 11.011719 8.253906 L 9.808594 8.761719 L 7.851562 8.253906 C 7.65625 8.253906 7.5 8.097656 7.5 7.902344 L 6.050781 6.910156 L 7.5 6 C 7.5 5.804688 7.65625 5.648438 7.851562 5.648438 L 11.011719 5.648438 C 11.207031 5.648438 11.363281 5.804688 11.363281 6 Z M 11.363281 6 "/>
<path style=" stroke:none;fill-rule:nonzero;fill:rgb(41.960785%,61.56863%,77.64706%);fill-opacity:1;" d="M 11.363281 6 L 11.363281 7.027344 C 11.363281 7.222656 11.207031 7.382812 11.011719 7.382812 L 7.851562 7.382812 C 7.65625 7.382812 7.5 7.222656 7.5 7.027344 L 7.5 6 C 7.5 5.804688 7.65625 5.648438 7.851562 5.648438 L 11.011719 5.648438 C 11.207031 5.648438 11.363281 5.804688 11.363281 6 Z M 11.363281 6 "/>
<path style=" stroke:none;fill-rule:nonzero;fill:rgb(96.862745%,61.960787%,19.215687%);fill-opacity:1;" d="M 11.59375 8.609375 L 11.59375 9.890625 C 11.59375 9.898438 11.59375 9.90625 11.59375 9.914062 C 11.582031 10.097656 11.429688 10.246094 11.242188 10.246094 L 3.632812 10.246094 C 3.4375 10.246094 3.28125 10.085938 3.28125 9.890625 L 3.28125 8.609375 C 3.28125 8.457031 3.378906 8.324219 3.511719 8.277344 C 3.550781 8.261719 3.589844 8.253906 3.632812 8.253906 L 11.242188 8.253906 C 11.4375 8.253906 11.59375 8.414062 11.59375 8.609375 Z M 11.59375 8.609375 "/>
<path style=" stroke:none;fill-rule:nonzero;fill:rgb(100%,90.196079%,41.960785%);fill-opacity:1;" d="M 11.59375 8.609375 L 11.59375 9.890625 C 11.59375 9.898438 11.59375 9.90625 11.59375 9.914062 C 11.554688 9.929688 11.515625 9.9375 11.472656 9.9375 L 3.863281 9.9375 C 3.667969 9.9375 3.511719 9.777344 3.511719 9.582031 L 3.511719 8.300781 C 3.511719 8.292969 3.511719 8.285156 3.511719 8.277344 C 3.550781 8.261719 3.589844 8.253906 3.632812 8.253906 L 11.242188 8.253906 C 11.4375 8.253906 11.59375 8.414062 11.59375 8.609375 Z M 11.59375 8.609375 "/>
<path style=" stroke:none;fill-rule:nonzero;fill:rgb(93.725491%,32.549021%,38.039216%);fill-opacity:1;" d="M 6.921875 8.253906 L 7.148438 8.253906 C 7.34375 8.253906 7.5 8.097656 7.5 7.902344 L 7.5 4.570312 C 7.5 4.378906 7.34375 4.21875 7.148438 4.21875 L 4.019531 4.21875 C 3.824219 4.21875 3.664062 4.378906 3.664062 4.570312 L 3.664062 7.902344 C 3.664062 8.097656 3.824219 8.253906 4.019531 8.253906 L 4.246094 8.253906 "/>
<path style=" stroke:none;fill-rule:nonzero;fill:rgb(86.274511%,25.882354%,31.37255%);fill-opacity:1;" d="M 7.5 4.5625 L 4.53125 4.5625 C 4.339844 4.5625 4.179688 4.71875 4.179688 4.914062 L 4.179688 8.246094 C 4.179688 8.25 4.179688 8.25 4.179688 8.253906 L 4.019531 8.253906 C 3.824219 8.253906 3.664062 8.097656 3.664062 7.902344 L 3.664062 4.570312 C 3.664062 4.378906 3.824219 4.21875 4.019531 4.21875 L 5.5625 3.59375 L 7.148438 4.21875 C 7.339844 4.21875 7.496094 4.371094 7.5 4.5625 Z M 7.5 4.5625 "/>
<path style=" stroke:none;fill-rule:nonzero;fill:rgb(96.862745%,61.960787%,19.215687%);fill-opacity:1;" d="M 8.0625 3.085938 L 8.0625 3.867188 C 8.0625 4.0625 7.902344 4.21875 7.707031 4.21875 L 3.632812 4.21875 C 3.4375 4.21875 3.28125 4.0625 3.28125 3.867188 L 3.28125 3.085938 C 3.28125 2.890625 3.4375 2.734375 3.632812 2.734375 L 7.707031 2.734375 C 7.902344 2.734375 8.0625 2.890625 8.0625 3.085938 Z M 8.0625 3.085938 "/>
<path style=" stroke:none;fill-rule:nonzero;fill:rgb(100%,90.196079%,41.960785%);fill-opacity:1;" d="M 8.0625 3.085938 L 8.0625 3.867188 C 8.0625 4.0625 7.902344 4.21875 7.707031 4.21875 L 4.386719 4.21875 C 4.191406 4.21875 4.035156 4.0625 4.035156 3.867188 L 4.035156 3.085938 C 4.035156 2.890625 4.191406 2.734375 4.386719 2.734375 L 7.707031 2.734375 C 7.902344 2.734375 8.0625 2.890625 8.0625 3.085938 Z M 8.0625 3.085938 "/>
<path style=" stroke:none;fill-rule:nonzero;fill:rgb(40.000001%,40.000001%,40.000001%);fill-opacity:1;" d="M 7.328125 9.378906 C 7.328125 10.34375 6.546875 11.125 5.582031 11.125 C 4.617188 11.125 3.835938 10.34375 3.835938 9.378906 C 3.835938 8.414062 4.617188 7.632812 5.582031 7.632812 C 6.546875 7.632812 7.328125 8.414062 7.328125 9.378906 Z M 7.328125 9.378906 "/>
<path style=" stroke:none;fill-rule:nonzero;fill:rgb(40.000001%,40.000001%,40.000001%);fill-opacity:1;" d="M 10.992188 9.945312 C 10.992188 10.597656 10.460938 11.125 9.808594 11.125 C 9.15625 11.125 8.628906 10.597656 8.628906 9.945312 C 8.628906 9.292969 9.15625 8.761719 9.808594 8.761719 C 10.460938 8.761719 10.992188 9.292969 10.992188 9.945312 Z M 10.992188 9.945312 "/>
<path style=" stroke:none;fill-rule:nonzero;fill:rgb(30.19608%,30.19608%,30.19608%);fill-opacity:1;" d="M 10.304688 9.945312 C 10.304688 10.21875 10.082031 10.4375 9.808594 10.4375 C 9.535156 10.4375 9.316406 10.21875 9.316406 9.945312 C 9.316406 9.671875 9.535156 9.449219 9.808594 9.449219 C 10.082031 9.449219 10.304688 9.671875 10.304688 9.945312 Z M 10.304688 9.945312 "/>
<path style=" stroke:none;fill-rule:nonzero;fill:rgb(30.19608%,30.19608%,30.19608%);fill-opacity:1;" d="M 6.328125 9.378906 C 6.328125 9.789062 5.996094 10.125 5.582031 10.125 C 5.171875 10.125 4.835938 9.789062 4.835938 9.378906 C 4.835938 8.964844 5.171875 8.632812 5.582031 8.632812 C 5.996094 8.632812 6.328125 8.964844 6.328125 9.378906 Z M 6.328125 9.378906 "/>
<path style=" stroke:none;fill-rule:nonzero;fill:rgb(23.921569%,67.843139%,32.156864%);fill-opacity:1;" d="M 10.757812 3.558594 L 10.757812 5.269531 C 10.757812 5.476562 10.589844 5.648438 10.378906 5.648438 L 9.519531 5.648438 C 9.3125 5.648438 9.144531 5.476562 9.144531 5.269531 L 9.144531 3.558594 C 9.144531 3.351562 9.3125 3.183594 9.519531 3.183594 L 10.378906 3.183594 C 10.589844 3.183594 10.757812 3.351562 10.757812 3.558594 Z M 10.757812 3.558594 "/>
<path style=" stroke:none;fill-rule:nonzero;fill:rgb(30.19608%,75.686276%,40.784314%);fill-opacity:1;" d="M 10.757812 3.558594 L 10.757812 5.269531 C 10.757812 5.476562 10.589844 5.648438 10.378906 5.648438 L 10.164062 5.648438 C 9.953125 5.648438 9.785156 5.476562 9.785156 5.269531 L 9.785156 3.558594 C 9.785156 3.351562 9.953125 3.183594 10.164062 3.183594 L 10.378906 3.183594 C 10.589844 3.183594 10.757812 3.351562 10.757812 3.558594 Z M 10.757812 3.558594 "/>
<path style=" stroke:none;fill-rule:nonzero;fill:rgb(85.490197%,90.196079%,92.941177%);fill-opacity:1;" d="M 6.535156 4.902344 L 4.628906 4.902344 C 4.476562 4.902344 4.355469 5.023438 4.355469 5.175781 L 4.355469 6.066406 C 4.355469 6.21875 4.476562 6.339844 4.628906 6.339844 L 6.535156 6.339844 C 6.6875 6.339844 6.8125 6.21875 6.8125 6.066406 L 6.8125 5.175781 C 6.8125 5.023438 6.6875 4.902344 6.535156 4.902344 Z M 6.535156 4.902344 "/>
<path style="fill-rule:evenodd;fill:rgb(100%,100%,100%);fill-opacity:1;stroke-width:2;stroke-linecap:round;stroke-linejoin:round;stroke:rgb(100%,100%,100%);stroke-opacity:1;stroke-miterlimit:4;" d="M 30.526269 23.105459 C 30.526269 27.191396 27.205957 30.511709 23.120019 30.511709 C 19.026269 30.511709 15.713769 27.191396 15.713769 23.105459 C 15.713769 19.011709 19.026269 15.691396 23.120019 15.691396 C 27.205957 15.691396 30.526269 19.011709 30.526269 23.105459 Z M 30.526269 23.105459 " transform="matrix(0.5,0,0,0.5,-0.239697,-0.263667)"/>
<path style="fill-rule:evenodd;fill:rgb(100%,100%,100%);fill-opacity:1;stroke-width:2;stroke-linecap:round;stroke-linejoin:round;stroke:rgb(100%,41.568628%,40.000001%);stroke-opacity:1;stroke-miterlimit:4;" d="M 29.916894 23.105459 C 29.916894 26.855459 26.870019 29.894521 23.120019 29.894521 C 19.362207 29.894521 16.323144 26.855459 16.323144 23.105459 C 16.323144 19.347646 19.362207 16.308584 23.120019 16.308584 C 26.870019 16.308584 29.916894 19.347646 29.916894 23.105459 Z M 29.916894 23.105459 " transform="matrix(0.5,0,0,0.5,-0.239697,-0.263667)"/>
<path style="fill:none;stroke-width:2;stroke-linecap:round;stroke-linejoin:miter;stroke:rgb(27.843139%,80.392158%,77.64706%);stroke-opacity:1;stroke-miterlimit:4;" d="M 23.002832 19.003896 L 23.002832 27.003896 " transform="matrix(0.5,0,0,0.5,-0.239697,-0.263667)"/>
<path style="fill:none;stroke-width:2;stroke-linecap:round;stroke-linejoin:miter;stroke:rgb(27.843139%,80.392158%,77.64706%);stroke-opacity:1;stroke-miterlimit:4;" d="M 19.002832 23.003896 L 27.002832 23.003896 " transform="matrix(0.5,0,0,0.5,-0.239697,-0.263667)"/>
</g>
</svg>
