<?xml version="1.0" encoding="UTF-8"?>
<svg xmlns="http://www.w3.org/2000/svg" xmlns:xlink="http://www.w3.org/1999/xlink" width="16px" height="16px" viewBox="0 0 16 16" version="1.1">
<g id="surface1">
<path style=" stroke:none;fill-rule:nonzero;fill:rgb(86.666667%,91.764706%,98.431373%);fill-opacity:1;" d="M 13.738281 6.375 L 13.738281 13.875 C 13.738281 14.496094 13.234375 15 12.613281 15 L 3.386719 15 C 2.855469 15 2.410156 14.632812 2.292969 14.136719 L 2.289062 13.496094 L 2.261719 9.671875 L 2.261719 2.125 C 2.261719 1.503906 2.765625 1 3.386719 1 L 8.363281 1 C 8.8125 1 10.257812 2.234375 11.539062 3.535156 C 12.707031 4.722656 13.738281 5.964844 13.738281 6.375 Z M 13.738281 6.375 "/>
<path style=" stroke:none;fill-rule:nonzero;fill:rgb(79.607844%,88.627452%,100%);fill-opacity:1;" d="M 13.738281 6.375 L 13.738281 9.121094 C 13.738281 9.117188 13.738281 9.117188 13.738281 9.113281 C 13.652344 5.742188 10.90625 5.585938 10.007812 4.6875 L 11.539062 3.535156 C 12.707031 4.722656 13.738281 5.964844 13.738281 6.375 Z M 13.738281 6.375 "/>
<path style=" stroke:none;fill-rule:nonzero;fill:rgb(79.607844%,88.627452%,100%);fill-opacity:1;" d="M 8.363281 1 L 5.613281 1 C 5.617188 1 5.621094 1 5.625 1 C 8.996094 1.085938 9.152344 3.832031 10.050781 4.730469 L 11.199219 3.195312 C 10.011719 2.027344 8.773438 1 8.363281 1 Z M 8.363281 1 "/>
<path style=" stroke:none;fill-rule:nonzero;fill:rgb(27.843139%,80.392158%,77.64706%);fill-opacity:1;" d="M 13.738281 6.375 L 13.738281 6.847656 C 13.738281 5.847656 12.925781 5.039062 11.925781 5.039062 L 10.824219 5.039062 C 10.203125 5.039062 9.699219 4.535156 9.699219 3.914062 L 9.699219 2.8125 C 9.699219 1.8125 8.886719 1 7.886719 1 L 8.363281 1 C 9.21875 1 10.039062 1.339844 10.644531 1.945312 L 12.792969 4.09375 C 13.398438 4.699219 13.738281 5.519531 13.738281 6.375 Z M 13.738281 6.375 "/>
<path style="fill-rule:evenodd;fill:rgb(100%,100%,100%);fill-opacity:1;stroke-width:2;stroke-linecap:round;stroke-linejoin:round;stroke:rgb(100%,100%,100%);stroke-opacity:1;stroke-miterlimit:4;" d="M 30.529264 23.103549 C 30.529264 27.189486 27.208951 30.509799 23.115201 30.509799 C 19.029264 30.509799 15.708951 27.189486 15.708951 23.103549 C 15.708951 19.009799 19.029264 15.697299 23.115201 15.697299 C 27.208951 15.697299 30.529264 19.009799 30.529264 23.103549 Z M 30.529264 23.103549 " transform="matrix(0.5,0,0,0.5,-0.737288,-0.762712)"/>
<path style="fill-rule:evenodd;fill:rgb(100%,100%,100%);fill-opacity:1;stroke-width:2;stroke-linecap:round;stroke-linejoin:round;stroke:rgb(100%,41.568628%,40.000001%);stroke-opacity:1;stroke-miterlimit:4;" d="M 29.912076 23.103549 C 29.912076 26.853549 26.873014 29.900424 23.115201 29.900424 C 19.365201 29.900424 16.318326 26.853549 16.318326 23.103549 C 16.318326 19.345736 19.365201 16.306674 23.115201 16.306674 C 26.873014 16.306674 29.912076 19.345736 29.912076 23.103549 Z M 29.912076 23.103549 " transform="matrix(0.5,0,0,0.5,-0.737288,-0.762712)"/>
<path style="fill:none;stroke-width:2;stroke-linecap:round;stroke-linejoin:miter;stroke:rgb(27.843139%,80.392158%,77.64706%);stroke-opacity:1;stroke-miterlimit:4;" d="M 22.998014 19.001986 L 22.998014 27.001986 " transform="matrix(0.5,0,0,0.5,-0.737288,-0.762712)"/>
<path style="fill:none;stroke-width:2;stroke-linecap:round;stroke-linejoin:miter;stroke:rgb(27.843139%,80.392158%,77.64706%);stroke-opacity:1;stroke-miterlimit:4;" d="M 18.998014 23.001986 L 26.998014 23.001986 " transform="matrix(0.5,0,0,0.5,-0.737288,-0.762712)"/>
</g>
</svg>
