<?xml version="1.0" encoding="UTF-8"?>
<svg xmlns="http://www.w3.org/2000/svg" xmlns:xlink="http://www.w3.org/1999/xlink" width="16px" height="16px" viewBox="0 0 16 16" version="1.1">
<g id="surface1">
<path style=" stroke:none;fill-rule:nonzero;fill:rgb(100%,41.568628%,40.000001%);fill-opacity:1;" d="M 9.613281 3.679688 L 9.613281 3.371094 C 9.613281 3.023438 9.328125 2.742188 8.980469 2.742188 L 7.945312 2.742188 C 8.03125 2.585938 8.082031 2.390625 8.082031 2.195312 C 8.082031 1.550781 7.558594 1.027344 6.914062 1.027344 C 6.269531 1.027344 5.742188 1.550781 5.742188 2.195312 C 5.742188 2.390625 5.792969 2.585938 5.878906 2.742188 L 5.03125 2.742188 C 4.679688 2.742188 4.398438 3.023438 4.398438 3.371094 L 4.398438 3.679688 L 2.992188 3.679688 C 2.464844 3.679688 2.035156 4.105469 2.035156 4.636719 L 2.035156 14.066406 C 2.035156 14.597656 2.464844 15.027344 2.992188 15.027344 L 11.019531 15.027344 C 11.546875 15.027344 11.976562 14.597656 11.976562 14.066406 L 11.976562 4.636719 C 11.976562 4.105469 11.546875 3.679688 11.019531 3.679688 Z M 9.613281 3.679688 "/>
<path style=" stroke:none;fill-rule:nonzero;fill:rgb(100%,100%,100%);fill-opacity:1;" d="M 6.214844 2.195312 C 6.214844 1.8125 6.527344 1.5 6.910156 1.5 C 7.296875 1.5 7.609375 1.8125 7.609375 2.195312 C 7.609375 2.414062 7.507812 2.605469 7.347656 2.742188 L 6.480469 2.742188 C 6.320312 2.605469 6.214844 2.414062 6.214844 2.195312 Z M 6.214844 2.195312 "/>
<path style=" stroke:none;fill-rule:nonzero;fill:rgb(100%,100%,100%);fill-opacity:1;" d="M 11.019531 13.5 C 11.019531 13.824219 10.753906 14.085938 10.429688 14.085938 L 3.582031 14.085938 C 3.253906 14.085938 2.992188 13.824219 2.992188 13.5 L 2.992188 5.222656 C 2.992188 4.898438 3.253906 4.636719 3.582031 4.636719 L 4.398438 4.636719 C 4.398438 4.894531 4.609375 5.105469 4.867188 5.105469 L 9.144531 5.105469 C 9.402344 5.105469 9.613281 4.894531 9.613281 4.636719 L 10.429688 4.636719 C 10.753906 4.636719 11.019531 4.898438 11.019531 5.222656 Z M 11.019531 13.5 "/>
<path style=" stroke:none;fill-rule:nonzero;fill:rgb(86.666667%,91.764706%,98.431373%);fill-opacity:1;" d="M 13.96875 8.863281 L 13.96875 14.261719 C 13.96875 14.707031 13.609375 15.066406 13.164062 15.066406 L 6.527344 15.066406 C 6.144531 15.066406 5.828125 14.804688 5.742188 14.449219 L 5.738281 13.988281 L 5.71875 11.234375 L 5.71875 5.808594 C 5.71875 5.363281 6.082031 5 6.527344 5 L 10.105469 5 C 10.425781 5 11.46875 5.890625 12.390625 6.824219 C 13.230469 7.679688 13.96875 8.570312 13.96875 8.863281 Z M 13.96875 8.863281 "/>
<path style=" stroke:none;fill-rule:nonzero;fill:rgb(79.607844%,88.627452%,100%);fill-opacity:1;" d="M 13.96875 8.863281 L 13.96875 10.839844 C 13.96875 10.839844 13.96875 10.835938 13.96875 10.835938 C 13.910156 8.410156 11.933594 8.296875 11.289062 7.652344 L 12.390625 6.824219 C 13.230469 7.679688 13.96875 8.570312 13.96875 8.863281 Z M 13.96875 8.863281 "/>
<path style=" stroke:none;fill-rule:nonzero;fill:rgb(79.607844%,88.627452%,100%);fill-opacity:1;" d="M 10.105469 5 L 8.128906 5 C 8.132812 5 8.132812 5 8.136719 5 C 10.5625 5.0625 10.671875 7.039062 11.320312 7.683594 L 12.144531 6.582031 C 11.292969 5.742188 10.398438 5 10.105469 5 Z M 10.105469 5 "/>
<path style=" stroke:none;fill-rule:nonzero;fill:rgb(27.843139%,80.392158%,77.64706%);fill-opacity:1;" d="M 13.96875 8.863281 L 13.96875 9.207031 C 13.96875 8.488281 13.386719 7.902344 12.667969 7.902344 L 11.875 7.902344 C 11.429688 7.902344 11.066406 7.542969 11.066406 7.097656 L 11.066406 6.304688 C 11.066406 5.585938 10.484375 5 9.765625 5 L 10.105469 5 C 10.722656 5 11.3125 5.246094 11.746094 5.679688 L 13.289062 7.226562 C 13.726562 7.660156 13.96875 8.25 13.96875 8.863281 Z M 13.96875 8.863281 "/>
<path style=" stroke:none;fill-rule:nonzero;fill:rgb(100%,41.568628%,40.000001%);fill-opacity:1;" d="M 12.898438 10.453125 L 6.789062 10.453125 C 6.683594 10.453125 6.601562 10.371094 6.601562 10.265625 C 6.601562 10.160156 6.683594 10.078125 6.789062 10.078125 L 12.898438 10.078125 C 13.003906 10.078125 13.089844 10.160156 13.089844 10.265625 C 13.089844 10.371094 13.003906 10.453125 12.898438 10.453125 Z M 12.898438 10.453125 "/>
<path style=" stroke:none;fill-rule:nonzero;fill:rgb(100%,41.568628%,40.000001%);fill-opacity:1;" d="M 12.898438 11.347656 L 6.789062 11.347656 C 6.683594 11.347656 6.601562 11.261719 6.601562 11.160156 C 6.601562 11.054688 6.683594 10.972656 6.789062 10.972656 L 12.898438 10.972656 C 13.003906 10.972656 13.089844 11.054688 13.089844 11.160156 C 13.089844 11.261719 13.003906 11.347656 12.898438 11.347656 Z M 12.898438 11.347656 "/>
<path style=" stroke:none;fill-rule:nonzero;fill:rgb(100%,41.568628%,40.000001%);fill-opacity:1;" d="M 12.898438 12.242188 L 6.789062 12.242188 C 6.683594 12.242188 6.601562 12.15625 6.601562 12.054688 C 6.601562 11.949219 6.683594 11.867188 6.789062 11.867188 L 12.898438 11.867188 C 13.003906 11.867188 13.089844 11.949219 13.089844 12.054688 C 13.089844 12.15625 13.003906 12.242188 12.898438 12.242188 Z M 12.898438 12.242188 "/>
<path style=" stroke:none;fill-rule:nonzero;fill:rgb(100%,41.568628%,40.000001%);fill-opacity:1;" d="M 9.035156 13.136719 L 6.789062 13.136719 C 6.683594 13.136719 6.601562 13.050781 6.601562 12.949219 C 6.601562 12.84375 6.683594 12.757812 6.789062 12.757812 L 9.035156 12.757812 C 9.136719 12.757812 9.222656 12.84375 9.222656 12.949219 C 9.222656 13.050781 9.136719 13.136719 9.035156 13.136719 Z M 9.035156 13.136719 "/>
<path style=" stroke:none;fill-rule:nonzero;fill:rgb(100%,41.568628%,40.000001%);fill-opacity:1;" d="M 9.035156 7.972656 L 6.789062 7.972656 C 6.683594 7.972656 6.601562 7.890625 6.601562 7.785156 C 6.601562 7.683594 6.683594 7.597656 6.789062 7.597656 L 9.035156 7.597656 C 9.136719 7.597656 9.222656 7.683594 9.222656 7.785156 C 9.222656 7.890625 9.136719 7.972656 9.035156 7.972656 Z M 9.035156 7.972656 "/>
</g>
</svg>
