<?xml version="1.0" encoding="UTF-8"?>
<svg xmlns="http://www.w3.org/2000/svg" xmlns:xlink="http://www.w3.org/1999/xlink" width="16px" height="16px" viewBox="0 0 16 16" version="1.1">
<g id="surface1">
<path style=" stroke:none;fill-rule:nonzero;fill:rgb(100%,41.568628%,40.000001%);fill-opacity:1;" d="M 2.132812 14.089844 C 1.507812 14.089844 1 13.582031 1 12.957031 L 1 3.042969 C 1 2.417969 1.507812 1.910156 2.132812 1.910156 L 11.753906 1.910156 C 12.074219 1.910156 12.382812 2.046875 12.597656 2.285156 L 14.710938 4.632812 C 14.898438 4.84375 15 5.113281 15 5.390625 L 15 12.957031 C 15 13.582031 14.492188 14.089844 13.867188 14.089844 Z M 2.132812 14.089844 "/>
<path style=" stroke:none;fill-rule:nonzero;fill:rgb(77.64706%,30.19608%,33.725491%);fill-opacity:1;" d="M 14.710938 4.632812 L 12.597656 2.285156 C 12.382812 2.046875 12.074219 1.910156 11.753906 1.910156 L 10.84375 1.910156 C 11.164062 1.910156 11.46875 2.046875 11.683594 2.285156 L 13.796875 4.632812 C 13.984375 4.84375 14.089844 5.113281 14.089844 5.390625 L 14.089844 12.957031 C 14.089844 13.582031 13.582031 14.089844 12.957031 14.089844 L 13.867188 14.089844 C 14.492188 14.089844 15 13.582031 15 12.957031 L 15 5.390625 C 15 5.113281 14.898438 4.84375 14.710938 4.632812 Z M 14.710938 4.632812 "/>
<path style=" stroke:none;fill-rule:nonzero;fill:rgb(27.843139%,80.392158%,77.64706%);fill-opacity:1;" d="M 4.734375 6.191406 C 4.179688 6.191406 3.734375 5.746094 3.734375 5.195312 L 3.734375 1.910156 L 10.445312 1.910156 L 10.445312 5.195312 C 10.445312 5.746094 9.996094 6.191406 9.445312 6.191406 Z M 4.734375 6.191406 "/>
<path style=" stroke:none;fill-rule:nonzero;fill:rgb(33.333334%,38.431373%,44.705883%);fill-opacity:1;" d="M 9.519531 1.910156 L 9.519531 5.195312 C 9.519531 5.746094 9.070312 6.191406 8.519531 6.191406 L 9.445312 6.191406 C 9.996094 6.191406 10.445312 5.746094 10.445312 5.195312 L 10.445312 1.910156 Z M 9.519531 1.910156 "/>
<path style=" stroke:none;fill-rule:nonzero;fill:rgb(78.039217%,96.470588%,35.294119%)F;fill-opacity:1;" d="M 2.519531 14.089844 L 2.519531 9.90625 C 2.519531 9.179688 3.105469 8.59375 3.832031 8.59375 L 12.167969 8.59375 C 12.894531 8.59375 13.480469 9.179688 13.480469 9.90625 L 13.480469 14.089844 Z M 2.519531 14.089844 "/>
<path style=" stroke:none;fill-rule:nonzero;fill:rgb(78.039217%,96.470588%,35.294119%)F;fill-opacity:1;" d="M 7.378906 5.074219 L 7.378906 3.027344 C 7.378906 2.914062 7.46875 2.820312 7.582031 2.820312 L 9.023438 2.820312 C 9.136719 2.820312 9.230469 2.914062 9.230469 3.027344 L 9.230469 5.074219 C 9.230469 5.191406 9.136719 5.28125 9.023438 5.28125 L 7.582031 5.28125 C 7.46875 5.28125 7.378906 5.191406 7.378906 5.074219 Z M 7.378906 5.074219 "/>
<path style=" stroke:none;fill-rule:nonzero;fill:rgb(72.941178%,72.941178%,72.941178%);fill-opacity:1;" d="M 4.355469 10.050781 L 8 10.050781 C 8.125 10.050781 8.226562 9.949219 8.226562 9.820312 C 8.226562 9.695312 8.125 9.59375 8 9.59375 L 4.355469 9.59375 C 4.230469 9.59375 4.128906 9.695312 4.128906 9.820312 C 4.128906 9.949219 4.230469 10.050781 4.355469 10.050781 Z M 4.355469 10.050781 "/>
<path style=" stroke:none;fill-rule:nonzero;fill:rgb(72.941178%,72.941178%,72.941178%);fill-opacity:1;" d="M 8.910156 10.050781 L 9.820312 10.050781 C 9.949219 10.050781 10.050781 9.949219 10.050781 9.820312 C 10.050781 9.695312 9.949219 9.59375 9.820312 9.59375 L 8.910156 9.59375 C 8.785156 9.59375 8.683594 9.695312 8.683594 9.820312 C 8.683594 9.949219 8.785156 10.050781 8.910156 10.050781 Z M 8.910156 10.050781 "/>
<path style=" stroke:none;fill-rule:nonzero;fill:rgb(72.941178%,72.941178%,72.941178%);fill-opacity:1;" d="M 11.644531 9.59375 L 10.734375 9.59375 C 10.605469 9.59375 10.503906 9.695312 10.503906 9.820312 C 10.503906 9.949219 10.605469 10.050781 10.734375 10.050781 L 11.644531 10.050781 C 11.769531 10.050781 11.871094 9.949219 11.871094 9.820312 C 11.871094 9.695312 11.769531 9.59375 11.644531 9.59375 Z M 11.644531 9.59375 "/>
<path style=" stroke:none;fill-rule:nonzero;fill:rgb(72.941178%,72.941178%,72.941178%);fill-opacity:1;" d="M 4.355469 11.265625 L 9.214844 11.265625 C 9.339844 11.265625 9.441406 11.164062 9.441406 11.035156 C 9.441406 10.910156 9.339844 10.808594 9.214844 10.808594 L 4.355469 10.808594 C 4.230469 10.808594 4.128906 10.910156 4.128906 11.035156 C 4.128906 11.164062 4.230469 11.265625 4.355469 11.265625 Z M 4.355469 11.265625 "/>
<path style=" stroke:none;fill-rule:nonzero;fill:rgb(72.941178%,72.941178%,72.941178%);fill-opacity:1;" d="M 11.644531 10.808594 L 10.429688 10.808594 C 10.304688 10.808594 10.203125 10.910156 10.203125 11.035156 C 10.203125 11.164062 10.304688 11.265625 10.429688 11.265625 L 11.644531 11.265625 C 11.769531 11.265625 11.871094 11.164062 11.871094 11.035156 C 11.871094 10.910156 11.769531 10.808594 11.644531 10.808594 Z M 11.644531 10.808594 "/>
<path style=" stroke:none;fill-rule:nonzero;fill:rgb(72.941178%,72.941178%,72.941178%);fill-opacity:1;" d="M 6.179688 12.023438 L 4.355469 12.023438 C 4.230469 12.023438 4.128906 12.125 4.128906 12.25 C 4.128906 12.378906 4.230469 12.480469 4.355469 12.480469 L 6.179688 12.480469 C 6.304688 12.480469 6.40625 12.378906 6.40625 12.25 C 6.40625 12.125 6.304688 12.023438 6.179688 12.023438 Z M 6.179688 12.023438 "/>
<path style=" stroke:none;fill-rule:nonzero;fill:rgb(72.941178%,72.941178%,72.941178%);fill-opacity:1;" d="M 11.644531 12.023438 L 7.394531 12.023438 C 7.265625 12.023438 7.164062 12.125 7.164062 12.25 C 7.164062 12.378906 7.265625 12.480469 7.394531 12.480469 L 11.644531 12.480469 C 11.769531 12.480469 11.871094 12.378906 11.871094 12.25 C 11.871094 12.125 11.769531 12.023438 11.644531 12.023438 Z M 11.644531 12.023438 "/>
</g>
</svg>
