<?xml version="1.0" encoding="UTF-8"?>
<svg xmlns="http://www.w3.org/2000/svg" xmlns:xlink="http://www.w3.org/1999/xlink" width="16px" height="16px" viewBox="0 0 16 16" version="1.1">
<g id="surface1">
<path style=" stroke:none;fill-rule:nonzero;fill:rgb(100%,41.568628%,40.000001%);fill-opacity:1;" d="M 2 13.5 L 14 13.5 C 14.277344 13.5 14.5 13.695312 14.5 13.9375 L 14.5 14.0625 C 14.5 14.304688 14.277344 14.5 14 14.5 L 2 14.5 C 1.722656 14.5 1.5 14.304688 1.5 14.0625 L 1.5 13.9375 C 1.5 13.695312 1.722656 13.5 2 13.5 Z M 2 13.5 "/>
<path style=" stroke:none;fill-rule:nonzero;fill:rgb(100%,41.568628%,40.000001%);fill-opacity:1;" d="M 10.917969 1.9375 C 11.316406 1.9375 11.652344 2.125 11.925781 2.503906 C 12.019531 2.628906 12.085938 2.835938 12.128906 3.132812 C 12.015625 7.042969 11.9375 9 11.894531 9 C 11.894531 9.144531 11.808594 9.542969 11.632812 10.203125 C 11.507812 10.5625 11.363281 10.902344 11.199219 11.21875 C 11.0625 11.464844 10.84375 11.761719 10.546875 12.101562 C 10.183594 12.460938 9.910156 12.679688 9.722656 12.761719 C 9.175781 13.066406 8.675781 13.21875 8.226562 13.21875 L 7.9375 13.21875 C 7.410156 13.21875 6.839844 13.027344 6.222656 12.644531 C 4.703125 11.542969 3.941406 9.652344 3.941406 6.964844 L 3.941406 6.484375 C 3.941406 5.640625 3.917969 4.636719 3.871094 3.472656 C 3.871094 3.0625 4.058594 2.722656 4.4375 2.449219 C 4.648438 2.320312 4.871094 2.253906 5.097656 2.253906 C 5.507812 2.253906 5.84375 2.449219 6.113281 2.835938 C 6.253906 2.996094 6.324219 3.394531 6.324219 4.03125 C 6.359375 4.730469 6.378906 5.535156 6.378906 6.445312 L 6.378906 6.863281 C 6.378906 8.683594 6.746094 9.914062 7.480469 10.550781 C 7.675781 10.707031 7.867188 10.785156 8.046875 10.785156 L 8.132812 10.785156 C 8.433594 10.785156 8.730469 10.554688 9.03125 10.09375 C 9.167969 9.863281 9.277344 9.601562 9.367188 9.300781 C 9.480469 8.851562 9.535156 8.28125 9.535156 7.585938 C 9.605469 6.066406 9.65625 4.558594 9.691406 3.0625 C 9.710938 2.871094 9.785156 2.671875 9.910156 2.464844 C 10.183594 2.113281 10.519531 1.9375 10.917969 1.9375 Z M 10.917969 1.9375 "/>
</g>
</svg>
