<?xml version="1.0" encoding="UTF-8"?>
<svg xmlns="http://www.w3.org/2000/svg" xmlns:xlink="http://www.w3.org/1999/xlink" width="16px" height="16px" viewBox="0 0 16 16" version="1.1">
<g id="surface1">
<path style=" stroke:none;fill-rule:nonzero;fill:rgb(27.843139%,80.392158%,77.64706%);fill-opacity:1;" d="M 5.460938 3 C 5.335938 3.003906 5.21875 3.054688 5.128906 3.140625 L 1.796875 6.394531 C 1.777344 6.414062 1.761719 6.4375 1.75 6.460938 C 1.625 6.597656 1.523438 6.769531 1.523438 6.984375 C 1.523438 7.230469 1.640625 7.429688 1.761719 7.578125 C 1.761719 7.578125 1.765625 7.578125 1.765625 7.578125 C 1.773438 7.589844 1.785156 7.601562 1.796875 7.613281 L 1.800781 7.613281 L 5.128906 10.859375 C 5.28125 11.003906 5.503906 11.03125 5.671875 10.960938 C 5.839844 10.886719 5.976562 10.710938 5.976562 10.5 L 5.976562 8.5 L 11.476562 8.527344 C 11.402344 8.527344 11.457031 8.527344 11.46875 8.539062 C 11.476562 8.546875 11.476562 8.601562 11.476562 8.527344 L 11.476562 12.5 C 11.476562 12.773438 11.703125 13 11.976562 13 L 13.976562 13 C 14.25 13 14.476562 12.773438 14.476562 12.5 L 14.476562 8.527344 C 14.476562 8.503906 14.46875 8.480469 14.464844 8.453125 C 14.472656 8.402344 14.476562 8.34375 14.476562 8.273438 L 14.476562 8.269531 C 14.476562 6.761719 13.242188 5.527344 11.734375 5.527344 L 11.730469 5.527344 C 11.660156 5.527344 11.601562 5.535156 11.550781 5.539062 C 11.527344 5.535156 11.503906 5.527344 11.476562 5.527344 L 5.976562 5.5 L 5.976562 3.5 C 5.976562 3.222656 5.742188 2.992188 5.460938 3 Z M 5.460938 3 "/>
</g>
</svg>
