<?xml version="1.0" encoding="UTF-8"?>
<svg xmlns="http://www.w3.org/2000/svg" xmlns:xlink="http://www.w3.org/1999/xlink" width="32px" height="32px" viewBox="0 0 32 32" version="1.1">
<g id="surface1">
<path style=" stroke:none;fill-rule:nonzero;fill:rgb(78.039217%,96.078432%,34.901962%);fill-opacity:1;" d="M 0 0 L 19.09375 0 L 19.09375 15.117188 L 0 15.117188 Z M 0 0 "/>
<path style=" stroke:none;fill-rule:nonzero;fill:rgb(100%,0%,0%);fill-opacity:1;" d="M 0 25 L 32 25 L 32 32 L 0 32 Z M 0 25 "/>
<path style=" stroke:none;fill-rule:nonzero;fill:rgb(100%,40.784314%,40.000001%);fill-opacity:1;" d="M 5.273438 4.125 C 6.140625 4.125 7.054688 4.3125 8.023438 4.679688 C 8.492188 4.945312 8.726562 5.320312 8.726562 5.8125 L 8.71875 5.929688 C 8.929688 6.148438 9.03125 6.507812 9.03125 7.007812 C 9.046875 7.007812 9.046875 7.171875 9.046875 7.507812 C 9.046875 7.84375 9.046875 8.179688 9.039062 8.523438 C 9.085938 10.476562 9.101562 11.585938 9.101562 11.84375 C 9.101562 12.203125 8.9375 12.523438 8.601562 12.804688 C 8.367188 12.960938 8.125 13.039062 7.875 13.039062 C 7.523438 13.039062 7.21875 12.890625 6.945312 12.609375 L 6.929688 12.601562 C 6.1875 12.96875 5.484375 13.15625 4.804688 13.15625 L 4.601562 13.15625 C 3.789062 13.15625 3.039062 12.890625 2.351562 12.375 C 1.414062 11.585938 0.945312 10.46875 0.945312 9.03125 C 0.945312 7.375 1.414062 6.09375 2.351562 5.179688 C 3.125 4.476562 4.101562 4.125 5.273438 4.125 Z M 3.390625 9.007812 C 3.390625 9.828125 3.609375 10.351562 4.046875 10.578125 C 4.21875 10.664062 4.4375 10.710938 4.695312 10.710938 L 4.710938 10.710938 C 5.226562 10.710938 5.679688 10.554688 6.070312 10.25 C 6.148438 10.164062 6.234375 10.007812 6.328125 9.78125 C 6.5 9.234375 6.59375 8.734375 6.59375 8.289062 C 6.59375 8.078125 6.585938 7.570312 6.578125 6.765625 C 6.09375 6.632812 5.65625 6.570312 5.257812 6.570312 C 4.453125 6.570312 3.929688 6.859375 3.671875 7.445312 C 3.484375 7.914062 3.390625 8.429688 3.390625 9.007812 Z M 3.390625 9.007812 "/>
<path style=" stroke:none;fill-rule:nonzero;fill:rgb(100%,40.784314%,40.000001%);fill-opacity:1;" d="M 11.789062 1.835938 C 12.25 1.835938 12.609375 2.070312 12.875 2.523438 C 12.96875 2.703125 13.007812 2.890625 13.007812 3.085938 L 13.007812 4.335938 C 15.117188 4.335938 16.617188 4.976562 17.507812 6.257812 C 17.945312 6.929688 18.171875 7.695312 18.171875 8.539062 L 18.171875 8.65625 C 18.171875 9.617188 17.84375 10.484375 17.1875 11.257812 C 16.78125 11.664062 16.453125 11.929688 16.226562 12.0625 C 15.007812 12.789062 13.53125 13.15625 11.804688 13.15625 L 11.789062 13.15625 C 11.265625 13.15625 10.882812 12.898438 10.632812 12.390625 C 10.570312 12.210938 10.539062 12.070312 10.539062 11.984375 C 10.554688 7.203125 10.570312 4.210938 10.570312 3.015625 C 10.570312 2.726562 10.6875 2.453125 10.929688 2.1875 C 11.1875 1.953125 11.46875 1.835938 11.789062 1.835938 Z M 12.992188 6.789062 C 12.992188 8 12.984375 8.929688 12.984375 9.578125 L 12.984375 10.625 C 13.15625 10.625 13.554688 10.53125 14.179688 10.351562 C 14.882812 10.09375 15.335938 9.773438 15.546875 9.375 C 15.671875 9.171875 15.734375 8.898438 15.734375 8.570312 C 15.734375 7.820312 15.421875 7.328125 14.796875 7.085938 C 14.320312 6.882812 13.742188 6.78125 13.054688 6.78125 Z M 12.992188 6.789062 "/>
<path style=" stroke:none;fill-rule:evenodd;fill:rgb(78.039217%,96.078432%,34.901962%);fill-opacity:1;" d="M 12.25 20.617188 L 12.25 21.078125 L 8.914062 25.015625 L 12.398438 25.007812 L 14.585938 22.617188 Z M 12.25 20.617188 "/>
<path style=" stroke:none;fill-rule:evenodd;fill:rgb(27.058825%,80.000001%,77.254903%);fill-opacity:1;" d="M 13.929688 15.921875 L 19.429688 21.085938 L 20.59375 19.929688 L 14.945312 14.945312 Z M 13.929688 15.921875 "/>
<path style=" stroke:none;fill-rule:evenodd;fill:rgb(32.941177%,38.039216%,43.921569%);fill-opacity:1;" d="M 28.148438 2.265625 L 32.179688 5.71875 C 31.335938 8.773438 24.523438 15.585938 20.59375 19.929688 L 14.945312 14.945312 C 19.304688 10.828125 26.40625 1.4375 28.148438 2.265625 Z M 28.148438 2.265625 "/>
<path style=" stroke:none;fill-rule:evenodd;fill:rgb(27.058825%,80.000001%,77.254903%);fill-opacity:1;" d="M 13.929688 15.921875 C 13.203125 19.25 12.976562 19.757812 12.25 20.617188 L 14.585938 22.617188 C 16.039062 21.515625 17.445312 21.445312 19.429688 21.085938 Z M 13.929688 15.921875 "/>
<path style=" stroke:none;fill-rule:nonzero;fill:rgb(78.039217%,96.078432%,34.901962%);fill-opacity:1;" d="M 10.828125 24.078125 C 10.03125 24.078125 9.328125 24.460938 9.078125 25.015625 L 12.398438 25.007812 L 12.507812 24.882812 C 12.210938 24.390625 11.554688 24.078125 10.828125 24.078125 Z M 10.828125 24.078125 "/>
<path style=" stroke:none;fill-rule:evenodd;fill:rgb(27.058825%,80.000001%,77.254903%);fill-opacity:1;" d="M 27.867188 2.210938 C 27.367188 2.234375 26.609375 2.742188 25.695312 3.546875 L 30.898438 8.132812 C 31.53125 7.203125 32 6.367188 32.179688 5.71875 L 28.148438 2.265625 C 28.070312 2.226562 27.976562 2.210938 27.867188 2.210938 Z M 27.867188 2.210938 "/>
</g>
</svg>
