<?xml version="1.0" encoding="UTF-8"?>
<svg xmlns="http://www.w3.org/2000/svg" xmlns:xlink="http://www.w3.org/1999/xlink" width="32px" height="32px" viewBox="0 0 32 32" version="1.1">
<g id="surface1">
<path style=" stroke:none;fill-rule:nonzero;fill:rgb(100%,0%,0%);fill-opacity:1;" d="M 0.3125 25.015625 L 31.6875 25.015625 L 31.6875 31.648438 L 0.3125 31.648438 Z M 0.3125 25.015625 "/>
<path style=" stroke:none;fill-rule:nonzero;fill:rgb(0%,0%,0%);fill-opacity:1;" d="M 6.875 10.25 C 7.828125 10.25 8.828125 10.453125 9.890625 10.851562 C 10.40625 11.148438 10.664062 11.5625 10.664062 12.101562 L 10.65625 12.234375 C 10.890625 12.46875 11 12.859375 11 13.40625 C 11.015625 13.40625 11.015625 13.59375 11.015625 13.96875 C 11.015625 14.328125 11.015625 14.703125 11.007812 15.078125 C 11.054688 17.226562 11.078125 18.4375 11.078125 18.726562 C 11.078125 19.117188 10.890625 19.46875 10.523438 19.773438 C 10.273438 19.945312 10.007812 20.03125 9.726562 20.03125 C 9.34375 20.03125 9.007812 19.875 8.710938 19.5625 L 8.695312 19.554688 C 7.882812 19.960938 7.101562 20.164062 6.359375 20.164062 L 6.132812 20.164062 C 5.242188 20.164062 4.421875 19.875 3.664062 19.304688 C 2.632812 18.4375 2.125 17.21875 2.125 15.632812 C 2.125 13.8125 2.632812 12.40625 3.664062 11.398438 C 4.515625 10.632812 5.585938 10.25 6.875 10.25 Z M 4.804688 15.609375 C 4.804688 16.515625 5.046875 17.085938 5.523438 17.335938 C 5.71875 17.429688 5.953125 17.476562 6.234375 17.476562 L 6.25 17.476562 C 6.820312 17.476562 7.320312 17.3125 7.742188 16.976562 C 7.835938 16.875 7.929688 16.703125 8.023438 16.460938 C 8.21875 15.859375 8.320312 15.3125 8.320312 14.820312 C 8.320312 14.585938 8.3125 14.03125 8.296875 13.148438 C 7.773438 13 7.296875 12.929688 6.859375 12.929688 C 5.976562 12.929688 5.390625 13.25 5.109375 13.898438 C 4.90625 14.40625 4.804688 14.976562 4.804688 15.609375 Z M 4.804688 15.609375 "/>
<path style=" stroke:none;fill-rule:nonzero;fill:rgb(27.843139%,80.392158%,77.64706%);fill-opacity:1;" d="M 13.664062 3.804688 C 14.171875 3.804688 14.570312 4.054688 14.867188 4.554688 C 14.960938 4.757812 15.007812 4.960938 15.007812 5.171875 L 15.007812 6.546875 C 17.320312 6.546875 18.96875 7.25 19.945312 8.65625 C 20.429688 9.398438 20.671875 10.234375 20.671875 11.164062 L 20.671875 11.289062 C 20.671875 12.351562 20.3125 13.296875 19.601562 14.140625 C 19.148438 14.59375 18.796875 14.890625 18.539062 15.03125 C 17.203125 15.828125 15.578125 16.226562 13.6875 16.226562 L 13.664062 16.226562 C 13.101562 16.226562 12.679688 15.953125 12.40625 15.390625 C 12.328125 15.195312 12.289062 15.046875 12.289062 14.945312 C 12.3125 9.695312 12.328125 6.40625 12.328125 5.09375 C 12.328125 4.78125 12.460938 4.476562 12.726562 4.1875 C 13.007812 3.929688 13.320312 3.804688 13.664062 3.804688 Z M 14.992188 9.242188 C 14.984375 10.5625 14.984375 11.585938 14.984375 12.304688 L 14.984375 13.453125 C 15.171875 13.453125 15.609375 13.351562 16.289062 13.148438 C 17.0625 12.875 17.570312 12.515625 17.796875 12.085938 C 17.929688 11.859375 18 11.5625 18 11.195312 C 18 10.375 17.65625 9.828125 16.976562 9.5625 C 16.453125 9.34375 15.8125 9.226562 15.0625 9.226562 Z M 14.992188 9.242188 "/>
<path style=" stroke:none;fill-rule:nonzero;fill:rgb(100%,41.568628%,40.000001%);fill-opacity:1;" d="M 25.773438 9.695312 L 25.867188 9.695312 C 26.976562 9.695312 28.09375 10.070312 29.203125 10.804688 C 29.617188 11.117188 29.828125 11.492188 29.828125 11.945312 C 29.828125 12.4375 29.578125 12.828125 29.078125 13.132812 C 28.867188 13.226562 28.65625 13.265625 28.46875 13.265625 C 28.15625 13.265625 27.835938 13.148438 27.515625 12.898438 C 26.9375 12.546875 26.367188 12.375 25.820312 12.375 C 25.117188 12.375 24.492188 12.664062 23.9375 13.242188 C 23.570312 13.679688 23.382812 14.164062 23.382812 14.695312 L 23.382812 14.75 C 23.382812 15.492188 23.703125 16.09375 24.335938 16.539062 C 24.828125 16.804688 25.335938 16.9375 25.859375 16.9375 C 26.421875 16.9375 26.960938 16.75 27.476562 16.390625 C 27.695312 16.265625 27.929688 16.203125 28.164062 16.203125 C 28.625 16.203125 29.007812 16.421875 29.3125 16.875 C 29.429688 17.09375 29.492188 17.3125 29.492188 17.539062 C 29.492188 18.171875 29.070312 18.671875 28.21875 19.054688 C 27.46875 19.429688 26.695312 19.617188 25.90625 19.617188 L 25.765625 19.617188 C 24.789062 19.617188 23.8125 19.335938 22.84375 18.765625 C 22.625 18.625 22.304688 18.351562 21.882812 17.929688 C 21.617188 17.59375 21.40625 17.289062 21.257812 17.015625 C 20.882812 16.242188 20.695312 15.53125 20.695312 14.882812 L 20.695312 14.554688 C 20.695312 13.835938 20.914062 13.085938 21.335938 12.289062 C 21.492188 11.984375 21.789062 11.617188 22.21875 11.171875 C 22.671875 10.757812 23.085938 10.460938 23.445312 10.296875 C 24.203125 9.898438 24.976562 9.695312 25.773438 9.695312 Z M 25.773438 9.695312 "/>
</g>
</svg>
