<?xml version="1.0" encoding="UTF-8"?>
<svg xmlns="http://www.w3.org/2000/svg" xmlns:xlink="http://www.w3.org/1999/xlink" width="32px" height="32px" viewBox="0 0 32 32" version="1.1">
<g id="surface1">
<path style="fill-rule:nonzero;fill:rgb(27.843139%,80.392158%,77.64706%);fill-opacity:1;stroke-width:0.264583;stroke-linecap:butt;stroke-linejoin:miter;stroke:rgb(27.843139%,80.392158%,77.64706%);stroke-opacity:1;stroke-miterlimit:4;" d="M 1.687762 0.939813 C 1.828745 0.939813 1.937503 1.005579 2.01605 1.13711 C 2.046261 1.200755 2.062373 1.258034 2.062373 1.313193 C 2.062373 1.544434 2.060359 2.312407 2.056331 3.621357 C 2.056331 3.710459 2.01605 3.791075 1.935489 3.867448 C 1.867011 3.914121 1.800548 3.939578 1.738113 3.939578 L 1.722001 3.939578 C 1.605187 3.939578 1.512541 3.878056 1.440036 3.75501 C 1.417881 3.706216 1.407811 3.665908 1.407811 3.631965 C 1.411839 2.760038 1.411839 2.199969 1.411839 1.949635 C 1.415867 1.858412 1.415867 1.805375 1.415867 1.792646 C 1.411839 1.792646 1.409825 1.790525 1.409825 1.788403 C 1.401769 1.792646 1.387671 1.794768 1.365516 1.794768 L 1.339334 1.794768 C 1.220506 1.794768 1.125846 1.731123 1.055355 1.601713 C 1.037228 1.557162 1.029172 1.516854 1.029172 1.482911 L 1.029172 1.463817 C 1.029172 1.351379 1.093621 1.249549 1.22252 1.158325 C 1.397741 1.014065 1.552822 0.939813 1.687762 0.939813 Z M 1.687762 0.939813 " transform="matrix(3.879026,0,0,3.68258,0.00000180222,0)"/>
<path style="fill-rule:nonzero;fill:rgb(27.843139%,80.392158%,77.64706%);fill-opacity:1;stroke-width:0.264583;stroke-linecap:butt;stroke-linejoin:miter;stroke:rgb(27.843139%,80.392158%,77.64706%);stroke-opacity:1;stroke-miterlimit:4;" d="M 1.890798 4.891546 C 2.115305 4.891546 2.325394 4.982822 2.516945 5.165373 C 2.652885 5.306435 2.720855 5.47654 2.720855 5.675687 C 2.720855 6.026269 2.494288 6.45153 2.041156 6.951472 L 2.041156 6.957695 C 2.34599 6.953546 2.527243 6.949397 2.582855 6.949397 C 2.669362 6.949397 2.743511 6.992961 2.809421 7.082162 C 2.840317 7.129874 2.854735 7.177587 2.854735 7.227373 L 2.854735 7.241894 C 2.854735 7.335245 2.807362 7.414074 2.712616 7.480456 C 2.663183 7.507424 2.61787 7.521945 2.576676 7.521945 C 2.521064 7.521945 2.096768 7.528168 1.301726 7.542689 C 1.256413 7.542689 1.200801 7.517796 1.13695 7.472158 C 1.07104 7.409925 1.038085 7.339393 1.038085 7.262639 L 1.038085 7.246043 C 1.038085 7.154768 1.087518 7.069715 1.188443 6.992961 C 1.421188 6.777218 1.585964 6.611263 1.680709 6.495094 C 1.87844 6.260681 2.006141 6.07813 2.067932 5.943291 C 2.119424 5.831271 2.1462 5.744144 2.1462 5.677761 L 2.1462 5.665315 C 2.1462 5.609305 2.117364 5.563667 2.057633 5.528401 C 1.999962 5.486912 1.94641 5.464093 1.894918 5.464093 L 1.882559 5.464093 C 1.767217 5.464093 1.633336 5.553295 1.482979 5.733771 C 1.40677 5.856164 1.316144 5.918397 1.20904 5.918397 L 1.198741 5.918397 C 1.101936 5.918397 1.019548 5.870685 0.953638 5.773186 C 0.930981 5.723399 0.918623 5.679836 0.918623 5.638347 L 0.918623 5.627975 C 0.918623 5.542922 0.972175 5.443349 1.077219 5.329254 C 1.328502 5.036757 1.598322 4.891546 1.890798 4.891546 Z M 1.890798 4.891546 " transform="matrix(3.79304,0,0,3.766064,0.00000180222,0)"/>
<path style=" stroke:none;fill-rule:evenodd;fill:rgb(100%,41.568628%,40.000001%);fill-opacity:1;" d="M 14 8 L 26 8 C 26.554688 8 27 8.445312 27 9 C 27 9.554688 26.554688 10 26 10 L 14 10 C 13.445312 10 13 9.554688 13 9 C 13 8.445312 13.445312 8 14 8 Z M 14 8 "/>
<path style=" stroke:none;fill-rule:evenodd;fill:rgb(100%,41.568628%,40.000001%);fill-opacity:1;" d="M 14 12 L 23 12 C 23.554688 12 24 12.445312 24 13 C 24 13.554688 23.554688 14 23 14 L 14 14 C 13.445312 14 13 13.554688 13 13 C 13 12.445312 13.445312 12 14 12 Z M 14 12 "/>
<path style=" stroke:none;fill-rule:evenodd;fill:rgb(100%,41.568628%,40.000001%);fill-opacity:1;" d="M 14 18 L 28 18 C 28.554688 18 29 18.445312 29 19 C 29 19.554688 28.554688 20 28 20 L 14 20 C 13.445312 20 13 19.554688 13 19 C 13 18.445312 13.445312 18 14 18 Z M 14 18 "/>
<path style=" stroke:none;fill-rule:evenodd;fill:rgb(100%,41.568628%,40.000001%);fill-opacity:1;" d="M 14 22 L 26 22 C 26.554688 22 27 22.445312 27 23 C 27 23.554688 26.554688 24 26 24 L 14 24 C 13.445312 24 13 23.554688 13 23 C 13 22.445312 13.445312 22 14 22 Z M 14 22 "/>
<path style=" stroke:none;fill-rule:evenodd;fill:rgb(100%,41.568628%,40.000001%);fill-opacity:1;" d="M 14 4 L 28 4 C 28.554688 4 29 4.445312 29 5 C 29 5.554688 28.554688 6 28 6 L 14 6 C 13.445312 6 13 5.554688 13 5 C 13 4.445312 13.445312 4 14 4 Z M 14 4 "/>
<path style=" stroke:none;fill-rule:evenodd;fill:rgb(100%,41.568628%,40.000001%);fill-opacity:1;" d="M 14 26 L 23 26 C 23.554688 26 24 26.445312 24 27 C 24 27.554688 23.554688 28 23 28 L 14 28 C 13.445312 28 13 27.554688 13 27 C 13 26.445312 13.445312 26 14 26 Z M 14 26 "/>
</g>
</svg>
