<?xml version="1.0" encoding="UTF-8"?>
<svg xmlns="http://www.w3.org/2000/svg" xmlns:xlink="http://www.w3.org/1999/xlink" width="32px" height="32px" viewBox="0 0 32 32" version="1.1">
<g id="surface1">
<path style=" stroke:none;fill-rule:nonzero;fill:rgb(100%,40.784314%,40.000001%);fill-opacity:1;" d="M 17.398438 6.332031 C 17.074219 6.53125 16.835938 6.851562 16.742188 7.222656 L 12.242188 23.863281 C 11.679688 25.785156 14.601562 26.578125 15.085938 24.632812 L 19.582031 7.988281 C 19.949219 6.699219 18.542969 5.632812 17.398438 6.332031 Z M 17.398438 6.332031 "/>
<path style=" stroke:none;fill-rule:nonzero;fill:rgb(100%,40.784314%,40.000001%);fill-opacity:1;" d="M 24.796875 7.59375 C 24.691406 7.292969 24.496094 7.089844 24.253906 7.03125 L 13.421875 4.089844 C 12.175781 3.707031 11.386719 6.625 12.65625 6.929688 L 23.488281 9.871094 C 24.324219 10.117188 25.167969 8.648438 24.796875 7.59375 Z M 24.796875 7.59375 "/>
<path style=" stroke:none;fill-rule:nonzero;fill:rgb(100%,40.784314%,40.000001%);fill-opacity:1;" d="M 19.898438 25.640625 C 19.792969 25.339844 19.597656 25.136719 19.355469 25.078125 L 8.523438 22.136719 C 7.277344 21.753906 6.488281 24.671875 7.757812 24.976562 L 18.589844 27.917969 C 19.429688 28.164062 20.273438 26.695312 19.898438 25.640625 Z M 19.898438 25.640625 "/>
</g>
</svg>
