<?xml version="1.0" encoding="UTF-8"?>
<svg xmlns="http://www.w3.org/2000/svg" xmlns:xlink="http://www.w3.org/1999/xlink" width="24px" height="24px" viewBox="0 0 24 24" version="1.1">
<g id="surface1">
<path style=" stroke:none;fill-rule:evenodd;fill:rgb(100%,41.568628%,40.000001%);fill-opacity:1;" d="M 3.75 3.675781 L 20.25 3.675781 C 20.667969 3.675781 21 4.027344 21 4.457031 C 21 4.898438 20.667969 5.25 20.25 5.25 L 3.75 5.25 C 3.332031 5.25 3 4.898438 3 4.457031 C 3 4.027344 3.332031 3.675781 3.75 3.675781 Z M 3.75 3.675781 "/>
<path style=" stroke:none;fill-rule:evenodd;fill:rgb(100%,41.568628%,40.000001%);fill-opacity:1;" d="M 8.25 6.75 L 20.25 6.75 C 20.667969 6.75 21 7.101562 21 7.542969 C 21 7.972656 20.667969 8.324219 20.25 8.324219 L 8.25 8.324219 C 7.832031 8.324219 7.5 7.972656 7.5 7.542969 C 7.5 7.101562 7.832031 6.75 8.25 6.75 Z M 8.25 6.75 "/>
<path style=" stroke:none;fill-rule:evenodd;fill:rgb(100%,41.568628%,40.000001%);fill-opacity:1;" d="M 5.25 9.75 L 20.25 9.75 C 20.667969 9.75 21 10.101562 21 10.542969 C 21 10.972656 20.667969 11.324219 20.25 11.324219 L 5.25 11.324219 C 4.832031 11.324219 4.5 10.972656 4.5 10.542969 C 4.5 10.101562 4.832031 9.75 5.25 9.75 Z M 5.25 9.75 "/>
<path style=" stroke:none;fill-rule:evenodd;fill:rgb(100%,41.568628%,40.000001%);fill-opacity:1;" d="M 11.25 12.75 L 20.25 12.75 C 20.667969 12.75 21 13.101562 21 13.542969 C 21 13.972656 20.667969 14.324219 20.25 14.324219 L 11.25 14.324219 C 10.832031 14.324219 10.5 13.972656 10.5 13.542969 C 10.5 13.101562 10.832031 12.75 11.25 12.75 Z M 11.25 12.75 "/>
<path style=" stroke:none;fill-rule:evenodd;fill:rgb(100%,41.568628%,40.000001%);fill-opacity:1;" d="M 6.75 15.75 L 20.25 15.75 C 20.667969 15.75 21 16.101562 21 16.542969 C 21 16.972656 20.667969 17.324219 20.25 17.324219 L 6.75 17.324219 C 6.332031 17.324219 6 16.972656 6 16.542969 C 6 16.101562 6.332031 15.75 6.75 15.75 Z M 6.75 15.75 "/>
<path style=" stroke:none;fill-rule:evenodd;fill:rgb(100%,41.568628%,40.000001%);fill-opacity:1;" d="M 5.25 18.75 L 20.25 18.75 C 20.667969 18.75 21 19.101562 21 19.542969 C 21 19.972656 20.667969 20.324219 20.25 20.324219 L 5.25 20.324219 C 4.832031 20.324219 4.5 19.972656 4.5 19.542969 C 4.5 19.101562 4.832031 18.75 5.25 18.75 Z M 5.25 18.75 "/>
</g>
</svg>
