<?xml version="1.0" encoding="UTF-8"?>
<svg xmlns="http://www.w3.org/2000/svg" xmlns:xlink="http://www.w3.org/1999/xlink" width="24px" height="24px" viewBox="0 0 24 24" version="1.1">
<g id="surface1">
<path style=" stroke:none;fill-rule:nonzero;fill:rgb(78.039217%,96.078432%,34.901962%);fill-opacity:1;" d="M 0 0 L 14.320312 0 L 14.320312 11.339844 L 0 11.339844 Z M 0 0 "/>
<path style=" stroke:none;fill-rule:nonzero;fill:rgb(100%,0%,0%);fill-opacity:1;" d="M 0 18.75 L 24 18.75 L 24 24 L 0 24 Z M 0 18.75 "/>
<path style=" stroke:none;fill-rule:nonzero;fill:rgb(100%,40.784314%,40.000001%);fill-opacity:1;" d="M 3.957031 3.09375 C 4.605469 3.09375 5.292969 3.234375 6.019531 3.511719 C 6.371094 3.707031 6.542969 3.988281 6.542969 4.359375 L 6.539062 4.449219 C 6.695312 4.613281 6.773438 4.878906 6.773438 5.253906 C 6.785156 5.253906 6.785156 5.378906 6.785156 5.628906 C 6.785156 5.882812 6.785156 6.136719 6.777344 6.394531 C 6.8125 7.855469 6.824219 8.691406 6.824219 8.882812 C 6.824219 9.152344 6.703125 9.394531 6.449219 9.605469 C 6.277344 9.722656 6.09375 9.777344 5.90625 9.777344 C 5.644531 9.777344 5.414062 9.667969 5.207031 9.457031 L 5.199219 9.449219 C 4.640625 9.726562 4.113281 9.867188 3.605469 9.867188 L 3.449219 9.867188 C 2.839844 9.867188 2.277344 9.667969 1.761719 9.28125 C 1.058594 8.691406 0.707031 7.851562 0.707031 6.773438 C 0.707031 5.53125 1.058594 4.570312 1.761719 3.886719 C 2.34375 3.355469 3.074219 3.09375 3.957031 3.09375 Z M 2.542969 6.753906 C 2.542969 7.371094 2.707031 7.761719 3.035156 7.933594 C 3.164062 7.996094 3.328125 8.035156 3.519531 8.035156 L 3.53125 8.035156 C 3.917969 8.035156 4.261719 7.917969 4.550781 7.6875 C 4.613281 7.621094 4.675781 7.503906 4.746094 7.335938 C 4.875 6.925781 4.945312 6.550781 4.945312 6.214844 C 4.945312 6.058594 4.941406 5.675781 4.933594 5.074219 C 4.570312 4.972656 4.242188 4.925781 3.941406 4.925781 C 3.339844 4.925781 2.949219 5.144531 2.753906 5.582031 C 2.613281 5.933594 2.542969 6.324219 2.542969 6.753906 Z M 2.542969 6.753906 "/>
<path style=" stroke:none;fill-rule:nonzero;fill:rgb(100%,40.784314%,40.000001%);fill-opacity:1;" d="M 8.839844 1.378906 C 9.1875 1.378906 9.457031 1.550781 9.65625 1.894531 C 9.726562 2.027344 9.753906 2.167969 9.753906 2.316406 L 9.753906 3.253906 C 11.339844 3.253906 12.464844 3.730469 13.128906 4.691406 C 13.457031 5.199219 13.628906 5.769531 13.628906 6.402344 L 13.628906 6.492188 C 13.628906 7.214844 13.382812 7.863281 12.890625 8.441406 C 12.585938 8.746094 12.339844 8.949219 12.167969 9.046875 C 11.253906 9.589844 10.148438 9.867188 8.855469 9.867188 L 8.839844 9.867188 C 8.449219 9.867188 8.160156 9.675781 7.972656 9.292969 C 7.925781 9.160156 7.902344 9.050781 7.902344 8.988281 C 7.917969 5.402344 7.925781 3.160156 7.925781 2.261719 C 7.925781 2.042969 8.015625 1.839844 8.199219 1.640625 C 8.390625 1.464844 8.601562 1.378906 8.839844 1.378906 Z M 9.746094 5.089844 C 9.746094 6 9.738281 6.699219 9.738281 7.183594 L 9.738281 7.96875 C 9.867188 7.96875 10.167969 7.898438 10.636719 7.761719 C 11.160156 7.570312 11.503906 7.332031 11.660156 7.03125 C 11.753906 6.878906 11.800781 6.675781 11.800781 6.425781 C 11.800781 5.863281 11.566406 5.496094 11.097656 5.316406 C 10.738281 5.160156 10.308594 5.085938 9.792969 5.085938 Z M 9.746094 5.089844 "/>
<path style=" stroke:none;fill-rule:evenodd;fill:rgb(78.039217%,96.078432%,34.901962%);fill-opacity:1;" d="M 9.1875 15.464844 L 9.1875 15.808594 L 6.683594 18.761719 L 9.300781 18.757812 L 10.941406 16.964844 Z M 9.1875 15.464844 "/>
<path style=" stroke:none;fill-rule:evenodd;fill:rgb(27.058825%,80.000001%,77.254903%);fill-opacity:1;" d="M 10.449219 11.941406 L 14.574219 15.816406 L 15.445312 14.949219 L 11.207031 11.207031 Z M 10.449219 11.941406 "/>
<path style=" stroke:none;fill-rule:evenodd;fill:rgb(32.941177%,38.039216%,43.921569%);fill-opacity:1;" d="M 21.113281 1.699219 L 24.136719 4.289062 C 23.503906 6.582031 18.394531 11.691406 15.445312 14.949219 L 11.207031 11.207031 C 14.480469 8.121094 19.804688 1.078125 21.113281 1.699219 Z M 21.113281 1.699219 "/>
<path style=" stroke:none;fill-rule:evenodd;fill:rgb(27.058825%,80.000001%,77.254903%);fill-opacity:1;" d="M 10.449219 11.941406 C 9.902344 14.4375 9.730469 14.816406 9.1875 15.464844 L 10.941406 16.964844 C 12.027344 16.136719 13.082031 16.082031 14.574219 15.816406 Z M 10.449219 11.941406 "/>
<path style=" stroke:none;fill-rule:nonzero;fill:rgb(78.039217%,96.078432%,34.901962%);fill-opacity:1;" d="M 8.121094 18.058594 C 7.523438 18.058594 6.996094 18.347656 6.808594 18.761719 L 9.300781 18.757812 L 9.378906 18.664062 C 9.160156 18.292969 8.667969 18.058594 8.121094 18.058594 Z M 8.121094 18.058594 "/>
<path style=" stroke:none;fill-rule:evenodd;fill:rgb(27.058825%,80.000001%,77.254903%);fill-opacity:1;" d="M 20.902344 1.660156 C 20.527344 1.675781 19.957031 2.058594 19.269531 2.660156 L 23.175781 6.097656 C 23.648438 5.402344 24 4.777344 24.136719 4.289062 L 21.113281 1.699219 C 21.050781 1.667969 20.980469 1.660156 20.902344 1.660156 Z M 20.902344 1.660156 "/>
</g>
</svg>
