<?xml version="1.0" encoding="UTF-8"?>
<svg xmlns="http://www.w3.org/2000/svg" xmlns:xlink="http://www.w3.org/1999/xlink" width="24px" height="24px" viewBox="0 0 24 24" version="1.1">
<g id="surface1">
<path style=" stroke:none;fill-rule:nonzero;fill:rgb(100%,0%,0%);fill-opacity:1;" d="M 0.234375 18.761719 L 23.765625 18.761719 L 23.765625 23.738281 L 0.234375 23.738281 Z M 0.234375 18.761719 "/>
<path style=" stroke:none;fill-rule:nonzero;fill:rgb(78.039217%,96.078432%,34.901962%);fill-opacity:1;" d="M 5.15625 7.6875 C 5.871094 7.6875 6.621094 7.839844 7.417969 8.136719 C 7.804688 8.363281 7.996094 8.671875 7.996094 9.074219 L 7.992188 9.175781 C 8.167969 9.351562 8.25 9.644531 8.25 10.054688 C 8.261719 10.054688 8.261719 10.195312 8.261719 10.476562 C 8.261719 10.746094 8.261719 11.027344 8.253906 11.308594 C 8.289062 12.917969 8.308594 13.828125 8.308594 14.042969 C 8.308594 14.339844 8.167969 14.601562 7.890625 14.832031 C 7.703125 14.957031 7.503906 15.023438 7.292969 15.023438 C 7.007812 15.023438 6.753906 14.90625 6.53125 14.671875 L 6.519531 14.667969 C 5.910156 14.972656 5.324219 15.121094 4.769531 15.121094 L 4.597656 15.121094 C 3.933594 15.121094 3.316406 14.90625 2.746094 14.480469 C 1.972656 13.828125 1.59375 12.914062 1.59375 11.722656 C 1.59375 10.359375 1.972656 9.304688 2.746094 8.550781 C 3.386719 7.972656 4.191406 7.6875 5.15625 7.6875 Z M 3.605469 11.707031 C 3.605469 12.386719 3.785156 12.816406 4.144531 13.003906 C 4.289062 13.074219 4.464844 13.105469 4.675781 13.105469 L 4.6875 13.105469 C 5.113281 13.105469 5.488281 12.984375 5.808594 12.730469 C 5.878906 12.65625 5.949219 12.527344 6.019531 12.347656 C 6.164062 11.894531 6.238281 11.484375 6.238281 11.113281 C 6.238281 10.941406 6.234375 10.523438 6.222656 9.863281 C 5.832031 9.75 5.472656 9.699219 5.144531 9.699219 C 4.480469 9.699219 4.042969 9.9375 3.832031 10.425781 C 3.679688 10.804688 3.605469 11.230469 3.605469 11.707031 Z M 3.605469 11.707031 "/>
<path style=" stroke:none;fill-rule:nonzero;fill:rgb(27.058825%,80.000001%,77.254903%);fill-opacity:1;" d="M 10.246094 2.855469 C 10.628906 2.855469 10.925781 3.042969 11.152344 3.417969 C 11.222656 3.566406 11.253906 3.722656 11.253906 3.878906 L 11.253906 4.910156 C 12.988281 4.910156 14.226562 5.4375 14.957031 6.492188 C 15.324219 7.050781 15.503906 7.675781 15.503906 8.371094 L 15.503906 8.464844 C 15.503906 9.261719 15.234375 9.972656 14.699219 10.605469 C 14.363281 10.945312 14.097656 11.167969 13.902344 11.273438 C 12.902344 11.871094 11.683594 12.167969 10.265625 12.167969 L 10.246094 12.167969 C 9.824219 12.167969 9.511719 11.964844 9.304688 11.542969 C 9.246094 11.394531 9.214844 11.285156 9.214844 11.207031 C 9.234375 7.269531 9.246094 4.804688 9.246094 3.820312 C 9.246094 3.585938 9.347656 3.355469 9.542969 3.140625 C 9.753906 2.949219 9.988281 2.855469 10.246094 2.855469 Z M 11.246094 6.933594 C 11.238281 7.921875 11.238281 8.691406 11.238281 9.230469 L 11.238281 10.089844 C 11.378906 10.089844 11.707031 10.011719 12.214844 9.863281 C 12.796875 9.65625 13.175781 9.386719 13.347656 9.066406 C 13.449219 8.894531 13.5 8.671875 13.5 8.394531 C 13.5 7.78125 13.242188 7.371094 12.730469 7.171875 C 12.339844 7.007812 11.859375 6.917969 11.296875 6.917969 Z M 11.246094 6.933594 "/>
<path style=" stroke:none;fill-rule:nonzero;fill:rgb(100%,40.784314%,40.000001%);fill-opacity:1;" d="M 19.332031 7.269531 L 19.398438 7.269531 C 20.230469 7.269531 21.070312 7.550781 21.902344 8.105469 C 22.210938 8.339844 22.371094 8.621094 22.371094 8.957031 C 22.371094 9.328125 22.183594 9.621094 21.808594 9.847656 C 21.648438 9.917969 21.492188 9.949219 21.351562 9.949219 C 21.117188 9.949219 20.875 9.863281 20.636719 9.675781 C 20.203125 9.410156 19.777344 9.28125 19.363281 9.28125 C 18.839844 9.28125 18.371094 9.496094 17.953125 9.933594 C 17.675781 10.261719 17.535156 10.621094 17.535156 11.019531 L 17.535156 11.0625 C 17.535156 11.621094 17.777344 12.070312 18.253906 12.402344 C 18.621094 12.605469 19.003906 12.703125 19.394531 12.703125 C 19.816406 12.703125 20.222656 12.5625 20.605469 12.292969 C 20.769531 12.199219 20.949219 12.152344 21.121094 12.152344 C 21.46875 12.152344 21.753906 12.316406 21.984375 12.65625 C 22.070312 12.820312 22.117188 12.984375 22.117188 13.152344 C 22.117188 13.628906 21.800781 14.003906 21.164062 14.292969 C 20.601562 14.574219 20.019531 14.714844 19.429688 14.714844 L 19.324219 14.714844 C 18.589844 14.714844 17.859375 14.503906 17.132812 14.074219 C 16.96875 13.96875 16.730469 13.761719 16.410156 13.449219 C 16.214844 13.195312 16.054688 12.964844 15.941406 12.761719 C 15.660156 12.183594 15.519531 11.648438 15.519531 11.160156 L 15.519531 10.917969 C 15.519531 10.378906 15.683594 9.816406 16.003906 9.214844 C 16.121094 8.988281 16.339844 8.714844 16.664062 8.378906 C 17.003906 8.066406 17.316406 7.847656 17.582031 7.722656 C 18.152344 7.425781 18.730469 7.269531 19.332031 7.269531 Z M 19.332031 7.269531 "/>
</g>
</svg>
