<?xml version="1.0" encoding="UTF-8"?>
<svg xmlns="http://www.w3.org/2000/svg" xmlns:xlink="http://www.w3.org/1999/xlink" width="24px" height="24px" viewBox="0 0 24 24" version="1.1">
<g id="surface1">
<path style=" stroke:none;fill-rule:evenodd;fill:rgb(100%,41.568628%,40.000001%);fill-opacity:1;" d="M 3.75 3.675781 L 20.25 3.675781 C 20.667969 3.675781 21 4.027344 21 4.457031 C 21 4.898438 20.667969 5.25 20.25 5.25 L 3.75 5.25 C 3.332031 5.25 3 4.898438 3 4.457031 C 3 4.027344 3.332031 3.675781 3.75 3.675781 Z M 3.75 3.675781 "/>
<path style=" stroke:none;fill-rule:evenodd;fill:rgb(100%,41.568628%,40.000001%);fill-opacity:1;" d="M 5.25 6.75 L 18.75 6.75 C 19.167969 6.75 19.5 7.101562 19.5 7.542969 C 19.5 7.972656 19.167969 8.324219 18.75 8.324219 L 5.25 8.324219 C 4.832031 8.324219 4.5 7.972656 4.5 7.542969 C 4.5 7.101562 4.832031 6.75 5.25 6.75 Z M 5.25 6.75 "/>
<path style=" stroke:none;fill-rule:evenodd;fill:rgb(100%,41.568628%,40.000001%);fill-opacity:1;" d="M 6.75 9.75 L 17.25 9.75 C 17.667969 9.75 18 10.101562 18 10.542969 C 18 10.972656 17.667969 11.324219 17.25 11.324219 L 6.75 11.324219 C 6.332031 11.324219 6 10.972656 6 10.542969 C 6 10.101562 6.332031 9.75 6.75 9.75 Z M 6.75 9.75 "/>
<path style=" stroke:none;fill-rule:evenodd;fill:rgb(100%,41.568628%,40.000001%);fill-opacity:1;" d="M 4.5 12.75 L 19.5 12.75 C 19.917969 12.75 20.25 13.101562 20.25 13.542969 C 20.25 13.972656 19.917969 14.324219 19.5 14.324219 L 4.5 14.324219 C 4.082031 14.324219 3.75 13.972656 3.75 13.542969 C 3.75 13.101562 4.082031 12.75 4.5 12.75 Z M 4.5 12.75 "/>
<path style=" stroke:none;fill-rule:evenodd;fill:rgb(100%,41.568628%,40.000001%);fill-opacity:1;" d="M 6.75 15.75 L 17.25 15.75 C 17.667969 15.75 18 16.101562 18 16.542969 C 18 16.972656 17.667969 17.324219 17.25 17.324219 L 6.75 17.324219 C 6.332031 17.324219 6 16.972656 6 16.542969 C 6 16.101562 6.332031 15.75 6.75 15.75 Z M 6.75 15.75 "/>
<path style=" stroke:none;fill-rule:evenodd;fill:rgb(100%,41.568628%,40.000001%);fill-opacity:1;" d="M 4.5 18.75 L 19.5 18.75 C 19.917969 18.75 20.25 19.101562 20.25 19.542969 C 20.25 19.972656 19.917969 20.324219 19.5 20.324219 L 4.5 20.324219 C 4.082031 20.324219 3.75 19.972656 3.75 19.542969 C 3.75 19.101562 4.082031 18.75 4.5 18.75 Z M 4.5 18.75 "/>
</g>
</svg>
