<?xml version="1.0" encoding="UTF-8"?>
<svg xmlns="http://www.w3.org/2000/svg" xmlns:xlink="http://www.w3.org/1999/xlink" width="24px" height="24px" viewBox="0 0 24 24" version="1.1">
<g id="surface1">
<path style=" stroke:none;fill-rule:nonzero;fill:rgb(81.568629%,81.568629%,85.09804%);fill-opacity:1;" d="M 12 15.878906 L 11.496094 16.574219 L 8.355469 14.300781 L 17.507812 1.5 C 19.246094 2.753906 19.640625 5.179688 18.386719 6.917969 Z M 12 15.878906 "/>
<path style=" stroke:none;fill-rule:nonzero;fill:rgb(74.901962%,74.901962%,78.039217%);fill-opacity:1;" d="M 17.507812 1.5 L 16.785156 2.507812 C 17.648438 3.816406 17.667969 5.574219 16.699219 6.917969 L 10.359375 15.75 L 11.496094 16.574219 L 12 15.878906 L 18.386719 6.917969 C 19.640625 5.179688 19.246094 2.753906 17.507812 1.5 Z M 17.507812 1.5 "/>
<path style=" stroke:none;fill-rule:nonzero;fill:rgb(92.941177%,92.941177%,97.254902%);fill-opacity:1;" d="M 12.324219 16.332031 L 15.472656 14.0625 L 6.441406 1.5 C 4.699219 2.753906 4.300781 5.179688 5.554688 6.917969 Z M 12.324219 16.332031 "/>
<path style=" stroke:none;fill-rule:nonzero;fill:rgb(85.490197%,85.490197%,89.019608%);fill-opacity:1;" d="M 6.441406 1.5 C 6.046875 1.78125 5.730469 2.121094 5.480469 2.496094 L 14.488281 15.019531 L 12.425781 16.476562 L 15.597656 14.230469 Z M 6.441406 1.5 "/>
<path style=" stroke:none;fill-rule:nonzero;fill:rgb(27.843139%,80.392158%,77.64706%);fill-opacity:1;" d="M 21.785156 16.5 C 20.578125 14.832031 18.261719 14.433594 16.574219 15.585938 L 15.472656 14.0625 L 12.324219 16.332031 L 15.277344 20.425781 L 15.636719 20.925781 C 16.863281 22.621094 19.230469 23.003906 20.925781 21.785156 C 22.621094 20.558594 23.011719 18.191406 21.785156 16.5 Z M 19.957031 20.441406 C 19.007812 21.128906 17.683594 20.910156 16.996094 19.964844 C 16.3125 19.007812 16.523438 17.683594 17.480469 16.996094 C 18.425781 16.3125 19.757812 16.527344 20.441406 17.480469 C 21.128906 18.433594 20.910156 19.757812 19.957031 20.441406 Z M 19.957031 20.441406 "/>
<path style=" stroke:none;fill-rule:nonzero;fill:rgb(27.843139%,80.392158%,77.64706%);fill-opacity:1;" d="M 21.785156 16.5 C 20.863281 15.230469 19.308594 14.695312 17.863281 15.023438 C 18.730469 15.214844 19.535156 15.722656 20.097656 16.5 C 20.464844 17.015625 20.691406 17.597656 20.769531 18.1875 C 20.863281 18.542969 20.863281 18.925781 20.765625 19.277344 C 20.621094 20.25 20.097656 21.164062 19.238281 21.785156 C 18.816406 22.089844 18.351562 22.292969 17.871094 22.402344 C 18.894531 22.636719 20.011719 22.449219 20.925781 21.785156 C 22.621094 20.558594 23.011719 18.191406 21.785156 16.5 Z M 21.785156 16.5 "/>
<path style=" stroke:none;fill-rule:nonzero;fill:rgb(27.843139%,80.392158%,77.64706%);fill-opacity:1;" d="M 8.527344 14.0625 L 7.425781 15.585938 C 5.738281 14.433594 3.421875 14.832031 2.214844 16.5 C 0.988281 18.191406 1.378906 20.558594 3.074219 21.785156 C 4.769531 23.003906 7.136719 22.621094 8.363281 20.925781 L 8.722656 20.425781 L 11.675781 16.332031 Z M 7.003906 19.964844 C 6.316406 20.910156 4.992188 21.128906 4.042969 20.441406 C 3.089844 19.757812 2.871094 18.433594 3.558594 17.480469 C 4.242188 16.527344 5.574219 16.3125 6.519531 16.996094 C 7.476562 17.683594 7.6875 19.007812 7.003906 19.964844 Z M 7.003906 19.964844 "/>
<path style=" stroke:none;fill-rule:nonzero;fill:rgb(27.843139%,80.392158%,77.64706%);fill-opacity:1;" d="M 10.535156 15.503906 L 7.613281 19.558594 L 7.246094 20.0625 C 6.140625 21.597656 4.082031 22.058594 2.441406 21.210938 C 2.628906 21.421875 2.835938 21.613281 3.074219 21.785156 C 4.769531 23.003906 7.136719 22.621094 8.363281 20.925781 L 8.722656 20.425781 L 11.675781 16.332031 Z M 10.535156 15.503906 "/>
<path style=" stroke:none;fill-rule:nonzero;fill:rgb(47.450981%,47.843137%,51.764709%);fill-opacity:1;" d="M 12.652344 12.632812 C 12.652344 12.988281 12.355469 13.277344 12 13.277344 C 11.644531 13.277344 11.347656 12.988281 11.347656 12.632812 C 11.347656 12.277344 11.644531 11.980469 12 11.980469 C 12.355469 11.980469 12.652344 12.277344 12.652344 12.632812 Z M 12.652344 12.632812 "/>
</g>
</svg>
