<?xml version="1.0" encoding="UTF-8"?>
<svg xmlns="http://www.w3.org/2000/svg" xmlns:xlink="http://www.w3.org/1999/xlink" width="24px" height="24px" viewBox="0 0 24 24" version="1.1">
<g id="surface1">
<path style=" stroke:none;fill-rule:nonzero;fill:rgb(100%,41.568628%,40.000001%);fill-opacity:1;" d="M 19.710938 9.902344 L 15.28125 22.042969 L 18.796875 23.332031 C 19.265625 23.503906 19.433594 23.753906 19.3125 24.082031 C 19.183594 24.441406 18.890625 24.535156 18.421875 24.363281 L 10.359375 21.433594 C 9.902344 21.257812 9.738281 20.996094 9.867188 20.636719 C 9.988281 20.308594 10.277344 20.226562 10.734375 20.402344 L 14.25 21.667969 L 18.679688 9.527344 L 15.164062 8.261719 C 14.707031 8.09375 14.542969 7.835938 14.671875 7.488281 C 14.792969 7.148438 15.082031 7.0625 15.539062 7.230469 L 23.601562 10.160156 C 24.070312 10.335938 24.238281 10.59375 24.117188 10.933594 C 23.988281 11.28125 23.695312 11.367188 23.226562 11.191406 Z M 19.710938 9.902344 "/>
</g>
</svg>
