<?xml version="1.0" encoding="UTF-8"?>
<svg xmlns="http://www.w3.org/2000/svg" xmlns:xlink="http://www.w3.org/1999/xlink" width="24px" height="24px" viewBox="0 0 24 24" version="1.1">
<g id="surface1">
<path style=" stroke:none;fill-rule:nonzero;fill:rgb(100%,40.784314%,40.000001%);fill-opacity:1;" d="M 13.050781 4.75 C 12.804688 4.898438 12.628906 5.136719 12.558594 5.414062 L 9.183594 17.898438 C 8.761719 19.339844 10.949219 19.933594 11.3125 18.476562 L 14.6875 5.992188 C 14.960938 5.027344 13.90625 4.222656 13.050781 4.75 Z M 13.050781 4.75 "/>
<path style=" stroke:none;fill-rule:nonzero;fill:rgb(100%,40.784314%,40.000001%);fill-opacity:1;" d="M 18.597656 5.695312 C 18.515625 5.46875 18.371094 5.316406 18.191406 5.273438 L 10.066406 3.066406 C 9.132812 2.78125 8.539062 4.96875 9.492188 5.195312 L 17.617188 7.402344 C 18.242188 7.589844 18.875 6.488281 18.597656 5.695312 Z M 18.597656 5.695312 "/>
<path style=" stroke:none;fill-rule:nonzero;fill:rgb(100%,40.784314%,40.000001%);fill-opacity:1;" d="M 14.925781 19.230469 C 14.84375 19.003906 14.699219 18.851562 14.515625 18.808594 L 6.394531 16.601562 C 5.457031 16.316406 4.867188 18.503906 5.820312 18.730469 L 13.941406 20.9375 C 14.570312 21.125 15.203125 20.023438 14.925781 19.230469 Z M 14.925781 19.230469 "/>
</g>
</svg>
