<?xml version="1.0" encoding="UTF-8"?>
<svg xmlns="http://www.w3.org/2000/svg" xmlns:xlink="http://www.w3.org/1999/xlink" width="24px" height="24px" viewBox="0 0 24 24" version="1.1">
<g id="surface1">
<path style=" stroke:none;fill-rule:nonzero;fill:rgb(77.64706%,30.19608%,33.725491%);fill-opacity:1;" d="M 7.832031 6.515625 L 19.769531 6.515625 C 21.140625 6.515625 22.253906 7.628906 22.253906 9 L 22.253906 20.015625 C 22.253906 21.386719 21.140625 22.5 19.769531 22.5 L 7.832031 22.5 C 6.457031 22.5 5.34375 21.386719 5.34375 20.015625 L 5.34375 9 C 5.34375 7.628906 6.457031 6.515625 7.832031 6.515625 Z M 7.832031 6.515625 "/>
<path style=" stroke:none;fill-rule:nonzero;fill:rgb(77.64706%,30.19608%,33.725491%);fill-opacity:1;" d="M 21 22.480469 L 21.308594 22.480469 C 21.832031 22.480469 22.253906 22.058594 22.253906 21.542969 L 22.253906 19.035156 L 21 19.035156 Z M 21 22.480469 "/>
<path style=" stroke:none;fill-rule:nonzero;fill:rgb(86.666667%,91.764706%,98.431373%);fill-opacity:1;" d="M 18.1875 7.292969 L 18.1875 15.386719 C 18.1875 16.054688 17.648438 16.597656 16.972656 16.597656 L 7.027344 16.597656 C 6.449219 16.597656 5.972656 16.199219 5.847656 15.667969 L 5.839844 14.976562 L 5.8125 10.851562 L 5.8125 2.714844 C 5.8125 2.042969 6.351562 1.5 7.027344 1.5 L 12.394531 1.5 C 12.871094 1.5 14.4375 2.832031 15.820312 4.238281 C 17.082031 5.511719 18.1875 6.855469 18.1875 7.292969 Z M 18.1875 7.292969 "/>
<path style=" stroke:none;fill-rule:nonzero;fill:rgb(79.607844%,88.627452%,100%);fill-opacity:1;" d="M 18.1875 7.292969 L 18.1875 10.261719 C 18.1875 10.261719 18.1875 10.253906 18.1875 10.246094 C 18.09375 6.613281 15.136719 6.445312 14.160156 5.472656 L 15.820312 4.238281 C 17.082031 5.511719 18.1875 6.855469 18.1875 7.292969 Z M 18.1875 7.292969 "/>
<path style=" stroke:none;fill-rule:nonzero;fill:rgb(79.607844%,88.627452%,100%);fill-opacity:1;" d="M 12.394531 1.5 L 9.425781 1.5 C 9.433594 1.5 9.433594 1.5 9.441406 1.5 C 13.074219 1.59375 13.242188 4.550781 14.214844 5.527344 L 15.449219 3.867188 C 14.175781 2.605469 12.832031 1.5 12.394531 1.5 Z M 12.394531 1.5 "/>
<path style=" stroke:none;fill-rule:nonzero;fill:rgb(27.843139%,80.392158%,77.64706%);fill-opacity:1;" d="M 18.1875 7.292969 L 18.1875 7.808594 C 18.1875 6.730469 17.316406 5.855469 16.238281 5.855469 L 15.046875 5.855469 C 14.371094 5.855469 13.832031 5.316406 13.832031 4.640625 L 13.832031 3.449219 C 13.832031 2.371094 12.960938 1.5 11.878906 1.5 L 12.394531 1.5 C 13.3125 1.5 14.199219 1.871094 14.855469 2.519531 L 17.167969 4.832031 C 17.816406 5.488281 18.1875 6.375 18.1875 7.292969 Z M 18.1875 7.292969 "/>
<path style=" stroke:none;fill-rule:nonzero;fill:rgb(100%,41.568628%,40.000001%);fill-opacity:1;" d="M 17.859375 11.042969 L 8.855469 11.042969 C 8.605469 11.042969 8.367188 10.945312 8.191406 10.769531 L 7.175781 9.753906 C 7.003906 9.582031 6.761719 9.480469 6.511719 9.480469 L 2.203125 9.480469 C 1.6875 9.480469 1.167969 9.910156 1.265625 10.417969 L 3.46875 21.5625 C 3.566406 22.074219 3.890625 22.5 4.40625 22.5 L 21 22.5 L 18.796875 11.980469 C 18.691406 11.480469 18.375 11.042969 17.859375 11.042969 Z M 17.859375 11.042969 "/>
</g>
</svg>
