<?xml version="1.0" encoding="UTF-8"?>
<svg xmlns="http://www.w3.org/2000/svg" xmlns:xlink="http://www.w3.org/1999/xlink" width="24px" height="24px" viewBox="0 0 24 24" version="1.1">
<g id="surface1">
<path style="fill-rule:evenodd;fill:rgb(100%,100%,100%);fill-opacity:1;stroke-width:2;stroke-linecap:round;stroke-linejoin:round;stroke:rgb(100%,41.568628%,40.000001%);stroke-opacity:1;stroke-miterlimit:4;" d="M 3.984375 3 L 28.015625 3 C 28.567708 3 29.015625 3.390625 29.015625 3.875 L 29.015625 28.125 C 29.015625 28.609375 28.567708 29 28.015625 29 L 3.984375 29 C 3.432292 29 2.984375 28.609375 2.984375 28.125 L 2.984375 3.875 C 2.984375 3.390625 3.432292 3 3.984375 3 Z M 3.984375 3 " transform="matrix(0.75,0,0,0.75,0,0)"/>
<path style=" stroke:none;fill-rule:nonzero;fill:rgb(27.058825%,53.333336%,70.980394%);fill-opacity:1;" d="M 17.042969 9 L 17.042969 11.855469 C 17.042969 12.144531 16.808594 12.378906 16.519531 12.378906 L 14.714844 13.144531 L 11.777344 12.378906 C 11.484375 12.378906 11.25 12.144531 11.25 11.855469 L 9.074219 10.363281 L 11.25 9 C 11.25 8.707031 11.484375 8.472656 11.777344 8.472656 L 16.519531 8.472656 C 16.808594 8.472656 17.042969 8.707031 17.042969 9 Z M 17.042969 9 "/>
<path style=" stroke:none;fill-rule:nonzero;fill:rgb(41.960785%,61.56863%,77.64706%);fill-opacity:1;" d="M 17.042969 9 L 17.042969 10.542969 C 17.042969 10.832031 16.808594 11.074219 16.519531 11.074219 L 11.777344 11.074219 C 11.484375 11.074219 11.25 10.832031 11.25 10.542969 L 11.25 9 C 11.25 8.707031 11.484375 8.472656 11.777344 8.472656 L 16.519531 8.472656 C 16.808594 8.472656 17.042969 8.707031 17.042969 9 Z M 17.042969 9 "/>
<path style=" stroke:none;fill-rule:nonzero;fill:rgb(96.862745%,61.960787%,19.215687%);fill-opacity:1;" d="M 17.390625 12.914062 L 17.390625 14.835938 C 17.390625 14.847656 17.390625 14.859375 17.390625 14.871094 C 17.371094 15.144531 17.144531 15.371094 16.863281 15.371094 L 5.449219 15.371094 C 5.15625 15.371094 4.921875 15.128906 4.921875 14.835938 L 4.921875 12.914062 C 4.921875 12.683594 5.066406 12.488281 5.269531 12.417969 C 5.324219 12.394531 5.386719 12.378906 5.449219 12.378906 L 16.863281 12.378906 C 17.15625 12.378906 17.390625 12.621094 17.390625 12.914062 Z M 17.390625 12.914062 "/>
<path style=" stroke:none;fill-rule:nonzero;fill:rgb(100%,90.196079%,41.960785%);fill-opacity:1;" d="M 17.390625 12.914062 L 17.390625 14.835938 C 17.390625 14.847656 17.390625 14.859375 17.390625 14.871094 C 17.332031 14.894531 17.273438 14.90625 17.207031 14.90625 L 5.792969 14.90625 C 5.503906 14.90625 5.269531 14.667969 5.269531 14.371094 L 5.269531 12.449219 C 5.269531 12.441406 5.269531 12.425781 5.269531 12.417969 C 5.324219 12.394531 5.386719 12.378906 5.449219 12.378906 L 16.863281 12.378906 C 17.15625 12.378906 17.390625 12.621094 17.390625 12.914062 Z M 17.390625 12.914062 "/>
<path style=" stroke:none;fill-rule:nonzero;fill:rgb(93.725491%,32.549021%,38.039216%);fill-opacity:1;" d="M 10.382812 12.378906 L 10.722656 12.378906 C 11.015625 12.378906 11.25 12.144531 11.25 11.855469 L 11.25 6.855469 C 11.25 6.566406 11.015625 6.328125 10.722656 6.328125 L 6.027344 6.328125 C 5.738281 6.328125 5.496094 6.566406 5.496094 6.855469 L 5.496094 11.855469 C 5.496094 12.144531 5.738281 12.378906 6.027344 12.378906 L 6.371094 12.378906 "/>
<path style=" stroke:none;fill-rule:nonzero;fill:rgb(86.274511%,25.882354%,31.37255%);fill-opacity:1;" d="M 11.25 6.84375 L 6.796875 6.84375 C 6.511719 6.84375 6.269531 7.078125 6.269531 7.371094 L 6.269531 12.371094 C 6.269531 12.375 6.269531 12.375 6.269531 12.378906 L 6.027344 12.378906 C 5.738281 12.378906 5.496094 12.144531 5.496094 11.855469 L 5.496094 6.855469 C 5.496094 6.566406 5.738281 6.328125 6.027344 6.328125 L 8.34375 5.390625 L 10.722656 6.328125 C 11.011719 6.328125 11.246094 6.558594 11.25 6.84375 Z M 11.25 6.84375 "/>
<path style=" stroke:none;fill-rule:nonzero;fill:rgb(96.862745%,61.960787%,19.215687%);fill-opacity:1;" d="M 12.09375 4.628906 L 12.09375 5.800781 C 12.09375 6.09375 11.855469 6.328125 11.558594 6.328125 L 5.449219 6.328125 C 5.15625 6.328125 4.921875 6.09375 4.921875 5.800781 L 4.921875 4.628906 C 4.921875 4.335938 5.15625 4.101562 5.449219 4.101562 L 11.558594 4.101562 C 11.855469 4.101562 12.09375 4.335938 12.09375 4.628906 Z M 12.09375 4.628906 "/>
<path style=" stroke:none;fill-rule:nonzero;fill:rgb(100%,90.196079%,41.960785%);fill-opacity:1;" d="M 12.09375 4.628906 L 12.09375 5.800781 C 12.09375 6.09375 11.855469 6.328125 11.558594 6.328125 L 6.582031 6.328125 C 6.285156 6.328125 6.050781 6.09375 6.050781 5.800781 L 6.050781 4.628906 C 6.050781 4.335938 6.285156 4.101562 6.582031 4.101562 L 11.558594 4.101562 C 11.855469 4.101562 12.09375 4.335938 12.09375 4.628906 Z M 12.09375 4.628906 "/>
<path style=" stroke:none;fill-rule:nonzero;fill:rgb(40.000001%,40.000001%,40.000001%);fill-opacity:1;" d="M 10.992188 14.066406 C 10.992188 15.515625 9.820312 16.6875 8.371094 16.6875 C 6.925781 16.6875 5.753906 15.515625 5.753906 14.066406 C 5.753906 12.621094 6.925781 11.449219 8.371094 11.449219 C 9.820312 11.449219 10.992188 12.621094 10.992188 14.066406 Z M 10.992188 14.066406 "/>
<path style=" stroke:none;fill-rule:nonzero;fill:rgb(40.000001%,40.000001%,40.000001%);fill-opacity:1;" d="M 16.488281 14.917969 C 16.488281 15.894531 15.691406 16.6875 14.714844 16.6875 C 13.734375 16.6875 12.941406 15.894531 12.941406 14.917969 C 12.941406 13.941406 13.734375 13.144531 14.714844 13.144531 C 15.691406 13.144531 16.488281 13.941406 16.488281 14.917969 Z M 16.488281 14.917969 "/>
<path style=" stroke:none;fill-rule:nonzero;fill:rgb(30.19608%,30.19608%,30.19608%);fill-opacity:1;" d="M 15.457031 14.917969 C 15.457031 15.328125 15.121094 15.65625 14.714844 15.65625 C 14.300781 15.65625 13.972656 15.328125 13.972656 14.917969 C 13.972656 14.507812 14.300781 14.175781 14.714844 14.175781 C 15.121094 14.175781 15.457031 14.507812 15.457031 14.917969 Z M 15.457031 14.917969 "/>
<path style=" stroke:none;fill-rule:nonzero;fill:rgb(30.19608%,30.19608%,30.19608%);fill-opacity:1;" d="M 9.492188 14.066406 C 9.492188 14.683594 8.996094 15.1875 8.371094 15.1875 C 7.757812 15.1875 7.253906 14.683594 7.253906 14.066406 C 7.253906 13.449219 7.757812 12.949219 8.371094 12.949219 C 8.996094 12.949219 9.492188 13.449219 9.492188 14.066406 Z M 9.492188 14.066406 "/>
<path style=" stroke:none;fill-rule:nonzero;fill:rgb(23.921569%,67.843139%,32.156864%);fill-opacity:1;" d="M 16.136719 5.339844 L 16.136719 7.902344 C 16.136719 8.214844 15.886719 8.472656 15.566406 8.472656 L 14.277344 8.472656 C 13.96875 8.472656 13.714844 8.214844 13.714844 7.902344 L 13.714844 5.339844 C 13.714844 5.027344 13.96875 4.777344 14.277344 4.777344 L 15.566406 4.777344 C 15.886719 4.777344 16.136719 5.027344 16.136719 5.339844 Z M 16.136719 5.339844 "/>
<path style=" stroke:none;fill-rule:nonzero;fill:rgb(30.19608%,75.686276%,40.784314%);fill-opacity:1;" d="M 16.136719 5.339844 L 16.136719 7.902344 C 16.136719 8.214844 15.886719 8.472656 15.566406 8.472656 L 15.246094 8.472656 C 14.929688 8.472656 14.675781 8.214844 14.675781 7.902344 L 14.675781 5.339844 C 14.675781 5.027344 14.929688 4.777344 15.246094 4.777344 L 15.566406 4.777344 C 15.886719 4.777344 16.136719 5.027344 16.136719 5.339844 Z M 16.136719 5.339844 "/>
<path style=" stroke:none;fill-rule:nonzero;fill:rgb(85.490197%,90.196079%,92.941177%);fill-opacity:1;" d="M 9.800781 7.355469 L 6.941406 7.355469 C 6.714844 7.355469 6.535156 7.535156 6.535156 7.761719 L 6.535156 9.097656 C 6.535156 9.328125 6.714844 9.511719 6.941406 9.511719 L 9.800781 9.511719 C 10.03125 9.511719 10.21875 9.328125 10.21875 9.097656 L 10.21875 7.761719 C 10.21875 7.535156 10.03125 7.355469 9.800781 7.355469 Z M 9.800781 7.355469 "/>
<path style="fill-rule:evenodd;fill:rgb(100%,100%,100%);fill-opacity:1;stroke-width:2;stroke-linecap:round;stroke-linejoin:round;stroke:rgb(100%,100%,100%);stroke-opacity:1;stroke-miterlimit:4;" d="M 30.526269 23.105459 C 30.526269 27.188792 27.208561 30.511709 23.120019 30.511709 C 19.026269 30.511709 15.713769 27.188792 15.713769 23.105459 C 15.713769 19.011709 19.026269 15.688792 23.120019 15.688792 C 27.208561 15.688792 30.526269 19.011709 30.526269 23.105459 Z M 30.526269 23.105459 " transform="matrix(0.75,0,0,0.75,-0.359545,-0.3955)"/>
<path style="fill-rule:evenodd;fill:rgb(100%,100%,100%);fill-opacity:1;stroke-width:2;stroke-linecap:round;stroke-linejoin:round;stroke:rgb(100%,41.568628%,40.000001%);stroke-opacity:1;stroke-miterlimit:4;" d="M 29.916894 23.105459 C 29.916894 26.855459 26.870019 29.891917 23.120019 29.891917 C 19.364811 29.891917 16.323144 26.855459 16.323144 23.105459 C 16.323144 19.345042 19.364811 16.308584 23.120019 16.308584 C 26.870019 16.308584 29.916894 19.345042 29.916894 23.105459 Z M 29.916894 23.105459 " transform="matrix(0.75,0,0,0.75,-0.359545,-0.3955)"/>
<path style="fill:none;stroke-width:2;stroke-linecap:round;stroke-linejoin:miter;stroke:rgb(27.843139%,80.392158%,77.64706%);stroke-opacity:1;stroke-miterlimit:4;" d="M 23.005436 19.001292 L 23.005436 27.001292 " transform="matrix(0.75,0,0,0.75,-0.359545,-0.3955)"/>
<path style="fill:none;stroke-width:2;stroke-linecap:round;stroke-linejoin:miter;stroke:rgb(27.843139%,80.392158%,77.64706%);stroke-opacity:1;stroke-miterlimit:4;" d="M 19.005436 23.001292 L 27.005436 23.001292 " transform="matrix(0.75,0,0,0.75,-0.359545,-0.3955)"/>
</g>
</svg>
