<?xml version="1.0" encoding="UTF-8"?>
<svg xmlns="http://www.w3.org/2000/svg" xmlns:xlink="http://www.w3.org/1999/xlink" width="24px" height="24px" viewBox="0 0 24 24" version="1.1">
<g id="surface1">
<path style=" stroke:none;fill-rule:nonzero;fill:rgb(90.196079%,90.196079%,90.196079%);fill-opacity:1;" d="M 19.667969 2.929688 L 19.667969 6.269531 L 4.332031 6.269531 L 4.332031 2.929688 C 4.332031 2.136719 4.96875 1.5 5.761719 1.5 L 18.238281 1.5 C 19.03125 1.5 19.667969 2.136719 19.667969 2.929688 Z M 19.667969 2.929688 "/>
<path style=" stroke:none;fill-rule:nonzero;fill:rgb(80.000001%,80.000001%,80.000001%);fill-opacity:1;" d="M 4.332031 4.550781 L 19.667969 4.550781 L 19.667969 6.269531 L 4.332031 6.269531 Z M 4.332031 4.550781 "/>
<path style=" stroke:none;fill-rule:nonzero;fill:rgb(27.058825%,80.000001%,77.254903%);fill-opacity:1;" d="M 19.667969 18.957031 L 20.410156 18.957031 C 21.5625 18.957031 22.5 18.019531 22.5 16.863281 L 22.5 8.363281 C 22.5 7.207031 21.5625 6.269531 20.410156 6.269531 L 3.589844 6.269531 C 2.4375 6.269531 1.5 7.207031 1.5 8.363281 L 1.5 16.863281 C 1.5 18.019531 2.4375 18.957031 3.589844 18.957031 L 4.332031 18.957031 "/>
<path style=" stroke:none;fill-rule:nonzero;fill:rgb(32.941177%,38.039216%,43.921569%);fill-opacity:1;" d="M 3.46875 16.863281 L 3.46875 8.363281 C 3.46875 7.207031 4.40625 6.269531 5.558594 6.269531 L 3.589844 6.269531 C 2.4375 6.269531 1.5 7.207031 1.5 8.363281 L 1.5 16.863281 C 1.5 18.019531 2.4375 18.957031 3.589844 18.957031 L 5.558594 18.957031 C 4.40625 18.957031 3.46875 18.019531 3.46875 16.863281 Z M 3.46875 16.863281 "/>
<path style=" stroke:none;fill-rule:nonzero;fill:rgb(32.941177%,38.039216%,43.921569%);fill-opacity:1;" d="M 19.667969 17.15625 C 20.433594 17.15625 21.042969 16.542969 21.042969 15.785156 L 21.042969 15.609375 C 21.042969 14.855469 20.433594 14.238281 19.667969 14.238281 L 4.332031 14.238281 C 3.566406 14.238281 2.957031 14.855469 2.957031 15.609375 L 2.957031 15.785156 C 2.957031 16.542969 3.566406 17.15625 4.332031 17.15625 "/>
<path style=" stroke:none;fill-rule:nonzero;fill:rgb(90.196079%,90.196079%,90.196079%);fill-opacity:1;" d="M 19.667969 15.609375 L 4.332031 15.609375 L 4.332031 21.070312 C 4.332031 21.863281 4.96875 22.5 5.761719 22.5 L 18.238281 22.5 C 19.03125 22.5 19.667969 21.863281 19.667969 21.070312 Z M 19.667969 15.609375 "/>
<path style=" stroke:none;fill-rule:nonzero;fill:rgb(80.000001%,80.000001%,80.000001%);fill-opacity:1;" d="M 4.332031 15.609375 L 19.667969 15.609375 L 19.667969 17.324219 L 4.332031 17.324219 Z M 4.332031 15.609375 "/>
<path style=" stroke:none;fill-rule:nonzero;fill:rgb(100%,40.784314%,40.000001%);fill-opacity:1;" d="M 6.167969 9.269531 C 6.167969 9.933594 5.636719 10.472656 4.96875 10.472656 C 4.308594 10.472656 3.773438 9.933594 3.773438 9.269531 C 3.773438 8.605469 4.308594 8.066406 4.96875 8.066406 C 5.636719 8.066406 6.167969 8.605469 6.167969 9.269531 Z M 6.167969 9.269531 "/>
<path style=" stroke:none;fill-rule:nonzero;fill:rgb(78.039217%,96.078432%,34.901962%);fill-opacity:1;" d="M 9.707031 9.269531 C 9.707031 9.933594 9.167969 10.472656 8.507812 10.472656 C 7.847656 10.472656 7.308594 9.933594 7.308594 9.269531 C 7.308594 8.605469 7.847656 8.066406 8.507812 8.066406 C 9.167969 8.066406 9.707031 8.605469 9.707031 9.269531 Z M 9.707031 9.269531 "/>
<path style=" stroke:none;fill-rule:nonzero;fill:rgb(100%,40.784314%,40.000001%);fill-opacity:1;" d="M 17.441406 17.90625 L 6.558594 17.90625 C 6.378906 17.90625 6.234375 17.757812 6.234375 17.582031 C 6.234375 17.410156 6.378906 17.261719 6.558594 17.261719 L 17.441406 17.261719 C 17.621094 17.261719 17.765625 17.410156 17.765625 17.582031 C 17.765625 17.761719 17.617188 17.90625 17.441406 17.90625 Z M 17.441406 17.90625 "/>
<path style=" stroke:none;fill-rule:nonzero;fill:rgb(100%,40.784314%,40.000001%);fill-opacity:1;" d="M 17.441406 19.875 L 6.558594 19.875 C 6.378906 19.875 6.234375 19.734375 6.234375 19.550781 C 6.234375 19.378906 6.378906 19.230469 6.558594 19.230469 L 17.441406 19.230469 C 17.621094 19.230469 17.765625 19.378906 17.765625 19.550781 C 17.765625 19.734375 17.617188 19.875 17.441406 19.875 Z M 17.441406 19.875 "/>
</g>
</svg>
