<?xml version="1.0" encoding="UTF-8"?>
<svg xmlns="http://www.w3.org/2000/svg" xmlns:xlink="http://www.w3.org/1999/xlink" width="24px" height="24px" viewBox="0 0 24 24" version="1.1">
<g id="surface1">
<path style=" stroke:none;fill-rule:nonzero;fill:rgb(90.196079%,90.196079%,90.196079%);fill-opacity:1;" d="M 19.667969 2.929688 L 19.667969 6.269531 L 4.332031 6.269531 L 4.332031 2.929688 C 4.332031 2.136719 4.96875 1.5 5.761719 1.5 L 18.238281 1.5 C 19.03125 1.5 19.667969 2.136719 19.667969 2.929688 Z M 19.667969 2.929688 "/>
<path style=" stroke:none;fill-rule:nonzero;fill:rgb(80.000001%,80.000001%,80.000001%);fill-opacity:1;" d="M 4.332031 4.550781 L 19.667969 4.550781 L 19.667969 6.269531 L 4.332031 6.269531 Z M 4.332031 4.550781 "/>
<path style=" stroke:none;fill-rule:nonzero;fill:rgb(27.843139%,80.392158%,77.64706%);fill-opacity:1;" d="M 19.667969 18.957031 L 20.410156 18.957031 C 21.5625 18.957031 22.5 18.019531 22.5 16.863281 L 22.5 8.363281 C 22.5 7.207031 21.5625 6.269531 20.410156 6.269531 L 3.589844 6.269531 C 2.4375 6.269531 1.5 7.207031 1.5 8.363281 L 1.5 16.863281 C 1.5 18.019531 2.4375 18.957031 3.589844 18.957031 L 4.332031 18.957031 "/>
<path style=" stroke:none;fill-rule:nonzero;fill:rgb(33.333334%,38.431373%,44.705883%);fill-opacity:1;" d="M 3.46875 16.863281 L 3.46875 8.363281 C 3.46875 7.207031 4.40625 6.269531 5.558594 6.269531 L 3.589844 6.269531 C 2.4375 6.269531 1.5 7.207031 1.5 8.363281 L 1.5 16.863281 C 1.5 18.019531 2.4375 18.957031 3.589844 18.957031 L 5.558594 18.957031 C 4.40625 18.957031 3.46875 18.019531 3.46875 16.863281 Z M 3.46875 16.863281 "/>
<path style=" stroke:none;fill-rule:nonzero;fill:rgb(33.333334%,38.431373%,44.705883%);fill-opacity:1;" d="M 19.667969 17.15625 C 20.433594 17.15625 21.042969 16.542969 21.042969 15.785156 L 21.042969 15.609375 C 21.042969 14.855469 20.433594 14.238281 19.667969 14.238281 L 4.332031 14.238281 C 3.566406 14.238281 2.957031 14.855469 2.957031 15.609375 L 2.957031 15.785156 C 2.957031 16.542969 3.566406 17.15625 4.332031 17.15625 "/>
<path style=" stroke:none;fill-rule:nonzero;fill:rgb(90.196079%,90.196079%,90.196079%);fill-opacity:1;" d="M 19.667969 15.609375 L 4.332031 15.609375 L 4.332031 21.070312 C 4.332031 21.863281 4.96875 22.5 5.761719 22.5 L 18.238281 22.5 C 19.03125 22.5 19.667969 21.863281 19.667969 21.070312 Z M 19.667969 15.609375 "/>
<path style=" stroke:none;fill-rule:nonzero;fill:rgb(80.000001%,80.000001%,80.000001%);fill-opacity:1;" d="M 4.332031 15.609375 L 19.667969 15.609375 L 19.667969 17.324219 L 4.332031 17.324219 Z M 4.332031 15.609375 "/>
<path style=" stroke:none;fill-rule:nonzero;fill:rgb(100%,41.568628%,40.000001%);fill-opacity:1;" d="M 6.167969 9.269531 C 6.167969 9.933594 5.636719 10.472656 4.96875 10.472656 C 4.308594 10.472656 3.773438 9.933594 3.773438 9.269531 C 3.773438 8.605469 4.308594 8.066406 4.96875 8.066406 C 5.636719 8.066406 6.167969 8.605469 6.167969 9.269531 Z M 6.167969 9.269531 "/>
<path style=" stroke:none;fill-rule:nonzero;fill:rgb(0%,0%,0%);fill-opacity:1;" d="M 9.707031 9.269531 C 9.707031 9.933594 9.167969 10.472656 8.507812 10.472656 C 7.847656 10.472656 7.308594 9.933594 7.308594 9.269531 C 7.308594 8.605469 7.847656 8.066406 8.507812 8.066406 C 9.167969 8.066406 9.707031 8.605469 9.707031 9.269531 Z M 9.707031 9.269531 "/>
<path style=" stroke:none;fill-rule:nonzero;fill:rgb(100%,41.568628%,40.000001%);fill-opacity:1;" d="M 17.441406 17.90625 L 6.558594 17.90625 C 6.378906 17.90625 6.234375 17.761719 6.234375 17.582031 C 6.234375 17.410156 6.378906 17.261719 6.558594 17.261719 L 17.441406 17.261719 C 17.621094 17.261719 17.765625 17.410156 17.765625 17.582031 C 17.765625 17.761719 17.621094 17.90625 17.441406 17.90625 Z M 17.441406 17.90625 "/>
<path style=" stroke:none;fill-rule:nonzero;fill:rgb(100%,41.568628%,40.000001%);fill-opacity:1;" d="M 17.441406 19.875 L 6.558594 19.875 C 6.378906 19.875 6.234375 19.734375 6.234375 19.550781 C 6.234375 19.378906 6.378906 19.230469 6.558594 19.230469 L 17.441406 19.230469 C 17.621094 19.230469 17.765625 19.378906 17.765625 19.550781 C 17.765625 19.734375 17.621094 19.875 17.441406 19.875 Z M 17.441406 19.875 "/>
<path style=" stroke:none;fill-rule:nonzero;fill:rgb(94.509804%,82.745099%,20%);fill-opacity:1;" d="M 17.589844 12.597656 C 17.0625 16.03125 13.847656 18.394531 10.40625 17.863281 C 6.972656 17.339844 4.613281 14.121094 5.136719 10.683594 C 5.667969 7.242188 8.882812 4.886719 12.324219 5.414062 C 15.761719 5.941406 18.117188 9.160156 17.589844 12.597656 Z M 17.589844 12.597656 "/>
<path style=" stroke:none;fill-rule:nonzero;fill:rgb(74.509805%,84.705883%,98.431373%);fill-opacity:1;" d="M 14.566406 14.746094 C 12.847656 16.519531 10.027344 16.558594 8.253906 14.839844 C 7.746094 14.347656 7.382812 13.761719 7.160156 13.136719 C 6.960938 12.582031 6.878906 11.996094 6.910156 11.414062 C 6.9375 10.894531 7.050781 10.378906 7.261719 9.890625 C 7.464844 9.398438 7.769531 8.933594 8.160156 8.53125 C 8.222656 8.472656 8.273438 8.417969 8.332031 8.367188 C 10.054688 6.761719 12.761719 6.773438 14.472656 8.4375 C 16.242188 10.152344 16.285156 12.980469 14.566406 14.746094 Z M 14.566406 14.746094 "/>
<path style=" stroke:none;fill-rule:nonzero;fill:rgb(91.764706%,69.411767%,30.19608%);fill-opacity:1;" d="M 7.816406 16.289062 C 8.683594 17.128906 9.726562 17.667969 10.828125 17.910156 C 9.425781 17.792969 8.0625 17.207031 6.980469 16.160156 C 4.480469 13.734375 4.425781 9.746094 6.847656 7.253906 C 8.433594 5.621094 10.683594 5.035156 12.746094 5.496094 C 10.925781 5.339844 9.058594 5.972656 7.6875 7.382812 C 5.269531 9.871094 5.320312 13.863281 7.816406 16.289062 Z M 7.816406 16.289062 "/>
<path style=" stroke:none;fill-rule:nonzero;fill:rgb(100%,100%,100%);fill-opacity:1;" d="M 14.566406 14.746094 C 13.394531 15.957031 11.699219 16.359375 10.183594 15.941406 C 11.402344 15.988281 12.636719 15.539062 13.558594 14.589844 C 15.277344 12.824219 15.234375 10.003906 13.464844 8.285156 C 12.910156 7.738281 12.238281 7.371094 11.535156 7.183594 C 12.597656 7.21875 13.652344 7.640625 14.472656 8.4375 C 16.242188 10.152344 16.285156 12.980469 14.566406 14.746094 Z M 14.566406 14.746094 "/>
<path style=" stroke:none;fill-rule:nonzero;fill:rgb(77.64706%,49.019608%,40.000001%);fill-opacity:1;" d="M 21.773438 21.746094 C 20.988281 22.550781 19.722656 22.589844 18.042969 20.957031 C 17.484375 20.414062 17.035156 19.839844 16.707031 19.277344 C 16.042969 18.144531 15.890625 17.082031 16.417969 16.546875 C 16.941406 16.007812 18.003906 16.125 19.152344 16.753906 C 19.722656 17.0625 20.316406 17.496094 20.871094 18.042969 C 22.550781 19.667969 22.550781 20.941406 21.773438 21.746094 Z M 21.773438 21.746094 "/>
<path style=" stroke:none;fill-rule:nonzero;fill:rgb(66.666669%,34.901962%,23.921569%);fill-opacity:1;" d="M 21.773438 21.746094 C 20.988281 22.550781 19.722656 22.589844 18.042969 20.957031 C 16.359375 19.324219 15.632812 17.347656 16.417969 16.546875 C 16.105469 16.863281 17.214844 18.445312 18.890625 20.082031 C 20.574219 21.707031 21.457031 22.066406 21.773438 21.746094 Z M 21.773438 21.746094 "/>
<path style=" stroke:none;fill-rule:nonzero;fill:rgb(66.666669%,34.901962%,23.921569%);fill-opacity:1;" d="M 19.152344 16.753906 C 19.148438 16.757812 19.144531 16.761719 19.136719 16.769531 L 16.707031 19.277344 C 16.042969 18.144531 15.890625 17.082031 16.417969 16.546875 C 16.941406 16.007812 18.003906 16.125 19.152344 16.753906 Z M 19.152344 16.753906 "/>
<path style=" stroke:none;fill-rule:nonzero;fill:rgb(77.64706%,49.019608%,40.000001%);fill-opacity:1;" d="M 16.921875 14.488281 L 14.371094 17.109375 C 13.875 17.625 13.886719 18.449219 14.402344 18.957031 C 14.917969 19.453125 15.746094 19.441406 16.242188 18.925781 L 18.792969 16.300781 C 19.292969 15.785156 19.285156 14.964844 18.769531 14.460938 C 18.253906 13.957031 17.425781 13.96875 16.921875 14.488281 Z M 16.921875 14.488281 "/>
<path style=" stroke:none;fill-rule:nonzero;fill:rgb(66.666669%,34.901962%,23.921569%);fill-opacity:1;" d="M 16.523438 18.09375 C 16.855469 18.089844 17.191406 17.953125 17.4375 17.695312 L 16.242188 18.925781 C 15.996094 19.183594 15.660156 19.316406 15.328125 19.324219 C 14.996094 19.332031 14.660156 19.207031 14.402344 18.957031 C 13.886719 18.449219 13.875 17.625 14.371094 17.109375 L 15.566406 15.878906 C 15.070312 16.402344 15.082031 17.222656 15.597656 17.722656 C 15.855469 17.976562 16.191406 18.09375 16.523438 18.09375 Z M 16.523438 18.09375 "/>
<path style=" stroke:none;fill-rule:nonzero;fill:rgb(91.764706%,69.411767%,30.19608%);fill-opacity:1;" d="M 10.621094 16.382812 C 9.652344 16.238281 8.742188 15.785156 8.019531 15.082031 C 7.101562 14.191406 6.585938 12.988281 6.5625 11.707031 C 6.542969 10.429688 7.027344 9.214844 7.921875 8.296875 C 8.8125 7.378906 10.011719 6.855469 11.296875 6.839844 C 12.574219 6.820312 13.785156 7.300781 14.707031 8.199219 C 16.613281 10.035156 16.652344 13.082031 14.808594 14.980469 C 13.917969 15.902344 12.714844 16.425781 11.4375 16.441406 C 11.160156 16.441406 10.894531 16.425781 10.621094 16.382812 Z M 12 7.566406 C 11.769531 7.527344 11.535156 7.511719 11.300781 7.519531 C 10.199219 7.535156 9.175781 7.972656 8.410156 8.765625 C 7.640625 9.558594 7.222656 10.597656 7.242188 11.699219 C 7.261719 12.800781 7.707031 13.828125 8.488281 14.597656 C 9.28125 15.363281 10.324219 15.777344 11.425781 15.761719 C 12.527344 15.746094 13.550781 15.300781 14.320312 14.511719 C 15.910156 12.878906 15.867188 10.265625 14.238281 8.683594 C 13.617188 8.082031 12.839844 7.691406 12 7.566406 Z M 12 7.566406 "/>
</g>
</svg>
