<?xml version="1.0" encoding="UTF-8"?>
<svg xmlns="http://www.w3.org/2000/svg" xmlns:xlink="http://www.w3.org/1999/xlink" width="24px" height="24px" viewBox="0 0 24 24" version="1.1">
<g id="surface1">
<path style=" stroke:none;fill-rule:nonzero;fill:rgb(100%,40.784314%,40.000001%);fill-opacity:1;" d="M 18.042969 8.140625 C 17.816406 8.28125 17.652344 8.503906 17.585938 8.761719 L 14.445312 20.378906 C 14.050781 21.722656 16.089844 22.273438 16.425781 20.917969 L 19.566406 9.300781 C 19.824219 8.398438 18.839844 7.652344 18.042969 8.140625 Z M 18.042969 8.140625 "/>
<path style=" stroke:none;fill-rule:nonzero;fill:rgb(100%,40.784314%,40.000001%);fill-opacity:1;" d="M 23.207031 9.023438 C 23.132812 8.8125 22.996094 8.671875 22.828125 8.628906 L 15.265625 6.574219 C 14.398438 6.308594 13.847656 8.347656 14.730469 8.558594 L 22.292969 10.613281 C 22.878906 10.785156 23.46875 9.757812 23.207031 9.023438 Z M 23.207031 9.023438 "/>
<path style=" stroke:none;fill-rule:nonzero;fill:rgb(100%,40.784314%,40.000001%);fill-opacity:1;" d="M 19.789062 21.621094 C 19.714844 21.410156 19.578125 21.269531 19.410156 21.226562 L 11.847656 19.171875 C 10.976562 18.90625 10.429688 20.945312 11.3125 21.15625 L 18.875 23.210938 C 19.460938 23.382812 20.046875 22.355469 19.789062 21.621094 Z M 19.789062 21.621094 "/>
<path style=" stroke:none;fill-rule:nonzero;fill:rgb(90.980393%,98.039216%,100%);fill-opacity:1;" d="M 10.617188 17.183594 L 9.941406 17.859375 C 9.574219 18.230469 9.574219 18.824219 9.941406 19.195312 L 12.332031 21.585938 C 12.703125 21.957031 13.300781 21.957031 13.667969 21.585938 L 14.34375 20.910156 Z M 10.617188 17.183594 "/>
<path style=" stroke:none;fill-rule:nonzero;fill:rgb(78.039217%,96.078432%,34.901962%);fill-opacity:1;" d="M 21 12.917969 C 21.371094 13.289062 21.371094 13.886719 21 14.253906 L 17.292969 17.972656 L 13.558594 14.238281 L 17.273438 10.527344 C 17.644531 10.160156 18.238281 10.160156 18.605469 10.527344 Z M 21 12.917969 "/>
<path style=" stroke:none;fill-rule:nonzero;fill:rgb(58.039218%,78.039217%,93.333334%);fill-opacity:1;" d="M 17.292969 17.972656 L 14.34375 20.910156 C 13.972656 21.28125 13.378906 21.28125 13.007812 20.910156 L 10.617188 18.515625 C 10.246094 18.152344 10.246094 17.554688 10.617188 17.183594 L 13.558594 14.238281 Z M 17.292969 17.972656 "/>
</g>
</svg>
