<?xml version="1.0" encoding="UTF-8"?>
<svg xmlns="http://www.w3.org/2000/svg" xmlns:xlink="http://www.w3.org/1999/xlink" width="24px" height="24px" viewBox="0 0 24 24" version="1.1">
<g id="surface1">
<path style=" stroke:none;fill-rule:nonzero;fill:rgb(100%,40.784314%,40.000001%);fill-opacity:1;" d="M 11.558594 3.183594 C 11.402344 3.183594 11.246094 3.1875 11.089844 3.199219 L 10.777344 3.214844 C 8.695312 3.3125 7.066406 4.03125 5.886719 5.386719 C 5.050781 6.445312 4.628906 7.546875 4.628906 8.695312 L 4.628906 8.988281 C 4.664062 9.824219 4.9375 10.578125 5.433594 11.25 L 16.664062 11.25 C 15.945312 10.808594 15.089844 10.421875 14.058594 10.097656 C 11.601562 9.398438 10.121094 8.886719 9.621094 8.554688 C 9.84375 8.292969 10.347656 8.144531 11.136719 8.097656 C 11.25 8.089844 11.375 8.085938 11.496094 8.085938 C 12.304688 8.085938 13.234375 8.203125 14.292969 8.441406 C 15.457031 8.789062 16.195312 8.957031 16.503906 8.957031 L 16.535156 8.957031 C 16.894531 8.9375 17.269531 8.835938 17.660156 8.648438 C 18.492188 8.085938 18.910156 7.386719 18.910156 6.558594 L 18.910156 6.425781 C 18.863281 5.449219 18.332031 4.71875 17.332031 4.230469 C 15.117188 3.535156 13.191406 3.183594 11.558594 3.183594 Z M 10.832031 14.25 C 12.574219 14.765625 13.75 15.167969 14.105469 15.402344 L 14.105469 15.441406 C 13.769531 15.75 13.105469 15.925781 12.117188 15.964844 C 11.941406 15.980469 11.761719 15.984375 11.574219 15.984375 C 10.722656 15.984375 9.796875 15.886719 8.792969 15.683594 C 7.761719 15.46875 7.144531 15.355469 6.917969 15.355469 L 6.890625 15.355469 C 6.433594 15.378906 5.996094 15.527344 5.578125 15.796875 C 4.878906 16.359375 4.535156 17.019531 4.535156 17.777344 L 4.535156 17.90625 C 4.539062 18.269531 4.660156 18.652344 4.875 19.042969 C 5.179688 19.511719 5.574219 19.859375 6.066406 20.074219 C 8.089844 20.613281 9.902344 20.882812 11.496094 20.882812 C 11.714844 20.882812 11.929688 20.882812 12.136719 20.871094 L 12.433594 20.855469 C 15.011719 20.742188 16.921875 19.863281 18.164062 18.214844 C 18.824219 17.199219 19.160156 16.207031 19.160156 15.253906 L 19.160156 14.972656 C 19.148438 14.722656 19.109375 14.484375 19.058594 14.25 Z M 10.832031 14.25 "/>
<path style=" stroke:none;fill-rule:nonzero;fill:rgb(32.941177%,38.039216%,43.921569%);fill-opacity:1;" d="M 2.25 12 L 21.75 12 C 22.167969 12 22.5 12.332031 22.5 12.75 C 22.5 13.167969 22.167969 13.5 21.75 13.5 L 2.25 13.5 C 1.832031 13.5 1.5 13.167969 1.5 12.75 C 1.5 12.332031 1.832031 12 2.25 12 Z M 2.25 12 "/>
</g>
</svg>
