<?xml version="1.0" encoding="UTF-8"?>
<svg xmlns="http://www.w3.org/2000/svg" xmlns:xlink="http://www.w3.org/1999/xlink" width="24px" height="24px" viewBox="0 0 24 24" version="1.1">
<g id="surface1">
<path style=" stroke:none;fill-rule:nonzero;fill:rgb(100%,40.784314%,40.000001%);fill-opacity:1;" d="M 3.199219 21.136719 C 2.261719 21.136719 1.5 20.371094 1.5 19.433594 L 1.5 4.566406 C 1.5 3.628906 2.261719 2.863281 3.199219 2.863281 L 17.628906 2.863281 C 18.113281 2.863281 18.574219 3.070312 18.894531 3.425781 L 22.066406 6.949219 C 22.347656 7.265625 22.5 7.667969 22.5 8.085938 L 22.5 19.433594 C 22.5 20.371094 21.738281 21.136719 20.800781 21.136719 Z M 3.199219 21.136719 "/>
<path style=" stroke:none;fill-rule:nonzero;fill:rgb(77.254903%,29.803923%,32.941177%);fill-opacity:1;" d="M 22.066406 6.949219 L 18.894531 3.425781 C 18.574219 3.070312 18.113281 2.863281 17.628906 2.863281 L 16.265625 2.863281 C 16.746094 2.863281 17.203125 3.070312 17.527344 3.425781 L 20.695312 6.949219 C 20.976562 7.265625 21.136719 7.667969 21.136719 8.085938 L 21.136719 19.433594 C 21.136719 20.371094 20.371094 21.136719 19.433594 21.136719 L 20.800781 21.136719 C 21.738281 21.136719 22.5 20.371094 22.5 19.433594 L 22.5 8.085938 C 22.5 7.667969 22.347656 7.265625 22.066406 6.949219 Z M 22.066406 6.949219 "/>
<path style=" stroke:none;fill-rule:nonzero;fill:rgb(27.058825%,80.000001%,77.254903%);fill-opacity:1;" d="M 7.101562 9.285156 C 6.269531 9.285156 5.601562 8.621094 5.601562 7.792969 L 5.601562 2.863281 L 15.667969 2.863281 L 15.667969 7.792969 C 15.667969 8.621094 14.996094 9.285156 14.167969 9.285156 Z M 7.101562 9.285156 "/>
<path style=" stroke:none;fill-rule:nonzero;fill:rgb(32.941177%,38.039216%,43.921569%);fill-opacity:1;" d="M 14.277344 2.863281 L 14.277344 7.792969 C 14.277344 8.621094 13.605469 9.285156 12.777344 9.285156 L 14.167969 9.285156 C 14.996094 9.285156 15.667969 8.621094 15.667969 7.792969 L 15.667969 2.863281 Z M 14.277344 2.863281 "/>
<path style=" stroke:none;fill-rule:nonzero;fill:rgb(78.039217%,96.078432%,34.901962%);fill-opacity:1;" d="M 3.777344 21.136719 L 3.777344 14.859375 C 3.777344 13.769531 4.660156 12.890625 5.746094 12.890625 L 18.253906 12.890625 C 19.339844 12.890625 20.222656 13.769531 20.222656 14.859375 L 20.222656 21.136719 Z M 3.777344 21.136719 "/>
<path style=" stroke:none;fill-rule:nonzero;fill:rgb(78.039217%,96.078432%,34.901962%);fill-opacity:1;" d="M 11.066406 7.613281 L 11.066406 4.542969 C 11.066406 4.371094 11.203125 4.230469 11.371094 4.230469 L 13.535156 4.230469 C 13.707031 4.230469 13.847656 4.371094 13.847656 4.542969 L 13.847656 7.613281 C 13.847656 7.785156 13.707031 7.921875 13.535156 7.921875 L 11.371094 7.921875 C 11.203125 7.921875 11.066406 7.785156 11.066406 7.613281 Z M 11.066406 7.613281 "/>
<path style=" stroke:none;fill-rule:nonzero;fill:rgb(72.156864%,72.156864%,72.156864%);fill-opacity:1;" d="M 6.535156 15.074219 L 12 15.074219 C 12.1875 15.074219 12.339844 14.925781 12.339844 14.730469 C 12.339844 14.542969 12.1875 14.390625 12 14.390625 L 6.535156 14.390625 C 6.347656 14.390625 6.191406 14.542969 6.191406 14.730469 C 6.191406 14.925781 6.347656 15.074219 6.535156 15.074219 Z M 6.535156 15.074219 "/>
<path style=" stroke:none;fill-rule:nonzero;fill:rgb(72.156864%,72.156864%,72.156864%);fill-opacity:1;" d="M 13.363281 15.074219 L 14.730469 15.074219 C 14.925781 15.074219 15.074219 14.925781 15.074219 14.730469 C 15.074219 14.542969 14.925781 14.390625 14.730469 14.390625 L 13.363281 14.390625 C 13.175781 14.390625 13.027344 14.542969 13.027344 14.730469 C 13.027344 14.925781 13.175781 15.074219 13.363281 15.074219 Z M 13.363281 15.074219 "/>
<path style=" stroke:none;fill-rule:nonzero;fill:rgb(72.156864%,72.156864%,72.156864%);fill-opacity:1;" d="M 17.464844 14.390625 L 16.101562 14.390625 C 15.910156 14.390625 15.753906 14.542969 15.753906 14.730469 C 15.753906 14.925781 15.910156 15.074219 16.101562 15.074219 L 17.464844 15.074219 C 17.652344 15.074219 17.808594 14.925781 17.808594 14.730469 C 17.808594 14.542969 17.652344 14.390625 17.464844 14.390625 Z M 17.464844 14.390625 "/>
<path style=" stroke:none;fill-rule:nonzero;fill:rgb(72.156864%,72.156864%,72.156864%);fill-opacity:1;" d="M 6.535156 16.898438 L 13.824219 16.898438 C 14.011719 16.898438 14.160156 16.746094 14.160156 16.550781 C 14.160156 16.363281 14.011719 16.214844 13.824219 16.214844 L 6.535156 16.214844 C 6.347656 16.214844 6.191406 16.363281 6.191406 16.550781 C 6.191406 16.746094 6.347656 16.898438 6.535156 16.898438 Z M 6.535156 16.898438 "/>
<path style=" stroke:none;fill-rule:nonzero;fill:rgb(72.156864%,72.156864%,72.156864%);fill-opacity:1;" d="M 17.464844 16.214844 L 15.644531 16.214844 C 15.457031 16.214844 15.304688 16.363281 15.304688 16.550781 C 15.304688 16.746094 15.457031 16.898438 15.644531 16.898438 L 17.464844 16.898438 C 17.652344 16.898438 17.808594 16.746094 17.808594 16.550781 C 17.808594 16.363281 17.652344 16.214844 17.464844 16.214844 Z M 17.464844 16.214844 "/>
<path style=" stroke:none;fill-rule:nonzero;fill:rgb(72.156864%,72.156864%,72.156864%);fill-opacity:1;" d="M 9.269531 18.035156 L 6.535156 18.035156 C 6.347656 18.035156 6.191406 18.1875 6.191406 18.375 C 6.191406 18.566406 6.347656 18.722656 6.535156 18.722656 L 9.269531 18.722656 C 9.457031 18.722656 9.609375 18.566406 9.609375 18.375 C 9.609375 18.1875 9.457031 18.035156 9.269531 18.035156 Z M 9.269531 18.035156 "/>
<path style=" stroke:none;fill-rule:nonzero;fill:rgb(72.156864%,72.156864%,72.156864%);fill-opacity:1;" d="M 17.464844 18.035156 L 11.089844 18.035156 C 10.898438 18.035156 10.746094 18.1875 10.746094 18.375 C 10.746094 18.566406 10.898438 18.722656 11.089844 18.722656 L 17.464844 18.722656 C 17.652344 18.722656 17.808594 18.566406 17.808594 18.375 C 17.808594 18.1875 17.652344 18.035156 17.464844 18.035156 Z M 17.464844 18.035156 "/>
</g>
</svg>
