<?xml version="1.0" encoding="UTF-8"?>
<svg xmlns="http://www.w3.org/2000/svg" xmlns:xlink="http://www.w3.org/1999/xlink" width="24px" height="24px" viewBox="0 0 24 24" version="1.1">
<g id="surface1">
<path style=" stroke:none;fill-rule:nonzero;fill:rgb(100%,41.568628%,40.000001%);fill-opacity:1;" d="M 5.964844 3.066406 C 6.550781 3.066406 7.175781 3.1875 7.832031 3.441406 C 8.152344 3.621094 8.316406 3.878906 8.316406 4.214844 L 8.308594 4.292969 C 8.449219 4.441406 8.519531 4.683594 8.519531 5.019531 C 8.527344 5.019531 8.53125 5.136719 8.53125 5.367188 C 8.53125 5.597656 8.53125 5.824219 8.527344 6.058594 C 8.554688 7.386719 8.566406 8.136719 8.566406 8.320312 C 8.566406 8.558594 8.457031 8.777344 8.222656 8.972656 C 8.066406 9.074219 7.902344 9.128906 7.730469 9.128906 C 7.496094 9.128906 7.285156 9.027344 7.101562 8.835938 L 7.089844 8.832031 C 6.585938 9.082031 6.105469 9.207031 5.644531 9.207031 L 5.503906 9.207031 C 4.949219 9.207031 4.441406 9.027344 3.972656 8.675781 C 3.332031 8.136719 3.019531 7.382812 3.019531 6.398438 C 3.019531 5.273438 3.332031 4.402344 3.972656 3.777344 C 4.5 3.300781 5.160156 3.066406 5.964844 3.066406 Z M 4.683594 6.386719 C 4.683594 6.941406 4.828125 7.300781 5.128906 7.453125 C 5.246094 7.511719 5.390625 7.546875 5.566406 7.546875 L 5.578125 7.546875 C 5.929688 7.546875 6.238281 7.441406 6.503906 7.230469 C 6.558594 7.171875 6.613281 7.066406 6.679688 6.914062 C 6.796875 6.539062 6.855469 6.199219 6.855469 5.894531 C 6.855469 5.753906 6.855469 5.410156 6.84375 4.855469 C 6.519531 4.769531 6.222656 4.730469 5.953125 4.730469 C 5.402344 4.730469 5.042969 4.925781 4.871094 5.324219 C 4.746094 5.636719 4.683594 5.996094 4.683594 6.386719 Z M 4.683594 6.386719 "/>
<path style=" stroke:none;fill-rule:nonzero;fill:rgb(100%,41.568628%,40.000001%);fill-opacity:1;" d="M 10.394531 1.503906 C 10.710938 1.503906 10.957031 1.664062 11.136719 1.972656 C 11.199219 2.097656 11.226562 2.222656 11.226562 2.355469 L 11.226562 3.207031 C 12.660156 3.207031 13.683594 3.644531 14.285156 4.511719 C 14.589844 4.972656 14.738281 5.488281 14.738281 6.066406 L 14.738281 6.144531 C 14.738281 6.800781 14.511719 7.394531 14.066406 7.917969 C 13.792969 8.191406 13.570312 8.378906 13.410156 8.464844 C 12.585938 8.957031 11.582031 9.207031 10.40625 9.207031 L 10.394531 9.207031 C 10.042969 9.207031 9.777344 9.035156 9.609375 8.691406 C 9.5625 8.566406 9.542969 8.472656 9.542969 8.414062 C 9.558594 5.15625 9.5625 3.121094 9.5625 2.308594 C 9.5625 2.109375 9.644531 1.921875 9.816406 1.746094 C 9.984375 1.589844 10.175781 1.503906 10.394531 1.503906 Z M 11.214844 4.875 C 11.214844 5.695312 11.207031 6.332031 11.207031 6.773438 L 11.207031 7.488281 C 11.324219 7.488281 11.597656 7.425781 12.023438 7.300781 C 12.503906 7.125 12.816406 6.910156 12.957031 6.636719 C 13.035156 6.496094 13.078125 6.316406 13.078125 6.089844 C 13.078125 5.578125 12.867188 5.246094 12.445312 5.074219 C 12.117188 4.941406 11.722656 4.871094 11.253906 4.871094 Z M 11.214844 4.875 "/>
<path style=" stroke:none;fill-rule:nonzero;fill:rgb(100%,41.568628%,40.000001%);fill-opacity:1;" d="M 18.472656 3.058594 L 18.535156 3.058594 C 19.21875 3.058594 19.910156 3.285156 20.597656 3.746094 C 20.855469 3.9375 20.980469 4.171875 20.980469 4.453125 C 20.980469 4.753906 20.832031 4.996094 20.519531 5.183594 C 20.390625 5.246094 20.261719 5.273438 20.136719 5.273438 C 19.945312 5.273438 19.753906 5.199219 19.550781 5.042969 C 19.195312 4.828125 18.84375 4.714844 18.496094 4.714844 C 18.066406 4.714844 17.675781 4.898438 17.332031 5.253906 C 17.105469 5.527344 16.988281 5.824219 16.988281 6.160156 L 16.988281 6.1875 C 16.988281 6.652344 17.183594 7.019531 17.582031 7.300781 C 17.886719 7.464844 18.199219 7.546875 18.527344 7.546875 C 18.871094 7.546875 19.207031 7.429688 19.523438 7.207031 C 19.664062 7.125 19.804688 7.089844 19.957031 7.089844 C 20.246094 7.089844 20.480469 7.230469 20.667969 7.503906 C 20.738281 7.640625 20.777344 7.78125 20.777344 7.921875 C 20.777344 8.308594 20.511719 8.621094 19.988281 8.859375 C 19.523438 9.089844 19.042969 9.207031 18.550781 9.207031 L 18.46875 9.207031 C 17.859375 9.207031 17.253906 9.027344 16.660156 8.675781 C 16.519531 8.597656 16.316406 8.417969 16.058594 8.15625 C 15.894531 7.949219 15.769531 7.761719 15.667969 7.59375 C 15.441406 7.113281 15.328125 6.675781 15.328125 6.277344 L 15.328125 6.066406 C 15.328125 5.625 15.457031 5.15625 15.722656 4.664062 C 15.820312 4.476562 16.003906 4.246094 16.269531 3.972656 C 16.550781 3.714844 16.804688 3.535156 17.027344 3.425781 C 17.496094 3.183594 17.976562 3.058594 18.472656 3.058594 Z M 18.472656 3.058594 "/>
<path style=" stroke:none;fill-rule:nonzero;fill:rgb(27.843139%,80.392158%,77.64706%);fill-opacity:1;" d="M 19.265625 6.878906 L 9.753906 16.382812 C 9.496094 16.640625 9.082031 16.640625 8.832031 16.382812 L 4.734375 12.292969 L 1.5 15.527344 L 7.675781 21.703125 C 8.105469 22.128906 8.683594 22.371094 9.292969 22.371094 C 9.894531 22.371094 10.480469 22.128906 10.910156 21.703125 L 22.5 10.113281 Z M 19.265625 6.878906 "/>
</g>
</svg>
