<?xml version="1.0" encoding="UTF-8"?>
<svg xmlns="http://www.w3.org/2000/svg" xmlns:xlink="http://www.w3.org/1999/xlink" width="24px" height="24px" viewBox="0 0 24 24" version="1.1">
<g id="surface1">
<path style=" stroke:none;fill-rule:nonzero;fill:rgb(27.843139%,80.392158%,77.64706%);fill-opacity:1;" d="M 8.191406 4.5 C 8.003906 4.503906 7.828125 4.582031 7.691406 4.710938 L 2.695312 9.589844 C 2.667969 9.621094 2.644531 9.65625 2.625 9.691406 C 2.4375 9.894531 2.285156 10.152344 2.285156 10.476562 C 2.285156 10.847656 2.460938 11.144531 2.644531 11.367188 C 2.644531 11.367188 2.648438 11.367188 2.648438 11.367188 C 2.660156 11.386719 2.675781 11.402344 2.695312 11.417969 L 2.699219 11.417969 L 7.691406 16.289062 C 7.921875 16.503906 8.253906 16.546875 8.507812 16.441406 C 8.761719 16.332031 8.964844 16.066406 8.964844 15.75 L 8.964844 12.75 L 17.214844 12.792969 C 17.105469 12.792969 17.183594 12.792969 17.203125 12.808594 C 17.214844 12.820312 17.214844 12.902344 17.214844 12.792969 L 17.214844 18.75 C 17.214844 19.160156 17.554688 19.5 17.964844 19.5 L 20.964844 19.5 C 21.375 19.5 21.714844 19.160156 21.714844 18.75 L 21.714844 12.792969 C 21.714844 12.753906 21.703125 12.722656 21.699219 12.679688 C 21.707031 12.605469 21.714844 12.515625 21.714844 12.410156 L 21.714844 12.402344 C 21.714844 10.144531 19.863281 8.292969 17.601562 8.292969 L 17.597656 8.292969 C 17.488281 8.292969 17.402344 8.300781 17.324219 8.308594 C 17.292969 8.300781 17.253906 8.292969 17.214844 8.292969 L 8.964844 8.25 L 8.964844 5.25 C 8.964844 4.832031 8.613281 4.488281 8.191406 4.5 Z M 8.191406 4.5 "/>
</g>
</svg>
