<?xml version="1.0" encoding="UTF-8"?>
<svg xmlns="http://www.w3.org/2000/svg" xmlns:xlink="http://www.w3.org/1999/xlink" width="24px" height="24px" viewBox="0 0 24 24" version="1.1">
<g id="surface1">
<path style=" stroke:none;fill-rule:nonzero;fill:rgb(100%,41.568628%,40.000001%);fill-opacity:1;" d="M 3 20.25 L 21 20.25 C 21.417969 20.25 21.75 20.542969 21.75 20.90625 L 21.75 21.09375 C 21.75 21.457031 21.417969 21.75 21 21.75 L 3 21.75 C 2.582031 21.75 2.25 21.457031 2.25 21.09375 L 2.25 20.90625 C 2.25 20.542969 2.582031 20.25 3 20.25 Z M 3 20.25 "/>
<path style=" stroke:none;fill-rule:nonzero;fill:rgb(100%,41.568628%,40.000001%);fill-opacity:1;" d="M 16.378906 2.90625 C 16.972656 2.90625 17.480469 3.1875 17.886719 3.753906 C 18.027344 3.941406 18.128906 4.253906 18.191406 4.699219 C 18.023438 10.566406 17.90625 13.5 17.839844 13.5 C 17.839844 13.714844 17.714844 14.316406 17.449219 15.304688 C 17.261719 15.84375 17.042969 16.355469 16.800781 16.828125 C 16.59375 17.199219 16.265625 17.644531 15.820312 18.152344 C 15.277344 18.691406 14.863281 19.019531 14.582031 19.144531 C 13.761719 19.597656 13.011719 19.828125 12.339844 19.828125 L 11.90625 19.828125 C 11.113281 19.828125 10.261719 19.542969 9.332031 18.964844 C 7.054688 17.316406 5.910156 14.480469 5.910156 10.449219 L 5.910156 9.726562 C 5.910156 8.460938 5.878906 6.957031 5.808594 5.207031 C 5.808594 4.59375 6.089844 4.082031 6.65625 3.675781 C 6.972656 3.480469 7.308594 3.378906 7.644531 3.378906 C 8.261719 3.378906 8.765625 3.675781 9.167969 4.253906 C 9.378906 4.496094 9.488281 5.089844 9.488281 6.046875 C 9.539062 7.097656 9.566406 8.300781 9.566406 9.667969 L 9.566406 10.292969 C 9.566406 13.027344 10.121094 14.871094 11.222656 15.824219 C 11.511719 16.058594 11.800781 16.175781 12.070312 16.175781 L 12.199219 16.175781 C 12.652344 16.175781 13.097656 15.832031 13.546875 15.140625 C 13.753906 14.792969 13.917969 14.402344 14.050781 13.949219 C 14.222656 13.277344 14.300781 12.421875 14.300781 11.378906 C 14.410156 9.097656 14.484375 6.839844 14.535156 4.59375 C 14.566406 4.308594 14.675781 4.007812 14.863281 3.699219 C 15.277344 3.167969 15.777344 2.90625 16.378906 2.90625 Z M 16.378906 2.90625 "/>
</g>
</svg>
