<?xml version="1.0" encoding="UTF-8"?>
<svg xmlns="http://www.w3.org/2000/svg" xmlns:xlink="http://www.w3.org/1999/xlink" width="32px" height="32px" viewBox="0 0 32 32" version="1.1">
<g id="surface1">
<path style=" stroke:none;fill-rule:nonzero;fill:rgb(77.64706%,30.19608%,33.725491%);fill-opacity:1;" d="M 10.445312 8.6875 L 26.359375 8.6875 C 28.1875 8.6875 29.671875 10.171875 29.671875 12 L 29.671875 26.6875 C 29.671875 28.515625 28.1875 30 26.359375 30 L 10.445312 30 C 8.609375 30 7.125 28.515625 7.125 26.6875 L 7.125 12 C 7.125 10.171875 8.609375 8.6875 10.445312 8.6875 Z M 10.445312 8.6875 "/>
<path style=" stroke:none;fill-rule:nonzero;fill:rgb(77.64706%,30.19608%,33.725491%);fill-opacity:1;" d="M 28 29.976562 L 28.414062 29.976562 C 29.109375 29.976562 29.671875 29.414062 29.671875 28.726562 L 29.671875 25.382812 L 28 25.382812 Z M 28 29.976562 "/>
<path style=" stroke:none;fill-rule:nonzero;fill:rgb(86.666667%,91.764706%,98.431373%);fill-opacity:1;" d="M 24.25 9.726562 L 24.25 20.515625 C 24.25 21.40625 23.53125 22.132812 22.632812 22.132812 L 9.367188 22.132812 C 8.601562 22.132812 7.960938 21.601562 7.796875 20.890625 L 7.789062 19.96875 L 7.75 14.46875 L 7.75 3.617188 C 7.75 2.726562 8.46875 2 9.367188 2 L 16.523438 2 C 17.164062 2 19.25 3.773438 21.09375 5.648438 C 22.773438 7.351562 24.25 9.140625 24.25 9.726562 Z M 24.25 9.726562 "/>
<path style=" stroke:none;fill-rule:nonzero;fill:rgb(79.607844%,88.627452%,100%);fill-opacity:1;" d="M 24.25 9.726562 L 24.25 13.679688 C 24.25 13.679688 24.25 13.671875 24.25 13.664062 C 24.125 8.820312 20.179688 8.59375 18.882812 7.296875 L 21.09375 5.648438 C 22.773438 7.351562 24.25 9.140625 24.25 9.726562 Z M 24.25 9.726562 "/>
<path style=" stroke:none;fill-rule:nonzero;fill:rgb(79.607844%,88.627452%,100%);fill-opacity:1;" d="M 16.523438 2 L 12.570312 2 C 12.578125 2 12.578125 2 12.585938 2 C 17.429688 2.125 17.65625 6.070312 18.953125 7.367188 L 20.601562 5.15625 C 18.898438 3.476562 17.109375 2 16.523438 2 Z M 16.523438 2 "/>
<path style=" stroke:none;fill-rule:nonzero;fill:rgb(27.843139%,80.392158%,77.64706%);fill-opacity:1;" d="M 24.25 9.726562 L 24.25 10.414062 C 24.25 8.976562 23.085938 7.804688 21.648438 7.804688 L 20.0625 7.804688 C 19.164062 7.804688 18.445312 7.085938 18.445312 6.1875 L 18.445312 4.601562 C 18.445312 3.164062 17.28125 2 15.835938 2 L 16.523438 2 C 17.75 2 18.929688 2.492188 19.804688 3.359375 L 22.890625 6.445312 C 23.757812 7.320312 24.25 8.5 24.25 9.726562 Z M 24.25 9.726562 "/>
<path style=" stroke:none;fill-rule:nonzero;fill:rgb(100%,41.568628%,40.000001%);fill-opacity:1;" d="M 23.8125 14.726562 L 11.804688 14.726562 C 11.476562 14.726562 11.15625 14.59375 10.921875 14.359375 L 9.570312 13.007812 C 9.335938 12.773438 9.015625 12.640625 8.679688 12.640625 L 2.9375 12.640625 C 2.25 12.640625 1.554688 13.210938 1.6875 13.890625 L 4.625 28.75 C 4.757812 29.429688 5.1875 30 5.875 30 L 28 30 L 25.0625 15.976562 C 24.921875 15.304688 24.5 14.726562 23.8125 14.726562 Z M 23.8125 14.726562 "/>
</g>
</svg>
