<?xml version="1.0" encoding="UTF-8"?>
<svg xmlns="http://www.w3.org/2000/svg" xmlns:xlink="http://www.w3.org/1999/xlink" width="32px" height="32px" viewBox="0 0 32 32" version="1.1">
<g id="surface1">
<path style=" stroke:none;fill-rule:nonzero;fill:rgb(86.666667%,91.764706%,98.431373%);fill-opacity:1;" d="M 27.476562 12.75 L 27.476562 27.75 C 27.476562 28.992188 26.46875 30 25.226562 30 L 6.773438 30 C 5.710938 30 4.820312 29.265625 4.585938 28.273438 L 4.578125 26.992188 L 4.523438 19.34375 L 4.523438 4.25 C 4.523438 3.007812 5.53125 2 6.773438 2 L 16.726562 2 C 17.625 2 20.515625 4.46875 23.078125 7.070312 C 25.414062 9.445312 27.476562 11.929688 27.476562 12.75 Z M 27.476562 12.75 "/>
<path style=" stroke:none;fill-rule:nonzero;fill:rgb(79.607844%,88.627452%,100%);fill-opacity:1;" d="M 27.476562 12.75 L 27.476562 18.242188 C 27.476562 18.234375 27.476562 18.234375 27.476562 18.226562 C 27.304688 11.484375 21.8125 11.171875 20.015625 9.375 L 23.078125 7.070312 C 25.414062 9.445312 27.476562 11.929688 27.476562 12.75 Z M 27.476562 12.75 "/>
<path style=" stroke:none;fill-rule:nonzero;fill:rgb(79.607844%,88.627452%,100%);fill-opacity:1;" d="M 16.726562 2 L 11.226562 2 C 11.234375 2 11.242188 2 11.25 2 C 17.992188 2.171875 18.304688 7.664062 20.101562 9.460938 L 22.398438 6.390625 C 20.023438 4.054688 17.546875 2 16.726562 2 Z M 16.726562 2 "/>
<path style=" stroke:none;fill-rule:nonzero;fill:rgb(27.843139%,80.392158%,77.64706%);fill-opacity:1;" d="M 27.476562 12.75 L 27.476562 13.695312 C 27.476562 11.695312 25.851562 10.078125 23.851562 10.078125 L 21.648438 10.078125 C 20.40625 10.078125 19.398438 9.070312 19.398438 7.828125 L 19.398438 5.625 C 19.398438 3.625 17.773438 2 15.773438 2 L 16.726562 2 C 18.4375 2 20.078125 2.679688 21.289062 3.890625 L 25.585938 8.1875 C 26.796875 9.398438 27.476562 11.039062 27.476562 12.75 Z M 27.476562 12.75 "/>
<path style="fill-rule:evenodd;fill:rgb(100%,100%,100%);fill-opacity:1;stroke-width:2;stroke-linecap:round;stroke-linejoin:round;stroke:rgb(100%,100%,100%);stroke-opacity:1;stroke-miterlimit:4;" d="M 30.529263 23.103549 C 30.529263 27.189487 27.208951 30.509799 23.115201 30.509799 C 19.029263 30.509799 15.708951 27.189487 15.708951 23.103549 C 15.708951 19.009799 19.029263 15.697299 23.115201 15.697299 C 27.208951 15.697299 30.529263 19.009799 30.529263 23.103549 Z M 30.529263 23.103549 " transform="matrix(1,0,0,1,-1.474576,-1.525424)"/>
<path style="fill-rule:evenodd;fill:rgb(100%,100%,100%);fill-opacity:1;stroke-width:2;stroke-linecap:round;stroke-linejoin:round;stroke:rgb(100%,41.568628%,40.000001%);stroke-opacity:1;stroke-miterlimit:4;" d="M 29.912076 23.103549 C 29.912076 26.853549 26.873013 29.900424 23.115201 29.900424 C 19.365201 29.900424 16.318326 26.853549 16.318326 23.103549 C 16.318326 19.345737 19.365201 16.306674 23.115201 16.306674 C 26.873013 16.306674 29.912076 19.345737 29.912076 23.103549 Z M 29.912076 23.103549 " transform="matrix(1,0,0,1,-1.474576,-1.525424)"/>
<path style="fill:none;stroke-width:2;stroke-linecap:round;stroke-linejoin:miter;stroke:rgb(27.843139%,80.392158%,77.64706%);stroke-opacity:1;stroke-miterlimit:4;" d="M 22.998013 19.001987 L 22.998013 27.001987 " transform="matrix(1,0,0,1,-1.474576,-1.525424)"/>
<path style="fill:none;stroke-width:2;stroke-linecap:round;stroke-linejoin:miter;stroke:rgb(27.843139%,80.392158%,77.64706%);stroke-opacity:1;stroke-miterlimit:4;" d="M 18.998013 23.001987 L 26.998013 23.001987 " transform="matrix(1,0,0,1,-1.474576,-1.525424)"/>
</g>
</svg>
