<?xml version="1.0" encoding="UTF-8"?>
<svg xmlns="http://www.w3.org/2000/svg" xmlns:xlink="http://www.w3.org/1999/xlink" width="32px" height="32px" viewBox="0 0 32 32" version="1.1">
<g id="surface1">
<path style=" stroke:none;fill-rule:nonzero;fill:rgb(90.196079%,90.196079%,90.196079%);fill-opacity:1;" d="M 26.226562 3.90625 L 26.226562 8.359375 L 5.773438 8.359375 L 5.773438 3.90625 C 5.773438 2.851562 6.625 2 7.679688 2 L 24.320312 2 C 25.375 2 26.226562 2.851562 26.226562 3.90625 Z M 26.226562 3.90625 "/>
<path style=" stroke:none;fill-rule:nonzero;fill:rgb(80.000001%,80.000001%,80.000001%);fill-opacity:1;" d="M 5.773438 6.070312 L 26.226562 6.070312 L 26.226562 8.359375 L 5.773438 8.359375 Z M 5.773438 6.070312 "/>
<path style=" stroke:none;fill-rule:nonzero;fill:rgb(27.843139%,80.392158%,77.64706%);fill-opacity:1;" d="M 26.226562 25.273438 L 27.210938 25.273438 C 28.75 25.273438 30 24.023438 30 22.484375 L 30 11.148438 C 30 9.609375 28.75 8.359375 27.210938 8.359375 L 4.789062 8.359375 C 3.25 8.359375 2 9.609375 2 11.148438 L 2 22.484375 C 2 24.023438 3.25 25.273438 4.789062 25.273438 L 5.773438 25.273438 "/>
<path style=" stroke:none;fill-rule:nonzero;fill:rgb(33.333334%,38.431373%,44.705883%);fill-opacity:1;" d="M 4.625 22.484375 L 4.625 11.148438 C 4.625 9.609375 5.875 8.359375 7.414062 8.359375 L 4.789062 8.359375 C 3.25 8.359375 2 9.609375 2 11.148438 L 2 22.484375 C 2 24.023438 3.25 25.273438 4.789062 25.273438 L 7.414062 25.273438 C 5.875 25.273438 4.625 24.023438 4.625 22.484375 Z M 4.625 22.484375 "/>
<path style=" stroke:none;fill-rule:nonzero;fill:rgb(33.333334%,38.431373%,44.705883%);fill-opacity:1;" d="M 26.226562 22.875 C 27.242188 22.875 28.054688 22.054688 28.054688 21.046875 L 28.054688 20.8125 C 28.054688 19.804688 27.242188 18.984375 26.226562 18.984375 L 5.773438 18.984375 C 4.757812 18.984375 3.945312 19.804688 3.945312 20.8125 L 3.945312 21.046875 C 3.945312 22.054688 4.757812 22.875 5.773438 22.875 "/>
<path style=" stroke:none;fill-rule:nonzero;fill:rgb(90.196079%,90.196079%,90.196079%);fill-opacity:1;" d="M 26.226562 20.8125 L 5.773438 20.8125 L 5.773438 28.09375 C 5.773438 29.148438 6.625 30 7.679688 30 L 24.320312 30 C 25.375 30 26.226562 29.148438 26.226562 28.09375 Z M 26.226562 20.8125 "/>
<path style=" stroke:none;fill-rule:nonzero;fill:rgb(80.000001%,80.000001%,80.000001%);fill-opacity:1;" d="M 5.773438 20.8125 L 26.226562 20.8125 L 26.226562 23.101562 L 5.773438 23.101562 Z M 5.773438 20.8125 "/>
<path style=" stroke:none;fill-rule:nonzero;fill:rgb(100%,41.568628%,40.000001%);fill-opacity:1;" d="M 8.226562 12.359375 C 8.226562 13.242188 7.515625 13.960938 6.625 13.960938 C 5.742188 13.960938 5.03125 13.242188 5.03125 12.359375 C 5.03125 11.476562 5.742188 10.757812 6.625 10.757812 C 7.515625 10.757812 8.226562 11.476562 8.226562 12.359375 Z M 8.226562 12.359375 "/>
<path style=" stroke:none;fill-rule:nonzero;fill:rgb(0%,0%,0%);fill-opacity:1;" d="M 12.945312 12.359375 C 12.945312 13.242188 12.226562 13.960938 11.34375 13.960938 C 10.460938 13.960938 9.742188 13.242188 9.742188 12.359375 C 9.742188 11.476562 10.460938 10.757812 11.34375 10.757812 C 12.226562 10.757812 12.945312 11.476562 12.945312 12.359375 Z M 12.945312 12.359375 "/>
<path style=" stroke:none;fill-rule:nonzero;fill:rgb(100%,41.568628%,40.000001%);fill-opacity:1;" d="M 23.257812 23.875 L 8.742188 23.875 C 8.507812 23.875 8.3125 23.679688 8.3125 23.445312 C 8.3125 23.210938 8.507812 23.015625 8.742188 23.015625 L 23.257812 23.015625 C 23.492188 23.015625 23.6875 23.210938 23.6875 23.445312 C 23.6875 23.679688 23.492188 23.875 23.257812 23.875 Z M 23.257812 23.875 "/>
<path style=" stroke:none;fill-rule:nonzero;fill:rgb(100%,41.568628%,40.000001%);fill-opacity:1;" d="M 23.257812 26.5 L 8.742188 26.5 C 8.507812 26.5 8.3125 26.3125 8.3125 26.070312 C 8.3125 25.835938 8.507812 25.640625 8.742188 25.640625 L 23.257812 25.640625 C 23.492188 25.640625 23.6875 25.835938 23.6875 26.070312 C 23.6875 26.3125 23.492188 26.5 23.257812 26.5 Z M 23.257812 26.5 "/>
<path style=" stroke:none;fill-rule:nonzero;fill:rgb(94.509804%,82.745099%,20%);fill-opacity:1;" d="M 23.453125 16.796875 C 22.75 21.375 18.460938 24.523438 13.875 23.820312 C 9.296875 23.117188 6.148438 18.828125 6.851562 14.242188 C 7.554688 9.65625 11.84375 6.515625 16.429688 7.21875 C 21.015625 7.921875 24.15625 12.210938 23.453125 16.796875 Z M 23.453125 16.796875 "/>
<path style=" stroke:none;fill-rule:nonzero;fill:rgb(74.509805%,84.705883%,98.431373%);fill-opacity:1;" d="M 19.421875 19.664062 C 17.132812 22.023438 13.367188 22.078125 11.007812 19.789062 C 10.328125 19.132812 9.84375 18.351562 9.546875 17.515625 C 9.28125 16.773438 9.171875 15.992188 9.210938 15.21875 C 9.25 14.523438 9.398438 13.835938 9.679688 13.1875 C 9.953125 12.53125 10.359375 11.914062 10.882812 11.375 C 10.960938 11.296875 11.03125 11.226562 11.109375 11.15625 C 13.40625 9.015625 17.015625 9.03125 19.296875 11.25 C 21.65625 13.539062 21.710938 17.304688 19.421875 19.664062 Z M 19.421875 19.664062 "/>
<path style=" stroke:none;fill-rule:nonzero;fill:rgb(91.764706%,69.411767%,30.19608%);fill-opacity:1;" d="M 10.421875 21.71875 C 11.578125 22.835938 12.96875 23.554688 14.4375 23.882812 C 12.570312 23.726562 10.75 22.945312 9.304688 21.546875 C 5.976562 18.3125 5.898438 12.992188 9.132812 9.671875 C 11.242188 7.492188 14.242188 6.710938 16.992188 7.328125 C 14.570312 7.117188 12.078125 7.960938 10.25 9.84375 C 7.023438 13.164062 7.09375 18.484375 10.421875 21.71875 Z M 10.421875 21.71875 "/>
<path style=" stroke:none;fill-rule:nonzero;fill:rgb(100%,100%,100%);fill-opacity:1;" d="M 19.421875 19.664062 C 17.859375 21.273438 15.601562 21.8125 13.578125 21.257812 C 15.203125 21.320312 16.851562 20.71875 18.078125 19.453125 C 20.367188 17.101562 20.3125 13.335938 17.953125 11.046875 C 17.210938 10.320312 16.320312 9.828125 15.382812 9.578125 C 16.796875 9.625 18.203125 10.1875 19.296875 11.25 C 21.65625 13.539062 21.710938 17.304688 19.421875 19.664062 Z M 19.421875 19.664062 "/>
<path style=" stroke:none;fill-rule:nonzero;fill:rgb(77.64706%,49.019608%,40.000001%);fill-opacity:1;" d="M 29.03125 28.992188 C 27.984375 30.070312 26.296875 30.117188 24.054688 27.945312 C 23.3125 27.21875 22.710938 26.453125 22.273438 25.703125 C 21.390625 24.195312 21.1875 22.773438 21.890625 22.0625 C 22.585938 21.34375 24.007812 21.5 25.539062 22.335938 C 26.296875 22.75 27.085938 23.328125 27.828125 24.054688 C 30.070312 26.226562 30.070312 27.921875 29.03125 28.992188 Z M 29.03125 28.992188 "/>
<path style=" stroke:none;fill-rule:nonzero;fill:rgb(66.666669%,34.901962%,23.921569%);fill-opacity:1;" d="M 29.03125 28.992188 C 27.984375 30.070312 26.296875 30.117188 24.054688 27.945312 C 21.8125 25.765625 20.84375 23.132812 21.890625 22.0625 C 21.476562 22.484375 22.953125 24.59375 25.1875 26.773438 C 27.429688 28.945312 28.609375 29.421875 29.03125 28.992188 Z M 29.03125 28.992188 "/>
<path style=" stroke:none;fill-rule:nonzero;fill:rgb(66.666669%,34.901962%,23.921569%);fill-opacity:1;" d="M 25.539062 22.335938 C 25.53125 22.34375 25.523438 22.351562 25.515625 22.359375 L 22.273438 25.703125 C 21.390625 24.195312 21.1875 22.773438 21.890625 22.0625 C 22.585938 21.34375 24.007812 21.5 25.539062 22.335938 Z M 25.539062 22.335938 "/>
<path style=" stroke:none;fill-rule:nonzero;fill:rgb(77.64706%,49.019608%,40.000001%);fill-opacity:1;" d="M 22.5625 19.320312 L 19.164062 22.8125 C 18.5 23.5 18.515625 24.601562 19.203125 25.273438 C 19.890625 25.9375 20.992188 25.921875 21.65625 25.234375 L 25.054688 21.734375 C 25.726562 21.046875 25.710938 19.953125 25.023438 19.28125 C 24.335938 18.609375 23.234375 18.625 22.5625 19.320312 Z M 22.5625 19.320312 "/>
<path style=" stroke:none;fill-rule:nonzero;fill:rgb(66.666669%,34.901962%,23.921569%);fill-opacity:1;" d="M 22.03125 24.125 C 22.476562 24.117188 22.921875 23.9375 23.25 23.59375 L 21.65625 25.234375 C 21.328125 25.578125 20.882812 25.757812 20.4375 25.765625 C 19.992188 25.773438 19.546875 25.609375 19.203125 25.273438 C 18.515625 24.601562 18.5 23.5 19.164062 22.8125 L 20.757812 21.171875 C 20.09375 21.867188 20.109375 22.960938 20.796875 23.632812 C 21.140625 23.96875 21.585938 24.125 22.03125 24.125 Z M 22.03125 24.125 "/>
<path style=" stroke:none;fill-rule:nonzero;fill:rgb(91.764706%,69.411767%,30.19608%);fill-opacity:1;" d="M 14.164062 21.84375 C 12.867188 21.648438 11.65625 21.046875 10.695312 20.109375 C 9.46875 18.921875 8.78125 17.320312 8.75 15.609375 C 8.726562 13.90625 9.367188 12.289062 10.5625 11.0625 C 11.75 9.835938 13.351562 9.140625 15.0625 9.117188 C 16.765625 9.09375 18.382812 9.734375 19.609375 10.929688 C 22.148438 13.382812 22.203125 17.445312 19.742188 19.976562 C 18.554688 21.203125 16.953125 21.898438 15.25 21.921875 C 14.882812 21.921875 14.523438 21.898438 14.164062 21.84375 Z M 16 10.085938 C 15.695312 10.039062 15.382812 10.015625 15.070312 10.023438 C 13.601562 10.046875 12.234375 10.632812 11.210938 11.6875 C 10.1875 12.742188 9.632812 14.132812 9.65625 15.601562 C 9.679688 17.070312 10.273438 18.4375 11.320312 19.460938 C 12.375 20.484375 13.765625 21.039062 15.234375 21.015625 C 16.703125 20.992188 18.070312 20.398438 19.09375 19.351562 C 21.210938 17.171875 21.15625 13.6875 18.984375 11.578125 C 18.15625 10.773438 17.117188 10.257812 16 10.085938 Z M 16 10.085938 "/>
</g>
</svg>
