<?xml version="1.0" encoding="UTF-8" standalone="no"?>
<svg
   xmlns:dc="http://purl.org/dc/elements/1.1/"
   xmlns:cc="http://creativecommons.org/ns#"
   xmlns:rdf="http://www.w3.org/1999/02/22-rdf-syntax-ns#"
   xmlns:svg="http://www.w3.org/2000/svg"
   xmlns="http://www.w3.org/2000/svg"
   xmlns:sodipodi="http://sodipodi.sourceforge.net/DTD/sodipodi-0.dtd"
   xmlns:inkscape="http://www.inkscape.org/namespaces/inkscape"
   width="16px"
   height="16px"
   viewBox="0 0 16 16"
   version="1.1"
   id="svg23"
   sodipodi:docname="sc_backcolor.svg"
   inkscape:version="0.92.4 (5da689c313, 2019-01-14)">
  <metadata
     id="metadata29">
    <rdf:RDF>
      <cc:Work
         rdf:about="">
        <dc:format>image/svg+xml</dc:format>
        <dc:type
           rdf:resource="http://purl.org/dc/dcmitype/StillImage" />
      </cc:Work>
    </rdf:RDF>
  </metadata>
  <defs
     id="defs27" />
  <sodipodi:namedview
     pagecolor="#ffffff"
     bordercolor="#666666"
     borderopacity="1"
     objecttolerance="10"
     gridtolerance="10"
     guidetolerance="10"
     inkscape:pageopacity="0"
     inkscape:pageshadow="2"
     inkscape:window-width="640"
     inkscape:window-height="480"
     id="namedview25"
     showgrid="false"
     inkscape:zoom="25.102291"
     inkscape:cx="10.632726"
     inkscape:cy="10.72607"
     inkscape:current-layer="svg23" />
  <path
     inkscape:connector-curvature="0"
     id="path2"
     d="M 0,0 H 9.546875 V 7.558594 H 0 Z m 0,0"
     style="fill:#c7f559;fill-opacity:1;fill-rule:nonzero;stroke:none" />
  <path
     inkscape:connector-curvature="0"
     id="path4"
     d="M 0,12.5 H 16 V 16 H 0 Z m 0,0"
     style="fill:#ff0000;fill-opacity:1;fill-rule:nonzero;stroke:none" />
  <path
     inkscape:connector-curvature="0"
     id="path6"
     d="m 2.636719,2.0625 c 0.433593,0 0.890625,0.09375 1.375,0.277344 0.234375,0.132812 0.351562,0.320312 0.351562,0.566406 l -0.00391,0.058594 c 0.105469,0.109375 0.15625,0.289062 0.15625,0.539062 0.00781,0 0.00781,0.082032 0.00781,0.25 0,0.167969 0,0.335938 -0.00391,0.507813 0.023438,0.976562 0.03125,1.53125 0.03125,1.660156 0,0.179687 -0.082031,0.339844 -0.25,0.480469 C 4.183594,6.480469 4.0625,6.519531 3.9375,6.519531 3.761719,6.519531 3.609375,6.445312 3.472656,6.304688 L 3.464844,6.300781 C 3.09375,6.484375 2.742188,6.578125 2.402344,6.578125 H 2.300781 c -0.40625,0 -0.78125,-0.132813 -1.125,-0.390625 C 0.707031,5.792969 0.472656,5.234375 0.472656,4.515625 0.472656,3.6875 0.707031,3.046875 1.175781,2.589844 1.5625,2.238281 2.050781,2.0625 2.636719,2.0625 Z M 1.695312,4.503906 c 0,0.410156 0.109376,0.671875 0.328126,0.785156 0.085937,0.042969 0.195312,0.066407 0.324218,0.066407 h 0.00781 c 0.257815,0 0.484378,-0.078125 0.67969,-0.230469 C 3.074219,5.082031 3.117188,5.003906 3.164062,4.890625 3.25,4.617188 3.296875,4.367188 3.296875,4.144531 3.296875,4.039062 3.292969,3.785156 3.289062,3.382812 3.046875,3.316406 2.828125,3.285156 2.628906,3.285156 c -0.402344,0 -0.664062,0.144532 -0.792968,0.4375 -0.09375,0.234375 -0.140626,0.492188 -0.140626,0.78125 z m 0,0"
     style="fill:#ff6866;fill-opacity:1;fill-rule:nonzero;stroke:none" />
  <path
     inkscape:connector-curvature="0"
     id="path8"
     d="m 5.894531,0.917969 c 0.230469,0 0.410157,0.117187 0.542969,0.34375 0.046875,0.089843 0.066406,0.183593 0.066406,0.28125 v 0.625 c 1.054688,0 1.804688,0.320312 2.25,0.960937 0.21875,0.335938 0.332032,0.71875 0.332032,1.140625 v 0.058594 c 0,0.480469 -0.164063,0.914063 -0.492188,1.300781 C 8.390625,5.832031 8.226562,5.964844 8.113281,6.03125 7.503906,6.394531 6.765625,6.578125 5.902344,6.578125 H 5.894531 C 5.632812,6.578125 5.441406,6.449219 5.316406,6.195312 5.285156,6.105469 5.269531,6.035156 5.269531,5.992188 5.277344,3.601562 5.285156,2.105469 5.285156,1.507812 5.285156,1.363281 5.34375,1.226562 5.464844,1.09375 5.59375,0.976562 5.734375,0.917969 5.894531,0.917969 Z M 6.496094,3.394531 C 6.496094,4 6.492188,4.464844 6.492188,4.789062 V 5.3125 c 0.085937,0 0.285156,-0.046875 0.597656,-0.136719 C 7.441406,5.046875 7.667969,4.886719 7.773438,4.6875 c 0.0625,-0.101562 0.09375,-0.238281 0.09375,-0.402344 0,-0.375 -0.15625,-0.621094 -0.46875,-0.742187 C 7.160156,3.441406 6.871094,3.390625 6.527344,3.390625 Z m 0,0"
     style="fill:#ff6866;fill-opacity:1;fill-rule:nonzero;stroke:none" />
  <path
     inkscape:connector-curvature="0"
     id="path10"
     d="m 6.125,10.308594 v 0.230468 l -1.667969,1.96875 1.742188,-0.0039 1.09375,-1.195312 z m 0,0"
     style="fill:#c7f559;fill-opacity:1;fill-rule:evenodd;stroke:none" />
  <path
     inkscape:connector-curvature="0"
     id="path12"
     d="m 6.964844,7.960938 2.75,2.582031 0.582031,-0.578125 -2.824219,-2.492188 z m 0,0"
     style="fill:#45ccc5;fill-opacity:1;fill-rule:evenodd;stroke:none" />
  <path
     inkscape:connector-curvature="0"
     id="path14"
     d="m 14.074219,1.132812 2.015625,1.726563 C 15.667969,4.386719 12.261719,7.792969 10.296875,9.964844 L 7.472656,7.472656 C 9.652344,5.414062 13.203125,0.71875 14.074219,1.132812 Z m 0,0"
     style="fill:#546170;fill-opacity:1;fill-rule:evenodd;stroke:none" />
  <path
     inkscape:connector-curvature="0"
     id="path16"
     d="M 6.964844,7.960938 C 6.601562,9.625 6.488281,9.878906 6.125,10.308594 l 1.167969,1 c 0.726562,-0.550782 1.429687,-0.585938 2.421875,-0.765625 z m 0,0"
     style="fill:#45ccc5;fill-opacity:1;fill-rule:evenodd;stroke:none" />
  <path
     inkscape:connector-curvature="0"
     id="path18"
     d="m 5.414062,12.039062 c -0.398437,0 -0.75,0.191407 -0.875,0.46875 l 1.660157,-0.0039 0.054687,-0.0625 c -0.148437,-0.2461 -0.476562,-0.40235 -0.839844,-0.40235 z m 0,0"
     style="fill:#c7f559;fill-opacity:1;fill-rule:nonzero;stroke:none" />
  <path
     inkscape:connector-curvature="0"
     id="path20"
     d="m 13.933594,1.105469 c -0.25,0.011719 -0.628906,0.265625 -1.085938,0.667969 l 2.601563,2.292968 C 15.765625,3.601562 16,3.183594 16.089844,2.859375 L 14.074219,1.132812 C 14.035156,1.113281 13.988281,1.105469 13.933594,1.105469 Z m 0,0"
     style="fill:#45ccc5;fill-opacity:1;fill-rule:evenodd;stroke:none" />
  <g
     inkscape:groupmode="layer"
     id="layer1"
     inkscape:label="Layer 1" />
</svg>
