<?xml version="1.0" encoding="UTF-8"?>
<svg xmlns="http://www.w3.org/2000/svg" xmlns:xlink="http://www.w3.org/1999/xlink" width="16px" height="16px" viewBox="0 0 16 16" version="1.1">
<g id="surface1">
<path style=" stroke:none;fill-rule:nonzero;fill:rgb(27.843139%,80.392158%,77.64706%);fill-opacity:1;" d="M 12.863281 6.914062 L 12.863281 14.015625 C 12.863281 14.601562 12.386719 15.078125 11.800781 15.078125 L 3.066406 15.078125 C 2.566406 15.078125 2.144531 14.730469 2.035156 14.261719 L 2.03125 13.65625 L 2.003906 10.035156 L 2.003906 2.894531 C 2.003906 2.304688 2.480469 1.832031 3.066406 1.832031 L 7.777344 1.832031 C 8.199219 1.832031 9.570312 3 10.78125 4.230469 C 11.886719 5.355469 12.863281 6.527344 12.863281 6.914062 Z M 12.863281 6.914062 "/>
<path style=" stroke:none;fill-rule:nonzero;fill:rgb(86.666667%,91.764706%,98.431373%);fill-opacity:1;" d="M 14.03125 6.097656 L 14.03125 13.195312 C 14.03125 13.785156 13.554688 14.257812 12.96875 14.257812 L 4.234375 14.257812 C 3.734375 14.257812 3.3125 13.910156 3.203125 13.445312 L 3.195312 12.835938 L 3.171875 9.21875 L 3.171875 2.074219 C 3.171875 1.488281 3.648438 1.011719 4.234375 1.011719 L 8.945312 1.011719 C 9.367188 1.011719 10.738281 2.179688 11.949219 3.410156 C 13.054688 4.535156 14.03125 5.710938 14.03125 6.097656 Z M 14.03125 6.097656 "/>
<path style=" stroke:none;fill-rule:nonzero;fill:rgb(79.607844%,88.627452%,100%);fill-opacity:1;" d="M 14.03125 6.097656 L 14.03125 8.699219 C 14.03125 8.695312 14.027344 8.691406 14.027344 8.6875 C 13.949219 5.496094 11.351562 5.351562 10.5 4.5 L 11.949219 3.410156 C 13.054688 4.535156 14.03125 5.710938 14.03125 6.097656 Z M 14.03125 6.097656 "/>
<path style=" stroke:none;fill-rule:nonzero;fill:rgb(79.607844%,88.627452%,100%);fill-opacity:1;" d="M 8.945312 1.011719 L 6.34375 1.011719 C 6.347656 1.011719 6.351562 1.011719 6.351562 1.011719 C 9.542969 1.09375 9.691406 3.691406 10.542969 4.542969 L 11.628906 3.089844 C 10.507812 1.984375 9.332031 1.011719 8.945312 1.011719 Z M 8.945312 1.011719 "/>
<path style=" stroke:none;fill-rule:nonzero;fill:rgb(27.843139%,80.392158%,77.64706%);fill-opacity:1;" d="M 14.03125 6.097656 L 14.03125 6.546875 C 14.03125 5.601562 13.261719 4.832031 12.316406 4.832031 L 11.273438 4.832031 C 10.683594 4.832031 10.210938 4.355469 10.210938 3.769531 L 10.210938 2.726562 C 10.210938 1.78125 9.441406 1.011719 8.496094 1.011719 L 8.945312 1.011719 C 9.753906 1.011719 10.53125 1.335938 11.101562 1.90625 L 13.136719 3.9375 C 13.707031 4.511719 14.03125 5.289062 14.03125 6.097656 Z M 14.03125 6.097656 "/>
<path style=" stroke:none;fill-rule:nonzero;fill:rgb(100%,41.568628%,40.000001%);fill-opacity:1;" d="M 12.621094 8.1875 L 4.578125 8.1875 C 4.445312 8.1875 4.332031 8.078125 4.332031 7.941406 C 4.332031 7.804688 4.445312 7.691406 4.578125 7.691406 L 12.621094 7.691406 C 12.757812 7.691406 12.867188 7.804688 12.867188 7.941406 C 12.867188 8.078125 12.757812 8.1875 12.621094 8.1875 Z M 12.621094 8.1875 "/>
<path style=" stroke:none;fill-rule:nonzero;fill:rgb(100%,41.568628%,40.000001%);fill-opacity:1;" d="M 12.621094 9.363281 L 4.578125 9.363281 C 4.445312 9.363281 4.332031 9.253906 4.332031 9.117188 C 4.332031 8.980469 4.445312 8.871094 4.578125 8.871094 L 12.621094 8.871094 C 12.757812 8.871094 12.867188 8.980469 12.867188 9.117188 C 12.867188 9.253906 12.757812 9.363281 12.621094 9.363281 Z M 12.621094 9.363281 "/>
<path style=" stroke:none;fill-rule:nonzero;fill:rgb(100%,41.568628%,40.000001%);fill-opacity:1;" d="M 12.621094 10.539062 L 4.578125 10.539062 C 4.445312 10.539062 4.332031 10.429688 4.332031 10.292969 C 4.332031 10.15625 4.445312 10.046875 4.578125 10.046875 L 12.621094 10.046875 C 12.757812 10.046875 12.867188 10.15625 12.867188 10.292969 C 12.867188 10.429688 12.757812 10.539062 12.621094 10.539062 Z M 12.621094 10.539062 "/>
<path style=" stroke:none;fill-rule:nonzero;fill:rgb(100%,41.568628%,40.000001%);fill-opacity:1;" d="M 7.535156 11.71875 L 4.578125 11.71875 C 4.445312 11.71875 4.332031 11.605469 4.332031 11.46875 C 4.332031 11.332031 4.445312 11.222656 4.578125 11.222656 L 7.535156 11.222656 C 7.671875 11.222656 7.78125 11.332031 7.78125 11.46875 C 7.78125 11.605469 7.671875 11.71875 7.535156 11.71875 Z M 7.535156 11.71875 "/>
<path style=" stroke:none;fill-rule:nonzero;fill:rgb(100%,41.568628%,40.000001%);fill-opacity:1;" d="M 7.535156 4.925781 L 4.578125 4.925781 C 4.445312 4.925781 4.332031 4.8125 4.332031 4.675781 C 4.332031 4.539062 4.445312 4.429688 4.578125 4.429688 L 7.535156 4.429688 C 7.671875 4.429688 7.78125 4.539062 7.78125 4.675781 C 7.78125 4.8125 7.671875 4.925781 7.535156 4.925781 Z M 7.535156 4.925781 "/>
</g>
</svg>
