<?xml version="1.0" encoding="UTF-8" standalone="no"?>
<svg
   xmlns:dc="http://purl.org/dc/elements/1.1/"
   xmlns:cc="http://creativecommons.org/ns#"
   xmlns:rdf="http://www.w3.org/1999/02/22-rdf-syntax-ns#"
   xmlns:svg="http://www.w3.org/2000/svg"
   xmlns="http://www.w3.org/2000/svg"
   xmlns:sodipodi="http://sodipodi.sourceforge.net/DTD/sodipodi-0.dtd"
   xmlns:inkscape="http://www.inkscape.org/namespaces/inkscape"
   width="16px"
   height="16px"
   viewBox="0 0 16 16"
   version="1.1"
   id="svg11"
   sodipodi:docname="sc_color.svg"
   inkscape:version="0.92.4 (5da689c313, 2019-01-14)">
  <metadata
     id="metadata17">
    <rdf:RDF>
      <cc:Work
         rdf:about="">
        <dc:format>image/svg+xml</dc:format>
        <dc:type
           rdf:resource="http://purl.org/dc/dcmitype/StillImage" />
      </cc:Work>
    </rdf:RDF>
  </metadata>
  <defs
     id="defs15" />
  <sodipodi:namedview
     pagecolor="#ffffff"
     bordercolor="#666666"
     borderopacity="1"
     objecttolerance="10"
     gridtolerance="10"
     guidetolerance="10"
     inkscape:pageopacity="0"
     inkscape:pageshadow="2"
     inkscape:window-width="640"
     inkscape:window-height="480"
     id="namedview13"
     showgrid="false"
     inkscape:zoom="35.5"
     inkscape:cx="10.983688"
     inkscape:cy="6.916185"
     inkscape:current-layer="svg11" />
  <path
     inkscape:connector-curvature="0"
     id="path2"
     d="m 0.15625,12.507812 h 15.6875 v 3.316407 H 0.15625 Z m 0,0"
     style="fill:#ff0000;fill-opacity:1;fill-rule:nonzero;stroke:none" />
  <path
     inkscape:connector-curvature="0"
     id="path4"
     d="m 3.4375,5.125 c 0.476562,0 0.976562,0.101562 1.507812,0.300781 0.257813,0.148438 0.386719,0.355469 0.386719,0.625 L 5.328125,6.117188 C 5.445312,6.234375 5.5,6.429688 5.5,6.703125 c 0.00781,0 0.00781,0.09375 0.00781,0.28125 0,0.179687 0,0.367187 -0.00391,0.554687 0.023438,1.074219 0.035156,1.679688 0.035156,1.824219 0,0.195313 -0.09375,0.371094 -0.277343,0.523438 C 5.136713,9.972656 5.0039,10.015625 4.863275,10.015625 4.671869,10.015625 4.5039,9.9375 4.355463,9.78125 L 4.347656,9.777344 C 3.941406,9.980469 3.550781,10.082031 3.179688,10.082031 H 3.066406 C 2.621094,10.082031 2.210938,9.9375 1.832031,9.652344 1.316406,9.21875 1.0625,8.609375 1.0625,7.816406 1.0625,6.90625 1.316406,6.203125 1.832031,5.699219 2.257812,5.316406 2.792969,5.125 3.4375,5.125 Z M 2.402344,7.804688 c 0,0.453124 0.121094,0.738281 0.359375,0.863281 0.097656,0.046875 0.214843,0.070312 0.355469,0.070312 H 3.125 c 0.285156,0 0.535156,-0.082031 0.746094,-0.25 C 3.917969,8.4375 3.964844,8.351562 4.011719,8.230469 4.109375,7.929688 4.160156,7.65625 4.160156,7.410156 4.160156,7.292969 4.15625,7.015625 4.148438,6.574219 3.886719,6.5 3.648438,6.464844 3.429688,6.464844 2.988281,6.464844 2.695312,6.625 2.554688,6.949219 2.453125,7.203125 2.402344,7.488281 2.402344,7.804688 Z m 0,0"
     style="fill:#c7f559;fill-opacity:1;fill-rule:nonzero;stroke:none" />
  <path
     inkscape:connector-curvature="0"
     id="path6"
     d="m 6.832031,1.902344 c 0.253907,0 0.453125,0.125 0.601563,0.375 0.046875,0.101562 0.070312,0.203125 0.070312,0.308594 v 0.6875 c 1.15625,0 1.980469,0.351562 2.46875,1.054687 0.242188,0.371094 0.363282,0.789063 0.363282,1.253906 v 0.0625 c 0,0.53125 -0.179688,1.003907 -0.535157,1.425781 -0.226562,0.226563 -0.402343,0.375 -0.53125,0.445313 C 8.601562,7.914062 7.789062,8.113281 6.84375,8.113281 H 6.832031 c -0.28125,0 -0.492187,-0.136719 -0.628906,-0.417969 C 6.164062,7.597656 6.144531,7.523438 6.144531,7.472656 6.15625,4.847656 6.164062,3.203125 6.164062,2.546875 c 0,-0.15625 0.066407,-0.308594 0.199219,-0.453125 0.140625,-0.128906 0.296875,-0.191406 0.46875,-0.191406 z m 0.664063,2.71875 c -0.00391,0.660156 -0.00391,1.171875 -0.00391,1.53125 v 0.574218 c 0.09375,0 0.3125,-0.050781 0.652343,-0.152343 C 8.53125,6.4375 8.785156,6.257812 8.898438,6.042969 8.964844,5.929688 9,5.78125 9,5.597656 9,5.1875 8.828125,4.914062 8.488281,4.78125 8.226562,4.671875 7.90625,4.613281 7.53125,4.613281 Z m 0,0"
     style="fill:#45ccc5;fill-opacity:1;fill-rule:nonzero;stroke:none" />
  <path
     inkscape:connector-curvature="0"
     id="path8"
     d="m 12.886719,4.847656 h 0.04687 c 0.554687,0 1.113281,0.1875 1.667968,0.554688 0.207032,0.15625 0.3125,0.34375 0.3125,0.570312 0,0.246094 -0.125,0.441406 -0.375,0.59375 -0.105468,0.046875 -0.210937,0.066406 -0.304687,0.066406 -0.15625,0 -0.316406,-0.058593 -0.476563,-0.183593 C 13.46875,6.273438 13.183594,6.1875 12.910156,6.1875 c -0.351562,0 -0.664062,0.144531 -0.941406,0.433594 -0.183594,0.21875 -0.277344,0.460937 -0.277344,0.726562 V 7.375 c 0,0.371094 0.160156,0.671875 0.476563,0.894531 0.246093,0.132813 0.5,0.199219 0.761719,0.199219 0.28125,0 0.550781,-0.09375 0.808593,-0.273438 0.109375,-0.0625 0.226563,-0.09375 0.34375,-0.09375 0.230469,0 0.421875,0.109376 0.574219,0.335938 0.05859,0.109375 0.08984,0.21875 0.08984,0.332031 0,0.316407 -0.210938,0.566407 -0.636719,0.757813 -0.375,0.1875 -0.761719,0.28125 -1.15625,0.28125 h -0.07031 c -0.488281,0 -0.976562,-0.140625 -1.460937,-0.425782 C 11.3125,9.3125 11.152344,9.175781 10.941406,8.964844 10.808594,8.796875 10.703125,8.644531 10.628906,8.507812 10.441406,8.121094 10.347656,7.765625 10.347656,7.441406 V 7.277344 c 0,-0.359375 0.109375,-0.734375 0.320313,-1.132813 0.07813,-0.152343 0.226562,-0.335937 0.441406,-0.558593 0.226563,-0.207032 0.433594,-0.355469 0.613281,-0.4375 0.378906,-0.199219 0.765625,-0.300782 1.164063,-0.300782 z m 0,0"
     style="fill:#ff6866;fill-opacity:1;fill-rule:nonzero;stroke:none" />
  <g
     inkscape:groupmode="layer"
     id="layer1"
     inkscape:label="Layer 1" />
</svg>
