<?xml version="1.0" encoding="UTF-8"?>
<svg xmlns="http://www.w3.org/2000/svg" xmlns:xlink="http://www.w3.org/1999/xlink" width="16px" height="16px" viewBox="0 0 16 16" version="1.1">
<g id="surface1">
<path style=" stroke:none;fill-rule:evenodd;fill:rgb(100%,41.568628%,40.000001%);fill-opacity:1;" d="M 3 1 L 13 1 C 13.550781 1 14 1.449219 14 2 L 14 14 C 14 14.550781 13.550781 15 13 15 L 3 15 C 2.449219 15 2 14.550781 2 14 L 2 2 C 2 1.449219 2.449219 1 3 1 Z M 3 1 "/>
<path style=" stroke:none;fill-rule:nonzero;fill:rgb(100%,100%,100%);fill-opacity:1;" d="M 11.402344 8.21875 C 10.921875 8.273438 10.355469 8.386719 9.742188 8.554688 C 9.4375 8.425781 9.113281 8.28125 8.847656 8.089844 C 8.171875 7.601562 7.566406 6.878906 7.140625 6.035156 C 7.152344 5.949219 7.164062 5.863281 7.171875 5.777344 C 7.207031 5.375 7.109375 4.0625 7.109375 4.0625 C 7.109375 4.0625 6.980469 5.074219 6.960938 5.226562 C 6.949219 5.324219 6.929688 5.425781 6.90625 5.535156 C 6.632812 4.886719 6.453125 4.246094 6.390625 3.753906 C 6.375 3.613281 6.351562 3.339844 6.363281 3.121094 C 6.363281 2.964844 6.410156 2.878906 6.460938 2.832031 C 6.578125 2.847656 6.730469 3.003906 6.898438 3.28125 C 7.042969 3.519531 7.074219 3.8125 7.097656 3.996094 C 7.097656 3.996094 7.164062 3.53125 7.101562 3.269531 C 7.0625 3.113281 6.863281 2.722656 6.539062 2.765625 L 6.515625 2.769531 L 6.371094 2.785156 C 6.136719 2.816406 5.929688 2.957031 5.902344 3.152344 C 5.796875 3.90625 6.15625 5.007812 6.699219 6.363281 L 6.625 6.648438 C 6.425781 7.375 6.160156 8.101562 5.925781 8.75 C 4.960938 11.417969 4.132812 12.894531 3.480469 13.074219 L 3.476562 13.046875 C 3.421875 12.734375 3.898438 11.855469 4.597656 11.117188 C 4.671875 11.039062 4.976562 10.660156 4.976562 10.660156 C 4.976562 10.660156 4.539062 10.96875 4.441406 11.042969 C 3.535156 11.753906 3.121094 12.398438 3.089844 12.800781 C 3.082031 12.917969 3.113281 13.058594 3.222656 13.101562 L 3.488281 13.199219 C 4.214844 13.453125 4.941406 12.453125 5.808594 10.355469 C 6.898438 9.84375 8.269531 9.316406 9.53125 8.964844 C 10.769531 9.480469 12.128906 9.628906 12.621094 9.429688 C 12.714844 9.390625 12.808594 9.304688 12.851562 9.226562 C 12.882812 9.15625 12.90625 8.890625 12.90625 8.890625 C 12.90625 8.890625 12.828125 9.035156 12.753906 9.082031 C 12.453125 9.273438 11.40625 9.148438 10.300781 8.769531 C 11.1875 8.558594 11.9375 8.460938 12.355469 8.539062 C 12.886719 8.640625 12.90625 8.804688 12.902344 8.839844 C 12.90625 8.8125 12.917969 8.699219 12.90625 8.648438 C 12.878906 8.527344 12.828125 8.425781 12.726562 8.347656 C 12.515625 8.183594 12.035156 8.148438 11.402344 8.21875 Z M 5.882812 10.105469 C 6.03125 9.738281 6.195312 9.335938 6.359375 8.90625 C 6.671875 8.070312 6.847656 7.4375 6.988281 6.839844 C 7.40625 7.46875 7.945312 8.046875 8.609375 8.484375 C 8.757812 8.578125 8.914062 8.667969 9.074219 8.753906 C 8.007812 9.09375 6.894531 9.523438 5.882812 10.105469 Z M 5.882812 10.105469 "/>
</g>
</svg>
