<?xml version="1.0" encoding="UTF-8" standalone="no"?>
<svg
   xmlns:dc="http://purl.org/dc/elements/1.1/"
   xmlns:cc="http://creativecommons.org/ns#"
   xmlns:rdf="http://www.w3.org/1999/02/22-rdf-syntax-ns#"
   xmlns:svg="http://www.w3.org/2000/svg"
   xmlns="http://www.w3.org/2000/svg"
   xmlns:sodipodi="http://sodipodi.sourceforge.net/DTD/sodipodi-0.dtd"
   xmlns:inkscape="http://www.inkscape.org/namespaces/inkscape"
   width="16px"
   height="16px"
   viewBox="0 0 16 16"
   version="1.1"
   id="svg15"
   sodipodi:docname="sc_formatpaintbrush.svg"
   inkscape:version="0.92.4 (5da689c313, 2019-01-14)">
  <metadata
     id="metadata21">
    <rdf:RDF>
      <cc:Work
         rdf:about="">
        <dc:format>image/svg+xml</dc:format>
        <dc:type
           rdf:resource="http://purl.org/dc/dcmitype/StillImage" />
      </cc:Work>
    </rdf:RDF>
  </metadata>
  <defs
     id="defs19" />
  <sodipodi:namedview
     pagecolor="#ffffff"
     bordercolor="#666666"
     borderopacity="1"
     objecttolerance="10"
     gridtolerance="10"
     guidetolerance="10"
     inkscape:pageopacity="0"
     inkscape:pageshadow="2"
     inkscape:window-width="640"
     inkscape:window-height="480"
     id="namedview17"
     showgrid="false"
     inkscape:zoom="35.5"
     inkscape:cx="10.414403"
     inkscape:cy="10.150386"
     inkscape:current-layer="svg15" />
  <path
     inkscape:connector-curvature="0"
     id="path2"
     d="m 12.769531,1.417969 -3.710937,4.359375 1.164062,1.164062 4.359375,-3.710937 -0.0039,-0.00391 c 0.01563,-0.011718 0.03125,-0.027343 0.04687,-0.042968 0.5,-0.5 0.5,-1.308594 0,-1.808594 -0.5,-0.5 -1.308594,-0.5 -1.808594,0 -0.01563,0.015625 -0.03125,0.03125 -0.04297,0.046875 z m 1.289063,0.523437 c 0.207031,0.203125 0.207031,0.535156 0,0.738282 -0.203125,0.207031 -0.535156,0.207031 -0.738282,0 -0.207031,-0.203126 -0.207031,-0.535157 0,-0.738282 0.203126,-0.207031 0.535157,-0.207031 0.738282,0 z m 0,0"
     style="fill:#546170;fill-opacity:1;fill-rule:nonzero;stroke:none" />
  <path
     inkscape:connector-curvature="0"
     id="path4"
     d="M 6.328125,4.3125 11.6875,9.671875 7.402344,14.738281 c -0.261719,0.308594 -0.710938,0.351563 -0.96875,0.08984 L 1.171875,9.566406 C 0.910156,9.308594 0.953125,8.859375 1.261719,8.597656 Z m 0,0"
     style="fill:#ff6866;fill-opacity:1;fill-rule:nonzero;stroke:none" />
  <path
     inkscape:connector-curvature="0"
     id="path6"
     d="M 1.21875,8.632812 C 1.214844,8.640625 1.207031,8.648438 1.199219,8.65625 1.195312,8.660156 1.191406,8.664062 1.191406,8.664062 1.183594,8.671875 1.175781,8.679688 1.171875,8.6875 1.167969,8.691406 1.164062,8.695312 1.164062,8.699219 1.152344,8.707031 1.144531,8.71875 1.136719,8.730469 1.128906,8.742188 1.121094,8.753906 1.113281,8.765625 c 0,0.00391 -0.00391,0.00391 -0.00391,0.00781 -0.00781,0.00781 -0.011719,0.019531 -0.015625,0.027343 -0.00391,0.00391 -0.00391,0.00781 -0.00781,0.00781 C 1.082026,8.820306 1.078126,8.828119 1.074217,8.835932 1.070307,8.839842 1.070307,8.843742 1.070307,8.84765 0.95312,9.089838 0.98437,9.3789 1.17187,9.5664 l 0.90625,0.910156 C 1.820312,10.214844 1.863281,9.765625 2.171875,9.503906 l 3.625,-3.0625 C 6.175781,6.117188 6.742188,6.140625 7.09375,6.496094 L 11.039062,10.4375 11.6875,9.671875 6.328125,4.3125 1.261719,8.597656 C 1.25,8.605469 1.242188,8.613281 1.230469,8.625 1.226562,8.628906 1.222656,8.632812 1.21875,8.632812 Z m 0,0"
     style="fill:#c54c54;fill-opacity:1;fill-rule:nonzero;stroke:none" />
  <path
     inkscape:connector-curvature="0"
     id="path8"
     d="m 7.027344,3.296875 5.675781,5.675781 c 0.160156,0.160156 0.160156,0.417969 0,0.574219 L 12.0625,10.191406 c -0.160156,0.160156 -0.417969,0.160156 -0.578125,0 L 5.808594,4.515625 C 5.648438,4.355469 5.648438,4.097656 5.808594,3.9375 L 6.453125,3.296875 c 0.15625,-0.160156 0.414063,-0.160156 0.574219,0 z m 0,0"
     style="fill:#546170;fill-opacity:1;fill-rule:nonzero;stroke:none" />
  <path
     inkscape:connector-curvature="0"
     id="path10"
     d="m 6.417969,3.90625 5.675781,5.675781 c 0.160156,0.160157 0.160156,0.414063 0,0.574219 l 0.609375,-0.609375 c 0.160156,-0.15625 0.160156,-0.414063 0,-0.574219 L 7.027344,3.296875 c -0.160156,-0.160156 -0.417969,-0.160156 -0.574219,0 L 5.84375,3.90625 c 0.160156,-0.160156 0.414062,-0.160156 0.574219,0 z m 0,0"
     style="fill:#546170;fill-opacity:1;fill-rule:nonzero;stroke:none" />
  <path
     inkscape:connector-curvature="0"
     id="path12"
     d="m 8.625,12.253906 c 0.230469,-0.234375 0.230469,-0.609375 0,-0.84375 -0.234375,-0.230468 -0.609375,-0.230468 -0.84375,0 l -0.585938,0.585938 c -0.234374,0.234375 -0.609374,0.234375 -0.84375,0 -0.230468,-0.230469 -0.230468,-0.605469 0,-0.839844 l 0.167969,-0.167969 c 0.195313,-0.195312 0.226563,-0.492187 0.089844,-0.722656 -0.023437,-0.04297 -0.054687,-0.08203 -0.089844,-0.117187 -0.234375,-0.234376 -0.609375,-0.234376 -0.84375,0 l -0.589843,0.585937 c -0.230469,0.230469 -0.605469,0.230469 -0.839844,0 C 4.015625,10.5 4.015625,10.125 4.246094,9.890625 L 4.414062,9.726562 c 0.230469,-0.234374 0.230469,-0.609374 0,-0.84375 -0.234374,-0.230468 -0.613281,-0.230468 -0.84375,0 l -1.542968,1.542969 4.199218,4.195313 z m 0,0"
     style="fill:#c7f559;fill-opacity:1;fill-rule:nonzero;stroke:none" />
</svg>
