<?xml version="1.0" encoding="UTF-8"?>
<svg xmlns="http://www.w3.org/2000/svg" xmlns:xlink="http://www.w3.org/1999/xlink" width="16px" height="16px" viewBox="0 0 16 16" version="1.1">
<g id="surface1">
<path style=" stroke:none;fill-rule:nonzero;fill:rgb(77.64706%,30.19608%,33.725491%);fill-opacity:1;" d="M 5.222656 4.34375 L 13.179688 4.34375 C 14.09375 4.34375 14.835938 5.085938 14.835938 6 L 14.835938 13.34375 C 14.835938 14.257812 14.09375 15 13.179688 15 L 5.222656 15 C 4.304688 15 3.5625 14.257812 3.5625 13.34375 L 3.5625 6 C 3.5625 5.085938 4.304688 4.34375 5.222656 4.34375 Z M 5.222656 4.34375 "/>
<path style=" stroke:none;fill-rule:nonzero;fill:rgb(77.64706%,30.19608%,33.725491%);fill-opacity:1;" d="M 14 14.988281 L 14.207031 14.988281 C 14.554688 14.988281 14.835938 14.707031 14.835938 14.363281 L 14.835938 12.691406 L 14 12.691406 Z M 14 14.988281 "/>
<path style=" stroke:none;fill-rule:nonzero;fill:rgb(86.666667%,91.764706%,98.431373%);fill-opacity:1;" d="M 12.125 4.863281 L 12.125 10.257812 C 12.125 10.703125 11.765625 11.066406 11.316406 11.066406 L 4.683594 11.066406 C 4.300781 11.066406 3.980469 10.800781 3.898438 10.445312 L 3.894531 9.984375 L 3.875 7.234375 L 3.875 1.808594 C 3.875 1.363281 4.234375 1 4.683594 1 L 8.261719 1 C 8.582031 1 9.625 1.886719 10.546875 2.824219 C 11.386719 3.675781 12.125 4.570312 12.125 4.863281 Z M 12.125 4.863281 "/>
<path style=" stroke:none;fill-rule:nonzero;fill:rgb(79.607844%,88.627452%,100%);fill-opacity:1;" d="M 12.125 4.863281 L 12.125 6.839844 C 12.125 6.839844 12.125 6.835938 12.125 6.832031 C 12.0625 4.410156 10.089844 4.296875 9.441406 3.648438 L 10.546875 2.824219 C 11.386719 3.675781 12.125 4.570312 12.125 4.863281 Z M 12.125 4.863281 "/>
<path style=" stroke:none;fill-rule:nonzero;fill:rgb(79.607844%,88.627452%,100%);fill-opacity:1;" d="M 8.261719 1 L 6.285156 1 C 6.289062 1 6.289062 1 6.292969 1 C 8.714844 1.0625 8.828125 3.035156 9.476562 3.683594 L 10.300781 2.578125 C 9.449219 1.738281 8.554688 1 8.261719 1 Z M 8.261719 1 "/>
<path style=" stroke:none;fill-rule:nonzero;fill:rgb(27.843139%,80.392158%,77.64706%);fill-opacity:1;" d="M 12.125 4.863281 L 12.125 5.207031 C 12.125 4.488281 11.542969 3.902344 10.824219 3.902344 L 10.03125 3.902344 C 9.582031 3.902344 9.222656 3.542969 9.222656 3.09375 L 9.222656 2.300781 C 9.222656 1.582031 8.640625 1 7.917969 1 L 8.261719 1 C 8.875 1 9.464844 1.246094 9.902344 1.679688 L 11.445312 3.222656 C 11.878906 3.660156 12.125 4.25 12.125 4.863281 Z M 12.125 4.863281 "/>
<path style=" stroke:none;fill-rule:nonzero;fill:rgb(100%,41.568628%,40.000001%);fill-opacity:1;" d="M 11.90625 7.363281 L 5.902344 7.363281 C 5.738281 7.363281 5.578125 7.296875 5.460938 7.179688 L 4.785156 6.503906 C 4.667969 6.386719 4.507812 6.320312 4.339844 6.320312 L 1.46875 6.320312 C 1.125 6.320312 0.777344 6.605469 0.84375 6.945312 L 2.3125 14.375 C 2.378906 14.714844 2.59375 15 2.9375 15 L 14 15 L 12.53125 7.988281 C 12.460938 7.652344 12.25 7.363281 11.90625 7.363281 Z M 11.90625 7.363281 "/>
</g>
</svg>
