<?xml version="1.0" encoding="UTF-8"?>
<svg xmlns="http://www.w3.org/2000/svg" xmlns:xlink="http://www.w3.org/1999/xlink" width="16px" height="16px" viewBox="0 0 16 16" version="1.1">
<g id="surface1">
<path style=" stroke:none;fill-rule:nonzero;fill:rgb(90.196079%,90.196079%,90.196079%);fill-opacity:1;" d="M 13.113281 1.953125 L 13.113281 4.179688 L 2.886719 4.179688 L 2.886719 1.953125 C 2.886719 1.425781 3.3125 1 3.839844 1 L 12.160156 1 C 12.6875 1 13.113281 1.425781 13.113281 1.953125 Z M 13.113281 1.953125 "/>
<path style=" stroke:none;fill-rule:nonzero;fill:rgb(80.000001%,80.000001%,80.000001%);fill-opacity:1;" d="M 2.886719 3.035156 L 13.113281 3.035156 L 13.113281 4.179688 L 2.886719 4.179688 Z M 2.886719 3.035156 "/>
<path style=" stroke:none;fill-rule:nonzero;fill:rgb(27.843139%,80.392158%,77.64706%);fill-opacity:1;" d="M 13.113281 12.636719 L 13.605469 12.636719 C 14.375 12.636719 15 12.011719 15 11.242188 L 15 5.574219 C 15 4.804688 14.375 4.179688 13.605469 4.179688 L 2.394531 4.179688 C 1.625 4.179688 1 4.804688 1 5.574219 L 1 11.242188 C 1 12.011719 1.625 12.636719 2.394531 12.636719 L 2.886719 12.636719 "/>
<path style=" stroke:none;fill-rule:nonzero;fill:rgb(33.333334%,38.431373%,44.705883%);fill-opacity:1;" d="M 2.3125 11.242188 L 2.3125 5.574219 C 2.3125 4.804688 2.9375 4.179688 3.707031 4.179688 L 2.394531 4.179688 C 1.625 4.179688 1 4.804688 1 5.574219 L 1 11.242188 C 1 12.011719 1.625 12.636719 2.394531 12.636719 L 3.707031 12.636719 C 2.9375 12.636719 2.3125 12.011719 2.3125 11.242188 Z M 2.3125 11.242188 "/>
<path style=" stroke:none;fill-rule:nonzero;fill:rgb(33.333334%,38.431373%,44.705883%);fill-opacity:1;" d="M 13.113281 11.4375 C 13.621094 11.4375 14.027344 11.027344 14.027344 10.523438 L 14.027344 10.40625 C 14.027344 9.902344 13.621094 9.492188 13.113281 9.492188 L 2.886719 9.492188 C 2.378906 9.492188 1.972656 9.902344 1.972656 10.40625 L 1.972656 10.523438 C 1.972656 11.027344 2.378906 11.4375 2.886719 11.4375 "/>
<path style=" stroke:none;fill-rule:nonzero;fill:rgb(90.196079%,90.196079%,90.196079%);fill-opacity:1;" d="M 13.113281 10.40625 L 2.886719 10.40625 L 2.886719 14.046875 C 2.886719 14.574219 3.3125 15 3.839844 15 L 12.160156 15 C 12.6875 15 13.113281 14.574219 13.113281 14.046875 Z M 13.113281 10.40625 "/>
<path style=" stroke:none;fill-rule:nonzero;fill:rgb(80.000001%,80.000001%,80.000001%);fill-opacity:1;" d="M 2.886719 10.40625 L 13.113281 10.40625 L 13.113281 11.550781 L 2.886719 11.550781 Z M 2.886719 10.40625 "/>
<path style=" stroke:none;fill-rule:nonzero;fill:rgb(100%,41.568628%,40.000001%);fill-opacity:1;" d="M 4.113281 6.179688 C 4.113281 6.621094 3.757812 6.980469 3.3125 6.980469 C 2.871094 6.980469 2.515625 6.621094 2.515625 6.179688 C 2.515625 5.738281 2.871094 5.378906 3.3125 5.378906 C 3.757812 5.378906 4.113281 5.738281 4.113281 6.179688 Z M 4.113281 6.179688 "/>
<path style=" stroke:none;fill-rule:nonzero;fill:rgb(78.039217%,96.470588%,35.294119%)F;fill-opacity:1;" d="M 6.472656 6.179688 C 6.472656 6.621094 6.113281 6.980469 5.671875 6.980469 C 5.230469 6.980469 4.871094 6.621094 4.871094 6.179688 C 4.871094 5.738281 5.230469 5.378906 5.671875 5.378906 C 6.113281 5.378906 6.472656 5.738281 6.472656 6.179688 Z M 6.472656 6.179688 "/>
<path style=" stroke:none;fill-rule:nonzero;fill:rgb(100%,41.568628%,40.000001%);fill-opacity:1;" d="M 11.628906 11.9375 L 4.371094 11.9375 C 4.253906 11.9375 4.15625 11.839844 4.15625 11.722656 C 4.15625 11.605469 4.253906 11.507812 4.371094 11.507812 L 11.628906 11.507812 C 11.746094 11.507812 11.84375 11.605469 11.84375 11.722656 C 11.84375 11.839844 11.746094 11.9375 11.628906 11.9375 Z M 11.628906 11.9375 "/>
<path style=" stroke:none;fill-rule:nonzero;fill:rgb(100%,41.568628%,40.000001%);fill-opacity:1;" d="M 11.628906 13.25 L 4.371094 13.25 C 4.253906 13.25 4.15625 13.15625 4.15625 13.035156 C 4.15625 12.917969 4.253906 12.820312 4.371094 12.820312 L 11.628906 12.820312 C 11.746094 12.820312 11.84375 12.917969 11.84375 13.035156 C 11.84375 13.15625 11.746094 13.25 11.628906 13.25 Z M 11.628906 13.25 "/>
<path style=" stroke:none;fill-rule:nonzero;fill:rgb(94.509804%,82.745099%,20%);fill-opacity:1;" d="M 11.726562 8.398438 C 11.375 10.6875 9.230469 12.261719 6.9375 11.910156 C 4.648438 11.558594 3.074219 9.414062 3.425781 7.121094 C 3.777344 4.828125 5.921875 3.257812 8.214844 3.609375 C 10.507812 3.960938 12.078125 6.105469 11.726562 8.398438 Z M 11.726562 8.398438 "/>
<path style=" stroke:none;fill-rule:nonzero;fill:rgb(74.509805%,84.705883%,98.431373%);fill-opacity:1;" d="M 9.710938 9.832031 C 8.566406 11.011719 6.683594 11.039062 5.503906 9.894531 C 5.164062 9.566406 4.921875 9.175781 4.773438 8.757812 C 4.640625 8.386719 4.585938 7.996094 4.605469 7.609375 C 4.625 7.261719 4.699219 6.917969 4.839844 6.59375 C 4.976562 6.265625 5.179688 5.957031 5.441406 5.6875 C 5.480469 5.648438 5.515625 5.613281 5.554688 5.578125 C 6.703125 4.507812 8.507812 4.515625 9.648438 5.625 C 10.828125 6.769531 10.855469 8.652344 9.710938 9.832031 Z M 9.710938 9.832031 "/>
<path style=" stroke:none;fill-rule:nonzero;fill:rgb(91.764706%,69.411767%,30.19608%);fill-opacity:1;" d="M 5.210938 10.859375 C 5.789062 11.417969 6.484375 11.777344 7.21875 11.941406 C 6.285156 11.863281 5.375 11.472656 4.652344 10.773438 C 2.988281 9.15625 2.949219 6.496094 4.566406 4.835938 C 5.621094 3.746094 7.121094 3.355469 8.496094 3.664062 C 7.285156 3.558594 6.039062 3.980469 5.125 4.921875 C 3.511719 6.582031 3.546875 9.242188 5.210938 10.859375 Z M 5.210938 10.859375 "/>
<path style=" stroke:none;fill-rule:nonzero;fill:rgb(100%,100%,100%);fill-opacity:1;" d="M 9.710938 9.832031 C 8.929688 10.636719 7.800781 10.90625 6.789062 10.628906 C 7.601562 10.660156 8.425781 10.359375 9.039062 9.726562 C 10.183594 8.550781 10.15625 6.667969 8.976562 5.523438 C 8.605469 5.160156 8.160156 4.914062 7.691406 4.789062 C 8.398438 4.8125 9.101562 5.09375 9.648438 5.625 C 10.828125 6.769531 10.855469 8.652344 9.710938 9.832031 Z M 9.710938 9.832031 "/>
<path style=" stroke:none;fill-rule:nonzero;fill:rgb(77.64706%,49.019608%,40.000001%);fill-opacity:1;" d="M 14.515625 14.496094 C 13.992188 15.035156 13.148438 15.058594 12.027344 13.972656 C 11.65625 13.609375 11.355469 13.226562 11.136719 12.851562 C 10.695312 12.097656 10.59375 11.386719 10.945312 11.03125 C 11.292969 10.671875 12.003906 10.75 12.769531 11.167969 C 13.148438 11.375 13.542969 11.664062 13.914062 12.027344 C 15.035156 13.113281 15.035156 13.960938 14.515625 14.496094 Z M 14.515625 14.496094 "/>
<path style=" stroke:none;fill-rule:nonzero;fill:rgb(66.666669%,34.901962%,23.921569%);fill-opacity:1;" d="M 14.515625 14.496094 C 13.992188 15.035156 13.148438 15.058594 12.027344 13.972656 C 10.90625 12.882812 10.421875 11.566406 10.945312 11.03125 C 10.738281 11.242188 11.476562 12.296875 12.59375 13.386719 C 13.714844 14.472656 14.304688 14.710938 14.515625 14.496094 Z M 14.515625 14.496094 "/>
<path style=" stroke:none;fill-rule:nonzero;fill:rgb(66.666669%,34.901962%,23.921569%);fill-opacity:1;" d="M 12.769531 11.167969 C 12.765625 11.171875 12.761719 11.175781 12.757812 11.179688 L 11.136719 12.851562 C 10.695312 12.097656 10.59375 11.386719 10.945312 11.03125 C 11.292969 10.671875 12.003906 10.75 12.769531 11.167969 Z M 12.769531 11.167969 "/>
<path style=" stroke:none;fill-rule:nonzero;fill:rgb(77.64706%,49.019608%,40.000001%);fill-opacity:1;" d="M 11.28125 9.660156 L 9.582031 11.40625 C 9.25 11.75 9.257812 12.300781 9.601562 12.636719 C 9.945312 12.96875 10.496094 12.960938 10.828125 12.617188 L 12.527344 10.867188 C 12.863281 10.523438 12.855469 9.976562 12.511719 9.640625 C 12.167969 9.304688 11.617188 9.3125 11.28125 9.660156 Z M 11.28125 9.660156 "/>
<path style=" stroke:none;fill-rule:nonzero;fill:rgb(66.666669%,34.901962%,23.921569%);fill-opacity:1;" d="M 11.015625 12.0625 C 11.238281 12.058594 11.460938 11.96875 11.625 11.796875 L 10.828125 12.617188 C 10.664062 12.789062 10.441406 12.878906 10.21875 12.882812 C 9.996094 12.886719 9.773438 12.804688 9.601562 12.636719 C 9.257812 12.300781 9.25 11.75 9.582031 11.40625 L 10.378906 10.585938 C 10.046875 10.933594 10.054688 11.480469 10.398438 11.816406 C 10.570312 11.984375 10.792969 12.0625 11.015625 12.0625 Z M 11.015625 12.0625 "/>
<path style=" stroke:none;fill-rule:nonzero;fill:rgb(91.764706%,69.411767%,30.19608%);fill-opacity:1;" d="M 7.082031 10.921875 C 6.433594 10.824219 5.828125 10.523438 5.347656 10.054688 C 4.734375 9.460938 4.390625 8.660156 4.375 7.804688 C 4.363281 6.953125 4.683594 6.144531 5.28125 5.53125 C 5.875 4.917969 6.675781 4.570312 7.53125 4.558594 C 8.382812 4.546875 9.191406 4.867188 9.804688 5.464844 C 11.074219 6.691406 11.101562 8.722656 9.871094 9.988281 C 9.277344 10.601562 8.476562 10.949219 7.625 10.960938 C 7.441406 10.960938 7.261719 10.949219 7.082031 10.921875 Z M 8 5.042969 C 7.847656 5.019531 7.691406 5.007812 7.535156 5.011719 C 6.800781 5.023438 6.117188 5.316406 5.605469 5.84375 C 5.09375 6.371094 4.816406 7.066406 4.828125 7.800781 C 4.839844 8.535156 5.136719 9.21875 5.660156 9.730469 C 6.1875 10.242188 6.882812 10.519531 7.617188 10.507812 C 8.351562 10.496094 9.035156 10.199219 9.546875 9.675781 C 10.605469 8.585938 10.578125 6.84375 9.492188 5.789062 C 9.078125 5.386719 8.558594 5.128906 8 5.042969 Z M 8 5.042969 "/>
</g>
</svg>
