<?xml version="1.0" encoding="UTF-8" standalone="no"?>
<svg
   xmlns:dc="http://purl.org/dc/elements/1.1/"
   xmlns:cc="http://creativecommons.org/ns#"
   xmlns:rdf="http://www.w3.org/1999/02/22-rdf-syntax-ns#"
   xmlns:svg="http://www.w3.org/2000/svg"
   xmlns="http://www.w3.org/2000/svg"
   xmlns:sodipodi="http://sodipodi.sourceforge.net/DTD/sodipodi-0.dtd"
   xmlns:inkscape="http://www.inkscape.org/namespaces/inkscape"
   width="16px"
   height="16px"
   viewBox="0 0 16 16"
   version="1.1"
   id="svg25"
   sodipodi:docname="sc_print.svg"
   inkscape:version="0.92.4 (5da689c313, 2019-01-14)">
  <metadata
     id="metadata31">
    <rdf:RDF>
      <cc:Work
         rdf:about="">
        <dc:format>image/svg+xml</dc:format>
        <dc:type
           rdf:resource="http://purl.org/dc/dcmitype/StillImage" />
      </cc:Work>
    </rdf:RDF>
  </metadata>
  <defs
     id="defs29" />
  <sodipodi:namedview
     pagecolor="#ffffff"
     bordercolor="#666666"
     borderopacity="1"
     objecttolerance="10"
     gridtolerance="10"
     guidetolerance="10"
     inkscape:pageopacity="0"
     inkscape:pageshadow="2"
     inkscape:window-width="640"
     inkscape:window-height="480"
     id="namedview27"
     showgrid="false"
     inkscape:zoom="25.102291"
     inkscape:cx="11.962876"
     inkscape:cy="7.4356971"
     inkscape:current-layer="svg25" />
  <path
     inkscape:connector-curvature="0"
     id="path2"
     d="M 13.113281,1.953125 V 4.179688 H 2.886719 V 1.953125 C 2.886719,1.425781 3.3125,1 3.839844,1 h 8.320312 c 0.527344,0 0.953125,0.425781 0.953125,0.953125 z m 0,0"
     style="fill:#e6e6e6;fill-opacity:1;fill-rule:nonzero;stroke:none" />
  <path
     inkscape:connector-curvature="0"
     id="path4"
     d="M 2.886719,3.035156 H 13.113281 V 4.179688 H 2.886719 Z m 0,0"
     style="fill:#cccccc;fill-opacity:1;fill-rule:nonzero;stroke:none" />
  <path
     inkscape:connector-curvature="0"
     id="path6"
     d="m 13.113281,12.636719 h 0.492188 C 14.375,12.636719 15,12.011719 15,11.242188 V 5.574219 C 15,4.804688 14.375,4.179688 13.605469,4.179688 H 2.394531 C 1.625,4.179688 1,4.804688 1,5.574219 v 5.667969 c 0,0.769531 0.625,1.394531 1.394531,1.394531 h 0.492188"
     style="fill:#45ccc5;fill-opacity:1;fill-rule:nonzero;stroke:none" />
  <path
     inkscape:connector-curvature="0"
     id="path8"
     d="M 2.3125,11.242188 V 5.574219 c 0,-0.769531 0.625,-1.394531 1.394531,-1.394531 h -1.3125 C 1.625,4.179688 1,4.804688 1,5.574219 v 5.667969 c 0,0.769531 0.625,1.394531 1.394531,1.394531 h 1.3125 c -0.769531,0 -1.394531,-0.625 -1.394531,-1.394531 z m 0,0"
     style="fill:#546170;fill-opacity:1;fill-rule:nonzero;stroke:none" />
  <path
     inkscape:connector-curvature="0"
     id="path10"
     d="m 13.113281,11.4375 c 0.507813,0 0.914063,-0.410156 0.914063,-0.914062 V 10.40625 c 0,-0.503906 -0.40625,-0.914062 -0.914063,-0.914062 H 2.886719 c -0.507813,0 -0.914063,0.410156 -0.914063,0.914062 v 0.117188 c 0,0.503906 0.40625,0.914062 0.914063,0.914062"
     style="fill:#546170;fill-opacity:1;fill-rule:nonzero;stroke:none" />
  <path
     inkscape:connector-curvature="0"
     id="path12"
     d="M 13.113281,10.40625 H 2.886719 v 3.640625 C 2.886719,14.574219 3.3125,15 3.839844,15 h 8.320312 c 0.527344,0 0.953125,-0.425781 0.953125,-0.953125 z m 0,0"
     style="fill:#e6e6e6;fill-opacity:1;fill-rule:nonzero;stroke:none" />
  <path
     inkscape:connector-curvature="0"
     id="path14"
     d="m 2.886719,10.40625 h 10.226562 v 1.144531 H 2.886719 Z m 0,0"
     style="fill:#cccccc;fill-opacity:1;fill-rule:nonzero;stroke:none" />
  <path
     inkscape:connector-curvature="0"
     id="path16"
     d="m 4.113281,6.179688 c 0,0.441406 -0.355469,0.800781 -0.800781,0.800781 -0.441406,0 -0.796875,-0.359375 -0.796875,-0.800781 0,-0.441407 0.355469,-0.800782 0.796875,-0.800782 0.445312,0 0.800781,0.359375 0.800781,0.800782 z m 0,0"
     style="fill:#ff6866;fill-opacity:1;fill-rule:nonzero;stroke:none" />
  <path
     inkscape:connector-curvature="0"
     id="path18"
     d="m 6.472656,6.179688 c 0,0.441406 -0.359375,0.800781 -0.800781,0.800781 -0.441406,0 -0.800781,-0.359375 -0.800781,-0.800781 0,-0.441407 0.359375,-0.800782 0.800781,-0.800782 0.441406,0 0.800781,0.359375 0.800781,0.800782 z m 0,0"
     style="fill:#c7f559;fill-opacity:1;fill-rule:nonzero;stroke:none" />
  <path
     inkscape:connector-curvature="0"
     id="path20"
     d="M 11.628906,11.9375 H 4.371094 c -0.117188,0 -0.214844,-0.09766 -0.214844,-0.214844 0,-0.117187 0.097656,-0.214844 0.214844,-0.214844 h 7.257812 c 0.117188,0 0.214844,0.09766 0.214844,0.214844 0,0.117188 -0.09766,0.214844 -0.214844,0.214844 z m 0,0"
     style="fill:#ff6866;fill-opacity:1;fill-rule:nonzero;stroke:none" />
  <path
     inkscape:connector-curvature="0"
     id="path22"
     d="M 11.628906,13.25 H 4.371094 c -0.117188,0 -0.214844,-0.09375 -0.214844,-0.214844 0,-0.117187 0.097656,-0.214844 0.214844,-0.214844 h 7.257812 c 0.117188,0 0.214844,0.09766 0.214844,0.214844 0,0.121094 -0.09766,0.214844 -0.214844,0.214844 z m 0,0"
     style="fill:#ff6866;fill-opacity:1;fill-rule:nonzero;stroke:none" />
</svg>
