<?xml version="1.0" encoding="UTF-8"?>
<svg xmlns="http://www.w3.org/2000/svg" xmlns:xlink="http://www.w3.org/1999/xlink" width="16px" height="16px" viewBox="0 0 16 16" version="1.1">
<g id="surface1">
<path style=" stroke:none;fill-rule:nonzero;fill:rgb(100%,41.568628%,40.000001%);fill-opacity:1;" d="M 10.539062 3 C 10.664062 3.003906 10.78125 3.054688 10.871094 3.140625 L 14.203125 6.394531 C 14.222656 6.414062 14.238281 6.4375 14.25 6.460938 C 14.375 6.597656 14.476562 6.769531 14.476562 6.984375 C 14.476562 7.230469 14.359375 7.429688 14.238281 7.578125 C 14.238281 7.578125 14.234375 7.578125 14.234375 7.578125 C 14.226562 7.589844 14.214844 7.601562 14.203125 7.613281 L 14.199219 7.613281 L 10.871094 10.859375 C 10.71875 11.003906 10.496094 11.03125 10.328125 10.960938 C 10.160156 10.886719 10.023438 10.710938 10.023438 10.5 L 10.023438 8.5 L 4.523438 8.527344 C 4.597656 8.527344 4.542969 8.527344 4.53125 8.539062 C 4.523438 8.546875 4.523438 8.601562 4.523438 8.527344 L 4.523438 12.5 C 4.523438 12.773438 4.296875 13 4.023438 13 L 2.023438 13 C 1.75 13 1.523438 12.773438 1.523438 12.5 L 1.523438 8.527344 C 1.523438 8.503906 1.53125 8.480469 1.535156 8.453125 C 1.527344 8.402344 1.523438 8.34375 1.523438 8.273438 L 1.523438 8.269531 C 1.523438 6.761719 2.757812 5.527344 4.265625 5.527344 L 4.269531 5.527344 C 4.339844 5.527344 4.398438 5.535156 4.449219 5.539062 C 4.472656 5.535156 4.496094 5.527344 4.523438 5.527344 L 10.023438 5.5 L 10.023438 3.5 C 10.023438 3.222656 10.257812 2.992188 10.539062 3 Z M 10.539062 3 "/>
</g>
</svg>
