<?xml version="1.0" encoding="UTF-8"?>
<svg xmlns="http://www.w3.org/2000/svg" xmlns:xlink="http://www.w3.org/1999/xlink" width="16px" height="16px" viewBox="0 0 16 16" version="1.1">
<g id="surface1">
<path style=" stroke:none;fill-rule:nonzero;fill:rgb(100%,41.568628%,40.000001%);fill-opacity:1;" d="M 7.183594 2.144531 L 7.394531 2.132812 C 7.496094 2.125 7.601562 2.121094 7.707031 2.121094 C 8.792969 2.121094 10.078125 2.355469 11.554688 2.820312 C 12.222656 3.144531 12.574219 3.632812 12.605469 4.285156 L 12.605469 4.371094 C 12.605469 4.925781 12.328125 5.390625 11.773438 5.765625 C 11.511719 5.890625 11.261719 5.957031 11.023438 5.972656 L 11.003906 5.972656 C 10.796875 5.972656 10.304688 5.859375 9.527344 5.628906 C 8.824219 5.46875 8.203125 5.390625 7.664062 5.390625 C 7.582031 5.390625 7.5 5.394531 7.425781 5.398438 C 6.898438 5.429688 6.5625 5.527344 6.414062 5.703125 C 6.746094 5.925781 7.734375 6.265625 9.371094 6.730469 C 11.570312 7.425781 12.703125 8.507812 12.773438 9.980469 L 12.773438 10.167969 C 12.773438 10.804688 12.550781 11.464844 12.109375 12.144531 C 11.28125 13.242188 10.007812 13.828125 8.289062 13.902344 L 8.089844 13.914062 C 7.953125 13.921875 7.808594 13.921875 7.664062 13.921875 C 6.601562 13.921875 5.394531 13.742188 4.042969 13.382812 C 3.714844 13.238281 3.453125 13.007812 3.25 12.695312 C 3.105469 12.433594 3.027344 12.179688 3.023438 11.9375 L 3.023438 11.851562 C 3.023438 11.347656 3.253906 10.90625 3.71875 10.53125 C 3.996094 10.351562 4.289062 10.253906 4.59375 10.238281 L 4.613281 10.238281 C 4.761719 10.238281 5.175781 10.3125 5.863281 10.457031 C 6.53125 10.589844 7.148438 10.65625 7.714844 10.65625 C 7.839844 10.65625 7.960938 10.652344 8.078125 10.644531 C 8.738281 10.617188 9.179688 10.5 9.402344 10.292969 L 9.402344 10.269531 C 9.132812 10.089844 8.261719 9.789062 6.789062 9.367188 C 4.390625 8.65625 3.152344 7.535156 3.085938 5.992188 L 3.085938 5.796875 C 3.085938 5.03125 3.367188 4.296875 3.925781 3.589844 C 4.710938 2.6875 5.796875 2.207031 7.183594 2.144531 Z M 7.183594 2.144531 "/>
<path style=" stroke:none;fill-rule:nonzero;fill:rgb(100%,100%,100%);fill-opacity:1;" d="M 1.070312 7.5 L 14.929688 7.5 C 14.96875 7.5 15 7.53125 15 7.570312 L 15 9.429688 C 15 9.46875 14.96875 9.5 14.929688 9.5 L 1.070312 9.5 C 1.03125 9.5 1 9.46875 1 9.429688 L 1 7.570312 C 1 7.53125 1.03125 7.5 1.070312 7.5 Z M 1.070312 7.5 "/>
<path style=" stroke:none;fill-rule:nonzero;fill:rgb(33.333334%,38.431373%,44.705883%);fill-opacity:1;" d="M 1.5 8 L 14.5 8 C 14.777344 8 15 8.222656 15 8.5 C 15 8.777344 14.777344 9 14.5 9 L 1.5 9 C 1.222656 9 1 8.777344 1 8.5 C 1 8.222656 1.222656 8 1.5 8 Z M 1.5 8 "/>
</g>
</svg>
