<?xml version="1.0" encoding="UTF-8" standalone="no"?>
<svg
   xmlns:dc="http://purl.org/dc/elements/1.1/"
   xmlns:cc="http://creativecommons.org/ns#"
   xmlns:rdf="http://www.w3.org/1999/02/22-rdf-syntax-ns#"
   xmlns:svg="http://www.w3.org/2000/svg"
   xmlns="http://www.w3.org/2000/svg"
   xmlns:sodipodi="http://sodipodi.sourceforge.net/DTD/sodipodi-0.dtd"
   xmlns:inkscape="http://www.inkscape.org/namespaces/inkscape"
   width="16px"
   height="16px"
   viewBox="0 0 16 16"
   version="1.1"
   id="svg9"
   sodipodi:docname="sc_strikeout.svg"
   inkscape:version="0.92.4 (5da689c313, 2019-01-14)">
  <metadata
     id="metadata15">
    <rdf:RDF>
      <cc:Work
         rdf:about="">
        <dc:format>image/svg+xml</dc:format>
        <dc:type
           rdf:resource="http://purl.org/dc/dcmitype/StillImage" />
      </cc:Work>
    </rdf:RDF>
  </metadata>
  <defs
     id="defs13" />
  <sodipodi:namedview
     pagecolor="#ffffff"
     bordercolor="#666666"
     borderopacity="1"
     objecttolerance="10"
     gridtolerance="10"
     guidetolerance="10"
     inkscape:pageopacity="0"
     inkscape:pageshadow="2"
     inkscape:window-width="640"
     inkscape:window-height="480"
     id="namedview11"
     showgrid="false"
     inkscape:zoom="50.204581"
     inkscape:cx="12.632495"
     inkscape:cy="7.3696807"
     inkscape:current-layer="svg9" />
  <path
     style="fill:#ff6866;fill-opacity:1;fill-rule:nonzero;stroke:none"
     d="M 7.7070312 2.1210938 C 7.6015623 2.1210938 7.4960943 2.1250005 7.3945312 2.1328125 L 7.1835938 2.1445312 C 5.7968747 2.2070313 4.7109382 2.6874998 3.9257812 3.5898438 C 3.3671882 4.2968748 3.0859375 5.03125 3.0859375 5.796875 L 3.0859375 5.9921875 C 3.109965 6.5504758 3.2927327 7.0516194 3.6230469 7.5 L 11.109375 7.5 C 10.630149 7.2068825 10.058689 6.9478611 9.3710938 6.7304688 C 7.7343747 6.2656247 6.7460945 5.925781 6.4140625 5.703125 C 6.5625005 5.527344 6.8984382 5.4296875 7.4257812 5.3984375 C 7.5000002 5.3945305 7.5820315 5.390625 7.6640625 5.390625 C 8.2031255 5.390625 8.8242167 5.4687503 9.5273438 5.6289062 C 10.304688 5.8593753 10.796875 5.9726562 11.003906 5.9726562 L 11.023438 5.9726562 C 11.261719 5.9570313 11.511719 5.890625 11.773438 5.765625 C 12.328125 5.390625 12.605469 4.9257808 12.605469 4.3710938 L 12.605469 4.2851562 C 12.574219 3.6328123 12.222656 3.1445315 11.554688 2.8203125 C 10.078125 2.3554695 8.7929692 2.1210938 7.7070312 2.1210938 z M 7.2207031 9.5 C 8.3829767 9.8439949 9.1659035 10.111907 9.4023438 10.269531 L 9.4023438 10.292969 C 9.1796878 10.5 8.738281 10.617191 8.078125 10.644531 C 7.960938 10.652351 7.8398438 10.65625 7.7148438 10.65625 C 7.1484377 10.65625 6.5312503 10.589844 5.8632812 10.457031 C 5.1757812 10.312501 4.7617192 10.238281 4.6132812 10.238281 L 4.59375 10.238281 C 4.289062 10.253906 3.996094 10.351562 3.71875 10.53125 C 3.253906 10.90625 3.0234375 11.347656 3.0234375 11.851562 L 3.0234375 11.9375 C 3.0273435 12.179688 3.105469 12.433594 3.25 12.695312 C 3.453125 13.007812 3.7148438 13.238293 4.0429688 13.382812 C 5.3945307 13.742189 6.6015625 13.921875 7.6640625 13.921875 C 7.8085945 13.921875 7.9531247 13.921862 8.0898438 13.914062 L 8.2890625 13.902344 C 10.007813 13.828125 11.28125 13.242188 12.109375 12.144531 C 12.550781 11.464844 12.773438 10.804688 12.773438 10.167969 L 12.773438 9.9804688 C 12.765518 9.814606 12.739959 9.655958 12.705078 9.5 L 7.2207031 9.5 z "
     id="path2" />
  <path
     inkscape:connector-curvature="0"
     id="path6"
     d="m 1.5,8 h 13 C 14.777344,8 15,8.222656 15,8.5 15,8.777344 14.777344,9 14.5,9 H 1.5 C 1.222656,9 1,8.777344 1,8.5 1,8.222656 1.222656,8 1.5,8 Z m 0,0"
     style="fill:#546170;fill-opacity:1;fill-rule:nonzero;stroke:none" />
</svg>
