<?xml version="1.0" encoding="UTF-8" standalone="no"?>
<svg
   xmlns:dc="http://purl.org/dc/elements/1.1/"
   xmlns:cc="http://creativecommons.org/ns#"
   xmlns:rdf="http://www.w3.org/1999/02/22-rdf-syntax-ns#"
   xmlns:svg="http://www.w3.org/2000/svg"
   xmlns="http://www.w3.org/2000/svg"
   xmlns:sodipodi="http://sodipodi.sourceforge.net/DTD/sodipodi-0.dtd"
   xmlns:inkscape="http://www.inkscape.org/namespaces/inkscape"
   width="16px"
   height="16px"
   viewBox="0 0 16 16"
   version="1.1"
   id="svg29"
   sodipodi:docname="sc_save.svg"
   inkscape:version="0.92.4 (5da689c313, 2019-01-14)">
  <metadata
     id="metadata35">
    <rdf:RDF>
      <cc:Work
         rdf:about="">
        <dc:format>image/svg+xml</dc:format>
        <dc:type
           rdf:resource="http://purl.org/dc/dcmitype/StillImage" />
      </cc:Work>
    </rdf:RDF>
  </metadata>
  <defs
     id="defs33" />
  <sodipodi:namedview
     pagecolor="#ffffff"
     bordercolor="#666666"
     borderopacity="1"
     objecttolerance="10"
     gridtolerance="10"
     guidetolerance="10"
     inkscape:pageopacity="0"
     inkscape:pageshadow="2"
     inkscape:window-width="640"
     inkscape:window-height="480"
     id="namedview31"
     showgrid="false"
     inkscape:zoom="71"
     inkscape:cx="8"
     inkscape:cy="8"
     inkscape:current-layer="svg29" />
  <path
     inkscape:connector-curvature="0"
     id="path2"
     d="M 2.132812,14.089844 C 1.507812,14.089844 1,13.582031 1,12.957031 V 3.042969 c 0,-0.625 0.507812,-1.132813 1.132812,-1.132813 h 9.621094 c 0.320313,0 0.628906,0.136719 0.84375,0.375 l 2.113282,2.347656 C 14.898438,4.84375 15,5.113281 15,5.390625 v 7.566406 c 0,0.625 -0.507812,1.132813 -1.132812,1.132813 z m 0,0"
     style="fill:#ff6866;fill-opacity:1;fill-rule:nonzero;stroke:none;" />
  <path
     inkscape:connector-curvature="0"
     id="path4"
     d="M 14.710938,4.632812 12.597656,2.285156 c -0.214844,-0.238281 -0.523437,-0.375 -0.84375,-0.375 H 10.84375 c 0.320312,0 0.625,0.136719 0.839844,0.375 l 2.113281,2.347656 c 0.1875,0.210938 0.292969,0.480469 0.292969,0.757813 v 7.566406 c 0,0.625 -0.507813,1.132813 -1.132813,1.132813 h 0.910157 C 14.492188,14.089844 15,13.582031 15,12.957031 V 5.390625 C 15,5.113281 14.898438,4.84375 14.710938,4.632812 Z m 0,0"
     style="fill:#c54c54;fill-opacity:1;fill-rule:nonzero;stroke:none;" />
  <path
     inkscape:connector-curvature="0"
     id="path6"
     d="m 4.734375,6.191406 c -0.554687,0 -1,-0.445312 -1,-0.996094 V 1.910156 h 6.710937 v 3.285156 c 0,0.550782 -0.449218,0.996094 -1,0.996094 z m 0,0"
     style="fill:#45ccc5;fill-opacity:1;fill-rule:nonzero;stroke:none;" />
  <path
     inkscape:connector-curvature="0"
     id="path8"
     d="m 9.519531,1.910156 v 3.285156 c 0,0.550782 -0.449219,0.996094 -1,0.996094 h 0.925781 c 0.550782,0 1,-0.445312 1,-0.996094 V 1.910156 Z m 0,0"
     style="fill:#546170;fill-opacity:1;fill-rule:nonzero;stroke:none;" />
  <path
     inkscape:connector-curvature="0"
     id="path10"
     d="M 2.519531,14.089844 V 9.90625 c 0,-0.726562 0.585938,-1.3125 1.3125,-1.3125 h 8.335938 c 0.726562,0 1.3125,0.585938 1.3125,1.3125 v 4.183594 z m 0,0"
     style="fill:#c7f559;fill-opacity:1;fill-rule:nonzero;stroke:none;" />
  <path
     inkscape:connector-curvature="0"
     id="path12"
     d="M 7.378906,5.074219 V 3.027344 c 0,-0.113282 0.089844,-0.207032 0.203125,-0.207032 h 1.441407 c 0.113281,0 0.207031,0.09375 0.207031,0.207032 v 2.046875 c 0,0.117187 -0.09375,0.207031 -0.207031,0.207031 H 7.582031 c -0.113281,0 -0.203125,-0.089844 -0.203125,-0.207031 z m 0,0"
     style="fill:#c7f559;fill-opacity:1;fill-rule:nonzero;stroke:none;" />
  <path
     inkscape:connector-curvature="0"
     id="path14"
     d="M 4.355469,10.050781 H 8 c 0.125,0 0.226562,-0.101562 0.226562,-0.230469 C 8.226562,9.695312 8.125,9.59375 8,9.59375 H 4.355469 c -0.125,0 -0.226563,0.101562 -0.226563,0.226562 0,0.128907 0.101563,0.230469 0.226563,0.230469 z m 0,0"
     style="fill:#b8b8b8;fill-opacity:1;fill-rule:nonzero;stroke:none;" />
  <path
     inkscape:connector-curvature="0"
     id="path16"
     d="m 8.910156,10.050781 h 0.910156 c 0.128907,0 0.230469,-0.101562 0.230469,-0.230469 0,-0.125 -0.101562,-0.226562 -0.230469,-0.226562 H 8.910156 c -0.125,0 -0.226562,0.101562 -0.226562,0.226562 0,0.128907 0.101562,0.230469 0.226562,0.230469 z m 0,0"
     style="fill:#b8b8b8;fill-opacity:1;fill-rule:nonzero;stroke:none;" />
  <path
     inkscape:connector-curvature="0"
     id="path18"
     d="m 11.644531,9.59375 h -0.910156 c -0.128906,0 -0.230469,0.101562 -0.230469,0.226562 0,0.128907 0.101563,0.230469 0.230469,0.230469 h 0.910156 c 0.125,0 0.226563,-0.101562 0.226563,-0.230469 0,-0.125 -0.101563,-0.226562 -0.226563,-0.226562 z m 0,0"
     style="fill:#b8b8b8;fill-opacity:1;fill-rule:nonzero;stroke:none;" />
  <path
     inkscape:connector-curvature="0"
     id="path20"
     d="m 4.355469,11.265625 h 4.859375 c 0.125,0 0.226562,-0.101563 0.226562,-0.230469 0,-0.125 -0.101562,-0.226562 -0.226562,-0.226562 H 4.355469 c -0.125,0 -0.226563,0.101562 -0.226563,0.226562 0,0.128906 0.101563,0.230469 0.226563,0.230469 z m 0,0"
     style="fill:#b8b8b8;fill-opacity:1;fill-rule:nonzero;stroke:none;" />
  <path
     inkscape:connector-curvature="0"
     id="path22"
     d="m 11.644531,10.808594 h -1.214843 c -0.125,0 -0.226563,0.101562 -0.226563,0.226562 0,0.128906 0.101563,0.230469 0.226563,0.230469 h 1.214843 c 0.125,0 0.226563,-0.101563 0.226563,-0.230469 0,-0.125 -0.101563,-0.226562 -0.226563,-0.226562 z m 0,0"
     style="fill:#b8b8b8;fill-opacity:1;fill-rule:nonzero;stroke:none;" />
  <path
     inkscape:connector-curvature="0"
     id="path24"
     d="M 6.179688,12.023438 H 4.355469 c -0.125,0 -0.226563,0.101562 -0.226563,0.226562 0,0.128906 0.101563,0.230469 0.226563,0.230469 h 1.824219 c 0.125,0 0.226562,-0.101563 0.226562,-0.230469 0,-0.125 -0.101562,-0.226562 -0.226562,-0.226562 z m 0,0"
     style="fill:#b8b8b8;fill-opacity:1;fill-rule:nonzero;stroke:none;" />
  <path
     inkscape:connector-curvature="0"
     id="path26"
     d="m 11.644531,12.023438 h -4.25 c -0.128906,0 -0.230469,0.101562 -0.230469,0.226562 0,0.128906 0.101563,0.230469 0.230469,0.230469 h 4.25 c 0.125,0 0.226563,-0.101563 0.226563,-0.230469 0,-0.125 -0.101563,-0.226562 -0.226563,-0.226562 z m 0,0"
     style="fill:#b8b8b8;fill-opacity:1;fill-rule:nonzero;stroke:none;" />
</svg>
