<?xml version="1.0" encoding="UTF-8"?>
<svg xmlns="http://www.w3.org/2000/svg" xmlns:xlink="http://www.w3.org/1999/xlink" width="16px" height="16px" viewBox="0 0 16 16" version="1.1">
<g id="surface1">
<path style="fill-rule:nonzero;fill:rgb(27.843139%,80.392158%,77.64706%);fill-opacity:1;stroke-width:14.13985;stroke-linecap:butt;stroke-linejoin:miter;stroke:rgb(100%,41.568628%,40.000001%);stroke-opacity:1;stroke-miterlimit:4;" d="M 127.067498 43.51036 C 127.067498 67.305538 107.778842 86.570056 83.999315 86.570056 C 60.219788 86.570056 40.931131 67.305538 40.931131 43.51036 C 40.931131 19.715182 60.219788 0.450665 83.999315 0.450665 C 107.778842 0.450665 127.067498 19.715182 127.067498 43.51036 Z M 127.067498 43.51036 " transform="matrix(0.106118,0,0,0.106048,0.765842,1.702208)"/>
<path style="fill-rule:nonzero;fill:rgb(27.843139%,80.392158%,77.64706%);fill-opacity:1;stroke-width:12.479776;stroke-linecap:butt;stroke-linejoin:miter;stroke:rgb(100%,41.568628%,40.000001%);stroke-opacity:1;stroke-miterlimit:4;" d="M 9.489865 27.98781 L 74.520968 27.98781 C 75.33345 27.98781 76.015935 28.6378 76.015935 29.450289 L 76.015935 94.54685 C 76.015935 95.359339 75.33345 96.009329 74.520968 96.009329 L 9.489865 96.009329 C 8.677382 96.009329 7.994897 95.359339 7.994897 94.54685 L 7.994897 29.450289 C 7.994897 28.6378 8.677382 27.98781 9.489865 27.98781 Z M 9.489865 27.98781 " transform="matrix(0.120195,0,0,0.120194,0.781242,0.788376)"/>
<path style="fill-rule:nonzero;fill:rgb(27.843139%,80.392158%,77.64706%);fill-opacity:1;stroke-width:17.552666;stroke-linecap:butt;stroke-linejoin:miter;stroke:rgb(100%,41.568628%,40.000001%);stroke-opacity:1;stroke-miterlimit:4;" d="M 26.692492 -40.306881 C 24.970418 -40.334042 23.312631 -39.553338 22.214835 -38.203253 L -39.368729 36.609987 C -42.110058 40.057442 -40.192951 45.200569 -35.824801 45.880974 L 57.915418 55.190197 C 62.240899 55.886915 65.741312 51.610608 64.173491 47.509158 L 32.000504 -36.656028 C 31.167599 -38.834924 29.034595 -40.320899 26.692492 -40.306881 Z M 26.692492 -40.306881 " transform="matrix(-0.0304986,0.0798735,-0.0797727,-0.0305324,11.82135,10.57481)"/>
</g>
</svg>
