<?xml version="1.0" encoding="UTF-8"?>
<svg xmlns="http://www.w3.org/2000/svg" xmlns:xlink="http://www.w3.org/1999/xlink" width="16px" height="16px" viewBox="0 0 16 16" version="1.1">
<g id="surface1">
<path style=" stroke:none;fill-rule:nonzero;fill:rgb(100%,41.568628%,40.000001%);fill-opacity:1;" d="M 3.976562 2.042969 C 4.367188 2.042969 4.785156 2.125 5.222656 2.292969 C 5.433594 2.414062 5.542969 2.585938 5.542969 2.808594 L 5.539062 2.863281 C 5.632812 2.960938 5.679688 3.121094 5.679688 3.347656 C 5.683594 3.347656 5.6875 3.425781 5.6875 3.578125 C 5.6875 3.730469 5.6875 3.882812 5.683594 4.039062 C 5.703125 4.925781 5.710938 5.425781 5.710938 5.546875 C 5.710938 5.707031 5.636719 5.851562 5.480469 5.980469 C 5.378906 6.050781 5.269531 6.085938 5.152344 6.085938 C 4.996094 6.085938 4.855469 6.019531 4.734375 5.890625 L 4.726562 5.886719 C 4.390625 6.054688 4.070312 6.136719 3.761719 6.136719 L 3.667969 6.136719 C 3.300781 6.136719 2.960938 6.019531 2.648438 5.785156 C 2.222656 5.425781 2.011719 4.921875 2.011719 4.265625 C 2.011719 3.515625 2.222656 2.933594 2.648438 2.519531 C 3 2.199219 3.441406 2.042969 3.976562 2.042969 Z M 3.121094 4.257812 C 3.121094 4.628906 3.21875 4.867188 3.417969 4.96875 C 3.496094 5.007812 3.59375 5.03125 3.710938 5.03125 L 3.71875 5.03125 C 3.953125 5.03125 4.160156 4.960938 4.335938 4.820312 C 4.371094 4.78125 4.410156 4.710938 4.453125 4.609375 C 4.53125 4.359375 4.570312 4.132812 4.570312 3.929688 C 4.570312 3.835938 4.570312 3.605469 4.5625 3.238281 C 4.347656 3.179688 4.148438 3.152344 3.96875 3.152344 C 3.601562 3.152344 3.363281 3.285156 3.246094 3.550781 C 3.164062 3.757812 3.121094 3.996094 3.121094 4.257812 Z M 3.121094 4.257812 "/>
<path style=" stroke:none;fill-rule:nonzero;fill:rgb(100%,41.568628%,40.000001%);fill-opacity:1;" d="M 6.929688 1.003906 C 7.140625 1.003906 7.304688 1.109375 7.425781 1.316406 C 7.464844 1.398438 7.484375 1.480469 7.484375 1.570312 L 7.484375 2.136719 C 8.441406 2.136719 9.121094 2.429688 9.523438 3.007812 C 9.726562 3.316406 9.824219 3.660156 9.824219 4.042969 L 9.824219 4.097656 C 9.824219 4.535156 9.675781 4.929688 9.378906 5.277344 C 9.195312 5.460938 9.046875 5.585938 8.941406 5.644531 C 8.390625 5.972656 7.722656 6.136719 6.9375 6.136719 L 6.929688 6.136719 C 6.695312 6.136719 6.519531 6.023438 6.40625 5.792969 C 6.375 5.710938 6.363281 5.648438 6.363281 5.609375 C 6.371094 3.4375 6.375 2.082031 6.375 1.539062 C 6.375 1.40625 6.429688 1.28125 6.542969 1.164062 C 6.65625 1.058594 6.785156 1.003906 6.929688 1.003906 Z M 7.476562 3.25 C 7.476562 3.796875 7.472656 4.222656 7.472656 4.515625 L 7.472656 4.992188 C 7.550781 4.992188 7.730469 4.949219 8.015625 4.867188 C 8.335938 4.75 8.542969 4.605469 8.636719 4.425781 C 8.691406 4.332031 8.71875 4.210938 8.71875 4.058594 C 8.71875 3.71875 8.578125 3.496094 8.296875 3.382812 C 8.078125 3.292969 7.816406 3.246094 7.503906 3.246094 Z M 7.476562 3.25 "/>
<path style=" stroke:none;fill-rule:nonzero;fill:rgb(100%,41.568628%,40.000001%);fill-opacity:1;" d="M 12.316406 2.039062 L 12.355469 2.039062 C 12.8125 2.039062 13.273438 2.191406 13.730469 2.496094 C 13.902344 2.625 13.988281 2.78125 13.988281 2.96875 C 13.988281 3.167969 13.886719 3.332031 13.679688 3.457031 C 13.59375 3.496094 13.507812 3.515625 13.425781 3.515625 C 13.296875 3.515625 13.167969 3.464844 13.035156 3.363281 C 12.796875 3.21875 12.5625 3.144531 12.332031 3.144531 C 12.042969 3.144531 11.785156 3.265625 11.554688 3.503906 C 11.402344 3.683594 11.324219 3.882812 11.324219 4.105469 L 11.324219 4.125 C 11.324219 4.433594 11.457031 4.679688 11.722656 4.867188 C 11.925781 4.976562 12.132812 5.03125 12.351562 5.03125 C 12.582031 5.03125 12.804688 4.953125 13.015625 4.804688 C 13.109375 4.75 13.203125 4.726562 13.304688 4.726562 C 13.496094 4.726562 13.652344 4.820312 13.777344 5.003906 C 13.824219 5.09375 13.851562 5.1875 13.851562 5.28125 C 13.851562 5.539062 13.675781 5.746094 13.324219 5.90625 C 13.015625 6.058594 12.695312 6.136719 12.367188 6.136719 L 12.3125 6.136719 C 11.90625 6.136719 11.503906 6.019531 11.105469 5.785156 C 11.011719 5.730469 10.878906 5.613281 10.707031 5.4375 C 10.597656 5.300781 10.511719 5.175781 10.445312 5.0625 C 10.292969 4.742188 10.21875 4.449219 10.21875 4.183594 L 10.21875 4.042969 C 10.21875 3.75 10.304688 3.4375 10.480469 3.109375 C 10.546875 2.984375 10.667969 2.832031 10.847656 2.648438 C 11.035156 2.476562 11.203125 2.355469 11.351562 2.285156 C 11.664062 2.121094 11.984375 2.039062 12.316406 2.039062 Z M 12.316406 2.039062 "/>
<path style=" stroke:none;fill-rule:nonzero;fill:rgb(27.843139%,80.392158%,77.64706%);fill-opacity:1;" d="M 12.84375 4.585938 L 6.503906 10.921875 C 6.332031 11.09375 6.054688 11.09375 5.886719 10.921875 L 3.15625 8.195312 L 1 10.351562 L 5.117188 14.46875 C 5.402344 14.753906 5.789062 14.914062 6.195312 14.914062 C 6.597656 14.914062 6.988281 14.753906 7.273438 14.46875 L 15 6.742188 Z M 12.84375 4.585938 "/>
</g>
</svg>
