<?xml version="1.0" encoding="UTF-8"?>
<svg xmlns="http://www.w3.org/2000/svg" xmlns:xlink="http://www.w3.org/1999/xlink" width="32px" height="32px" viewBox="0 0 32 32" version="1.1">
<g id="surface1">
<path style=" stroke:none;fill-rule:nonzero;fill:rgb(100%,41.568628%,40.000001%);fill-opacity:1;" d="M 7.953125 4.085938 C 8.734375 4.085938 9.570312 4.25 10.445312 4.585938 C 10.867188 4.828125 11.085938 5.171875 11.085938 5.617188 L 11.078125 5.726562 C 11.265625 5.921875 11.359375 6.242188 11.359375 6.695312 C 11.367188 6.695312 11.375 6.851562 11.375 7.15625 C 11.375 7.460938 11.375 7.765625 11.367188 8.078125 C 11.40625 9.851562 11.421875 10.851562 11.421875 11.09375 C 11.421875 11.414062 11.273438 11.703125 10.960938 11.960938 C 10.757812 12.101562 10.539062 12.171875 10.304688 12.171875 C 9.992188 12.171875 9.710938 12.039062 9.46875 11.78125 L 9.453125 11.773438 C 8.78125 12.109375 8.140625 12.273438 7.523438 12.273438 L 7.335938 12.273438 C 6.601562 12.273438 5.921875 12.039062 5.296875 11.570312 C 4.445312 10.851562 4.023438 9.84375 4.023438 8.53125 C 4.023438 7.03125 4.445312 5.867188 5.296875 5.039062 C 6 4.398438 6.882812 4.085938 7.953125 4.085938 Z M 6.242188 8.515625 C 6.242188 9.257812 6.4375 9.734375 6.835938 9.9375 C 6.992188 10.015625 7.1875 10.0625 7.421875 10.0625 L 7.4375 10.0625 C 7.90625 10.0625 8.320312 9.921875 8.671875 9.640625 C 8.742188 9.5625 8.820312 9.421875 8.90625 9.21875 C 9.0625 8.71875 9.140625 8.265625 9.140625 7.859375 C 9.140625 7.671875 9.140625 7.210938 9.125 6.476562 C 8.695312 6.359375 8.296875 6.304688 7.9375 6.304688 C 7.203125 6.304688 6.726562 6.570312 6.492188 7.101562 C 6.328125 7.515625 6.242188 7.992188 6.242188 8.515625 Z M 6.242188 8.515625 "/>
<path style=" stroke:none;fill-rule:nonzero;fill:rgb(100%,41.568628%,40.000001%);fill-opacity:1;" d="M 13.859375 2.007812 C 14.28125 2.007812 14.609375 2.21875 14.851562 2.632812 C 14.929688 2.796875 14.96875 2.960938 14.96875 3.140625 L 14.96875 4.273438 C 16.882812 4.273438 18.242188 4.859375 19.046875 6.015625 C 19.453125 6.632812 19.648438 7.320312 19.648438 8.085938 L 19.648438 8.195312 C 19.648438 9.070312 19.351562 9.859375 18.757812 10.554688 C 18.390625 10.921875 18.09375 11.171875 17.882812 11.289062 C 16.78125 11.945312 15.445312 12.273438 13.875 12.273438 L 13.859375 12.273438 C 13.390625 12.273438 13.039062 12.046875 12.8125 11.585938 C 12.75 11.421875 12.726562 11.296875 12.726562 11.21875 C 12.742188 6.875 12.75 4.164062 12.75 3.078125 C 12.75 2.8125 12.859375 2.5625 13.085938 2.328125 C 13.3125 2.117188 13.570312 2.007812 13.859375 2.007812 Z M 14.953125 6.5 C 14.953125 7.59375 14.945312 8.445312 14.945312 9.03125 L 14.945312 9.984375 C 15.101562 9.984375 15.460938 9.898438 16.03125 9.734375 C 16.671875 9.5 17.085938 9.210938 17.273438 8.851562 C 17.382812 8.664062 17.4375 8.421875 17.4375 8.117188 C 17.4375 7.4375 17.15625 6.992188 16.59375 6.765625 C 16.15625 6.585938 15.632812 6.492188 15.007812 6.492188 Z M 14.953125 6.5 "/>
<path style=" stroke:none;fill-rule:nonzero;fill:rgb(100%,41.568628%,40.000001%);fill-opacity:1;" d="M 24.632812 4.078125 L 24.710938 4.078125 C 25.625 4.078125 26.546875 4.382812 27.460938 4.992188 C 27.804688 5.25 27.976562 5.5625 27.976562 5.9375 C 27.976562 6.335938 27.773438 6.664062 27.359375 6.914062 C 27.1875 6.992188 27.015625 7.03125 26.851562 7.03125 C 26.59375 7.03125 26.335938 6.929688 26.070312 6.726562 C 25.59375 6.4375 25.125 6.289062 24.664062 6.289062 C 24.085938 6.289062 23.570312 6.53125 23.109375 7.007812 C 22.804688 7.367188 22.648438 7.765625 22.648438 8.210938 L 22.648438 8.25 C 22.648438 8.867188 22.914062 9.359375 23.445312 9.734375 C 23.851562 9.953125 24.265625 10.0625 24.703125 10.0625 C 25.164062 10.0625 25.609375 9.90625 26.03125 9.609375 C 26.21875 9.5 26.40625 9.453125 26.609375 9.453125 C 26.992188 9.453125 27.304688 9.640625 27.554688 10.007812 C 27.648438 10.1875 27.703125 10.375 27.703125 10.5625 C 27.703125 11.078125 27.351562 11.492188 26.648438 11.8125 C 26.03125 12.117188 25.390625 12.273438 24.734375 12.273438 L 24.625 12.273438 C 23.8125 12.273438 23.007812 12.039062 22.210938 11.570312 C 22.023438 11.460938 21.757812 11.226562 21.414062 10.875 C 21.195312 10.601562 21.023438 10.351562 20.890625 10.125 C 20.585938 9.484375 20.4375 8.898438 20.4375 8.367188 L 20.4375 8.085938 C 20.4375 7.5 20.609375 6.875 20.960938 6.21875 C 21.09375 5.96875 21.335938 5.664062 21.695312 5.296875 C 22.070312 4.953125 22.40625 4.710938 22.703125 4.570312 C 23.328125 4.242188 23.96875 4.078125 24.632812 4.078125 Z M 24.632812 4.078125 "/>
<path style=" stroke:none;fill-rule:nonzero;fill:rgb(27.843139%,80.392158%,77.64706%);fill-opacity:1;" d="M 25.6875 9.171875 L 13.007812 21.84375 C 12.664062 22.1875 12.109375 22.1875 11.773438 21.84375 L 6.3125 16.390625 L 2 20.703125 L 10.234375 28.9375 C 10.804688 29.507812 11.578125 29.828125 12.390625 29.828125 C 13.195312 29.828125 13.976562 29.507812 14.546875 28.9375 L 30 13.484375 Z M 25.6875 9.171875 "/>
</g>
</svg>
