<?xml version="1.0" encoding="UTF-8"?>
<svg xmlns="http://www.w3.org/2000/svg" xmlns:xlink="http://www.w3.org/1999/xlink" width="32px" height="32px" viewBox="0 0 32 32" version="1.1">
<g id="surface1">
<path style=" stroke:none;fill-rule:nonzero;fill:rgb(100%,41.568628%,40.000001%);fill-opacity:1;" d="M 14.367188 4.289062 L 14.789062 4.265625 C 14.992188 4.25 15.203125 4.242188 15.414062 4.242188 C 17.585938 4.242188 20.15625 4.710938 23.109375 5.640625 C 24.445312 6.289062 25.148438 7.265625 25.210938 8.570312 L 25.210938 8.742188 C 25.210938 9.851562 24.65625 10.78125 23.546875 11.53125 C 23.023438 11.78125 22.523438 11.914062 22.046875 11.945312 L 22.007812 11.945312 C 21.59375 11.945312 20.609375 11.71875 19.054688 11.257812 C 17.648438 10.9375 16.40625 10.78125 15.328125 10.78125 C 15.164062 10.78125 15 10.789062 14.851562 10.796875 C 13.796875 10.859375 13.125 11.054688 12.828125 11.40625 C 13.492188 11.851562 15.46875 12.53125 18.742188 13.460938 C 23.140625 14.851562 25.40625 17.015625 25.546875 19.960938 L 25.546875 20.335938 C 25.546875 21.609375 25.101562 22.929688 24.21875 24.289062 C 22.5625 26.484375 20.015625 27.65625 16.578125 27.804688 L 16.179688 27.828125 C 15.90625 27.84375 15.617188 27.84375 15.328125 27.84375 C 13.203125 27.84375 10.789062 27.484375 8.085938 26.765625 C 7.429688 26.476562 6.90625 26.015625 6.5 25.390625 C 6.210938 24.867188 6.054688 24.359375 6.046875 23.875 L 6.046875 23.703125 C 6.046875 22.695312 6.507812 21.8125 7.4375 21.0625 C 7.992188 20.703125 8.578125 20.507812 9.1875 20.476562 L 9.226562 20.476562 C 9.523438 20.476562 10.351562 20.625 11.726562 20.914062 C 13.0625 21.179688 14.296875 21.3125 15.429688 21.3125 C 15.679688 21.3125 15.921875 21.304688 16.15625 21.289062 C 17.476562 21.234375 18.359375 21 18.804688 20.585938 L 18.804688 20.539062 C 18.265625 20.179688 16.523438 19.578125 13.578125 18.734375 C 8.78125 17.3125 6.304688 15.070312 6.171875 11.984375 L 6.171875 11.59375 C 6.171875 10.0625 6.734375 8.59375 7.851562 7.179688 C 9.421875 5.375 11.59375 4.414062 14.367188 4.289062 Z M 14.367188 4.289062 "/>
<path style=" stroke:none;fill-rule:nonzero;fill:rgb(100%,100%,100%);fill-opacity:1;" d="M 2.140625 15 L 29.859375 15 C 29.9375 15 30 15.0625 30 15.140625 L 30 18.859375 C 30 18.9375 29.9375 19 29.859375 19 L 2.140625 19 C 2.0625 19 2 18.9375 2 18.859375 L 2 15.140625 C 2 15.0625 2.0625 15 2.140625 15 Z M 2.140625 15 "/>
<path style=" stroke:none;fill-rule:nonzero;fill:rgb(33.333334%,38.431373%,44.705883%);fill-opacity:1;" d="M 3 16 L 29 16 C 29.554688 16 30 16.445312 30 17 C 30 17.554688 29.554688 18 29 18 L 3 18 C 2.445312 18 2 17.554688 2 17 C 2 16.445312 2.445312 16 3 16 Z M 3 16 "/>
</g>
</svg>
