<?xml version="1.0" encoding="UTF-8"?>
<svg xmlns="http://www.w3.org/2000/svg" xmlns:xlink="http://www.w3.org/1999/xlink" width="32px" height="32px" viewBox="0 0 32 32" version="1.1">
<g id="surface1">
<path style=" stroke:none;fill-rule:nonzero;fill:rgb(27.843139%,80.392158%,77.64706%);fill-opacity:1;" d="M 10.921875 6 C 10.671875 6.007812 10.4375 6.109375 10.257812 6.28125 L 3.59375 12.789062 C 3.554688 12.828125 3.523438 12.875 3.5 12.921875 C 3.25 13.195312 3.046875 13.539062 3.046875 13.96875 C 3.046875 14.460938 3.28125 14.859375 3.523438 15.15625 C 3.523438 15.15625 3.53125 15.15625 3.53125 15.15625 C 3.546875 15.179688 3.570312 15.203125 3.59375 15.226562 L 3.601562 15.226562 L 10.257812 21.71875 C 10.5625 22.007812 11.007812 22.0625 11.34375 21.921875 C 11.679688 21.773438 11.953125 21.421875 11.953125 21 L 11.953125 17 L 22.953125 17.054688 C 22.804688 17.054688 22.914062 17.054688 22.9375 17.078125 C 22.953125 17.09375 22.953125 17.203125 22.953125 17.054688 L 22.953125 25 C 22.953125 25.546875 23.40625 26 23.953125 26 L 27.953125 26 C 28.5 26 28.953125 25.546875 28.953125 25 L 28.953125 17.054688 C 28.953125 17.007812 28.9375 16.960938 28.929688 16.90625 C 28.945312 16.804688 28.953125 16.6875 28.953125 16.546875 L 28.953125 16.539062 C 28.953125 13.523438 26.484375 11.054688 23.46875 11.054688 L 23.460938 11.054688 C 23.320312 11.054688 23.203125 11.070312 23.101562 11.078125 C 23.054688 11.070312 23.007812 11.054688 22.953125 11.054688 L 11.953125 11 L 11.953125 7 C 11.953125 6.445312 11.484375 5.984375 10.921875 6 Z M 10.921875 6 "/>
</g>
</svg>
