<?xml version="1.0" encoding="UTF-8" standalone="no"?>
<svg
   xmlns:dc="http://purl.org/dc/elements/1.1/"
   xmlns:cc="http://creativecommons.org/ns#"
   xmlns:rdf="http://www.w3.org/1999/02/22-rdf-syntax-ns#"
   xmlns:svg="http://www.w3.org/2000/svg"
   xmlns="http://www.w3.org/2000/svg"
   xmlns:sodipodi="http://sodipodi.sourceforge.net/DTD/sodipodi-0.dtd"
   xmlns:inkscape="http://www.inkscape.org/namespaces/inkscape"
   viewBox="0 0 32 32"
   version="1.1"
   id="svg8"
   sodipodi:docname="lx03255.svg"
   inkscape:version="0.92.4 (unknown)">
  <metadata
     id="metadata14">
    <rdf:RDF>
      <cc:Work
         rdf:about="">
        <dc:format>image/svg+xml</dc:format>
        <dc:type
           rdf:resource="http://purl.org/dc/dcmitype/StillImage" />
      </cc:Work>
    </rdf:RDF>
  </metadata>
  <defs
     id="defs12" />
  <sodipodi:namedview
     pagecolor="#ffffff"
     bordercolor="#666666"
     borderopacity="1"
     objecttolerance="10"
     gridtolerance="10"
     guidetolerance="10"
     inkscape:pageopacity="0"
     inkscape:pageshadow="2"
     inkscape:window-width="1366"
     inkscape:window-height="707"
     id="namedview10"
     showgrid="true"
     inkscape:zoom="7.375"
     inkscape:cx="-22.372881"
     inkscape:cy="16"
     inkscape:window-x="0"
     inkscape:window-y="0"
     inkscape:window-maximized="1"
     inkscape:current-layer="g6">
    <inkscape:grid
       type="xygrid"
       id="grid910" />
  </sodipodi:namedview>
  <g
     id="g6"
     style="fill:#555753"
     transform="translate(-7.7288138,-1.4915254)">
    <g
       transform="translate(7.7288141,1.4915254)"
       id="g994">
      <path
         style="fill:#ddeafb;stroke-width:0.99999994"
         inkscape:connector-curvature="0"
         id="path2-3"
         d="M 25.627051,30 H 8.0203007 C 6.2809648,30 4.870957,28.589992 4.870957,26.850656 V 5.1493437 C 4.870957,3.4100078 6.2809648,2 8.0203007,2 H 25.627051 c 1.739336,0 3.149343,1.4100078 3.149343,3.1493437 V 26.850602 C 28.776449,28.589992 27.366387,30 25.627051,30 Z" />
      <path
         style="fill:#bed8fb;stroke-width:0.99999994"
         inkscape:connector-curvature="0"
         id="path4-3"
         d="M 9.9682148,30 H 8.0200273 C 6.2808554,30 4.8707382,28.589828 4.8707382,26.850711 V 5.1492891 C 4.8707382,3.4101719 6.2809101,2 8.0200273,2 H 9.9682148 C 8.2290429,2 6.8189257,3.4101172 6.8189257,5.1492891 V 26.850711 C 6.8189257,28.589828 8.2290429,30 9.9682148,30 Z" />
      <g
         transform="matrix(0.0546875,0,0,0.0546875,2.0000273,2)"
         style="fill:#c7f65a;stroke-width:18.2857132"
         id="g36">
        <g
           style="fill:#c7f65a;stroke-width:18.2857132"
           id="g10">
          <path
             style="fill:#c7f65a;stroke-width:18.2857132"
             inkscape:connector-curvature="0"
             id="path6"
             d="M 95.001,105.954 H 42.929 c -11.352,0 -20.555,-9.203 -20.555,-20.555 0,-11.352 9.203,-20.555 20.555,-20.555 h 52.072 c 11.352,0 20.555,9.203 20.555,20.555 0,11.352 -9.203,20.555 -20.555,20.555 z" />
          <path
             style="fill:#c7f65a;stroke-width:18.2857132"
             inkscape:connector-curvature="0"
             id="path8"
             d="m 114.619,91.542 c -0.999,3.214 -2.761,6.078 -5.079,8.396 -3.719,3.719 -8.86,6.016 -14.536,6.016 H 42.929 c -11.353,0 -20.552,-9.199 -20.552,-20.552 0,-5.677 2.297,-10.817 6.016,-14.536 3.719,-3.729 8.86,-6.027 14.536,-6.027 h 1.267 c -0.608,1.937 -0.937,4.008 -0.937,6.15 0,11.342 9.2,20.552 20.552,20.552 h 50.808 z" />
        </g>
        <g
           style="fill:#c7f65a;stroke-width:18.2857132"
           id="g16">
          <path
             style="fill:#c7f65a;stroke-width:18.2857132"
             inkscape:connector-curvature="0"
             id="path12"
             d="M 95.001,447.161 H 42.929 c -11.352,0 -20.555,-9.203 -20.555,-20.555 0,-11.352 9.203,-20.555 20.555,-20.555 h 52.072 c 11.352,0 20.555,9.203 20.555,20.555 0,11.352 -9.203,20.555 -20.555,20.555 z" />
          <path
             style="fill:#c7f65a;stroke-width:18.2857132"
             inkscape:connector-curvature="0"
             id="path14"
             d="m 114.619,432.749 c -0.999,3.214 -2.761,6.078 -5.079,8.396 -3.719,3.719 -8.86,6.016 -14.536,6.016 H 42.929 c -11.353,0 -20.552,-9.199 -20.552,-20.552 0,-5.677 2.297,-10.817 6.016,-14.536 3.719,-3.729 8.86,-6.027 14.536,-6.027 h 1.267 c -0.608,1.937 -0.937,4.008 -0.937,6.15 0,11.342 9.2,20.552 20.552,20.552 h 50.808 z" />
        </g>
        <g
           style="fill:#c7f65a;stroke-width:18.2857132"
           id="g22">
          <path
             style="fill:#c7f65a;stroke-width:18.2857132"
             inkscape:connector-curvature="0"
             id="path18"
             d="M 95.001,361.859 H 42.929 c -11.352,0 -20.555,-9.203 -20.555,-20.555 0,-11.352 9.203,-20.555 20.555,-20.555 h 52.072 c 11.352,0 20.555,9.203 20.555,20.555 0,11.352 -9.203,20.555 -20.555,20.555 z" />
          <path
             style="fill:#c7f65a;stroke-width:18.2857132"
             inkscape:connector-curvature="0"
             id="path20"
             d="m 114.619,347.447 c -0.999,3.214 -2.761,6.078 -5.079,8.396 -3.719,3.719 -8.86,6.016 -14.536,6.016 H 42.929 c -11.353,0 -20.552,-9.199 -20.552,-20.552 0,-5.677 2.297,-10.817 6.016,-14.536 3.719,-3.729 8.86,-6.027 14.536,-6.027 h 1.267 c -0.608,1.937 -0.937,4.008 -0.937,6.15 0,11.342 9.2,20.552 20.552,20.552 h 50.808 z" />
        </g>
        <g
           style="fill:#c7f65a;stroke-width:18.2857132"
           id="g28">
          <path
             style="fill:#c7f65a;stroke-width:18.2857132"
             inkscape:connector-curvature="0"
             id="path24"
             d="M 95.001,276.557 H 42.929 c -11.352,0 -20.555,-9.203 -20.555,-20.555 0,-11.352 9.203,-20.555 20.555,-20.555 h 52.072 c 11.352,0 20.555,9.203 20.555,20.555 0,11.353 -9.203,20.555 -20.555,20.555 z" />
          <path
             style="fill:#c7f65a;stroke-width:18.2857132"
             inkscape:connector-curvature="0"
             id="path26"
             d="m 114.619,262.145 c -0.999,3.214 -2.761,6.078 -5.079,8.396 -3.719,3.719 -8.86,6.016 -14.536,6.016 H 42.929 c -11.353,0 -20.552,-9.199 -20.552,-20.552 0,-5.677 2.297,-10.817 6.016,-14.536 3.719,-3.729 8.86,-6.027 14.536,-6.027 h 1.267 c -0.608,1.937 -0.937,4.008 -0.937,6.15 0,11.342 9.2,20.552 20.552,20.552 h 50.808 z" />
        </g>
        <g
           style="fill:#c7f65a;stroke-width:18.2857132"
           id="g34">
          <path
             style="fill:#c7f65a;stroke-width:18.2857132"
             inkscape:connector-curvature="0"
             id="path30"
             d="M 95.001,191.255 H 42.929 c -11.352,0 -20.555,-9.203 -20.555,-20.555 0,-11.352 9.203,-20.555 20.555,-20.555 h 52.072 c 11.352,0 20.555,9.203 20.555,20.555 0,11.353 -9.203,20.555 -20.555,20.555 z" />
          <path
             style="fill:#c7f65a;stroke-width:18.2857132"
             inkscape:connector-curvature="0"
             id="path32"
             d="m 114.619,176.843 c -0.999,3.214 -2.761,6.078 -5.079,8.396 -3.719,3.719 -8.86,6.016 -14.536,6.016 H 42.929 c -11.353,0 -20.552,-9.199 -20.552,-20.552 0,-5.677 2.297,-10.817 6.016,-14.536 3.719,-3.729 8.86,-6.027 14.536,-6.027 h 1.267 c -0.608,1.937 -0.937,4.008 -0.937,6.15 0,11.342 9.2,20.552 20.552,20.552 h 50.808 z" />
        </g>
      </g>
    </g>
    <g
       id="g908"
       transform="translate(9.7151418,-0.5084746)">
      <path
         inkscape:connector-curvature="0"
         id="path827"
         d="m 16.013672,12 h 7 v 4 l -1.484375,-1 -0.515625,1 h -1 l -1,-1 -1,-0.515625 -1,0.515625 -1,1 z" />
      <g
         id="g844">
        <path
           d="m 16.013672,11 c -0.51141,0 -1,0.5 -1,1 v 5 c 0,0.55008 0.48244,1 1,1 h 7 c 0.52344,0 1,-0.45725 1,-1 v -5 c 0,-0.5303 -0.48068,-1 -1,-1 z"
           id="path831"
           inkscape:connector-curvature="0"
           style="fill:#ff6a66" />
        <path
           d="m 9.0136719,12 a 1.0001,1.0001 0 1 0 0,2 h 3.0000001 a 1.0001,1.0001 0 1 0 0,-2 z"
           id="path829"
           inkscape:connector-curvature="0"
           style="fill:#ff6a66" />
        <path
           d="m 9.0136719,16 a 1.0001,1.0001 0 1 0 0,2 h 3.0000001 a 1.0001,1.0001 0 1 0 0,-2 z"
           id="path825"
           inkscape:connector-curvature="0"
           style="fill:#ff6a66" />
        <path
           d="m 9.0136719,20 a 1.0001,1.0001 0 1 0 0,2 H 23.013672 a 1.0001,1.0001 0 1 0 0,-2 z"
           id="path823"
           inkscape:connector-curvature="0"
           style="fill:#ff6a66" />
        <path
           d="m 9.0136719,24 a 1.0001,1.0001 0 1 0 0,2 H 19.013672 a 1.0001,1.0001 0 1 0 0,-2 z"
           id="path2"
           inkscape:connector-curvature="0"
           style="fill:#ff6a66" />
      </g>
      <path
         style="opacity:1;fill:#47cdc6"
         inkscape:connector-curvature="0"
         id="path4"
         d="m 16.013672,12 v 5 h 7 v -5 z" />
    </g>
  </g>
</svg>
