<?xml version="1.0" encoding="UTF-8" standalone="no"?>
<svg
   xmlns:dc="http://purl.org/dc/elements/1.1/"
   xmlns:cc="http://creativecommons.org/ns#"
   xmlns:rdf="http://www.w3.org/1999/02/22-rdf-syntax-ns#"
   xmlns:svg="http://www.w3.org/2000/svg"
   xmlns="http://www.w3.org/2000/svg"
   xmlns:sodipodi="http://sodipodi.sourceforge.net/DTD/sodipodi-0.dtd"
   xmlns:inkscape="http://www.inkscape.org/namespaces/inkscape"
   viewBox="0 0 32 32"
   version="1.1"
   id="svg4"
   sodipodi:docname="odf_32_8.svg"
   inkscape:version="0.92.4 (unknown)">
  <metadata
     id="metadata10">
    <rdf:RDF>
      <cc:Work
         rdf:about="">
        <dc:format>image/svg+xml</dc:format>
        <dc:type
           rdf:resource="http://purl.org/dc/dcmitype/StillImage" />
      </cc:Work>
    </rdf:RDF>
  </metadata>
  <defs
     id="defs8" />
  <sodipodi:namedview
     pagecolor="#ffffff"
     bordercolor="#666666"
     borderopacity="1"
     objecttolerance="10"
     gridtolerance="10"
     guidetolerance="10"
     inkscape:pageopacity="0"
     inkscape:pageshadow="2"
     inkscape:window-width="1366"
     inkscape:window-height="707"
     id="namedview6"
     showgrid="true"
     inkscape:zoom="14.75"
     inkscape:cx="0.27118644"
     inkscape:cy="16"
     inkscape:window-x="0"
     inkscape:window-y="0"
     inkscape:window-maximized="1"
     inkscape:current-layer="svg4">
    <inkscape:grid
       type="xygrid"
       id="grid853" />
  </sodipodi:namedview>
  <g
     id="g851"
     transform="translate(51.254213,4.338983)">
    <path
       d="M -23.779893,8.4086209 V 23.41424 c 0,1.24113 -1.005646,2.246776 -2.246175,2.246776 h -18.456283 c -1.06028,0 -1.948731,-0.73467 -2.184816,-1.722816 l -0.009,-1.284498 -0.05239,-7.649617 V -0.09220535 c 0,-1.24113035 1.005646,-2.24677675 2.24623,-2.24677675 h 9.95491 c 0.894631,0 3.792078,2.47039355 6.353198,5.0720914 2.336901,2.3746358 4.39435,4.8585918 4.39435,5.6755116 z"
       id="path2-7"
       inkscape:connector-curvature="0"
       style="fill:#ddeafb;stroke-width:0.99999994" />
    <path
       d="m -23.779893,8.4086209 v 5.4969031 c 0,-0.0062 -5.47e-4,-0.01241 -5.47e-4,-0.01914 -0.169038,-6.7447602 -5.663098,-7.0568611 -7.459688,-8.8535059 l 3.065885,-2.2997142 c 2.336901,2.3745812 4.39435,4.8585372 4.39435,5.675457 z"
       id="path4"
       inkscape:connector-curvature="0"
       style="fill:#cbe2ff;stroke-width:0.99999994" />
    <path
       d="m -34.52777,-2.3389821 h -5.496903 c 0.0062,0 0.01241,5.469e-4 0.01914,5.469e-4 6.74476,0.1690387 7.056861,5.663098 8.853506,7.4596881 l 2.299714,-3.0658845 c -2.374581,-2.33690145 -4.858537,-4.3943505 -5.675457,-4.3943505 z"
       id="path6"
       inkscape:connector-curvature="0"
       style="fill:#cbe2ff;stroke-width:0.99999994" />
    <path
       d="m -23.779893,8.4088949 v 0.950303 c 0,-2.0007933 -1.622465,-3.6232041 -3.623203,-3.6232041 h -2.205215 c -1.240529,0 -2.246612,-1.0060839 -2.246612,-2.2466126 V 1.2842215 c 0,-2.00079275 -1.622466,-3.6232036 -3.623204,-3.6232036 h 0.950303 c 1.711168,0 3.352774,0.6799284 4.562733,1.88983215 l 4.295311,4.29531165 c 1.209959,1.2099585 1.889887,2.8515646 1.889887,4.5627332 z"
       id="path8"
       inkscape:connector-curvature="0"
       style="fill:#47cdc6;stroke-width:0.99999994" />
  </g>
  <path
     d="m 16,13 c -0.984051,0 -1.699353,0.634603 -2.259766,1.365234 -0.560412,0.730631 -1.024167,1.659263 -1.421875,2.708985 -0.362098,0.955734 -0.644244,2.02286 -0.86914,3.099609 L 9.9199219,16.605469 C 9.7620239,16.237783 9.4001559,15.999611 9,16 H 8 c -1.3523227,-0.01913 -1.3523227,2.019125 0,2 h 0.3398438 l 2.7402342,6.394531 c 0.427246,1.001017 1.919908,0.695803 1.919922,-0.392578 0.0049,-1.938651 0.487519,-4.366042 1.189453,-6.21875 0.350967,-0.926354 0.761288,-1.711708 1.136719,-2.201172 C 15.701603,15.092567 15.984051,15 16,15 h 7 c 2,0 2,-2 0,-2 z"
     id="path839"
     style="fill:#ff6a66"
     inkscape:connector-curvature="0"
     sodipodi:nodetypes="sssccccccccsssccs" />
  <path
     style="fill:#ff6a66;stroke:#ff6a66;stroke-width:2;stroke-linecap:round;stroke-linejoin:miter;stroke-miterlimit:4;stroke-dasharray:none;stroke-opacity:1"
     d="m 17,18 5,5"
     id="path855"
     inkscape:connector-curvature="0" />
  <path
     style="fill:#ff6a66;stroke:#ff6a66;stroke-width:2;stroke-linecap:round;stroke-linejoin:miter;stroke-miterlimit:4;stroke-dasharray:none;stroke-opacity:1"
     d="m 22,18 -5,5"
     id="path857"
     inkscape:connector-curvature="0" />
</svg>
