<?xml version="1.0" encoding="UTF-8" standalone="no"?>
<svg
   xmlns:dc="http://purl.org/dc/elements/1.1/"
   xmlns:cc="http://creativecommons.org/ns#"
   xmlns:rdf="http://www.w3.org/1999/02/22-rdf-syntax-ns#"
   xmlns:svg="http://www.w3.org/2000/svg"
   xmlns="http://www.w3.org/2000/svg"
   xmlns:sodipodi="http://sodipodi.sourceforge.net/DTD/sodipodi-0.dtd"
   xmlns:inkscape="http://www.inkscape.org/namespaces/inkscape"
   viewBox="0 0 32 32"
   version="1.1"
   id="svg8"
   sodipodi:docname="ods_32_8.svg"
   inkscape:version="0.92.4 (unknown)">
  <metadata
     id="metadata14">
    <rdf:RDF>
      <cc:Work
         rdf:about="">
        <dc:format>image/svg+xml</dc:format>
        <dc:type
           rdf:resource="http://purl.org/dc/dcmitype/StillImage" />
      </cc:Work>
    </rdf:RDF>
  </metadata>
  <defs
     id="defs12" />
  <sodipodi:namedview
     pagecolor="#ffffff"
     bordercolor="#666666"
     borderopacity="1"
     objecttolerance="10"
     gridtolerance="10"
     guidetolerance="10"
     inkscape:pageopacity="0"
     inkscape:pageshadow="2"
     inkscape:window-width="1366"
     inkscape:window-height="707"
     id="namedview10"
     showgrid="true"
     inkscape:zoom="7.375"
     inkscape:cx="-6.6440678"
     inkscape:cy="16"
     inkscape:window-x="0"
     inkscape:window-y="0"
     inkscape:window-maximized="1"
     inkscape:current-layer="svg8">
    <inkscape:grid
       type="xygrid"
       id="grid865" />
  </sodipodi:namedview>
  <g
     transform="matrix(0.05468739,0,0,0.05468739,4.5254371,2.0000008)"
     id="g10"
     style="fill:#555753;stroke-width:18.28574944">
    <path
       style="fill:#ddeafb;stroke-width:18.28574944"
       inkscape:connector-curvature="0"
       id="path2-7"
       d="m 419.638,196.528 v 274.389 c 0,22.695 -18.389,41.084 -41.073,41.084 H 41.078 C 21.69,512.001 5.444,498.567 1.127,480.498 L 0.962,457.01 0.004,317.131 V 41.084 C 0.004,18.389 18.393,0 41.078,0 h 182.033 c 16.359,0 69.341,45.173 116.173,92.747 42.732,43.422 80.354,88.843 80.354,103.781 z" />
    <path
       style="fill:#cbe2ff;stroke-width:18.28574944"
       inkscape:connector-curvature="0"
       id="path4-3"
       d="m 419.638,196.528 v 100.515 c 0,-0.113 -0.01,-0.227 -0.01,-0.35 C 416.537,173.36 316.074,167.653 283.222,134.8 l 56.062,-42.052 c 42.732,43.421 80.354,88.842 80.354,103.78 z" />
    <path
       style="fill:#cbe2ff;stroke-width:18.28574944"
       inkscape:connector-curvature="0"
       id="path6"
       d="M 223.105,0 H 122.59 c 0.113,0 0.227,0.01 0.35,0.01 123.333,3.091 129.04,103.554 161.893,136.406 L 326.885,80.354 C 283.464,37.622 238.043,0 223.105,0 Z" />
    <path
       style="fill:#47cdc6;stroke-width:18.28574944"
       inkscape:connector-curvature="0"
       id="path8"
       d="m 419.638,196.533 v 17.377 c 0,-36.586 -29.668,-66.253 -66.253,-66.253 h -40.324 c -22.684,0 -41.081,-18.397 -41.081,-41.081 V 66.253 C 271.98,29.667 242.312,0 205.727,0 h 17.377 c 31.29,0 61.308,12.433 83.433,34.557 L 385.08,113.1 c 22.125,22.125 34.558,52.143 34.558,83.433 z" />
  </g>
  <g
     id="g6"
     style="fill:#555753">
    <path
       d="M 9.5,12 C 8.677649,12 8,12.67765 8,13.5 v 1.5 1 2 1 2 1 1.5 C 8,24.32235 8.677649,25 9.5,25 H 15 v -1 h -1 v -2 h 1 v -1 h -1 v -2 h 1 v -1 h -1 v -2 h 4 v 1 h 1 v -1 h 4 v 1 h 1 V 13.5 C 24,12.67765 23.322351,12 22.5,12 Z"
       id="path857"
       inkscape:connector-curvature="0"
       style="fill:#ff6a66" />
    <path
       d="M 9.5,13 H 13 v 2 H 9 V 13.5 C 9,13.21435 9.214351,13 9.5,13 Z"
       id="path855"
       inkscape:connector-curvature="0"
       style="fill:#47cdc6" />
    <path
       d="m 14,13 h 4 v 2 h -4 z"
       id="path853"
       inkscape:connector-curvature="0"
       style="fill:#47cdc6" />
    <path
       d="m 19,13 h 3.5 c 0.285649,0 0.5,0.21435 0.5,0.5 V 15 h -4 z"
       id="path851"
       inkscape:connector-curvature="0"
       style="fill:#47cdc6" />
    <path
       d="m 9,16 h 4 v 2 H 9 Z"
       id="path849"
       inkscape:connector-curvature="0"
       style="fill:#47cdc6" />
    <path
       d="m 17,18 c -0.511405,0 -1,0.5 -1,1 v 7 c 0,0.55008 0.482436,1 1,1 h 7 c 0.523437,0 1,-0.45725 1,-1 v -7 c 0,-0.5303 -0.480675,-1 -1,-1 z"
       id="path847"
       inkscape:connector-curvature="0"
       style="fill:#ff6a66" />
    <path
       d="m 9,19 h 4 v 2 H 9 Z"
       id="path845"
       inkscape:connector-curvature="0"
       style="fill:#47cdc6" />
    <path
       d="m 22,20 v 5 h 1 v -5 z"
       id="path841"
       inkscape:connector-curvature="0"
       style="fill:#47cdc6" />
    <path
       d="m 18,21 v 4 h 1 v -4 z"
       id="path839"
       inkscape:connector-curvature="0"
       style="fill:#47cdc6" />
    <path
       d="m 9,22 h 4 v 2 H 9.5 C 9.214351,24 9,23.78565 9,23.5 Z"
       id="path837"
       inkscape:connector-curvature="0"
       style="fill:#47cdc6" />
    <path
       d="m 20,22 v 3 h 1 v -3 z"
       id="path2"
       inkscape:connector-curvature="0"
       style="fill:#47cdc6" />
  </g>
</svg>
