<?xml version="1.0" encoding="UTF-8" standalone="no"?>
<svg
   xmlns:dc="http://purl.org/dc/elements/1.1/"
   xmlns:cc="http://creativecommons.org/ns#"
   xmlns:rdf="http://www.w3.org/1999/02/22-rdf-syntax-ns#"
   xmlns:svg="http://www.w3.org/2000/svg"
   xmlns="http://www.w3.org/2000/svg"
   xmlns:sodipodi="http://sodipodi.sourceforge.net/DTD/sodipodi-0.dtd"
   xmlns:inkscape="http://www.inkscape.org/namespaces/inkscape"
   viewBox="0 0 16 16"
   version="1.1"
   id="svg6"
   sodipodi:docname="savemodified_small.svg"
   inkscape:version="0.92.4 (unknown)">
  <metadata
     id="metadata12">
    <rdf:RDF>
      <cc:Work
         rdf:about="">
        <dc:format>image/svg+xml</dc:format>
        <dc:type
           rdf:resource="http://purl.org/dc/dcmitype/StillImage" />
      </cc:Work>
    </rdf:RDF>
  </metadata>
  <defs
     id="defs10" />
  <sodipodi:namedview
     pagecolor="#ffffff"
     bordercolor="#666666"
     borderopacity="1"
     objecttolerance="10"
     gridtolerance="10"
     guidetolerance="10"
     inkscape:pageopacity="0"
     inkscape:pageshadow="2"
     inkscape:window-width="1366"
     inkscape:window-height="707"
     id="namedview8"
     showgrid="false"
     inkscape:zoom="14.75"
     inkscape:cx="-3.3220339"
     inkscape:cy="8"
     inkscape:window-x="0"
     inkscape:window-y="0"
     inkscape:window-maximized="1"
     inkscape:current-layer="svg6" />
  <g
     transform="matrix(0.66666667,0,0,0.65669088,-4.0000002e-8,0.11970944)"
     id="g855"
     style="stroke-width:1.51135027">
    <path
       inkscape:connector-curvature="0"
       id="path2"
       d="M 3.199219,21.136719 C 2.261719,21.136719 1.5,20.371094 1.5,19.433594 V 4.566406 c 0,-0.9375 0.761719,-1.703125 1.699219,-1.703125 h 14.429687 c 0.484375,0 0.945313,0.207031 1.265625,0.5625 l 3.171875,3.523438 C 22.347656,7.265625 22.5,7.667969 22.5,8.085938 v 11.347656 c 0,0.9375 -0.761719,1.703125 -1.699219,1.703125 z m 0,0"
       style="fill:#ff6666;fill-opacity:1;fill-rule:nonzero;stroke:none;stroke-width:1.51135027" />
    <path
       inkscape:connector-curvature="0"
       id="path4"
       d="M 22.066406,6.949219 18.894531,3.425781 c -0.320312,-0.355469 -0.78125,-0.5625 -1.265625,-0.5625 h -1.363281 c 0.480469,0 0.9375,0.207031 1.261719,0.5625 l 3.167968,3.523438 c 0.28125,0.316406 0.441407,0.71875 0.441407,1.136719 v 11.347656 c 0,0.9375 -0.765625,1.703125 -1.703125,1.703125 h 1.367187 c 0.9375,0 1.699219,-0.765625 1.699219,-1.703125 V 8.085938 c 0,-0.417969 -0.152344,-0.820313 -0.433594,-1.136719 z m 0,0"
       style="fill:#c54a51;fill-opacity:1;fill-rule:nonzero;stroke:none;stroke-width:1.51135027" />
    <path
       inkscape:connector-curvature="0"
       id="path6"
       d="m 7.101562,9.285156 c -0.832031,0 -1.5,-0.664062 -1.5,-1.492187 V 2.863281 h 10.066407 v 4.929688 c 0,0.828125 -0.671875,1.492187 -1.5,1.492187 z m 0,0"
       style="fill:#45ccc5;fill-opacity:1;fill-rule:nonzero;stroke:none;stroke-width:1.51135027" />
    <path
       inkscape:connector-curvature="0"
       id="path8"
       d="m 14.277344,2.863281 v 4.929688 c 0,0.828125 -0.671875,1.492187 -1.5,1.492187 h 1.390625 c 0.828125,0 1.5,-0.664062 1.5,-1.492187 V 2.863281 Z m 0,0"
       style="fill:#51616e;fill-opacity:1;fill-rule:nonzero;stroke:none;stroke-width:1.51135027" />
    <path
       inkscape:connector-curvature="0"
       id="path10"
       d="m 3.777344,21.136719 v -6.277344 c 0,-1.089844 0.882812,-1.96875 1.96875,-1.96875 h 12.507812 c 1.085938,0 1.96875,0.878906 1.96875,1.96875 v 6.277344 z m 0,0"
       style="fill:#c7f557;fill-opacity:1;fill-rule:nonzero;stroke:none;stroke-width:1.51135027" />
    <path
       inkscape:connector-curvature="0"
       id="path12"
       d="M 11.066406,7.613281 V 4.542969 c 0,-0.171875 0.136719,-0.3125 0.304688,-0.3125 h 2.164062 c 0.171875,0 0.3125,0.140625 0.3125,0.3125 v 3.070312 c 0,0.171875 -0.140625,0.308594 -0.3125,0.308594 h -2.164062 c -0.167969,0 -0.304688,-0.136719 -0.304688,-0.308594 z m 0,0"
       style="fill:#c7f557;fill-opacity:1;fill-rule:nonzero;stroke:none;stroke-width:1.51135027" />
    <path
       inkscape:connector-curvature="0"
       id="path14"
       d="M 6.535156,15.074219 H 12 c 0.1875,0 0.339844,-0.148438 0.339844,-0.34375 0,-0.1875 -0.152344,-0.339844 -0.339844,-0.339844 H 6.535156 c -0.1875,0 -0.34375,0.152344 -0.34375,0.339844 0,0.195312 0.15625,0.34375 0.34375,0.34375 z m 0,0"
       style="fill:#47cdc6;fill-opacity:1;fill-rule:nonzero;stroke:none;stroke-width:1.51135027" />
    <path
       inkscape:connector-curvature="0"
       id="path16"
       d="m 13.363281,15.074219 h 1.367188 c 0.195312,0 0.34375,-0.148438 0.34375,-0.34375 0,-0.1875 -0.148438,-0.339844 -0.34375,-0.339844 h -1.367188 c -0.1875,0 -0.335937,0.152344 -0.335937,0.339844 0,0.195312 0.148437,0.34375 0.335937,0.34375 z m 0,0"
       style="fill:#47cdc6;fill-opacity:1;fill-rule:nonzero;stroke:none;stroke-width:1.51135027" />
    <path
       inkscape:connector-curvature="0"
       id="path18"
       d="m 17.464844,14.390625 h -1.363282 c -0.191406,0 -0.347656,0.152344 -0.347656,0.339844 0,0.195312 0.15625,0.34375 0.347656,0.34375 h 1.363282 c 0.1875,0 0.34375,-0.148438 0.34375,-0.34375 0,-0.1875 -0.15625,-0.339844 -0.34375,-0.339844 z m 0,0"
       style="fill:#47cdc6;fill-opacity:1;fill-rule:nonzero;stroke:none;stroke-width:1.51135027" />
    <path
       inkscape:connector-curvature="0"
       id="path20"
       d="m 6.535156,16.898438 h 7.289063 c 0.1875,0 0.335937,-0.152344 0.335937,-0.347657 0,-0.1875 -0.148437,-0.335937 -0.335937,-0.335937 H 6.535156 c -0.1875,0 -0.34375,0.148437 -0.34375,0.335937 0,0.195313 0.15625,0.347657 0.34375,0.347657 z m 0,0"
       style="fill:#47cdc6;fill-opacity:1;fill-rule:nonzero;stroke:none;stroke-width:1.51135027" />
    <path
       inkscape:connector-curvature="0"
       id="path22"
       d="m 17.464844,16.214844 h -1.820313 c -0.1875,0 -0.339843,0.148437 -0.339843,0.335937 0,0.195313 0.152343,0.347657 0.339843,0.347657 h 1.820313 c 0.1875,0 0.34375,-0.152344 0.34375,-0.347657 0,-0.1875 -0.15625,-0.335937 -0.34375,-0.335937 z m 0,0"
       style="fill:#47cdc6;fill-opacity:1;fill-rule:nonzero;stroke:none;stroke-width:1.51135027" />
    <path
       inkscape:connector-curvature="0"
       id="path24"
       d="M 9.269531,18.035156 H 6.535156 c -0.1875,0 -0.34375,0.152344 -0.34375,0.339844 0,0.191406 0.15625,0.347656 0.34375,0.347656 h 2.734375 c 0.1875,0 0.339844,-0.15625 0.339844,-0.347656 0,-0.1875 -0.152344,-0.339844 -0.339844,-0.339844 z m 0,0"
       style="fill:#47cdc6;fill-opacity:1;fill-rule:nonzero;stroke:none;stroke-width:1.51135027" />
    <path
       inkscape:connector-curvature="0"
       id="path26"
       d="m 17.464844,18.035156 h -6.375 c -0.191406,0 -0.34375,0.152344 -0.34375,0.339844 0,0.191406 0.152344,0.347656 0.34375,0.347656 h 6.375 c 0.1875,0 0.34375,-0.15625 0.34375,-0.347656 0,-0.1875 -0.15625,-0.339844 -0.34375,-0.339844 z m 0,0"
       style="fill:#47cdc6;fill-opacity:1;fill-rule:nonzero;stroke:none;stroke-width:1.51135027" />
  </g>
</svg>
