<?xml version="1.0" encoding="UTF-8" standalone="no"?>
<svg
   xmlns:dc="http://purl.org/dc/elements/1.1/"
   xmlns:cc="http://creativecommons.org/ns#"
   xmlns:rdf="http://www.w3.org/1999/02/22-rdf-syntax-ns#"
   xmlns:svg="http://www.w3.org/2000/svg"
   xmlns="http://www.w3.org/2000/svg"
   xmlns:sodipodi="http://sodipodi.sourceforge.net/DTD/sodipodi-0.dtd"
   xmlns:inkscape="http://www.inkscape.org/namespaces/inkscape"
   viewBox="0 0 16 16"
   version="1.1"
   id="svg4"
   sodipodi:docname="sc10853.svg"
   inkscape:version="0.92.4 (unknown)">
  <metadata
     id="metadata10">
    <rdf:RDF>
      <cc:Work
         rdf:about="">
        <dc:format>image/svg+xml</dc:format>
        <dc:type
           rdf:resource="http://purl.org/dc/dcmitype/StillImage" />
      </cc:Work>
    </rdf:RDF>
  </metadata>
  <defs
     id="defs8" />
  <sodipodi:namedview
     pagecolor="#ffffff"
     bordercolor="#666666"
     borderopacity="1"
     objecttolerance="10"
     gridtolerance="10"
     guidetolerance="10"
     inkscape:pageopacity="0"
     inkscape:pageshadow="2"
     inkscape:window-width="1366"
     inkscape:window-height="707"
     id="namedview6"
     showgrid="false"
     inkscape:zoom="14.75"
     inkscape:cx="0.13559322"
     inkscape:cy="8"
     inkscape:window-x="0"
     inkscape:window-y="0"
     inkscape:window-maximized="1"
     inkscape:current-layer="g892" />
  <g
     transform="translate(-1.3307565,-0.79703428)"
     id="g892">
    <g
       id="g860"
       transform="matrix(0.81341281,0,0,0.82608469,-1.7883847,-2.6144859)"
       style="stroke-width:1.21992242">
      <path
         inkscape:connector-curvature="0"
         id="path18"
         d="m 9.707031,9.269531 c 0,0.664063 -0.539062,1.203125 -1.199219,1.203125 -0.660156,0 -1.199218,-0.539062 -1.199218,-1.203125 0,-0.664062 0.539062,-1.203125 1.199218,-1.203125 0.660157,0 1.199219,0.539063 1.199219,1.203125 z m 0,0"
         style="fill:#000000;fill-opacity:1;fill-rule:nonzero;stroke:none;stroke-width:1.21992242" />
      <path
         inkscape:connector-curvature="0"
         id="path24"
         d="M 17.589844,12.597656 C 17.0625,16.03125 13.847656,18.394531 10.40625,17.863281 6.972656,17.339844 4.613281,14.121094 5.136719,10.683594 c 0.53125,-3.441406 3.746093,-5.796875 7.1875,-5.269532 3.4375,0.527344 5.792969,3.746094 5.265625,7.183594 z m 0,0"
         style="fill:#f0d133;fill-opacity:1;fill-rule:nonzero;stroke:none;stroke-width:1.21992242" />
      <path
         inkscape:connector-curvature="0"
         id="path26"
         d="m 14.566406,14.746094 c -1.71875,1.773437 -4.539062,1.8125 -6.3125,0.09375 C 7.746094,14.347656 7.382812,13.761719 7.160156,13.136719 6.960938,12.582031 6.878906,11.996094 6.910156,11.414062 6.9375,10.894531 7.050781,10.378906 7.261719,9.890625 7.464844,9.398438 7.769531,8.933594 8.160156,8.53125 8.222656,8.472656 8.273438,8.417969 8.332031,8.367188 c 1.722657,-1.605469 4.429688,-1.59375 6.140625,0.070312 1.769532,1.714844 1.8125,4.542969 0.09375,6.308594 z m 0,0"
         style="fill:#bdd7fa;fill-opacity:1;fill-rule:nonzero;stroke:none;stroke-width:1.21992242" />
      <path
         inkscape:connector-curvature="0"
         id="path28"
         d="m 7.816406,16.289062 c 0.867188,0.839844 1.910156,1.378907 3.011719,1.621094 -1.402344,-0.117187 -2.765625,-0.703125 -3.847656,-1.75 -2.5,-2.425781 -2.554688,-6.414062 -0.132813,-8.90625 1.585938,-1.632812 3.835938,-2.21875 5.898438,-1.757812 -1.820313,-0.15625 -3.6875,0.476562 -5.058594,1.886718 -2.417969,2.488282 -2.367188,6.480469 0.128906,8.90625 z m 0,0"
         style="fill:#e8b04c;fill-opacity:1;fill-rule:nonzero;stroke:none;stroke-width:1.21992242" />
      <path
         inkscape:connector-curvature="0"
         id="path30"
         d="m 14.566406,14.746094 c -1.171875,1.210937 -2.867187,1.613281 -4.382812,1.195312 1.21875,0.04687 2.453125,-0.402344 3.375,-1.351562 1.71875,-1.765625 1.675781,-4.585938 -0.09375,-6.304688 -0.554688,-0.546875 -1.226563,-0.914062 -1.929688,-1.101562 1.0625,0.035156 2.117188,0.457031 2.9375,1.253906 1.769532,1.714844 1.8125,4.542969 0.09375,6.308594 z m 0,0"
         style="fill:#ffffff;fill-opacity:1;fill-rule:nonzero;stroke:none;stroke-width:1.21992242" />
      <path
         inkscape:connector-curvature="0"
         id="path32"
         d="m 21.773438,21.746094 c -0.785157,0.804687 -2.050782,0.84375 -3.730469,-0.789063 -0.558594,-0.542969 -1.007813,-1.117187 -1.335938,-1.679687 -0.664062,-1.132813 -0.816406,-2.195313 -0.289062,-2.730469 0.523437,-0.539063 1.585937,-0.421875 2.734375,0.207031 0.570312,0.308594 1.164062,0.742188 1.71875,1.289063 1.679687,1.625 1.679687,2.898437 0.902344,3.703125 z m 0,0"
         style="fill:#ff6a66;fill-opacity:1;fill-rule:nonzero;stroke:none;stroke-width:1.21992242" />
      <path
         inkscape:connector-curvature="0"
         id="path34"
         d="m 21.773438,21.746094 c -0.785157,0.804687 -2.050782,0.84375 -3.730469,-0.789063 -1.683594,-1.632812 -2.410157,-3.609375 -1.625,-4.410156 -0.3125,0.316406 0.796875,1.898437 2.472656,3.535156 1.683594,1.625 2.566406,1.984375 2.882813,1.664063 z m 0,0"
         style="fill:#c64d56;fill-opacity:1;fill-rule:nonzero;stroke:none;stroke-width:1.21992242" />
      <path
         inkscape:connector-curvature="0"
         id="path36"
         d="m 19.152344,16.753906 c -0.0039,0.0039 -0.0078,0.0078 -0.01563,0.01563 l -2.429688,2.507813 c -0.664062,-1.132813 -0.816406,-2.195313 -0.289062,-2.730469 0.523437,-0.539063 1.585937,-0.421875 2.734375,0.207031 z m 0,0"
         style="fill:#a8573a;fill-opacity:1;fill-rule:nonzero;stroke:none;stroke-width:1.21992242" />
      <path
         inkscape:connector-curvature="0"
         id="path38"
         d="m 16.921875,14.488281 -2.550781,2.621094 c -0.496094,0.515625 -0.484375,1.339844 0.03125,1.847656 0.515625,0.496094 1.34375,0.484375 1.839844,-0.03125 l 2.550781,-2.625 c 0.5,-0.515625 0.492187,-1.335937 -0.02344,-1.839843 -0.515625,-0.503907 -1.34375,-0.492188 -1.847656,0.02734 z m 0,0"
         style="fill:#ff6a66;fill-opacity:1;fill-rule:nonzero;stroke:none;stroke-width:1.21992242" />
      <path
         inkscape:connector-curvature="0"
         id="path40"
         d="m 16.523438,18.09375 c 0.332031,-0.0039 0.667968,-0.140625 0.914062,-0.398438 l -1.195312,1.230469 c -0.246094,0.257813 -0.582032,0.390625 -0.914063,0.398438 -0.332031,0.0078 -0.667969,-0.117188 -0.925781,-0.367188 C 13.886719,18.449219 13.875,17.625 14.371094,17.109375 l 1.195312,-1.230469 c -0.496094,0.523438 -0.484375,1.34375 0.03125,1.84375 0.257813,0.253906 0.59375,0.371094 0.925782,0.371094 z m 0,0"
         style="fill:#c64d56;fill-opacity:1;fill-rule:nonzero;stroke:none;stroke-width:1.21992242" />
      <path
         inkscape:connector-curvature="0"
         id="path42"
         d="M 10.621094,16.382812 C 9.652344,16.238281 8.742188,15.785156 8.019531,15.082031 7.101562,14.191406 6.585938,12.988281 6.5625,11.707031 6.542969,10.429688 7.027344,9.214844 7.921875,8.296875 c 0.890625,-0.917969 2.089844,-1.441406 3.375,-1.457031 1.277344,-0.019532 2.488281,0.460937 3.410156,1.359375 1.90625,1.835937 1.945313,4.882812 0.101563,6.78125 -0.890625,0.921875 -2.09375,1.445312 -3.371094,1.460937 -0.277344,0 -0.542969,-0.01563 -0.816406,-0.05859 z M 12,7.566406 C 11.769531,7.527344 11.535156,7.511719 11.300781,7.519531 c -1.101562,0.015625 -2.125,0.453125 -2.890625,1.246094 -0.769531,0.792969 -1.1875,1.832031 -1.167968,2.933594 0.019531,1.101562 0.464843,2.128906 1.246093,2.898437 0.792969,0.765625 1.835938,1.179688 2.9375,1.164063 1.101563,-0.01563 2.125,-0.460938 2.894531,-1.25 1.589844,-1.632813 1.546876,-4.246094 -0.08203,-5.828125 C 13.617188,8.082031 12.839844,7.691406 12,7.566406 Z m 0,0"
         style="fill:#e8b04c;fill-opacity:1;fill-rule:nonzero;stroke:none;stroke-width:1.21992242" />
    </g>
  </g>
</svg>
