<?xml version="1.0" encoding="UTF-8" standalone="no"?>
<svg
   xmlns:dc="http://purl.org/dc/elements/1.1/"
   xmlns:cc="http://creativecommons.org/ns#"
   xmlns:rdf="http://www.w3.org/1999/02/22-rdf-syntax-ns#"
   xmlns:svg="http://www.w3.org/2000/svg"
   xmlns="http://www.w3.org/2000/svg"
   xmlns:sodipodi="http://sodipodi.sourceforge.net/DTD/sodipodi-0.dtd"
   xmlns:inkscape="http://www.inkscape.org/namespaces/inkscape"
   viewBox="0 0 16 16"
   version="1.1"
   id="svg4"
   sodipodi:docname="sx03139.svg"
   inkscape:version="0.92.4 (unknown)">
  <metadata
     id="metadata10">
    <rdf:RDF>
      <cc:Work
         rdf:about="">
        <dc:format>image/svg+xml</dc:format>
        <dc:type
           rdf:resource="http://purl.org/dc/dcmitype/StillImage" />
      </cc:Work>
    </rdf:RDF>
  </metadata>
  <defs
     id="defs8" />
  <sodipodi:namedview
     pagecolor="#ffffff"
     bordercolor="#666666"
     borderopacity="1"
     objecttolerance="10"
     gridtolerance="10"
     guidetolerance="10"
     inkscape:pageopacity="0"
     inkscape:pageshadow="2"
     inkscape:window-width="1366"
     inkscape:window-height="707"
     id="namedview6"
     showgrid="false"
     inkscape:zoom="14.75"
     inkscape:cx="-3.3220339"
     inkscape:cy="8"
     inkscape:window-x="0"
     inkscape:window-y="0"
     inkscape:window-maximized="1"
     inkscape:current-layer="svg4" />
  <g
     transform="matrix(0.03124994,0,0,0.03124994,1.4431063,-2.6497e-7)"
     id="g10"
     style="fill:#555753;stroke-width:32.00006104">
    <path
       style="fill:#ddeafb;stroke-width:32.00006104"
       inkscape:connector-curvature="0"
       id="path2-7"
       d="m 419.638,196.528 v 274.389 c 0,22.695 -18.389,41.084 -41.073,41.084 H 41.078 C 21.69,512.001 5.444,498.567 1.127,480.498 L 0.962,457.01 0.004,317.131 V 41.084 C 0.004,18.389 18.393,0 41.078,0 h 182.033 c 16.359,0 69.341,45.173 116.173,92.747 42.732,43.422 80.354,88.843 80.354,103.781 z" />
    <path
       style="fill:#cbe2ff;stroke-width:32.00006104"
       inkscape:connector-curvature="0"
       id="path4"
       d="m 419.638,196.528 v 100.515 c 0,-0.113 -0.01,-0.227 -0.01,-0.35 C 416.537,173.36 316.074,167.653 283.222,134.8 l 56.062,-42.052 c 42.732,43.421 80.354,88.842 80.354,103.78 z" />
    <path
       style="fill:#cbe2ff;stroke-width:32.00006104"
       inkscape:connector-curvature="0"
       id="path6"
       d="M 223.105,0 H 122.59 c 0.113,0 0.227,0.01 0.35,0.01 123.333,3.091 129.04,103.554 161.893,136.406 L 326.885,80.354 C 283.464,37.622 238.043,0 223.105,0 Z" />
    <path
       style="fill:#47cdc6;stroke-width:32.00006104"
       inkscape:connector-curvature="0"
       id="path8"
       d="m 419.638,196.533 v 17.377 c 0,-36.586 -29.668,-66.253 -66.253,-66.253 h -40.324 c -22.684,0 -41.081,-18.397 -41.081,-41.081 V 66.253 C 271.98,29.667 242.312,0 205.727,0 h 17.377 c 31.29,0 61.308,12.433 83.433,34.557 L 385.08,113.1 c 22.125,22.125 34.558,52.143 34.558,83.433 z" />
  </g>
  <path
     d="m 7.703125,5.7011719 a 3.0338517,3.0338517 0 0 1 0.4980469,0.044922 L 7.625,6.2539062 7.96875,6.5527344 8.0820312,6.3691406 8.1640625,6.6015625 8.390625,6.3867188 8.2460938,6.3027344 8.5664062,6.1367188 8.4472656,6.640625 8.3300781,6.7753906 7.8007812,7.0214844 7.6503906,7.2460938 7.2910156,7.3515625 7.0488281,7.6445312 7.359375,7.8027344 7.5253906,7.4902344 7.8007812,7.5410156 7.9863281,7.3671875 8.2285156,7.5410156 8.3300781,7.8359375 8.1914062,7.9394531 8.5507812,7.8515625 8.5019531,7.6992188 8.7050781,7.8027344 8.4472656,7.4707031 8.4160156,7.2636719 8.9277344,7.2851562 9.0449219,7.9238281 h 0.203125 L 9.0800781,8.3398438 C 8.9311204,8.3315417 8.7565448,8.2993 8.5546875,8.2441406 8.2146654,8.146338 8.0418924,8.0976562 8.0390625,8.0976562 7.9193208,8.080497 7.8013825,8.0627898 7.6816406,8.0429688 7.543737,8.0201973 7.4284218,7.9797716 7.3378906,7.9160156 6.9549705,8.0791543 6.6611434,8.189189 6.4550781,8.25 L 6.3320312,8.8828125 6.515625,9.3183594 7.2246094,9.4882812 7.5429688,9.9472656 C 7.6835,10.490255 7.7709074,11.026126 7.8027344,11.560547 l 0.2753906,0.181641 a 3.0338517,3.0338517 0 0 1 -0.375,0.02734 A 3.0338517,3.0338517 0 0 1 4.6699219,8.734375 3.0338517,3.0338517 0 0 1 7.703125,5.7011719 Z"
     id="path841"
     style="fill:#ff6a66" />
  <path
     d="M 6.7753906,6 6.6914062,6.296875 6.9140625,6.2617188 7.0488281,6.1582031 7,6 Z"
     id="path839"
     style="fill:#ff6a66" />
  <path
     d="M 7.4980469,6.3125 7.4375,6.4707031 l 0.109375,0.203125 0.1035156,0.035156 -0.15625,0.1933594 0.171875,0.015625 0.1816406,-0.1914063 z"
     id="path837"
     style="fill:#ff6a66" />
  <path
     d="M 7.2910156,6.5859375 7.2050781,6.7265625 7.2578125,6.8808594 7.375,6.7441406 Z"
     id="path835"
     style="fill:#ff6a66" />
  <path
     d="m 7.8847656,7.7851562 0.1542969,0.171875 0.017578,-0.171875 z"
     id="path833"
     style="fill:#ff6a66" />
  <path
     d="M 9.1855469,8.4628906 9.484375,9.1484375 10.005859,8.9570312 9.8046875,8.5585938 c 0.3426535,-0.035678 0.5205185,-0.054687 0.5371095,-0.054688 10e-4,0 0.290944,0.031862 0.390625,0.042969 a 3.0338517,3.0338517 0 0 1 0.0059,0.1875 3.0338517,3.0338517 0 0 1 -2.441406,2.972656 L 8.7011719,11.353516 C 8.8014388,10.970713 8.8504702,10.547447 8.8476562,10.078125 9.0218778,9.8597976 9.1968723,9.6446821 9.3710938,9.4335938 9.3555666,9.1399987 9.2621772,8.8362427 9.09375,8.5214844 Z"
     id="path2"
     style="fill:#ff6a66" />
</svg>
