<?xml version="1.0" encoding="UTF-8" standalone="no"?>
<svg
   xmlns:dc="http://purl.org/dc/elements/1.1/"
   xmlns:cc="http://creativecommons.org/ns#"
   xmlns:rdf="http://www.w3.org/1999/02/22-rdf-syntax-ns#"
   xmlns:svg="http://www.w3.org/2000/svg"
   xmlns="http://www.w3.org/2000/svg"
   xmlns:sodipodi="http://sodipodi.sourceforge.net/DTD/sodipodi-0.dtd"
   xmlns:inkscape="http://www.inkscape.org/namespaces/inkscape"
   viewBox="0 0 16 16"
   version="1.1"
   id="svg4"
   sodipodi:docname="sx03253.svg"
   inkscape:version="0.92.4 (unknown)">
  <metadata
     id="metadata10">
    <rdf:RDF>
      <cc:Work
         rdf:about="">
        <dc:format>image/svg+xml</dc:format>
        <dc:type
           rdf:resource="http://purl.org/dc/dcmitype/StillImage" />
      </cc:Work>
    </rdf:RDF>
  </metadata>
  <defs
     id="defs8" />
  <sodipodi:namedview
     pagecolor="#ffffff"
     bordercolor="#666666"
     borderopacity="1"
     objecttolerance="10"
     gridtolerance="10"
     guidetolerance="10"
     inkscape:pageopacity="0"
     inkscape:pageshadow="2"
     inkscape:window-width="1366"
     inkscape:window-height="707"
     id="namedview6"
     showgrid="false"
     inkscape:zoom="14.75"
     inkscape:cx="-3.3220339"
     inkscape:cy="8"
     inkscape:window-x="0"
     inkscape:window-y="0"
     inkscape:window-maximized="1"
     inkscape:current-layer="svg4" />
  <g
     id="g929"
     transform="translate(22.998366,-1.169492)">
    <path
       style="fill:#ddeafb;stroke-width:0.99999994"
       inkscape:connector-curvature="0"
       id="path2-3"
       d="m -10.184841,16.169492 h -8.803375 c -0.869668,0 -1.574672,-0.705004 -1.574672,-1.574672 V 3.7441639 c 0,-0.869668 0.705004,-1.5746719 1.574672,-1.5746719 h 8.803375 c 0.8696685,0 1.574672,0.7050039 1.574672,1.5746719 V 14.594793 c 2.75e-5,0.869695 -0.7050035,1.574699 -1.574672,1.574699 z" />
    <path
       style="fill:#bed8fb;stroke-width:0.99999994"
       inkscape:connector-curvature="0"
       id="path4"
       d="m -18.014259,16.169492 h -0.974093 c -0.869586,0 -1.574645,-0.705086 -1.574645,-1.574644 V 3.7441366 c 0,-0.8695587 0.705086,-1.5746446 1.574645,-1.5746446 h 0.974093 c -0.869586,0 -1.574644,0.7050586 -1.574644,1.5746446 V 14.594848 c 0,0.869558 0.705058,1.574644 1.574644,1.574644 z" />
    <g
       transform="matrix(0.02734375,0,0,0.02734375,-21.998352,2.169492)"
       style="fill:#c7f65a;stroke-width:36.57142639"
       id="g36">
      <g
         style="fill:#c7f65a;stroke-width:36.57142639"
         id="g10">
        <path
           style="fill:#c7f65a;stroke-width:36.57142639"
           inkscape:connector-curvature="0"
           id="path6"
           d="M 95.001,105.954 H 42.929 c -11.352,0 -20.555,-9.203 -20.555,-20.555 0,-11.352 9.203,-20.555 20.555,-20.555 h 52.072 c 11.352,0 20.555,9.203 20.555,20.555 0,11.352 -9.203,20.555 -20.555,20.555 z" />
        <path
           style="fill:#c7f65a;stroke-width:36.57142639"
           inkscape:connector-curvature="0"
           id="path8"
           d="m 114.619,91.542 c -0.999,3.214 -2.761,6.078 -5.079,8.396 -3.719,3.719 -8.86,6.016 -14.536,6.016 H 42.929 c -11.353,0 -20.552,-9.199 -20.552,-20.552 0,-5.677 2.297,-10.817 6.016,-14.536 3.719,-3.729 8.86,-6.027 14.536,-6.027 h 1.267 c -0.608,1.937 -0.937,4.008 -0.937,6.15 0,11.342 9.2,20.552 20.552,20.552 h 50.808 z" />
      </g>
      <g
         style="fill:#c7f65a;stroke-width:36.57142639"
         id="g16">
        <path
           style="fill:#c7f65a;stroke-width:36.57142639"
           inkscape:connector-curvature="0"
           id="path12"
           d="M 95.001,447.161 H 42.929 c -11.352,0 -20.555,-9.203 -20.555,-20.555 0,-11.352 9.203,-20.555 20.555,-20.555 h 52.072 c 11.352,0 20.555,9.203 20.555,20.555 0,11.352 -9.203,20.555 -20.555,20.555 z" />
        <path
           style="fill:#c7f65a;stroke-width:36.57142639"
           inkscape:connector-curvature="0"
           id="path14"
           d="m 114.619,432.749 c -0.999,3.214 -2.761,6.078 -5.079,8.396 -3.719,3.719 -8.86,6.016 -14.536,6.016 H 42.929 c -11.353,0 -20.552,-9.199 -20.552,-20.552 0,-5.677 2.297,-10.817 6.016,-14.536 3.719,-3.729 8.86,-6.027 14.536,-6.027 h 1.267 c -0.608,1.937 -0.937,4.008 -0.937,6.15 0,11.342 9.2,20.552 20.552,20.552 h 50.808 z" />
      </g>
      <g
         style="fill:#c7f65a;stroke-width:36.57142639"
         id="g22">
        <path
           style="fill:#c7f65a;stroke-width:36.57142639"
           inkscape:connector-curvature="0"
           id="path18"
           d="M 95.001,361.859 H 42.929 c -11.352,0 -20.555,-9.203 -20.555,-20.555 0,-11.352 9.203,-20.555 20.555,-20.555 h 52.072 c 11.352,0 20.555,9.203 20.555,20.555 0,11.352 -9.203,20.555 -20.555,20.555 z" />
        <path
           style="fill:#c7f65a;stroke-width:36.57142639"
           inkscape:connector-curvature="0"
           id="path20"
           d="m 114.619,347.447 c -0.999,3.214 -2.761,6.078 -5.079,8.396 -3.719,3.719 -8.86,6.016 -14.536,6.016 H 42.929 c -11.353,0 -20.552,-9.199 -20.552,-20.552 0,-5.677 2.297,-10.817 6.016,-14.536 3.719,-3.729 8.86,-6.027 14.536,-6.027 h 1.267 c -0.608,1.937 -0.937,4.008 -0.937,6.15 0,11.342 9.2,20.552 20.552,20.552 h 50.808 z" />
      </g>
      <g
         style="fill:#c7f65a;stroke-width:36.57142639"
         id="g28">
        <path
           style="fill:#c7f65a;stroke-width:36.57142639"
           inkscape:connector-curvature="0"
           id="path24"
           d="M 95.001,276.557 H 42.929 c -11.352,0 -20.555,-9.203 -20.555,-20.555 0,-11.352 9.203,-20.555 20.555,-20.555 h 52.072 c 11.352,0 20.555,9.203 20.555,20.555 0,11.353 -9.203,20.555 -20.555,20.555 z" />
        <path
           style="fill:#c7f65a;stroke-width:36.57142639"
           inkscape:connector-curvature="0"
           id="path26"
           d="m 114.619,262.145 c -0.999,3.214 -2.761,6.078 -5.079,8.396 -3.719,3.719 -8.86,6.016 -14.536,6.016 H 42.929 c -11.353,0 -20.552,-9.199 -20.552,-20.552 0,-5.677 2.297,-10.817 6.016,-14.536 3.719,-3.729 8.86,-6.027 14.536,-6.027 h 1.267 c -0.608,1.937 -0.937,4.008 -0.937,6.15 0,11.342 9.2,20.552 20.552,20.552 h 50.808 z" />
      </g>
      <g
         style="fill:#c7f65a;stroke-width:36.57142639"
         id="g34">
        <path
           style="fill:#c7f65a;stroke-width:36.57142639"
           inkscape:connector-curvature="0"
           id="path30"
           d="M 95.001,191.255 H 42.929 c -11.352,0 -20.555,-9.203 -20.555,-20.555 0,-11.352 9.203,-20.555 20.555,-20.555 h 52.072 c 11.352,0 20.555,9.203 20.555,20.555 0,11.353 -9.203,20.555 -20.555,20.555 z" />
        <path
           style="fill:#c7f65a;stroke-width:36.57142639"
           inkscape:connector-curvature="0"
           id="path32"
           d="m 114.619,176.843 c -0.999,3.214 -2.761,6.078 -5.079,8.396 -3.719,3.719 -8.86,6.016 -14.536,6.016 H 42.929 c -11.353,0 -20.552,-9.199 -20.552,-20.552 0,-5.677 2.297,-10.817 6.016,-14.536 3.719,-3.729 8.86,-6.027 14.536,-6.027 h 1.267 c -0.608,1.937 -0.937,4.008 -0.937,6.15 0,11.342 9.2,20.552 20.552,20.552 h 50.808 z" />
      </g>
    </g>
  </g>
  <path
     d="m 5,9 h 1 v 1 H 5 Z"
     id="path877"
     style="fill:#ff6a66" />
  <path
     d="m 7,9 h 4 v 1 H 7 Z"
     id="path875"
     style="fill:#ff6a66" />
  <path
     d="m 5,11 h 1 v 1 H 5 Z"
     id="path873"
     style="fill:#ff6a66" />
  <path
     d="m 7,11 h 4 v 1 H 7 Z"
     id="path2"
     style="fill:#ff6a66" />
</svg>
